  0
SECTION
  2
HEADER
  9
$ACADVER
  1
AC1009
  9
$EXTMIN
 10
0.0
 20
0.0
 30
0.0
  9
$EXTMAX
 10
1000.0
 20
1000.0
 30
0.0
  9
$FILLMODE
 70
 0
  9
$SPLFRAME
 70
 1
  0
ENDSEC
  0
SECTION
  2
TABLES
  0
TABLE
  2
LAYER
 70
1
  0
LAYER
  2
0
 70
     0
 62
     7
  6
CONTINUOUS
  0
ENDTAB
  0
ENDSEC
  0
SECTION
  2
ENTITIES
  0
LINE
  8
0
 62
     0
 10
639.212
 20
18712.9
 30
0.0
 11
644.116
 21
18720
 31
0.0
  0
LINE
  8
0
 62
     0
 10
644.116
 20
18720
 30
0.0
 11
649.016
 21
18727.1
 31
0.0
  0
LINE
  8
0
 62
     0
 10
649.016
 20
18727.1
 30
0.0
 11
652.748
 21
18719.3
 31
0.0
  0
LINE
  8
0
 62
     0
 10
652.748
 20
18719.3
 30
0.0
 11
656.481
 21
18711.5
 31
0.0
  0
LINE
  8
0
 62
     0
 10
656.481
 20
18711.5
 30
0.0
 11
629.871
 21
18627.7
 31
0.0
  0
LINE
  8
0
 62
     0
 10
629.871
 20
18627.7
 30
0.0
 11
589.534
 21
18500.4
 31
0.0
  0
LINE
  8
0
 62
     0
 10
589.534
 20
18500.4
 30
0.0
 11
553.526
 21
18386
 31
0.0
  0
LINE
  8
0
 62
     0
 10
553.526
 20
18386
 30
0.0
 11
528.899
 21
18306.8
 31
0.0
  0
LINE
  8
0
 62
     0
 10
528.899
 20
18306.8
 30
0.0
 11
513.288
 21
18256.1
 31
0.0
  0
LINE
  8
0
 62
     0
 10
513.288
 20
18256.1
 30
0.0
 11
498.242
 21
18206.6
 31
0.0
  0
LINE
  8
0
 62
     0
 10
498.242
 20
18206.6
 30
0.0
 11
483.651
 21
18158
 31
0.0
  0
LINE
  8
0
 62
     0
 10
483.651
 20
18158
 30
0.0
 11
469.399
 21
18109.9
 31
0.0
  0
LINE
  8
0
 62
     0
 10
469.399
 20
18109.9
 30
0.0
 11
455.369
 21
18061.7
 31
0.0
  0
LINE
  8
0
 62
     0
 10
455.369
 20
18061.7
 30
0.0
 11
441.452
 21
18013.2
 31
0.0
  0
LINE
  8
0
 62
     0
 10
441.452
 20
18013.2
 30
0.0
 11
427.524
 21
17963.8
 31
0.0
  0
LINE
  8
0
 62
     0
 10
427.524
 20
17963.8
 30
0.0
 11
413.48
 21
17913.2
 31
0.0
  0
LINE
  8
0
 62
     0
 10
413.48
 20
17913.2
 30
0.0
 11
399.2
 21
17860.9
 31
0.0
  0
LINE
  8
0
 62
     0
 10
399.2
 20
17860.9
 30
0.0
 11
384.57
 21
17806.5
 31
0.0
  0
LINE
  8
0
 62
     0
 10
384.57
 20
17806.5
 30
0.0
 11
369.478
 21
17749.5
 31
0.0
  0
LINE
  8
0
 62
     0
 10
369.478
 20
17749.5
 30
0.0
 11
353.804
 21
17689.5
 31
0.0
  0
LINE
  8
0
 62
     0
 10
353.804
 20
17689.5
 30
0.0
 11
337.44
 21
17626.2
 31
0.0
  0
LINE
  8
0
 62
     0
 10
337.44
 20
17626.2
 30
0.0
 11
311.464
 21
17524.4
 31
0.0
  0
LINE
  8
0
 62
     0
 10
311.464
 20
17524.4
 30
0.0
 11
273.206
 21
17372.3
 31
0.0
  0
LINE
  8
0
 62
     0
 10
273.206
 20
17372.3
 30
0.0
 11
230.12
 21
17199
 31
0.0
  0
LINE
  8
0
 62
     0
 10
230.12
 20
17199
 30
0.0
 11
181.289
 21
17001
 31
0.0
  0
LINE
  8
0
 62
     0
 10
181.289
 20
17001
 30
0.0
 11
96.278
 21
16654.5
 31
0.0
  0
LINE
  8
0
 62
     0
 10
96.278
 20
16654.5
 30
0.0
 11
25.3173
 21
16364.6
 31
0.0
  0
LINE
  8
0
 62
     0
 10
25.3173
 20
16364.6
 30
0.0
 11
5.33026
 21
16367.2
 31
0.0
  0
LINE
  8
0
 62
     0
 10
5.33026
 20
16367.2
 30
0.0
 11
11.4432
 21
16663.9
 31
0.0
  0
LINE
  8
0
 62
     0
 10
11.4432
 20
16663.9
 30
0.0
 11
18.5511
 21
17018.5
 31
0.0
  0
LINE
  8
0
 62
     0
 10
18.5511
 20
17018.5
 30
0.0
 11
22.3738
 21
17221.1
 31
0.0
  0
LINE
  8
0
 62
     0
 10
22.3738
 20
17221.1
 30
0.0
 11
25.4014
 21
17398.7
 31
0.0
  0
LINE
  8
0
 62
     0
 10
25.4014
 20
17398.7
 30
0.0
 11
27.6283
 21
17554.6
 31
0.0
  0
LINE
  8
0
 62
     0
 10
27.6283
 20
17554.6
 30
0.0
 11
28.7445
 21
17659
 31
0.0
  0
LINE
  8
0
 62
     0
 10
28.7445
 20
17659
 30
0.0
 11
29.2516
 21
17724
 31
0.0
  0
LINE
  8
0
 62
     0
 10
29.2516
 20
17724
 30
0.0
 11
29.5548
 21
17785.6
 31
0.0
  0
LINE
  8
0
 62
     0
 10
29.5548
 20
17785.6
 30
0.0
 11
29.654
 21
17844.2
 31
0.0
  0
LINE
  8
0
 62
     0
 10
29.654
 20
17844.2
 30
0.0
 11
29.5479
 21
17900.2
 31
0.0
  0
LINE
  8
0
 62
     0
 10
29.5479
 20
17900.2
 30
0.0
 11
29.2365
 21
17954.1
 31
0.0
  0
LINE
  8
0
 62
     0
 10
29.2365
 20
17954.1
 30
0.0
 11
28.7169
 21
18006.4
 31
0.0
  0
LINE
  8
0
 62
     0
 10
28.7169
 20
18006.4
 30
0.0
 11
27.9893
 21
18057.4
 31
0.0
  0
LINE
  8
0
 62
     0
 10
27.9893
 20
18057.4
 30
0.0
 11
27.055
 21
18107.5
 31
0.0
  0
LINE
  8
0
 62
     0
 10
27.055
 20
18107.5
 30
0.0
 11
25.9099
 21
18157.3
 31
0.0
  0
LINE
  8
0
 62
     0
 10
25.9099
 20
18157.3
 30
0.0
 11
24.5553
 21
18207.2
 31
0.0
  0
LINE
  8
0
 62
     0
 10
24.5553
 20
18207.2
 30
0.0
 11
22.9884
 21
18257.6
 31
0.0
  0
LINE
  8
0
 62
     0
 10
22.9884
 20
18257.6
 30
0.0
 11
21.2108
 21
18309
 31
0.0
  0
LINE
  8
0
 62
     0
 10
21.2108
 20
18309
 30
0.0
 11
19.2195
 21
18361.7
 31
0.0
  0
LINE
  8
0
 62
     0
 10
19.2195
 20
18361.7
 30
0.0
 11
15.8571
 21
18444.1
 31
0.0
  0
LINE
  8
0
 62
     0
 10
15.8571
 20
18444.1
 30
0.0
 11
10.5875
 21
18563.2
 31
0.0
  0
LINE
  8
0
 62
     0
 10
10.5875
 20
18563.2
 30
0.0
 11
4.44969
 21
18695.8
 31
0.0
  0
LINE
  8
0
 62
     0
 10
4.44969
 20
18695.8
 30
0.0
 11
0.383096
 21
18782.5
 31
0.0
  0
LINE
  8
0
 62
     0
 10
0.383096
 20
18782.5
 30
0.0
 11
5.6968
 21
18789.4
 31
0.0
  0
LINE
  8
0
 62
     0
 10
5.6968
 20
18789.4
 30
0.0
 11
11.0119
 21
18796.2
 31
0.0
  0
LINE
  8
0
 62
     0
 10
11.0119
 20
18796.2
 30
0.0
 11
17.5411
 21
18780.2
 31
0.0
  0
LINE
  8
0
 62
     0
 10
17.5411
 20
18780.2
 30
0.0
 11
22.8548
 21
18787
 31
0.0
  0
LINE
  8
0
 62
     0
 10
22.8548
 20
18787
 30
0.0
 11
28.1699
 21
18793.8
 31
0.0
  0
LINE
  8
0
 62
     0
 10
28.1699
 20
18793.8
 30
0.0
 11
34.699
 21
18777.8
 31
0.0
  0
LINE
  8
0
 62
     0
 10
34.699
 20
18777.8
 30
0.0
 11
40.0128
 21
18784.6
 31
0.0
  0
LINE
  8
0
 62
     0
 10
40.0128
 20
18784.6
 30
0.0
 11
45.3277
 21
18791.4
 31
0.0
  0
LINE
  8
0
 62
     0
 10
45.3277
 20
18791.4
 30
0.0
 11
51.8569
 21
18775.4
 31
0.0
  0
LINE
  8
0
 62
     0
 10
51.8569
 20
18775.4
 30
0.0
 11
57.1708
 21
18782.2
 31
0.0
  0
LINE
  8
0
 62
     0
 10
57.1708
 20
18782.2
 30
0.0
 11
62.4858
 21
18789.1
 31
0.0
  0
LINE
  8
0
 62
     0
 10
62.4858
 20
18789.1
 30
0.0
 11
69.015
 21
18773
 31
0.0
  0
LINE
  8
0
 62
     0
 10
69.015
 20
18773
 30
0.0
 11
74.3285
 21
18779.9
 31
0.0
  0
LINE
  8
0
 62
     0
 10
74.3285
 20
18779.9
 30
0.0
 11
79.6438
 21
18786.7
 31
0.0
  0
LINE
  8
0
 62
     0
 10
79.6438
 20
18786.7
 30
0.0
 11
86.173
 21
18770.7
 31
0.0
  0
LINE
  8
0
 62
     0
 10
86.173
 20
18770.7
 30
0.0
 11
162.021
 21
18760.2
 31
0.0
  0
LINE
  8
0
 62
     0
 10
162.021
 20
18760.2
 30
0.0
 11
218.043
 21
18752.7
 31
0.0
  0
LINE
  8
0
 62
     0
 10
218.043
 20
18752.7
 30
0.0
 11
251.558
 21
18748.4
 31
0.0
  0
LINE
  8
0
 62
     0
 10
251.558
 20
18748.4
 30
0.0
 11
282.785
 21
18744.6
 31
0.0
  0
LINE
  8
0
 62
     0
 10
282.785
 20
18744.6
 30
0.0
 11
312.641
 21
18741.2
 31
0.0
  0
LINE
  8
0
 62
     0
 10
312.641
 20
18741.2
 30
0.0
 11
342.053
 21
18738
 31
0.0
  0
LINE
  8
0
 62
     0
 10
342.053
 20
18738
 30
0.0
 11
371.948
 21
18735
 31
0.0
  0
LINE
  8
0
 62
     0
 10
371.948
 20
18735
 30
0.0
 11
403.26
 21
18732
 31
0.0
  0
LINE
  8
0
 62
     0
 10
403.26
 20
18732
 30
0.0
 11
436.908
 21
18729
 31
0.0
  0
LINE
  8
0
 62
     0
 10
436.908
 20
18729
 30
0.0
 11
493.229
 21
18724.4
 31
0.0
  0
LINE
  8
0
 62
     0
 10
493.229
 20
18724.4
 30
0.0
 11
552.873
 21
18719.6
 31
0.0
  0
LINE
  8
0
 62
     0
 10
552.873
 20
18719.6
 30
0.0
 11
562.681
 21
18733.9
 31
0.0
  0
LINE
  8
0
 62
     0
 10
562.681
 20
18733.9
 30
0.0
 11
570.142
 21
18718.3
 31
0.0
  0
LINE
  8
0
 62
     0
 10
570.142
 20
18718.3
 30
0.0
 11
579.949
 21
18732.6
 31
0.0
  0
LINE
  8
0
 62
     0
 10
579.949
 20
18732.6
 30
0.0
 11
583.678
 21
18724.7
 31
0.0
  0
LINE
  8
0
 62
     0
 10
583.678
 20
18724.7
 30
0.0
 11
587.41
 21
18716.9
 31
0.0
  0
LINE
  8
0
 62
     0
 10
587.41
 20
18716.9
 30
0.0
 11
592.314
 21
18724.1
 31
0.0
  0
LINE
  8
0
 62
     0
 10
592.314
 20
18724.1
 30
0.0
 11
597.214
 21
18731.2
 31
0.0
  0
LINE
  8
0
 62
     0
 10
597.214
 20
18731.2
 30
0.0
 11
600.946
 21
18723.4
 31
0.0
  0
LINE
  8
0
 62
     0
 10
600.946
 20
18723.4
 30
0.0
 11
604.675
 21
18715.6
 31
0.0
  0
LINE
  8
0
 62
     0
 10
604.675
 20
18715.6
 30
0.0
 11
614.482
 21
18729.9
 31
0.0
  0
LINE
  8
0
 62
     0
 10
614.482
 20
18729.9
 30
0.0
 11
618.211
 21
18722
 31
0.0
  0
LINE
  8
0
 62
     0
 10
618.211
 20
18722
 30
0.0
 11
621.944
 21
18714.2
 31
0.0
  0
LINE
  8
0
 62
     0
 10
621.944
 20
18714.2
 30
0.0
 11
626.847
 21
18721.4
 31
0.0
  0
LINE
  8
0
 62
     0
 10
626.847
 20
18721.4
 30
0.0
 11
631.751
 21
18728.5
 31
0.0
  0
LINE
  8
0
 62
     0
 10
631.751
 20
18728.5
 30
0.0
 11
635.48
 21
18720.7
 31
0.0
  0
LINE
  8
0
 62
     0
 10
635.48
 20
18720.7
 30
0.0
 11
639.212
 21
18712.9
 31
0.0
  0
LINE
  8
0
 62
     0
 10
770.565
 20
9780.34
 30
0.0
 11
773.388
 21
10073.4
 31
0.0
  0
LINE
  8
0
 62
     0
 10
773.388
 20
10073.4
 30
0.0
 11
985.788
 21
10071.4
 31
0.0
  0
LINE
  8
0
 62
     0
 10
985.788
 20
10071.4
 30
0.0
 11
986.956
 21
10060.1
 31
0.0
  0
LINE
  8
0
 62
     0
 10
986.956
 20
10060.1
 30
0.0
 11
998.224
 21
10059.7
 31
0.0
  0
LINE
  8
0
 62
     0
 10
998.224
 20
10059.7
 30
0.0
 11
1007.37
 21
9719.38
 31
0.0
  0
LINE
  8
0
 62
     0
 10
1007.37
 20
9719.38
 30
0.0
 11
996.11
 21
9719.66
 31
0.0
  0
LINE
  8
0
 62
     0
 10
996.11
 20
9719.66
 30
0.0
 11
992.396
 21
9709.04
 31
0.0
  0
LINE
  8
0
 62
     0
 10
992.396
 20
9709.04
 30
0.0
 11
787.054
 21
9775.01
 31
0.0
  0
LINE
  8
0
 62
     0
 10
787.054
 20
9775.01
 30
0.0
 11
774.22
 21
9763.41
 31
0.0
  0
LINE
  8
0
 62
     0
 10
774.22
 20
9763.41
 30
0.0
 11
770.565
 21
9780.34
 31
0.0
  0
LINE
  8
0
 62
     0
 10
392.476
 20
1886.31
 30
0.0
 11
407.575
 21
1877.83
 31
0.0
  0
LINE
  8
0
 62
     0
 10
407.575
 20
1877.83
 30
0.0
 11
400.124
 21
1873.41
 31
0.0
  0
LINE
  8
0
 62
     0
 10
400.124
 20
1873.41
 30
0.0
 11
392.677
 21
1868.99
 31
0.0
  0
LINE
  8
0
 62
     0
 10
392.677
 20
1868.99
 30
0.0
 11
400.226
 21
1864.75
 31
0.0
  0
LINE
  8
0
 62
     0
 10
400.226
 20
1864.75
 30
0.0
 11
407.776
 21
1860.51
 31
0.0
  0
LINE
  8
0
 62
     0
 10
407.776
 20
1860.51
 30
0.0
 11
400.329
 21
1856.09
 31
0.0
  0
LINE
  8
0
 62
     0
 10
400.329
 20
1856.09
 30
0.0
 11
392.878
 21
1851.67
 31
0.0
  0
LINE
  8
0
 62
     0
 10
392.878
 20
1851.67
 30
0.0
 11
398.745
 21
1347.89
 31
0.0
  0
LINE
  8
0
 62
     0
 10
398.745
 20
1347.89
 30
0.0
 11
365.601
 21
1344.48
 31
0.0
  0
LINE
  8
0
 62
     0
 10
365.601
 20
1344.48
 30
0.0
 11
320.901
 21
1339.63
 31
0.0
  0
LINE
  8
0
 62
     0
 10
320.901
 20
1339.63
 30
0.0
 11
246.177
 21
1331.16
 31
0.0
  0
LINE
  8
0
 62
     0
 10
246.177
 20
1331.16
 30
0.0
 11
123.685
 21
1316.75
 31
0.0
  0
LINE
  8
0
 62
     0
 10
123.685
 20
1316.75
 30
0.0
 11
36.1156
 21
1306.34
 31
0.0
  0
LINE
  8
0
 62
     0
 10
36.1156
 20
1306.34
 30
0.0
 11
29.614
 21
1864.77
 31
0.0
  0
LINE
  8
0
 62
     0
 10
29.614
 20
1864.77
 30
0.0
 11
22.0638
 21
1869.01
 31
0.0
  0
LINE
  8
0
 62
     0
 10
22.0638
 20
1869.01
 30
0.0
 11
14.5149
 21
1873.25
 31
0.0
  0
LINE
  8
0
 62
     0
 10
14.5149
 20
1873.25
 30
0.0
 11
21.9632
 21
1877.67
 31
0.0
  0
LINE
  8
0
 62
     0
 10
21.9632
 20
1877.67
 30
0.0
 11
29.4128
 21
1882.09
 31
0.0
  0
LINE
  8
0
 62
     0
 10
29.4128
 20
1882.09
 30
0.0
 11
392.476
 21
1886.31
 31
0.0
  0
LINE
  8
0
 62
     0
 10
463.398
 20
15284.8
 30
0.0
 11
468.168
 21
15277.5
 31
0.0
  0
LINE
  8
0
 62
     0
 10
468.168
 20
15277.5
 30
0.0
 11
472.934
 21
15270.3
 31
0.0
  0
LINE
  8
0
 62
     0
 10
472.934
 20
15270.3
 30
0.0
 11
464.291
 21
15269.8
 31
0.0
  0
LINE
  8
0
 62
     0
 10
464.291
 20
15269.8
 30
0.0
 11
455.644
 21
15269.3
 31
0.0
  0
LINE
  8
0
 62
     0
 10
455.644
 20
15269.3
 30
0.0
 11
376.488
 21
15111.1
 31
0.0
  0
LINE
  8
0
 62
     0
 10
376.488
 20
15111.1
 30
0.0
 11
366.49
 21
15116.2
 31
0.0
  0
LINE
  8
0
 62
     0
 10
366.49
 20
15116.2
 30
0.0
 11
355.54
 21
15113.6
 31
0.0
  0
LINE
  8
0
 62
     0
 10
355.54
 20
15113.6
 30
0.0
 11
131.294
 21
15945.3
 31
0.0
  0
LINE
  8
0
 62
     0
 10
131.294
 20
15945.3
 30
0.0
 11
142.226
 21
15948
 31
0.0
  0
LINE
  8
0
 62
     0
 10
142.226
 20
15948
 30
0.0
 11
136.215
 21
15957.5
 31
0.0
  0
LINE
  8
0
 62
     0
 10
136.215
 20
15957.5
 30
0.0
 11
317.926
 21
16056.2
 31
0.0
  0
LINE
  8
0
 62
     0
 10
317.926
 20
16056.2
 30
0.0
 11
318.152
 21
16064.9
 31
0.0
  0
LINE
  8
0
 62
     0
 10
318.152
 20
16064.9
 30
0.0
 11
318.376
 21
16073.5
 31
0.0
  0
LINE
  8
0
 62
     0
 10
318.376
 20
16073.5
 30
0.0
 11
325.761
 21
16069
 31
0.0
  0
LINE
  8
0
 62
     0
 10
325.761
 20
16069
 30
0.0
 11
333.146
 21
16064.5
 31
0.0
  0
LINE
  8
0
 62
     0
 10
333.146
 20
16064.5
 30
0.0
 11
333.371
 21
16073.1
 31
0.0
  0
LINE
  8
0
 62
     0
 10
333.371
 20
16073.1
 30
0.0
 11
333.597
 21
16081.8
 31
0.0
  0
LINE
  8
0
 62
     0
 10
333.597
 20
16081.8
 30
0.0
 11
340.982
 21
16077.2
 31
0.0
  0
LINE
  8
0
 62
     0
 10
340.982
 20
16077.2
 30
0.0
 11
348.367
 21
16072.7
 31
0.0
  0
LINE
  8
0
 62
     0
 10
348.367
 20
16072.7
 30
0.0
 11
478.899
 21
15315.7
 31
0.0
  0
LINE
  8
0
 62
     0
 10
478.899
 20
15315.7
 30
0.0
 11
483.669
 21
15308.5
 31
0.0
  0
LINE
  8
0
 62
     0
 10
483.669
 20
15308.5
 30
0.0
 11
488.438
 21
15301.3
 31
0.0
  0
LINE
  8
0
 62
     0
 10
488.438
 20
15301.3
 30
0.0
 11
479.792
 21
15300.8
 31
0.0
  0
LINE
  8
0
 62
     0
 10
479.792
 20
15300.8
 30
0.0
 11
471.149
 21
15300.3
 31
0.0
  0
LINE
  8
0
 62
     0
 10
471.149
 20
15300.3
 30
0.0
 11
475.915
 21
15293
 31
0.0
  0
LINE
  8
0
 62
     0
 10
475.915
 20
15293
 30
0.0
 11
480.684
 21
15285.8
 31
0.0
  0
LINE
  8
0
 62
     0
 10
480.684
 20
15285.8
 30
0.0
 11
472.041
 21
15285.3
 31
0.0
  0
LINE
  8
0
 62
     0
 10
472.041
 20
15285.3
 30
0.0
 11
463.398
 21
15284.8
 31
0.0
  0
LINE
  8
0
 62
     0
 10
766.833
 20
995.892
 30
0.0
 11
769.881
 21
1004
 31
0.0
  0
LINE
  8
0
 62
     0
 10
769.881
 20
1004
 30
0.0
 11
772.936
 21
1012.1
 31
0.0
  0
LINE
  8
0
 62
     0
 10
772.936
 20
1012.1
 30
0.0
 11
778.429
 21
1005.41
 31
0.0
  0
LINE
  8
0
 62
     0
 10
778.429
 20
1005.41
 30
0.0
 11
783.922
 21
998.714
 31
0.0
  0
LINE
  8
0
 62
     0
 10
783.922
 20
998.714
 30
0.0
 11
786.973
 21
1006.82
 31
0.0
  0
LINE
  8
0
 62
     0
 10
786.973
 20
1006.82
 30
0.0
 11
790.025
 21
1014.92
 31
0.0
  0
LINE
  8
0
 62
     0
 10
790.025
 20
1014.92
 30
0.0
 11
795.517
 21
1008.22
 31
0.0
  0
LINE
  8
0
 62
     0
 10
795.517
 20
1008.22
 30
0.0
 11
801.01
 21
1001.53
 31
0.0
  0
LINE
  8
0
 62
     0
 10
801.01
 20
1001.53
 30
0.0
 11
804.062
 21
1009.64
 31
0.0
  0
LINE
  8
0
 62
     0
 10
804.062
 20
1009.64
 30
0.0
 11
807.113
 21
1017.74
 31
0.0
  0
LINE
  8
0
 62
     0
 10
807.113
 20
1017.74
 30
0.0
 11
812.606
 21
1011.05
 31
0.0
  0
LINE
  8
0
 62
     0
 10
812.606
 20
1011.05
 30
0.0
 11
818.099
 21
1004.35
 31
0.0
  0
LINE
  8
0
 62
     0
 10
818.099
 20
1004.35
 30
0.0
 11
821.15
 21
1012.45
 31
0.0
  0
LINE
  8
0
 62
     0
 10
821.15
 20
1012.45
 30
0.0
 11
824.202
 21
1020.56
 31
0.0
  0
LINE
  8
0
 62
     0
 10
824.202
 20
1020.56
 30
0.0
 11
829.694
 21
1013.87
 31
0.0
  0
LINE
  8
0
 62
     0
 10
829.694
 20
1013.87
 30
0.0
 11
835.187
 21
1007.17
 31
0.0
  0
LINE
  8
0
 62
     0
 10
835.187
 20
1007.17
 30
0.0
 11
838.239
 21
1015.27
 31
0.0
  0
LINE
  8
0
 62
     0
 10
838.239
 20
1015.27
 30
0.0
 11
841.294
 21
1023.38
 31
0.0
  0
LINE
  8
0
 62
     0
 10
841.294
 20
1023.38
 30
0.0
 11
846.787
 21
1016.68
 31
0.0
  0
LINE
  8
0
 62
     0
 10
846.787
 20
1016.68
 30
0.0
 11
852.279
 21
1009.99
 31
0.0
  0
LINE
  8
0
 62
     0
 10
852.279
 20
1009.99
 30
0.0
 11
855.331
 21
1018.09
 31
0.0
  0
LINE
  8
0
 62
     0
 10
855.331
 20
1018.09
 30
0.0
 11
858.382
 21
1026.2
 31
0.0
  0
LINE
  8
0
 62
     0
 10
858.382
 20
1026.2
 30
0.0
 11
863.875
 21
1019.5
 31
0.0
  0
LINE
  8
0
 62
     0
 10
863.875
 20
1019.5
 30
0.0
 11
869.368
 21
1012.81
 31
0.0
  0
LINE
  8
0
 62
     0
 10
869.368
 20
1012.81
 30
0.0
 11
872.419
 21
1020.91
 31
0.0
  0
LINE
  8
0
 62
     0
 10
872.419
 20
1020.91
 30
0.0
 11
875.471
 21
1029.02
 31
0.0
  0
LINE
  8
0
 62
     0
 10
875.471
 20
1029.02
 30
0.0
 11
880.964
 21
1022.32
 31
0.0
  0
LINE
  8
0
 62
     0
 10
880.964
 20
1022.32
 30
0.0
 11
886.456
 21
1015.63
 31
0.0
  0
LINE
  8
0
 62
     0
 10
886.456
 20
1015.63
 30
0.0
 11
996.29
 21
1033.74
 31
0.0
  0
LINE
  8
0
 62
     0
 10
996.29
 20
1033.74
 30
0.0
 11
1000.02
 21
1022.96
 31
0.0
  0
LINE
  8
0
 62
     0
 10
1000.02
 20
1022.96
 30
0.0
 11
1011.27
 21
1022.51
 31
0.0
  0
LINE
  8
0
 62
     0
 10
1011.27
 20
1022.51
 30
0.0
 11
1001.6
 21
243.305
 31
0.0
  0
LINE
  8
0
 62
     0
 10
1001.6
 20
243.305
 30
0.0
 11
990.342
 21
242.95
 31
0.0
  0
LINE
  8
0
 62
     0
 10
990.342
 20
242.95
 30
0.0
 11
987.252
 21
232.131
 31
0.0
  0
LINE
  8
0
 62
     0
 10
987.252
 20
232.131
 30
0.0
 11
862.249
 21
266.368
 31
0.0
  0
LINE
  8
0
 62
     0
 10
862.249
 20
266.368
 30
0.0
 11
856.093
 21
260.277
 31
0.0
  0
LINE
  8
0
 62
     0
 10
856.093
 20
260.277
 30
0.0
 11
849.933
 21
254.187
 31
0.0
  0
LINE
  8
0
 62
     0
 10
849.933
 20
254.187
 30
0.0
 11
847.739
 21
262.566
 31
0.0
  0
LINE
  8
0
 62
     0
 10
847.739
 20
262.566
 30
0.0
 11
845.545
 21
270.943
 31
0.0
  0
LINE
  8
0
 62
     0
 10
845.545
 20
270.943
 30
0.0
 11
839.385
 21
264.854
 31
0.0
  0
LINE
  8
0
 62
     0
 10
839.385
 20
264.854
 30
0.0
 11
833.229
 21
258.763
 31
0.0
  0
LINE
  8
0
 62
     0
 10
833.229
 20
258.763
 30
0.0
 11
831.035
 21
267.141
 31
0.0
  0
LINE
  8
0
 62
     0
 10
831.035
 20
267.141
 30
0.0
 11
828.837
 21
275.518
 31
0.0
  0
LINE
  8
0
 62
     0
 10
828.837
 20
275.518
 30
0.0
 11
822.681
 21
269.428
 31
0.0
  0
LINE
  8
0
 62
     0
 10
822.681
 20
269.428
 30
0.0
 11
816.522
 21
263.339
 31
0.0
  0
LINE
  8
0
 62
     0
 10
816.522
 20
263.339
 30
0.0
 11
812.133
 21
280.093
 31
0.0
  0
LINE
  8
0
 62
     0
 10
812.133
 20
280.093
 30
0.0
 11
799.818
 21
267.914
 31
0.0
  0
LINE
  8
0
 62
     0
 10
799.818
 20
267.914
 30
0.0
 11
795.429
 21
284.668
 31
0.0
  0
LINE
  8
0
 62
     0
 10
795.429
 20
284.668
 30
0.0
 11
789.27
 21
278.579
 31
0.0
  0
LINE
  8
0
 62
     0
 10
789.27
 20
278.579
 30
0.0
 11
783.114
 21
272.489
 31
0.0
  0
LINE
  8
0
 62
     0
 10
783.114
 20
272.489
 30
0.0
 11
780.919
 21
280.866
 31
0.0
  0
LINE
  8
0
 62
     0
 10
780.919
 20
280.866
 30
0.0
 11
778.722
 21
289.245
 31
0.0
  0
LINE
  8
0
 62
     0
 10
778.722
 20
289.245
 30
0.0
 11
772.566
 21
283.154
 31
0.0
  0
LINE
  8
0
 62
     0
 10
772.566
 20
283.154
 30
0.0
 11
766.41
 21
277.064
 31
0.0
  0
LINE
  8
0
 62
     0
 10
766.41
 20
277.064
 30
0.0
 11
764.212
 21
285.443
 31
0.0
  0
LINE
  8
0
 62
     0
 10
764.212
 20
285.443
 30
0.0
 11
762.018
 21
293.82
 31
0.0
  0
LINE
  8
0
 62
     0
 10
762.018
 20
293.82
 30
0.0
 11
766.833
 21
995.892
 31
0.0
  0
LINE
  8
0
 62
     0
 10
216.385
 20
463.871
 30
0.0
 11
207.752
 21
475.954
 31
0.0
  0
LINE
  8
0
 62
     0
 10
207.752
 20
475.954
 30
0.0
 11
199.122
 21
469.787
 31
0.0
  0
LINE
  8
0
 62
     0
 10
199.122
 20
469.787
 30
0.0
 11
207.756
 21
457.704
 31
0.0
  0
LINE
  8
0
 62
     0
 10
207.756
 20
457.704
 30
0.0
 11
199.126
 21
451.538
 31
0.0
  0
LINE
  8
0
 62
     0
 10
199.126
 20
451.538
 30
0.0
 11
190.493
 21
463.621
 31
0.0
  0
LINE
  8
0
 62
     0
 10
190.493
 20
463.621
 30
0.0
 11
181.863
 21
457.45
 31
0.0
  0
LINE
  8
0
 62
     0
 10
181.863
 20
457.45
 30
0.0
 11
190.496
 21
445.371
 31
0.0
  0
LINE
  8
0
 62
     0
 10
190.496
 20
445.371
 30
0.0
 11
22.3187
 21
325.187
 31
0.0
  0
LINE
  8
0
 62
     0
 10
22.3187
 20
325.187
 30
0.0
 11
23.4473
 21
312.99
 31
0.0
  0
LINE
  8
0
 62
     0
 10
23.4473
 20
312.99
 30
0.0
 11
817.859
 21
0.0509873
 31
0.0
  0
LINE
  8
0
 62
     0
 10
817.859
 20
0.0509873
 30
0.0
 11
827.193
 21
6.47541
 31
0.0
  0
LINE
  8
0
 62
     0
 10
827.193
 20
6.47541
 30
0.0
 11
835.741
 21
234.914
 31
0.0
  0
LINE
  8
0
 62
     0
 10
835.741
 20
234.914
 30
0.0
 11
850.579
 21
234.359
 31
0.0
  0
LINE
  8
0
 62
     0
 10
850.579
 20
234.359
 30
0.0
 11
850.978
 21
244.957
 31
0.0
  0
LINE
  8
0
 62
     0
 10
850.978
 20
244.957
 30
0.0
 11
836.14
 21
245.514
 31
0.0
  0
LINE
  8
0
 62
     0
 10
836.14
 20
245.514
 30
0.0
 11
216.385
 21
463.871
 31
0.0
  0
LINE
  8
0
 62
     0
 10
382.185
 20
3972.17
 30
0.0
 11
389.082
 21
3977.43
 31
0.0
  0
LINE
  8
0
 62
     0
 10
389.082
 20
3977.43
 30
0.0
 11
395.979
 21
3982.65
 31
0.0
  0
LINE
  8
0
 62
     0
 10
395.979
 20
3982.65
 30
0.0
 11
397.066
 21
3974.08
 31
0.0
  0
LINE
  8
0
 62
     0
 10
397.066
 20
3974.08
 30
0.0
 11
398.156
 21
3965.47
 31
0.0
  0
LINE
  8
0
 62
     0
 10
398.156
 20
3965.47
 30
0.0
 11
405.052
 21
3970.69
 31
0.0
  0
LINE
  8
0
 62
     0
 10
405.052
 20
3970.69
 30
0.0
 11
411.946
 21
3975.95
 31
0.0
  0
LINE
  8
0
 62
     0
 10
411.946
 20
3975.95
 30
0.0
 11
413.036
 21
3967.34
 31
0.0
  0
LINE
  8
0
 62
     0
 10
413.036
 20
3967.34
 30
0.0
 11
414.122
 21
3958.77
 31
0.0
  0
LINE
  8
0
 62
     0
 10
414.122
 20
3958.77
 30
0.0
 11
421.019
 21
3963.99
 31
0.0
  0
LINE
  8
0
 62
     0
 10
421.019
 20
3963.99
 30
0.0
 11
427.916
 21
3969.24
 31
0.0
  0
LINE
  8
0
 62
     0
 10
427.916
 20
3969.24
 30
0.0
 11
429.006
 21
3960.64
 31
0.0
  0
LINE
  8
0
 62
     0
 10
429.006
 20
3960.64
 30
0.0
 11
430.093
 21
3952.06
 31
0.0
  0
LINE
  8
0
 62
     0
 10
430.093
 20
3952.06
 30
0.0
 11
436.989
 21
3957.28
 31
0.0
  0
LINE
  8
0
 62
     0
 10
436.989
 20
3957.28
 30
0.0
 11
443.886
 21
3962.54
 31
0.0
  0
LINE
  8
0
 62
     0
 10
443.886
 20
3962.54
 30
0.0
 11
446.063
 21
3945.36
 31
0.0
  0
LINE
  8
0
 62
     0
 10
446.063
 20
3945.36
 30
0.0
 11
452.96
 21
3950.58
 31
0.0
  0
LINE
  8
0
 62
     0
 10
452.96
 20
3950.58
 30
0.0
 11
459.856
 21
3955.84
 31
0.0
  0
LINE
  8
0
 62
     0
 10
459.856
 20
3955.84
 30
0.0
 11
460.943
 21
3947.23
 31
0.0
  0
LINE
  8
0
 62
     0
 10
460.943
 20
3947.23
 30
0.0
 11
462.033
 21
3938.66
 31
0.0
  0
LINE
  8
0
 62
     0
 10
462.033
 20
3938.66
 30
0.0
 11
468.93
 21
3943.88
 31
0.0
  0
LINE
  8
0
 62
     0
 10
468.93
 20
3943.88
 30
0.0
 11
475.827
 21
3949.14
 31
0.0
  0
LINE
  8
0
 62
     0
 10
475.827
 20
3949.14
 30
0.0
 11
476.913
 21
3940.53
 31
0.0
  0
LINE
  8
0
 62
     0
 10
476.913
 20
3940.53
 30
0.0
 11
478
 21
3931.92
 31
0.0
  0
LINE
  8
0
 62
     0
 10
478
 20
3931.92
 30
0.0
 11
598.904
 21
3881.16
 31
0.0
  0
LINE
  8
0
 62
     0
 10
598.904
 20
3881.16
 30
0.0
 11
594.416
 21
3870.85
 31
0.0
  0
LINE
  8
0
 62
     0
 10
594.416
 20
3870.85
 30
0.0
 11
604.075
 21
3865.07
 31
0.0
  0
LINE
  8
0
 62
     0
 10
604.075
 20
3865.07
 30
0.0
 11
285.184
 21
3320.85
 31
0.0
  0
LINE
  8
0
 62
     0
 10
285.184
 20
3320.85
 30
0.0
 11
275.559
 21
3326.68
 31
0.0
  0
LINE
  8
0
 62
     0
 10
275.559
 20
3326.68
 30
0.0
 11
268.47
 21
3317.97
 31
0.0
  0
LINE
  8
0
 62
     0
 10
268.47
 20
3317.97
 30
0.0
 11
159.054
 21
3417.77
 31
0.0
  0
LINE
  8
0
 62
     0
 10
159.054
 20
3417.77
 30
0.0
 11
150.8
 21
3415.15
 31
0.0
  0
LINE
  8
0
 62
     0
 10
150.8
 20
3415.15
 30
0.0
 11
142.547
 21
3412.53
 31
0.0
  0
LINE
  8
0
 62
     0
 10
142.547
 20
3412.53
 30
0.0
 11
144.402
 21
3420.99
 31
0.0
  0
LINE
  8
0
 62
     0
 10
144.402
 20
3420.99
 30
0.0
 11
146.257
 21
3429.45
 31
0.0
  0
LINE
  8
0
 62
     0
 10
146.257
 20
3429.45
 30
0.0
 11
138.003
 21
3426.82
 31
0.0
  0
LINE
  8
0
 62
     0
 10
138.003
 20
3426.82
 30
0.0
 11
129.751
 21
3424.2
 31
0.0
  0
LINE
  8
0
 62
     0
 10
129.751
 20
3424.2
 30
0.0
 11
131.606
 21
3432.66
 31
0.0
  0
LINE
  8
0
 62
     0
 10
131.606
 20
3432.66
 30
0.0
 11
133.46
 21
3441.12
 31
0.0
  0
LINE
  8
0
 62
     0
 10
133.46
 20
3441.12
 30
0.0
 11
125.207
 21
3438.5
 31
0.0
  0
LINE
  8
0
 62
     0
 10
125.207
 20
3438.5
 30
0.0
 11
116.954
 21
3435.87
 31
0.0
  0
LINE
  8
0
 62
     0
 10
116.954
 20
3435.87
 30
0.0
 11
120.664
 21
3452.79
 31
0.0
  0
LINE
  8
0
 62
     0
 10
120.664
 20
3452.79
 30
0.0
 11
112.411
 21
3450.17
 31
0.0
  0
LINE
  8
0
 62
     0
 10
112.411
 20
3450.17
 30
0.0
 11
104.158
 21
3447.55
 31
0.0
  0
LINE
  8
0
 62
     0
 10
104.158
 20
3447.55
 30
0.0
 11
106.013
 21
3456.01
 31
0.0
  0
LINE
  8
0
 62
     0
 10
106.013
 20
3456.01
 30
0.0
 11
107.867
 21
3464.46
 31
0.0
  0
LINE
  8
0
 62
     0
 10
107.867
 20
3464.46
 30
0.0
 11
99.6142
 21
3461.84
 31
0.0
  0
LINE
  8
0
 62
     0
 10
99.6142
 20
3461.84
 30
0.0
 11
91.3599
 21
3459.22
 31
0.0
  0
LINE
  8
0
 62
     0
 10
91.3599
 20
3459.22
 30
0.0
 11
93.2159
 21
3467.68
 31
0.0
  0
LINE
  8
0
 62
     0
 10
93.2159
 20
3467.68
 30
0.0
 11
95.0708
 21
3476.14
 31
0.0
  0
LINE
  8
0
 62
     0
 10
95.0708
 20
3476.14
 30
0.0
 11
382.185
 21
3972.17
 31
0.0
  0
LINE
  8
0
 62
     0
 10
979.096
 20
1110.69
 30
0.0
 11
972.665
 21
1972.65
 31
0.0
  0
LINE
  8
0
 62
     0
 10
972.665
 20
1972.65
 30
0.0
 11
972.555
 21
1987.5
 31
0.0
  0
LINE
  8
0
 62
     0
 10
972.555
 20
1987.5
 30
0.0
 11
961.951
 21
1987.42
 31
0.0
  0
LINE
  8
0
 62
     0
 10
961.951
 20
1987.42
 30
0.0
 11
962.06
 21
1972.57
 31
0.0
  0
LINE
  8
0
 62
     0
 10
962.06
 20
1972.57
 30
0.0
 11
951.456
 21
1972.49
 31
0.0
  0
LINE
  8
0
 62
     0
 10
951.456
 20
1972.49
 30
0.0
 11
951.343
 21
1987.34
 31
0.0
  0
LINE
  8
0
 62
     0
 10
951.343
 20
1987.34
 30
0.0
 11
940.738
 21
1987.26
 31
0.0
  0
LINE
  8
0
 62
     0
 10
940.738
 20
1987.26
 30
0.0
 11
940.848
 21
1972.42
 31
0.0
  0
LINE
  8
0
 62
     0
 10
940.848
 20
1972.42
 30
0.0
 11
463.18
 21
1968.86
 31
0.0
  0
LINE
  8
0
 62
     0
 10
463.18
 20
1968.86
 30
0.0
 11
459.789
 21
1882.51
 31
0.0
  0
LINE
  8
0
 62
     0
 10
459.789
 20
1882.51
 30
0.0
 11
454.805
 21
1759.23
 31
0.0
  0
LINE
  8
0
 62
     0
 10
454.805
 20
1759.23
 30
0.0
 11
451.446
 21
1684.1
 31
0.0
  0
LINE
  8
0
 62
     0
 10
451.446
 20
1684.1
 30
0.0
 11
449.22
 21
1639.18
 31
0.0
  0
LINE
  8
0
 62
     0
 10
449.22
 20
1639.18
 30
0.0
 11
446.917
 21
1597.37
 31
0.0
  0
LINE
  8
0
 62
     0
 10
446.917
 20
1597.37
 30
0.0
 11
444.444
 21
1557.44
 31
0.0
  0
LINE
  8
0
 62
     0
 10
444.444
 20
1557.44
 30
0.0
 11
441.717
 21
1518.15
 31
0.0
  0
LINE
  8
0
 62
     0
 10
441.717
 20
1518.15
 30
0.0
 11
438.654
 21
1478.27
 31
0.0
  0
LINE
  8
0
 62
     0
 10
438.654
 20
1478.27
 30
0.0
 11
435.169
 21
1436.55
 31
0.0
  0
LINE
  8
0
 62
     0
 10
435.169
 20
1436.55
 30
0.0
 11
431.176
 21
1391.76
 31
0.0
  0
LINE
  8
0
 62
     0
 10
431.176
 20
1391.76
 30
0.0
 11
424.134
 21
1316.89
 31
0.0
  0
LINE
  8
0
 62
     0
 10
424.134
 20
1316.89
 30
0.0
 11
412.062
 21
1194.15
 31
0.0
  0
LINE
  8
0
 62
     0
 10
412.062
 20
1194.15
 30
0.0
 11
403.327
 21
1106.4
 31
0.0
  0
LINE
  8
0
 62
     0
 10
403.327
 20
1106.4
 30
0.0
 11
968.491
 21
1110.61
 31
0.0
  0
LINE
  8
0
 62
     0
 10
968.491
 20
1110.61
 30
0.0
 11
968.601
 21
1095.76
 31
0.0
  0
LINE
  8
0
 62
     0
 10
968.601
 20
1095.76
 30
0.0
 11
979.209
 21
1095.84
 31
0.0
  0
LINE
  8
0
 62
     0
 10
979.209
 20
1095.84
 30
0.0
 11
979.096
 21
1110.69
 31
0.0
  0
LINE
  8
0
 62
     0
 10
522.355
 20
2700
 30
0.0
 11
517.38
 21
2707.09
 31
0.0
  0
LINE
  8
0
 62
     0
 10
517.38
 20
2707.09
 30
0.0
 11
512.406
 21
2714.17
 31
0.0
  0
LINE
  8
0
 62
     0
 10
512.406
 20
2714.17
 30
0.0
 11
529.661
 21
2715.7
 31
0.0
  0
LINE
  8
0
 62
     0
 10
529.661
 20
2715.7
 30
0.0
 11
524.686
 21
2722.79
 31
0.0
  0
LINE
  8
0
 62
     0
 10
524.686
 20
2722.79
 30
0.0
 11
519.712
 21
2729.88
 31
0.0
  0
LINE
  8
0
 62
     0
 10
519.712
 20
2729.88
 30
0.0
 11
528.338
 21
2730.64
 31
0.0
  0
LINE
  8
0
 62
     0
 10
528.338
 20
2730.64
 30
0.0
 11
536.967
 21
2731.4
 31
0.0
  0
LINE
  8
0
 62
     0
 10
536.967
 20
2731.4
 30
0.0
 11
531.989
 21
2738.49
 31
0.0
  0
LINE
  8
0
 62
     0
 10
531.989
 20
2738.49
 30
0.0
 11
527.018
 21
2745.58
 31
0.0
  0
LINE
  8
0
 62
     0
 10
527.018
 20
2745.58
 30
0.0
 11
535.644
 21
2746.35
 31
0.0
  0
LINE
  8
0
 62
     0
 10
535.644
 20
2746.35
 30
0.0
 11
544.269
 21
2747.11
 31
0.0
  0
LINE
  8
0
 62
     0
 10
544.269
 20
2747.11
 30
0.0
 11
539.295
 21
2754.2
 31
0.0
  0
LINE
  8
0
 62
     0
 10
539.295
 20
2754.2
 30
0.0
 11
534.321
 21
2761.29
 31
0.0
  0
LINE
  8
0
 62
     0
 10
534.321
 20
2761.29
 30
0.0
 11
551.575
 21
2762.81
 31
0.0
  0
LINE
  8
0
 62
     0
 10
551.575
 20
2762.81
 30
0.0
 11
546.601
 21
2769.9
 31
0.0
  0
LINE
  8
0
 62
     0
 10
546.601
 20
2769.9
 30
0.0
 11
541.627
 21
2776.99
 31
0.0
  0
LINE
  8
0
 62
     0
 10
541.627
 20
2776.99
 30
0.0
 11
550.252
 21
2777.75
 31
0.0
  0
LINE
  8
0
 62
     0
 10
550.252
 20
2777.75
 30
0.0
 11
558.881
 21
2778.52
 31
0.0
  0
LINE
  8
0
 62
     0
 10
558.881
 20
2778.52
 30
0.0
 11
619.965
 21
2909.84
 31
0.0
  0
LINE
  8
0
 62
     0
 10
619.965
 20
2909.84
 30
0.0
 11
630.029
 21
2904.8
 31
0.0
  0
LINE
  8
0
 62
     0
 10
630.029
 20
2904.8
 30
0.0
 11
639.346
 21
2911.1
 31
0.0
  0
LINE
  8
0
 62
     0
 10
639.346
 20
2911.1
 30
0.0
 11
1001.02
 21
2389.46
 31
0.0
  0
LINE
  8
0
 62
     0
 10
1001.02
 20
2389.46
 30
0.0
 11
992.17
 21
2382.48
 31
0.0
  0
LINE
  8
0
 62
     0
 10
992.17
 20
2382.48
 30
0.0
 11
1001.15
 21
2375.57
 31
0.0
  0
LINE
  8
0
 62
     0
 10
1001.15
 20
2375.57
 30
0.0
 11
881.003
 21
2253.39
 31
0.0
  0
LINE
  8
0
 62
     0
 10
881.003
 20
2253.39
 30
0.0
 11
885.624
 21
2236.7
 31
0.0
  0
LINE
  8
0
 62
     0
 10
885.624
 20
2236.7
 30
0.0
 11
877.242
 21
2238.87
 31
0.0
  0
LINE
  8
0
 62
     0
 10
877.242
 20
2238.87
 30
0.0
 11
868.86
 21
2241.04
 31
0.0
  0
LINE
  8
0
 62
     0
 10
868.86
 20
2241.04
 30
0.0
 11
871.171
 21
2232.7
 31
0.0
  0
LINE
  8
0
 62
     0
 10
871.171
 20
2232.7
 30
0.0
 11
873.481
 21
2224.35
 31
0.0
  0
LINE
  8
0
 62
     0
 10
873.481
 20
2224.35
 30
0.0
 11
865.099
 21
2226.52
 31
0.0
  0
LINE
  8
0
 62
     0
 10
865.099
 20
2226.52
 30
0.0
 11
856.714
 21
2228.69
 31
0.0
  0
LINE
  8
0
 62
     0
 10
856.714
 20
2228.69
 30
0.0
 11
859.024
 21
2220.35
 31
0.0
  0
LINE
  8
0
 62
     0
 10
859.024
 20
2220.35
 30
0.0
 11
861.339
 21
2212
 31
0.0
  0
LINE
  8
0
 62
     0
 10
861.339
 20
2212
 30
0.0
 11
852.953
 21
2214.17
 31
0.0
  0
LINE
  8
0
 62
     0
 10
852.953
 20
2214.17
 30
0.0
 11
844.568
 21
2216.34
 31
0.0
  0
LINE
  8
0
 62
     0
 10
844.568
 20
2216.34
 30
0.0
 11
846.882
 21
2208
 31
0.0
  0
LINE
  8
0
 62
     0
 10
846.882
 20
2208
 30
0.0
 11
849.193
 21
2199.65
 31
0.0
  0
LINE
  8
0
 62
     0
 10
849.193
 20
2199.65
 30
0.0
 11
832.425
 21
2203.99
 31
0.0
  0
LINE
  8
0
 62
     0
 10
832.425
 20
2203.99
 30
0.0
 11
522.355
 21
2700
 31
0.0
  0
LINE
  8
0
 62
     0
 10
763.884
 20
11618.3
 30
0.0
 11
764.469
 21
11627
 31
0.0
  0
LINE
  8
0
 62
     0
 10
764.469
 20
11627
 30
0.0
 11
765.048
 21
11635.6
 31
0.0
  0
LINE
  8
0
 62
     0
 10
765.048
 20
11635.6
 30
0.0
 11
779.434
 21
11626
 31
0.0
  0
LINE
  8
0
 62
     0
 10
779.434
 20
11626
 30
0.0
 11
780.016
 21
11634.6
 31
0.0
  0
LINE
  8
0
 62
     0
 10
780.016
 20
11634.6
 30
0.0
 11
780.598
 21
11643.3
 31
0.0
  0
LINE
  8
0
 62
     0
 10
780.598
 20
11643.3
 30
0.0
 11
794.981
 21
11633.6
 31
0.0
  0
LINE
  8
0
 62
     0
 10
794.981
 20
11633.6
 30
0.0
 11
796.149
 21
11650.9
 31
0.0
  0
LINE
  8
0
 62
     0
 10
796.149
 20
11650.9
 30
0.0
 11
803.338
 21
11646.1
 31
0.0
  0
LINE
  8
0
 62
     0
 10
803.338
 20
11646.1
 30
0.0
 11
810.532
 21
11641.2
 31
0.0
  0
LINE
  8
0
 62
     0
 10
810.532
 20
11641.2
 30
0.0
 11
811.114
 21
11649.9
 31
0.0
  0
LINE
  8
0
 62
     0
 10
811.114
 20
11649.9
 30
0.0
 11
811.696
 21
11658.5
 31
0.0
  0
LINE
  8
0
 62
     0
 10
811.696
 20
11658.5
 30
0.0
 11
818.889
 21
11653.7
 31
0.0
  0
LINE
  8
0
 62
     0
 10
818.889
 20
11653.7
 30
0.0
 11
826.079
 21
11648.9
 31
0.0
  0
LINE
  8
0
 62
     0
 10
826.079
 20
11648.9
 30
0.0
 11
972.626
 21
11720.8
 31
0.0
  0
LINE
  8
0
 62
     0
 10
972.626
 20
11720.8
 30
0.0
 11
976.82
 21
11710.3
 31
0.0
  0
LINE
  8
0
 62
     0
 10
976.82
 20
11710.3
 30
0.0
 11
988.064
 21
11709.5
 31
0.0
  0
LINE
  8
0
 62
     0
 10
988.064
 20
11709.5
 30
0.0
 11
980.563
 21
10916.6
 31
0.0
  0
LINE
  8
0
 62
     0
 10
980.563
 20
10916.6
 30
0.0
 11
969.32
 21
10917.6
 31
0.0
  0
LINE
  8
0
 62
     0
 10
969.32
 20
10917.6
 30
0.0
 11
968.904
 21
10906.3
 31
0.0
  0
LINE
  8
0
 62
     0
 10
968.904
 20
10906.3
 30
0.0
 11
784.74
 21
10915.3
 31
0.0
  0
LINE
  8
0
 62
     0
 10
784.74
 20
10915.3
 30
0.0
 11
780.052
 21
10908
 31
0.0
  0
LINE
  8
0
 62
     0
 10
780.052
 20
10908
 30
0.0
 11
775.363
 21
10900.7
 31
0.0
  0
LINE
  8
0
 62
     0
 10
775.363
 20
10900.7
 30
0.0
 11
771.401
 21
10908.4
 31
0.0
  0
LINE
  8
0
 62
     0
 10
771.401
 20
10908.4
 30
0.0
 11
767.443
 21
10916.1
 31
0.0
  0
LINE
  8
0
 62
     0
 10
767.443
 20
10916.1
 30
0.0
 11
762.751
 21
10908.8
 31
0.0
  0
LINE
  8
0
 62
     0
 10
762.751
 20
10908.8
 30
0.0
 11
758.063
 21
10901.6
 31
0.0
  0
LINE
  8
0
 62
     0
 10
758.063
 20
10901.6
 30
0.0
 11
754.101
 21
10909.3
 31
0.0
  0
LINE
  8
0
 62
     0
 10
754.101
 20
10909.3
 30
0.0
 11
750.143
 21
10917
 31
0.0
  0
LINE
  8
0
 62
     0
 10
750.143
 20
10917
 30
0.0
 11
745.451
 21
10909.7
 31
0.0
  0
LINE
  8
0
 62
     0
 10
745.451
 20
10909.7
 30
0.0
 11
740.763
 21
10902.4
 31
0.0
  0
LINE
  8
0
 62
     0
 10
740.763
 20
10902.4
 30
0.0
 11
736.801
 21
10910.1
 31
0.0
  0
LINE
  8
0
 62
     0
 10
736.801
 20
10910.1
 30
0.0
 11
732.843
 21
10917.8
 31
0.0
  0
LINE
  8
0
 62
     0
 10
732.843
 20
10917.8
 30
0.0
 11
763.884
 21
11618.3
 31
0.0
  0
LINE
  8
0
 62
     0
 10
995.324
 20
11760.9
 30
0.0
 11
990.992
 21
11753.5
 31
0.0
  0
LINE
  8
0
 62
     0
 10
990.992
 20
11753.5
 30
0.0
 11
986.663
 21
11745.9
 31
0.0
  0
LINE
  8
0
 62
     0
 10
986.663
 20
11745.9
 30
0.0
 11
982.331
 21
11753.5
 31
0.0
  0
LINE
  8
0
 62
     0
 10
982.331
 20
11753.5
 30
0.0
 11
978.002
 21
11760.9
 31
0.0
  0
LINE
  8
0
 62
     0
 10
978.002
 20
11760.9
 30
0.0
 11
973.674
 21
11753.5
 31
0.0
  0
LINE
  8
0
 62
     0
 10
973.674
 20
11753.5
 30
0.0
 11
969.342
 21
11745.9
 31
0.0
  0
LINE
  8
0
 62
     0
 10
969.342
 20
11745.9
 30
0.0
 11
965.009
 21
11753.5
 31
0.0
  0
LINE
  8
0
 62
     0
 10
965.009
 20
11753.5
 30
0.0
 11
960.684
 21
11760.9
 31
0.0
  0
LINE
  8
0
 62
     0
 10
960.684
 20
11760.9
 30
0.0
 11
952.02
 21
11745.9
 31
0.0
  0
LINE
  8
0
 62
     0
 10
952.02
 20
11745.9
 30
0.0
 11
947.692
 21
11753.5
 31
0.0
  0
LINE
  8
0
 62
     0
 10
947.692
 20
11753.5
 30
0.0
 11
943.363
 21
11760.9
 31
0.0
  0
LINE
  8
0
 62
     0
 10
943.363
 20
11760.9
 30
0.0
 11
939.031
 21
11753.5
 31
0.0
  0
LINE
  8
0
 62
     0
 10
939.031
 20
11753.5
 30
0.0
 11
934.699
 21
11745.9
 31
0.0
  0
LINE
  8
0
 62
     0
 10
934.699
 20
11745.9
 30
0.0
 11
930.37
 21
11753.5
 31
0.0
  0
LINE
  8
0
 62
     0
 10
930.37
 20
11753.5
 30
0.0
 11
926.042
 21
11760.9
 31
0.0
  0
LINE
  8
0
 62
     0
 10
926.042
 20
11760.9
 30
0.0
 11
921.71
 21
11753.5
 31
0.0
  0
LINE
  8
0
 62
     0
 10
921.71
 20
11753.5
 30
0.0
 11
917.381
 21
11745.9
 31
0.0
  0
LINE
  8
0
 62
     0
 10
917.381
 20
11745.9
 30
0.0
 11
913.052
 21
11753.5
 31
0.0
  0
LINE
  8
0
 62
     0
 10
913.052
 20
11753.5
 30
0.0
 11
908.72
 21
11760.9
 31
0.0
  0
LINE
  8
0
 62
     0
 10
908.72
 20
11760.9
 30
0.0
 11
904.392
 21
11753.5
 31
0.0
  0
LINE
  8
0
 62
     0
 10
904.392
 20
11753.5
 30
0.0
 11
900.06
 21
11745.9
 31
0.0
  0
LINE
  8
0
 62
     0
 10
900.06
 20
11745.9
 30
0.0
 11
895.731
 21
11753.5
 31
0.0
  0
LINE
  8
0
 62
     0
 10
895.731
 20
11753.5
 30
0.0
 11
891.399
 21
11760.9
 31
0.0
  0
LINE
  8
0
 62
     0
 10
891.399
 20
11760.9
 30
0.0
 11
887.07
 21
11753.5
 31
0.0
  0
LINE
  8
0
 62
     0
 10
887.07
 20
11753.5
 30
0.0
 11
882.738
 21
11745.9
 31
0.0
  0
LINE
  8
0
 62
     0
 10
882.738
 20
11745.9
 30
0.0
 11
878.41
 21
11753.5
 31
0.0
  0
LINE
  8
0
 62
     0
 10
878.41
 20
11753.5
 30
0.0
 11
874.081
 21
11760.9
 31
0.0
  0
LINE
  8
0
 62
     0
 10
874.081
 20
11760.9
 30
0.0
 11
762.473
 21
11761
 31
0.0
  0
LINE
  8
0
 62
     0
 10
762.473
 20
11761
 30
0.0
 11
764.928
 21
11842.6
 31
0.0
  0
LINE
  8
0
 62
     0
 10
764.928
 20
11842.6
 30
0.0
 11
768.226
 21
11956.9
 31
0.0
  0
LINE
  8
0
 62
     0
 10
768.226
 20
11956.9
 30
0.0
 11
769.945
 21
12026.5
 31
0.0
  0
LINE
  8
0
 62
     0
 10
769.945
 20
12026.5
 30
0.0
 11
770.767
 21
12068.2
 31
0.0
  0
LINE
  8
0
 62
     0
 10
770.767
 20
12068.2
 30
0.0
 11
771.317
 21
12107
 31
0.0
  0
LINE
  8
0
 62
     0
 10
771.317
 20
12107
 30
0.0
 11
771.592
 21
12144.1
 31
0.0
  0
LINE
  8
0
 62
     0
 10
771.592
 20
12144.1
 30
0.0
 11
771.596
 21
12180.5
 31
0.0
  0
LINE
  8
0
 62
     0
 10
771.596
 20
12180.5
 30
0.0
 11
771.324
 21
12217.6
 31
0.0
  0
LINE
  8
0
 62
     0
 10
771.324
 20
12217.6
 30
0.0
 11
770.777
 21
12256.3
 31
0.0
  0
LINE
  8
0
 62
     0
 10
770.777
 20
12256.3
 30
0.0
 11
769.959
 21
12298
 31
0.0
  0
LINE
  8
0
 62
     0
 10
769.959
 20
12298
 30
0.0
 11
768.248
 21
12367.6
 31
0.0
  0
LINE
  8
0
 62
     0
 10
768.248
 20
12367.6
 30
0.0
 11
764.967
 21
12481.9
 31
0.0
  0
LINE
  8
0
 62
     0
 10
764.967
 20
12481.9
 30
0.0
 11
763.108
 21
12544
 31
0.0
  0
LINE
  8
0
 62
     0
 10
763.108
 20
12544
 30
0.0
 11
755.371
 21
12547.9
 31
0.0
  0
LINE
  8
0
 62
     0
 10
755.371
 20
12547.9
 30
0.0
 11
747.635
 21
12551.8
 31
0.0
  0
LINE
  8
0
 62
     0
 10
747.635
 20
12551.8
 30
0.0
 11
762.113
 21
12561.3
 31
0.0
  0
LINE
  8
0
 62
     0
 10
762.113
 20
12561.3
 30
0.0
 11
759.77
 21
12608.5
 31
0.0
  0
LINE
  8
0
 62
     0
 10
759.77
 20
12608.5
 30
0.0
 11
754.592
 21
12701.1
 31
0.0
  0
LINE
  8
0
 62
     0
 10
754.592
 20
12701.1
 30
0.0
 11
751.198
 21
12757.5
 31
0.0
  0
LINE
  8
0
 62
     0
 10
751.198
 20
12757.5
 30
0.0
 11
749.007
 21
12791.2
 31
0.0
  0
LINE
  8
0
 62
     0
 10
749.007
 20
12791.2
 30
0.0
 11
746.788
 21
12822.6
 31
0.0
  0
LINE
  8
0
 62
     0
 10
746.788
 20
12822.6
 30
0.0
 11
744.467
 21
12852.5
 31
0.0
  0
LINE
  8
0
 62
     0
 10
744.467
 20
12852.5
 30
0.0
 11
741.966
 21
12882
 31
0.0
  0
LINE
  8
0
 62
     0
 10
741.966
 20
12882
 30
0.0
 11
739.203
 21
12911.9
 31
0.0
  0
LINE
  8
0
 62
     0
 10
739.203
 20
12911.9
 30
0.0
 11
736.103
 21
12943.2
 31
0.0
  0
LINE
  8
0
 62
     0
 10
736.103
 20
12943.2
 30
0.0
 11
732.582
 21
12976.8
 31
0.0
  0
LINE
  8
0
 62
     0
 10
732.582
 20
12976.8
 30
0.0
 11
726.419
 21
13033
 31
0.0
  0
LINE
  8
0
 62
     0
 10
726.419
 20
13033
 30
0.0
 11
715.924
 21
13125.1
 31
0.0
  0
LINE
  8
0
 62
     0
 10
715.924
 20
13125.1
 30
0.0
 11
710.382
 21
13174.1
 31
0.0
  0
LINE
  8
0
 62
     0
 10
710.382
 20
13174.1
 30
0.0
 11
702.419
 21
13177.8
 31
0.0
  0
LINE
  8
0
 62
     0
 10
702.419
 20
13177.8
 30
0.0
 11
694.457
 21
13181.5
 31
0.0
  0
LINE
  8
0
 62
     0
 10
694.457
 20
13181.5
 30
0.0
 11
701.657
 21
13186.5
 31
0.0
  0
LINE
  8
0
 62
     0
 10
701.657
 20
13186.5
 30
0.0
 11
708.858
 21
13191.6
 31
0.0
  0
LINE
  8
0
 62
     0
 10
708.858
 20
13191.6
 30
0.0
 11
706.261
 21
13239.5
 31
0.0
  0
LINE
  8
0
 62
     0
 10
706.261
 20
13239.5
 30
0.0
 11
701.104
 21
13332.8
 31
0.0
  0
LINE
  8
0
 62
     0
 10
701.104
 20
13332.8
 30
0.0
 11
697.72
 21
13389.7
 31
0.0
  0
LINE
  8
0
 62
     0
 10
697.72
 20
13389.7
 30
0.0
 11
695.533
 21
13423.7
 31
0.0
  0
LINE
  8
0
 62
     0
 10
695.533
 20
13423.7
 30
0.0
 11
693.318
 21
13455.3
 31
0.0
  0
LINE
  8
0
 62
     0
 10
693.318
 20
13455.3
 30
0.0
 11
690.996
 21
13485.5
 31
0.0
  0
LINE
  8
0
 62
     0
 10
690.996
 20
13485.5
 30
0.0
 11
688.495
 21
13515.2
 31
0.0
  0
LINE
  8
0
 62
     0
 10
688.495
 20
13515.2
 30
0.0
 11
685.733
 21
13545.4
 31
0.0
  0
LINE
  8
0
 62
     0
 10
685.733
 20
13545.4
 30
0.0
 11
682.625
 21
13576.9
 31
0.0
  0
LINE
  8
0
 62
     0
 10
682.625
 20
13576.9
 30
0.0
 11
679.101
 21
13610.7
 31
0.0
  0
LINE
  8
0
 62
     0
 10
679.101
 20
13610.7
 30
0.0
 11
672.927
 21
13667.4
 31
0.0
  0
LINE
  8
0
 62
     0
 10
672.927
 20
13667.4
 30
0.0
 11
662.411
 21
13760.2
 31
0.0
  0
LINE
  8
0
 62
     0
 10
662.411
 20
13760.2
 30
0.0
 11
656.558
 21
13809.9
 31
0.0
  0
LINE
  8
0
 62
     0
 10
656.558
 20
13809.9
 30
0.0
 11
648.783
 21
13813.7
 31
0.0
  0
LINE
  8
0
 62
     0
 10
648.783
 20
13813.7
 30
0.0
 11
641.011
 21
13817.5
 31
0.0
  0
LINE
  8
0
 62
     0
 10
641.011
 20
13817.5
 30
0.0
 11
655.391
 21
13827.2
 31
0.0
  0
LINE
  8
0
 62
     0
 10
655.391
 20
13827.2
 30
0.0
 11
652.463
 21
13889.2
 31
0.0
  0
LINE
  8
0
 62
     0
 10
652.463
 20
13889.2
 30
0.0
 11
646.836
 21
14005.6
 31
0.0
  0
LINE
  8
0
 62
     0
 10
646.836
 20
14005.6
 30
0.0
 11
643.103
 21
14076.5
 31
0.0
  0
LINE
  8
0
 62
     0
 10
643.103
 20
14076.5
 30
0.0
 11
640.666
 21
14118.9
 31
0.0
  0
LINE
  8
0
 62
     0
 10
640.666
 20
14118.9
 30
0.0
 11
638.175
 21
14158.4
 31
0.0
  0
LINE
  8
0
 62
     0
 10
638.175
 20
14158.4
 30
0.0
 11
635.543
 21
14196.1
 31
0.0
  0
LINE
  8
0
 62
     0
 10
635.543
 20
14196.1
 30
0.0
 11
632.675
 21
14233.1
 31
0.0
  0
LINE
  8
0
 62
     0
 10
632.675
 20
14233.1
 30
0.0
 11
629.49
 21
14270.8
 31
0.0
  0
LINE
  8
0
 62
     0
 10
629.49
 20
14270.8
 30
0.0
 11
625.884
 21
14310.1
 31
0.0
  0
LINE
  8
0
 62
     0
 10
625.884
 20
14310.1
 30
0.0
 11
621.781
 21
14352.4
 31
0.0
  0
LINE
  8
0
 62
     0
 10
621.781
 20
14352.4
 30
0.0
 11
614.571
 21
14423
 31
0.0
  0
LINE
  8
0
 62
     0
 10
614.571
 20
14423
 30
0.0
 11
602.255
 21
14538.9
 31
0.0
  0
LINE
  8
0
 62
     0
 10
602.255
 20
14538.9
 30
0.0
 11
595.408
 21
14602.7
 31
0.0
  0
LINE
  8
0
 62
     0
 10
595.408
 20
14602.7
 30
0.0
 11
587.541
 21
14606.3
 31
0.0
  0
LINE
  8
0
 62
     0
 10
587.541
 20
14606.3
 30
0.0
 11
579.67
 21
14610
 31
0.0
  0
LINE
  8
0
 62
     0
 10
579.67
 20
14610
 30
0.0
 11
593.806
 21
14620
 31
0.0
  0
LINE
  8
0
 62
     0
 10
593.806
 20
14620
 30
0.0
 11
586.941
 21
14687.7
 31
0.0
  0
LINE
  8
0
 62
     0
 10
586.941
 20
14687.7
 30
0.0
 11
573.931
 21
14814.3
 31
0.0
  0
LINE
  8
0
 62
     0
 10
573.931
 20
14814.3
 30
0.0
 11
565.672
 21
14891.5
 31
0.0
  0
LINE
  8
0
 62
     0
 10
565.672
 20
14891.5
 30
0.0
 11
560.514
 21
14937.6
 31
0.0
  0
LINE
  8
0
 62
     0
 10
560.514
 20
14937.6
 30
0.0
 11
555.466
 21
14980.5
 31
0.0
  0
LINE
  8
0
 62
     0
 10
555.466
 20
14980.5
 30
0.0
 11
550.369
 21
15021.5
 31
0.0
  0
LINE
  8
0
 62
     0
 10
550.369
 20
15021.5
 30
0.0
 11
545.052
 21
15061.7
 31
0.0
  0
LINE
  8
0
 62
     0
 10
545.052
 20
15061.7
 30
0.0
 11
539.351
 21
15102.6
 31
0.0
  0
LINE
  8
0
 62
     0
 10
539.351
 20
15102.6
 30
0.0
 11
533.097
 21
15145.3
 31
0.0
  0
LINE
  8
0
 62
     0
 10
533.097
 20
15145.3
 30
0.0
 11
526.122
 21
15191.2
 31
0.0
  0
LINE
  8
0
 62
     0
 10
526.122
 20
15191.2
 30
0.0
 11
514.085
 21
15267.9
 31
0.0
  0
LINE
  8
0
 62
     0
 10
514.085
 20
15267.9
 30
0.0
 11
493.815
 21
15393.5
 31
0.0
  0
LINE
  8
0
 62
     0
 10
493.815
 20
15393.5
 30
0.0
 11
479.167
 21
15483.6
 31
0.0
  0
LINE
  8
0
 62
     0
 10
479.167
 20
15483.6
 30
0.0
 11
956.501
 21
15484.2
 31
0.0
  0
LINE
  8
0
 62
     0
 10
956.501
 20
15484.2
 30
0.0
 11
960.822
 21
15491.7
 31
0.0
  0
LINE
  8
0
 62
     0
 10
960.822
 20
15491.7
 30
0.0
 11
965.14
 21
15499.3
 31
0.0
  0
LINE
  8
0
 62
     0
 10
965.14
 20
15499.3
 30
0.0
 11
969.483
 21
15491.7
 31
0.0
  0
LINE
  8
0
 62
     0
 10
969.483
 20
15491.7
 30
0.0
 11
973.822
 21
15484.3
 31
0.0
  0
LINE
  8
0
 62
     0
 10
973.822
 20
15484.3
 30
0.0
 11
982.461
 21
15499.3
 31
0.0
  0
LINE
  8
0
 62
     0
 10
982.461
 20
15499.3
 30
0.0
 11
986.801
 21
15491.8
 31
0.0
  0
LINE
  8
0
 62
     0
 10
986.801
 20
15491.8
 30
0.0
 11
991.143
 21
15484.3
 31
0.0
  0
LINE
  8
0
 62
     0
 10
991.143
 20
15484.3
 30
0.0
 11
992.078
 21
14620.1
 31
0.0
  0
LINE
  8
0
 62
     0
 10
992.078
 20
14620.1
 30
0.0
 11
999.578
 21
14615.8
 31
0.0
  0
LINE
  8
0
 62
     0
 10
999.578
 20
14615.8
 30
0.0
 11
1007.08
 21
14611.5
 31
0.0
  0
LINE
  8
0
 62
     0
 10
1007.08
 20
14611.5
 30
0.0
 11
999.578
 21
14607.1
 31
0.0
  0
LINE
  8
0
 62
     0
 10
999.578
 20
14607.1
 30
0.0
 11
992.078
 21
14602.8
 31
0.0
  0
LINE
  8
0
 62
     0
 10
992.078
 20
14602.8
 30
0.0
 11
993.348
 21
13827.8
 31
0.0
  0
LINE
  8
0
 62
     0
 10
993.348
 20
13827.8
 30
0.0
 11
1000.84
 21
13823.4
 31
0.0
  0
LINE
  8
0
 62
     0
 10
1000.84
 20
13823.4
 30
0.0
 11
1008.34
 21
13819.1
 31
0.0
  0
LINE
  8
0
 62
     0
 10
1008.34
 20
13819.1
 30
0.0
 11
1000.84
 21
13814.8
 31
0.0
  0
LINE
  8
0
 62
     0
 10
1000.84
 20
13814.8
 30
0.0
 11
993.348
 21
13810.4
 31
0.0
  0
LINE
  8
0
 62
     0
 10
993.348
 20
13810.4
 30
0.0
 11
994.339
 21
13192.2
 31
0.0
  0
LINE
  8
0
 62
     0
 10
994.339
 20
13192.2
 30
0.0
 11
1001.84
 21
13187.9
 31
0.0
  0
LINE
  8
0
 62
     0
 10
1001.84
 20
13187.9
 30
0.0
 11
1009.34
 21
13183.5
 31
0.0
  0
LINE
  8
0
 62
     0
 10
1009.34
 20
13183.5
 30
0.0
 11
1001.84
 21
13179.2
 31
0.0
  0
LINE
  8
0
 62
     0
 10
1001.84
 20
13179.2
 30
0.0
 11
994.339
 21
13174.8
 31
0.0
  0
LINE
  8
0
 62
     0
 10
994.339
 20
13174.8
 30
0.0
 11
995.355
 21
12561.1
 31
0.0
  0
LINE
  8
0
 62
     0
 10
995.355
 20
12561.1
 30
0.0
 11
1002.86
 21
12556.8
 31
0.0
  0
LINE
  8
0
 62
     0
 10
1002.86
 20
12556.8
 30
0.0
 11
1010.36
 21
12552.5
 31
0.0
  0
LINE
  8
0
 62
     0
 10
1010.36
 20
12552.5
 30
0.0
 11
1002.86
 21
12548.1
 31
0.0
  0
LINE
  8
0
 62
     0
 10
1002.86
 20
12548.1
 30
0.0
 11
995.355
 21
12543.8
 31
0.0
  0
LINE
  8
0
 62
     0
 10
995.355
 20
12543.8
 30
0.0
 11
995.324
 21
11760.9
 31
0.0
  0
LINE
  8
0
 62
     0
 10
664.753
 20
12107
 30
0.0
 11
679.566
 21
12108.1
 31
0.0
  0
LINE
  8
0
 62
     0
 10
679.566
 20
12108.1
 30
0.0
 11
678.815
 21
12118.7
 31
0.0
  0
LINE
  8
0
 62
     0
 10
678.815
 20
12118.7
 30
0.0
 11
664.002
 21
12117.6
 31
0.0
  0
LINE
  8
0
 62
     0
 10
664.002
 20
12117.6
 30
0.0
 11
663.254
 21
12128.2
 31
0.0
  0
LINE
  8
0
 62
     0
 10
663.254
 20
12128.2
 30
0.0
 11
678.064
 21
12129.2
 31
0.0
  0
LINE
  8
0
 62
     0
 10
678.064
 20
12129.2
 30
0.0
 11
677.312
 21
12139.8
 31
0.0
  0
LINE
  8
0
 62
     0
 10
677.312
 20
12139.8
 30
0.0
 11
662.499
 21
12138.8
 31
0.0
  0
LINE
  8
0
 62
     0
 10
662.499
 20
12138.8
 30
0.0
 11
635.974
 21
12512.3
 31
0.0
  0
LINE
  8
0
 62
     0
 10
635.974
 20
12512.3
 30
0.0
 11
650.787
 21
12513.3
 31
0.0
  0
LINE
  8
0
 62
     0
 10
650.787
 20
12513.3
 30
0.0
 11
650.035
 21
12523.9
 31
0.0
  0
LINE
  8
0
 62
     0
 10
650.035
 20
12523.9
 30
0.0
 11
635.222
 21
12522.8
 31
0.0
  0
LINE
  8
0
 62
     0
 10
635.222
 20
12522.8
 30
0.0
 11
634.471
 21
12533.4
 31
0.0
  0
LINE
  8
0
 62
     0
 10
634.471
 20
12533.4
 30
0.0
 11
649.284
 21
12534.5
 31
0.0
  0
LINE
  8
0
 62
     0
 10
649.284
 20
12534.5
 30
0.0
 11
648.533
 21
12545.1
 31
0.0
  0
LINE
  8
0
 62
     0
 10
648.533
 20
12545.1
 30
0.0
 11
633.719
 21
12544
 31
0.0
  0
LINE
  8
0
 62
     0
 10
633.719
 20
12544
 30
0.0
 11
632.968
 21
12554.6
 31
0.0
  0
LINE
  8
0
 62
     0
 10
632.968
 20
12554.6
 30
0.0
 11
647.781
 21
12555.6
 31
0.0
  0
LINE
  8
0
 62
     0
 10
647.781
 20
12555.6
 30
0.0
 11
647.03
 21
12566.2
 31
0.0
  0
LINE
  8
0
 62
     0
 10
647.03
 20
12566.2
 30
0.0
 11
632.217
 21
12565.2
 31
0.0
  0
LINE
  8
0
 62
     0
 10
632.217
 20
12565.2
 30
0.0
 11
67.9401
 21
12948.5
 31
0.0
  0
LINE
  8
0
 62
     0
 10
67.9401
 20
12948.5
 30
0.0
 11
61.4056
 21
12939.3
 31
0.0
  0
LINE
  8
0
 62
     0
 10
61.4056
 20
12939.3
 30
0.0
 11
50.1579
 21
12938.9
 31
0.0
  0
LINE
  8
0
 62
     0
 10
50.1579
 20
12938.9
 30
0.0
 11
79.8241
 21
12521.2
 31
0.0
  0
LINE
  8
0
 62
     0
 10
79.8241
 20
12521.2
 30
0.0
 11
77.5367
 21
12482.4
 31
0.0
  0
LINE
  8
0
 62
     0
 10
77.5367
 20
12482.4
 30
0.0
 11
74.7998
 21
12441.3
 31
0.0
  0
LINE
  8
0
 62
     0
 10
74.7998
 20
12441.3
 30
0.0
 11
71.6456
 21
12398.2
 31
0.0
  0
LINE
  8
0
 62
     0
 10
71.6456
 20
12398.2
 30
0.0
 11
67.9993
 21
12351.9
 31
0.0
  0
LINE
  8
0
 62
     0
 10
67.9993
 20
12351.9
 30
0.0
 11
61.5237
 21
12274.6
 31
0.0
  0
LINE
  8
0
 62
     0
 10
61.5237
 20
12274.6
 30
0.0
 11
50.37
 21
12147.8
 31
0.0
  0
LINE
  8
0
 62
     0
 10
50.37
 20
12147.8
 30
0.0
 11
43.3546
 21
12069.2
 31
0.0
  0
LINE
  8
0
 62
     0
 10
43.3546
 20
12069.2
 30
0.0
 11
77.9681
 21
11581.8
 31
0.0
  0
LINE
  8
0
 62
     0
 10
77.9681
 20
11581.8
 30
0.0
 11
89.1798
 21
11582.8
 31
0.0
  0
LINE
  8
0
 62
     0
 10
89.1798
 20
11582.8
 30
0.0
 11
97.1187
 21
11574.8
 31
0.0
  0
LINE
  8
0
 62
     0
 10
97.1187
 20
11574.8
 30
0.0
 11
664.753
 21
12107
 31
0.0
  0
LINE
  8
0
 62
     0
 10
16.2195
 20
13525.6
 30
0.0
 11
8.46529
 21
13529.5
 31
0.0
  0
LINE
  8
0
 62
     0
 10
8.46529
 20
13529.5
 30
0.0
 11
0.70969
 21
13533.3
 31
0.0
  0
LINE
  8
0
 62
     0
 10
0.70969
 20
13533.3
 30
0.0
 11
15.1433
 21
13542.9
 31
0.0
  0
LINE
  8
0
 62
     0
 10
15.1433
 20
13542.9
 30
0.0
 11
587.537
 21
14070.3
 31
0.0
  0
LINE
  8
0
 62
     0
 10
587.537
 20
14070.3
 30
0.0
 11
595.288
 21
14062.1
 31
0.0
  0
LINE
  8
0
 62
     0
 10
595.288
 20
14062.1
 30
0.0
 11
606.563
 21
14062.1
 31
0.0
  0
LINE
  8
0
 62
     0
 10
606.563
 20
14062.1
 30
0.0
 11
636.778
 21
13576.5
 31
0.0
  0
LINE
  8
0
 62
     0
 10
636.778
 20
13576.5
 30
0.0
 11
644.966
 21
13501.5
 31
0.0
  0
LINE
  8
0
 62
     0
 10
644.966
 20
13501.5
 30
0.0
 11
658.516
 21
13378.9
 31
0.0
  0
LINE
  8
0
 62
     0
 10
658.516
 20
13378.9
 30
0.0
 11
667.089
 21
13304.2
 31
0.0
  0
LINE
  8
0
 62
     0
 10
667.089
 20
13304.2
 30
0.0
 11
672.433
 21
13259.5
 31
0.0
  0
LINE
  8
0
 62
     0
 10
672.433
 20
13259.5
 30
0.0
 11
677.64
 21
13218
 31
0.0
  0
LINE
  8
0
 62
     0
 10
677.64
 20
13218
 30
0.0
 11
682.883
 21
13178.3
 31
0.0
  0
LINE
  8
0
 62
     0
 10
682.883
 20
13178.3
 30
0.0
 11
688.333
 21
13139.3
 31
0.0
  0
LINE
  8
0
 62
     0
 10
688.333
 20
13139.3
 30
0.0
 11
694.161
 21
13099.7
 31
0.0
  0
LINE
  8
0
 62
     0
 10
694.161
 20
13099.7
 30
0.0
 11
697.107
 21
13080.6
 31
0.0
  0
LINE
  8
0
 62
     0
 10
697.107
 20
13080.6
 30
0.0
 11
729.216
 21
12564.6
 31
0.0
  0
LINE
  8
0
 62
     0
 10
729.216
 20
12564.6
 30
0.0
 11
718.012
 21
12563.5
 31
0.0
  0
LINE
  8
0
 62
     0
 10
718.012
 20
12563.5
 30
0.0
 11
710.403
 21
12555.1
 31
0.0
  0
LINE
  8
0
 62
     0
 10
710.403
 20
12555.1
 30
0.0
 11
46.7872
 21
13034.3
 31
0.0
  0
LINE
  8
0
 62
     0
 10
46.7872
 20
13034.3
 30
0.0
 11
31.2787
 21
13042
 31
0.0
  0
LINE
  8
0
 62
     0
 10
31.2787
 20
13042
 30
0.0
 11
45.7122
 21
13051.6
 31
0.0
  0
LINE
  8
0
 62
     0
 10
45.7122
 20
13051.6
 30
0.0
 11
17.2944
 21
13508.4
 31
0.0
  0
LINE
  8
0
 62
     0
 10
17.2944
 20
13508.4
 30
0.0
 11
9.54017
 21
13512.2
 31
0.0
  0
LINE
  8
0
 62
     0
 10
9.54017
 20
13512.2
 30
0.0
 11
1.78594
 21
13516
 31
0.0
  0
LINE
  8
0
 62
     0
 10
1.78594
 20
13516
 30
0.0
 11
9.00271
 21
13520.8
 31
0.0
  0
LINE
  8
0
 62
     0
 10
9.00271
 20
13520.8
 30
0.0
 11
16.2195
 21
13525.6
 31
0.0
  0
LINE
  8
0
 62
     0
 10
697.625
 20
4219.5
 30
0.0
 11
712.188
 21
4222.4
 31
0.0
  0
LINE
  8
0
 62
     0
 10
712.188
 20
4222.4
 30
0.0
 11
710.124
 21
4232.8
 31
0.0
  0
LINE
  8
0
 62
     0
 10
710.124
 20
4232.8
 30
0.0
 11
695.558
 21
4229.91
 31
0.0
  0
LINE
  8
0
 62
     0
 10
695.558
 20
4229.91
 30
0.0
 11
693.491
 21
4240.32
 31
0.0
  0
LINE
  8
0
 62
     0
 10
693.491
 20
4240.32
 30
0.0
 11
708.057
 21
4243.21
 31
0.0
  0
LINE
  8
0
 62
     0
 10
708.057
 20
4243.21
 30
0.0
 11
705.986
 21
4253.62
 31
0.0
  0
LINE
  8
0
 62
     0
 10
705.986
 20
4253.62
 30
0.0
 11
691.423
 21
4250.73
 31
0.0
  0
LINE
  8
0
 62
     0
 10
691.423
 20
4250.73
 30
0.0
 11
689.356
 21
4261.13
 31
0.0
  0
LINE
  8
0
 62
     0
 10
689.356
 20
4261.13
 30
0.0
 11
703.919
 21
4264.03
 31
0.0
  0
LINE
  8
0
 62
     0
 10
703.919
 20
4264.03
 30
0.0
 11
701.851
 21
4274.4
 31
0.0
  0
LINE
  8
0
 62
     0
 10
701.851
 20
4274.4
 30
0.0
 11
687.289
 21
4271.5
 31
0.0
  0
LINE
  8
0
 62
     0
 10
687.289
 20
4271.5
 30
0.0
 11
653.14
 21
4443.38
 31
0.0
  0
LINE
  8
0
 62
     0
 10
653.14
 20
4443.38
 30
0.0
 11
642.013
 21
4441.61
 31
0.0
  0
LINE
  8
0
 62
     0
 10
642.013
 20
4441.61
 30
0.0
 11
632.7
 21
4448
 31
0.0
  0
LINE
  8
0
 62
     0
 10
632.7
 20
4448
 30
0.0
 11
416.877
 21
4080.65
 31
0.0
  0
LINE
  8
0
 62
     0
 10
416.877
 20
4080.65
 30
0.0
 11
593.612
 21
3997.75
 31
0.0
  0
LINE
  8
0
 62
     0
 10
593.612
 20
3997.75
 30
0.0
 11
697.625
 21
4219.5
 31
0.0
  0
LINE
  8
0
 62
     0
 10
252.775
 20
560.44
 30
0.0
 11
247.962
 21
1262.51
 31
0.0
  0
LINE
  8
0
 62
     0
 10
247.962
 20
1262.51
 30
0.0
 11
250.378
 21
1277.16
 31
0.0
  0
LINE
  8
0
 62
     0
 10
250.378
 20
1277.16
 30
0.0
 11
239.914
 21
1278.89
 31
0.0
  0
LINE
  8
0
 62
     0
 10
239.914
 20
1278.89
 30
0.0
 11
237.497
 21
1264.24
 31
0.0
  0
LINE
  8
0
 62
     0
 10
237.497
 20
1264.24
 30
0.0
 11
227.032
 21
1265.96
 31
0.0
  0
LINE
  8
0
 62
     0
 10
227.032
 20
1265.96
 30
0.0
 11
229.447
 21
1280.62
 31
0.0
  0
LINE
  8
0
 62
     0
 10
229.447
 20
1280.62
 30
0.0
 11
218.983
 21
1282.34
 31
0.0
  0
LINE
  8
0
 62
     0
 10
218.983
 20
1282.34
 30
0.0
 11
216.566
 21
1267.69
 31
0.0
  0
LINE
  8
0
 62
     0
 10
216.566
 20
1267.69
 30
0.0
 11
206.101
 21
1269.42
 31
0.0
  0
LINE
  8
0
 62
     0
 10
206.101
 20
1269.42
 30
0.0
 11
208.518
 21
1284.07
 31
0.0
  0
LINE
  8
0
 62
     0
 10
208.518
 20
1284.07
 30
0.0
 11
198.053
 21
1285.8
 31
0.0
  0
LINE
  8
0
 62
     0
 10
198.053
 20
1285.8
 30
0.0
 11
195.636
 21
1271.14
 31
0.0
  0
LINE
  8
0
 62
     0
 10
195.636
 20
1271.14
 30
0.0
 11
185.17
 21
1272.87
 31
0.0
  0
LINE
  8
0
 62
     0
 10
185.17
 20
1272.87
 30
0.0
 11
187.587
 21
1287.52
 31
0.0
  0
LINE
  8
0
 62
     0
 10
187.587
 20
1287.52
 30
0.0
 11
177.122
 21
1289.25
 31
0.0
  0
LINE
  8
0
 62
     0
 10
177.122
 20
1289.25
 30
0.0
 11
174.705
 21
1274.6
 31
0.0
  0
LINE
  8
0
 62
     0
 10
174.705
 20
1274.6
 30
0.0
 11
164.24
 21
1276.33
 31
0.0
  0
LINE
  8
0
 62
     0
 10
164.24
 20
1276.33
 30
0.0
 11
166.657
 21
1290.98
 31
0.0
  0
LINE
  8
0
 62
     0
 10
166.657
 20
1290.98
 30
0.0
 11
156.191
 21
1292.7
 31
0.0
  0
LINE
  8
0
 62
     0
 10
156.191
 20
1292.7
 30
0.0
 11
153.775
 21
1278.05
 31
0.0
  0
LINE
  8
0
 62
     0
 10
153.775
 20
1278.05
 30
0.0
 11
143.309
 21
1279.78
 31
0.0
  0
LINE
  8
0
 62
     0
 10
143.309
 20
1279.78
 30
0.0
 11
145.726
 21
1294.43
 31
0.0
  0
LINE
  8
0
 62
     0
 10
145.726
 20
1294.43
 30
0.0
 11
135.261
 21
1296.15
 31
0.0
  0
LINE
  8
0
 62
     0
 10
135.261
 20
1296.15
 30
0.0
 11
132.844
 21
1281.5
 31
0.0
  0
LINE
  8
0
 62
     0
 10
132.844
 20
1281.5
 30
0.0
 11
122.379
 21
1283.23
 31
0.0
  0
LINE
  8
0
 62
     0
 10
122.379
 20
1283.23
 30
0.0
 11
124.797
 21
1297.88
 31
0.0
  0
LINE
  8
0
 62
     0
 10
124.797
 20
1297.88
 30
0.0
 11
114.33
 21
1299.61
 31
0.0
  0
LINE
  8
0
 62
     0
 10
114.33
 20
1299.61
 30
0.0
 11
111.913
 21
1284.95
 31
0.0
  0
LINE
  8
0
 62
     0
 10
111.913
 20
1284.95
 30
0.0
 11
18.5029
 21
1300.36
 31
0.0
  0
LINE
  8
0
 62
     0
 10
18.5029
 20
1300.36
 30
0.0
 11
14.7712
 21
1289.58
 31
0.0
  0
LINE
  8
0
 62
     0
 10
14.7712
 20
1289.58
 30
0.0
 11
3.52502
 21
1289.12
 31
0.0
  0
LINE
  8
0
 62
     0
 10
3.52502
 20
1289.12
 30
0.0
 11
13.1947
 21
509.926
 31
0.0
  0
LINE
  8
0
 62
     0
 10
13.1947
 20
509.926
 30
0.0
 11
24.4505
 21
509.57
 31
0.0
  0
LINE
  8
0
 62
     0
 10
24.4505
 20
509.57
 30
0.0
 11
27.5401
 21
498.75
 31
0.0
  0
LINE
  8
0
 62
     0
 10
27.5401
 20
498.75
 30
0.0
 11
140.246
 21
529.618
 31
0.0
  0
LINE
  8
0
 62
     0
 10
140.246
 20
529.618
 30
0.0
 11
144.169
 21
515.295
 31
0.0
  0
LINE
  8
0
 62
     0
 10
144.169
 20
515.295
 30
0.0
 11
154.398
 21
518.1
 31
0.0
  0
LINE
  8
0
 62
     0
 10
154.398
 20
518.1
 30
0.0
 11
150.476
 21
532.419
 31
0.0
  0
LINE
  8
0
 62
     0
 10
150.476
 20
532.419
 30
0.0
 11
160.705
 21
535.224
 31
0.0
  0
LINE
  8
0
 62
     0
 10
160.705
 20
535.224
 30
0.0
 11
164.629
 21
520.901
 31
0.0
  0
LINE
  8
0
 62
     0
 10
164.629
 20
520.901
 30
0.0
 11
174.858
 21
523.702
 31
0.0
  0
LINE
  8
0
 62
     0
 10
174.858
 20
523.702
 30
0.0
 11
170.936
 21
538.025
 31
0.0
  0
LINE
  8
0
 62
     0
 10
170.936
 20
538.025
 30
0.0
 11
181.165
 21
540.826
 31
0.0
  0
LINE
  8
0
 62
     0
 10
181.165
 20
540.826
 30
0.0
 11
185.088
 21
526.503
 31
0.0
  0
LINE
  8
0
 62
     0
 10
185.088
 20
526.503
 30
0.0
 11
195.318
 21
529.304
 31
0.0
  0
LINE
  8
0
 62
     0
 10
195.318
 20
529.304
 30
0.0
 11
191.396
 21
543.627
 31
0.0
  0
LINE
  8
0
 62
     0
 10
191.396
 20
543.627
 30
0.0
 11
201.625
 21
546.432
 31
0.0
  0
LINE
  8
0
 62
     0
 10
201.625
 20
546.432
 30
0.0
 11
205.548
 21
532.109
 31
0.0
  0
LINE
  8
0
 62
     0
 10
205.548
 20
532.109
 30
0.0
 11
215.777
 21
534.91
 31
0.0
  0
LINE
  8
0
 62
     0
 10
215.777
 20
534.91
 30
0.0
 11
211.855
 21
549.233
 31
0.0
  0
LINE
  8
0
 62
     0
 10
211.855
 20
549.233
 30
0.0
 11
222.085
 21
552.034
 31
0.0
  0
LINE
  8
0
 62
     0
 10
222.085
 20
552.034
 30
0.0
 11
226.008
 21
537.711
 31
0.0
  0
LINE
  8
0
 62
     0
 10
226.008
 20
537.711
 30
0.0
 11
236.237
 21
540.512
 31
0.0
  0
LINE
  8
0
 62
     0
 10
236.237
 20
540.512
 30
0.0
 11
232.315
 21
554.835
 31
0.0
  0
LINE
  8
0
 62
     0
 10
232.315
 20
554.835
 30
0.0
 11
242.544
 21
557.636
 31
0.0
  0
LINE
  8
0
 62
     0
 10
242.544
 20
557.636
 30
0.0
 11
246.467
 21
543.317
 31
0.0
  0
LINE
  8
0
 62
     0
 10
246.467
 20
543.317
 30
0.0
 11
256.697
 21
546.118
 31
0.0
  0
LINE
  8
0
 62
     0
 10
256.697
 20
546.118
 30
0.0
 11
252.775
 21
560.44
 31
0.0
  0
LINE
  8
0
 62
     0
 10
504.19
 20
498.577
 30
0.0
 11
508.377
 21
1071.7
 31
0.0
  0
LINE
  8
0
 62
     0
 10
508.377
 20
1071.7
 30
0.0
 11
510.367
 21
1086.42
 31
0.0
  0
LINE
  8
0
 62
     0
 10
510.367
 20
1086.42
 30
0.0
 11
499.858
 21
1087.84
 31
0.0
  0
LINE
  8
0
 62
     0
 10
499.858
 20
1087.84
 30
0.0
 11
497.868
 21
1073.13
 31
0.0
  0
LINE
  8
0
 62
     0
 10
497.868
 20
1073.13
 30
0.0
 11
487.355
 21
1074.54
 31
0.0
  0
LINE
  8
0
 62
     0
 10
487.355
 20
1074.54
 30
0.0
 11
489.349
 21
1089.26
 31
0.0
  0
LINE
  8
0
 62
     0
 10
489.349
 20
1089.26
 30
0.0
 11
478.836
 21
1090.68
 31
0.0
  0
LINE
  8
0
 62
     0
 10
478.836
 20
1090.68
 30
0.0
 11
476.846
 21
1075.97
 31
0.0
  0
LINE
  8
0
 62
     0
 10
476.846
 20
1075.97
 30
0.0
 11
466.333
 21
1077.39
 31
0.0
  0
LINE
  8
0
 62
     0
 10
466.333
 20
1077.39
 30
0.0
 11
468.327
 21
1092.1
 31
0.0
  0
LINE
  8
0
 62
     0
 10
468.327
 20
1092.1
 30
0.0
 11
457.814
 21
1093.52
 31
0.0
  0
LINE
  8
0
 62
     0
 10
457.814
 20
1093.52
 30
0.0
 11
455.824
 21
1078.81
 31
0.0
  0
LINE
  8
0
 62
     0
 10
455.824
 20
1078.81
 30
0.0
 11
445.311
 21
1080.23
 31
0.0
  0
LINE
  8
0
 62
     0
 10
445.311
 20
1080.23
 30
0.0
 11
447.305
 21
1094.94
 31
0.0
  0
LINE
  8
0
 62
     0
 10
447.305
 20
1094.94
 30
0.0
 11
436.792
 21
1096.37
 31
0.0
  0
LINE
  8
0
 62
     0
 10
436.792
 20
1096.37
 30
0.0
 11
434.802
 21
1081.65
 31
0.0
  0
LINE
  8
0
 62
     0
 10
434.802
 20
1081.65
 30
0.0
 11
424.289
 21
1083.07
 31
0.0
  0
LINE
  8
0
 62
     0
 10
424.289
 20
1083.07
 30
0.0
 11
426.283
 21
1097.79
 31
0.0
  0
LINE
  8
0
 62
     0
 10
426.283
 20
1097.79
 30
0.0
 11
415.77
 21
1099.21
 31
0.0
  0
LINE
  8
0
 62
     0
 10
415.77
 20
1099.21
 30
0.0
 11
413.78
 21
1084.5
 31
0.0
  0
LINE
  8
0
 62
     0
 10
413.78
 20
1084.5
 30
0.0
 11
403.271
 21
1085.92
 31
0.0
  0
LINE
  8
0
 62
     0
 10
403.271
 20
1085.92
 30
0.0
 11
405.261
 21
1100.63
 31
0.0
  0
LINE
  8
0
 62
     0
 10
405.261
 20
1100.63
 30
0.0
 11
394.748
 21
1102.05
 31
0.0
  0
LINE
  8
0
 62
     0
 10
394.748
 20
1102.05
 30
0.0
 11
392.758
 21
1087.34
 31
0.0
  0
LINE
  8
0
 62
     0
 10
392.758
 20
1087.34
 30
0.0
 11
275.446
 21
1103.2
 31
0.0
  0
LINE
  8
0
 62
     0
 10
275.446
 20
1103.2
 30
0.0
 11
274.079
 21
1092.03
 31
0.0
  0
LINE
  8
0
 62
     0
 10
274.079
 20
1092.03
 30
0.0
 11
262.829
 21
1091.96
 31
0.0
  0
LINE
  8
0
 62
     0
 10
262.829
 20
1091.96
 30
0.0
 11
261.582
 21
461.193
 31
0.0
  0
LINE
  8
0
 62
     0
 10
261.582
 20
461.193
 30
0.0
 11
272.834
 21
461.331
 31
0.0
  0
LINE
  8
0
 62
     0
 10
272.834
 20
461.331
 30
0.0
 11
274.526
 21
450.233
 31
0.0
  0
LINE
  8
0
 62
     0
 10
274.526
 20
450.233
 30
0.0
 11
410.778
 21
478.913
 31
0.0
  0
LINE
  8
0
 62
     0
 10
410.778
 20
478.913
 30
0.0
 11
413.837
 21
464.383
 31
0.0
  0
LINE
  8
0
 62
     0
 10
413.837
 20
464.383
 30
0.0
 11
424.215
 21
466.57
 31
0.0
  0
LINE
  8
0
 62
     0
 10
424.215
 20
466.57
 30
0.0
 11
421.157
 21
481.101
 31
0.0
  0
LINE
  8
0
 62
     0
 10
421.157
 20
481.101
 30
0.0
 11
431.535
 21
483.284
 31
0.0
  0
LINE
  8
0
 62
     0
 10
431.535
 20
483.284
 30
0.0
 11
434.598
 21
468.753
 31
0.0
  0
LINE
  8
0
 62
     0
 10
434.598
 20
468.753
 30
0.0
 11
444.973
 21
470.941
 31
0.0
  0
LINE
  8
0
 62
     0
 10
444.973
 20
470.941
 30
0.0
 11
441.918
 21
485.468
 31
0.0
  0
LINE
  8
0
 62
     0
 10
441.918
 20
485.468
 30
0.0
 11
452.296
 21
487.655
 31
0.0
  0
LINE
  8
0
 62
     0
 10
452.296
 20
487.655
 30
0.0
 11
455.355
 21
473.124
 31
0.0
  0
LINE
  8
0
 62
     0
 10
455.355
 20
473.124
 30
0.0
 11
465.734
 21
475.308
 31
0.0
  0
LINE
  8
0
 62
     0
 10
465.734
 20
475.308
 30
0.0
 11
462.675
 21
489.839
 31
0.0
  0
LINE
  8
0
 62
     0
 10
462.675
 20
489.839
 30
0.0
 11
473.054
 21
492.023
 31
0.0
  0
LINE
  8
0
 62
     0
 10
473.054
 20
492.023
 30
0.0
 11
476.112
 21
477.492
 31
0.0
  0
LINE
  8
0
 62
     0
 10
476.112
 20
477.492
 30
0.0
 11
486.491
 21
479.679
 31
0.0
  0
LINE
  8
0
 62
     0
 10
486.491
 20
479.679
 30
0.0
 11
483.433
 21
494.21
 31
0.0
  0
LINE
  8
0
 62
     0
 10
483.433
 20
494.21
 30
0.0
 11
493.811
 21
496.394
 31
0.0
  0
LINE
  8
0
 62
     0
 10
493.811
 20
496.394
 30
0.0
 11
496.87
 21
481.863
 31
0.0
  0
LINE
  8
0
 62
     0
 10
496.87
 20
481.863
 30
0.0
 11
507.252
 21
484.05
 31
0.0
  0
LINE
  8
0
 62
     0
 10
507.252
 20
484.05
 30
0.0
 11
504.19
 21
498.577
 31
0.0
  0
LINE
  8
0
 62
     0
 10
755.258
 20
371.316
 30
0.0
 11
736.798
 21
955.971
 31
0.0
  0
LINE
  8
0
 62
     0
 10
736.798
 20
955.971
 30
0.0
 11
744.499
 21
968.668
 31
0.0
  0
LINE
  8
0
 62
     0
 10
744.499
 20
968.668
 30
0.0
 11
735.429
 21
974.168
 31
0.0
  0
LINE
  8
0
 62
     0
 10
735.429
 20
974.168
 30
0.0
 11
727.728
 21
961.471
 31
0.0
  0
LINE
  8
0
 62
     0
 10
727.728
 20
961.471
 30
0.0
 11
718.658
 21
966.971
 31
0.0
  0
LINE
  8
0
 62
     0
 10
718.658
 20
966.971
 30
0.0
 11
726.359
 21
979.667
 31
0.0
  0
LINE
  8
0
 62
     0
 10
726.359
 20
979.667
 30
0.0
 11
717.289
 21
985.167
 31
0.0
  0
LINE
  8
0
 62
     0
 10
717.289
 20
985.167
 30
0.0
 11
709.588
 21
972.471
 31
0.0
  0
LINE
  8
0
 62
     0
 10
709.588
 20
972.471
 30
0.0
 11
700.521
 21
977.971
 31
0.0
  0
LINE
  8
0
 62
     0
 10
700.521
 20
977.971
 30
0.0
 11
708.219
 21
990.667
 31
0.0
  0
LINE
  8
0
 62
     0
 10
708.219
 20
990.667
 30
0.0
 11
699.149
 21
996.167
 31
0.0
  0
LINE
  8
0
 62
     0
 10
699.149
 20
996.167
 30
0.0
 11
691.452
 21
983.47
 31
0.0
  0
LINE
  8
0
 62
     0
 10
691.452
 20
983.47
 30
0.0
 11
682.382
 21
988.97
 31
0.0
  0
LINE
  8
0
 62
     0
 10
682.382
 20
988.97
 30
0.0
 11
690.083
 21
1001.67
 31
0.0
  0
LINE
  8
0
 62
     0
 10
690.083
 20
1001.67
 30
0.0
 11
681.013
 21
1007.17
 31
0.0
  0
LINE
  8
0
 62
     0
 10
681.013
 20
1007.17
 30
0.0
 11
673.312
 21
994.47
 31
0.0
  0
LINE
  8
0
 62
     0
 10
673.312
 20
994.47
 30
0.0
 11
664.242
 21
999.97
 31
0.0
  0
LINE
  8
0
 62
     0
 10
664.242
 20
999.97
 30
0.0
 11
671.943
 21
1012.67
 31
0.0
  0
LINE
  8
0
 62
     0
 10
671.943
 20
1012.67
 30
0.0
 11
662.873
 21
1018.17
 31
0.0
  0
LINE
  8
0
 62
     0
 10
662.873
 20
1018.17
 30
0.0
 11
655.175
 21
1005.47
 31
0.0
  0
LINE
  8
0
 62
     0
 10
655.175
 20
1005.47
 30
0.0
 11
538.907
 21
1075.98
 31
0.0
  0
LINE
  8
0
 62
     0
 10
538.907
 20
1075.98
 30
0.0
 11
533.351
 21
1066.19
 31
0.0
  0
LINE
  8
0
 62
     0
 10
533.351
 20
1066.19
 30
0.0
 11
522.101
 21
1066.25
 31
0.0
  0
LINE
  8
0
 62
     0
 10
522.101
 20
1066.25
 30
0.0
 11
511.958
 21
431.564
 31
0.0
  0
LINE
  8
0
 62
     0
 10
511.958
 20
431.564
 30
0.0
 11
523.198
 21
430.692
 31
0.0
  0
LINE
  8
0
 62
     0
 10
523.198
 20
430.692
 30
0.0
 11
519.592
 21
419.95
 31
0.0
  0
LINE
  8
0
 62
     0
 10
519.592
 20
419.95
 30
0.0
 11
682.544
 21
386.323
 31
0.0
  0
LINE
  8
0
 62
     0
 10
682.544
 20
386.323
 30
0.0
 11
679.542
 21
371.778
 31
0.0
  0
LINE
  8
0
 62
     0
 10
679.542
 20
371.778
 30
0.0
 11
689.931
 21
369.637
 31
0.0
  0
LINE
  8
0
 62
     0
 10
689.931
 20
369.637
 30
0.0
 11
692.93
 21
384.179
 31
0.0
  0
LINE
  8
0
 62
     0
 10
692.93
 20
384.179
 30
0.0
 11
703.319
 21
382.034
 31
0.0
  0
LINE
  8
0
 62
     0
 10
703.319
 20
382.034
 30
0.0
 11
700.317
 21
367.492
 31
0.0
  0
LINE
  8
0
 62
     0
 10
700.317
 20
367.492
 30
0.0
 11
710.706
 21
365.347
 31
0.0
  0
LINE
  8
0
 62
     0
 10
710.706
 20
365.347
 30
0.0
 11
713.708
 21
379.892
 31
0.0
  0
LINE
  8
0
 62
     0
 10
713.708
 20
379.892
 30
0.0
 11
724.094
 21
377.747
 31
0.0
  0
LINE
  8
0
 62
     0
 10
724.094
 20
377.747
 30
0.0
 11
721.095
 21
363.206
 31
0.0
  0
LINE
  8
0
 62
     0
 10
721.095
 20
363.206
 30
0.0
 11
731.481
 21
361.061
 31
0.0
  0
LINE
  8
0
 62
     0
 10
731.481
 20
361.061
 30
0.0
 11
734.483
 21
375.602
 31
0.0
  0
LINE
  8
0
 62
     0
 10
734.483
 20
375.602
 30
0.0
 11
744.873
 21
373.461
 31
0.0
  0
LINE
  8
0
 62
     0
 10
744.873
 20
373.461
 30
0.0
 11
741.87
 21
358.916
 31
0.0
  0
LINE
  8
0
 62
     0
 10
741.87
 20
358.916
 30
0.0
 11
752.256
 21
356.775
 31
0.0
  0
LINE
  8
0
 62
     0
 10
752.256
 20
356.775
 30
0.0
 11
755.258
 21
371.316
 31
0.0
  0
LINE
  8
0
 62
     0
 10
969.081
 20
10096.5
 30
0.0
 11
938.04
 21
10797.1
 31
0.0
  0
LINE
  8
0
 62
     0
 10
938.04
 20
10797.1
 30
0.0
 11
944.58
 21
10810.4
 31
0.0
  0
LINE
  8
0
 62
     0
 10
944.58
 20
10810.4
 30
0.0
 11
935.059
 21
10815.1
 31
0.0
  0
LINE
  8
0
 62
     0
 10
935.059
 20
10815.1
 30
0.0
 11
928.518
 21
10801.7
 31
0.0
  0
LINE
  8
0
 62
     0
 10
928.518
 20
10801.7
 30
0.0
 11
918.997
 21
10806.4
 31
0.0
  0
LINE
  8
0
 62
     0
 10
918.997
 20
10806.4
 30
0.0
 11
925.537
 21
10819.8
 31
0.0
  0
LINE
  8
0
 62
     0
 10
925.537
 20
10819.8
 30
0.0
 11
916.016
 21
10824.4
 31
0.0
  0
LINE
  8
0
 62
     0
 10
916.016
 20
10824.4
 30
0.0
 11
909.475
 21
10811.1
 31
0.0
  0
LINE
  8
0
 62
     0
 10
909.475
 20
10811.1
 30
0.0
 11
899.954
 21
10815.8
 31
0.0
  0
LINE
  8
0
 62
     0
 10
899.954
 20
10815.8
 30
0.0
 11
906.494
 21
10829.1
 31
0.0
  0
LINE
  8
0
 62
     0
 10
906.494
 20
10829.1
 30
0.0
 11
896.973
 21
10833.8
 31
0.0
  0
LINE
  8
0
 62
     0
 10
896.973
 20
10833.8
 30
0.0
 11
890.429
 21
10820.4
 31
0.0
  0
LINE
  8
0
 62
     0
 10
890.429
 20
10820.4
 30
0.0
 11
880.911
 21
10825.1
 31
0.0
  0
LINE
  8
0
 62
     0
 10
880.911
 20
10825.1
 30
0.0
 11
887.451
 21
10838.5
 31
0.0
  0
LINE
  8
0
 62
     0
 10
887.451
 20
10838.5
 30
0.0
 11
877.93
 21
10843.1
 31
0.0
  0
LINE
  8
0
 62
     0
 10
877.93
 20
10843.1
 30
0.0
 11
871.386
 21
10829.8
 31
0.0
  0
LINE
  8
0
 62
     0
 10
871.386
 20
10829.8
 30
0.0
 11
729.298
 21
10899.5
 31
0.0
  0
LINE
  8
0
 62
     0
 10
729.298
 20
10899.5
 30
0.0
 11
725.103
 21
10889.1
 31
0.0
  0
LINE
  8
0
 62
     0
 10
725.103
 20
10889.1
 30
0.0
 11
713.86
 21
10888.2
 31
0.0
  0
LINE
  8
0
 62
     0
 10
713.86
 20
10888.2
 30
0.0
 11
721.36
 21
10095.4
 31
0.0
  0
LINE
  8
0
 62
     0
 10
721.36
 20
10095.4
 30
0.0
 11
732.603
 21
10096.3
 31
0.0
  0
LINE
  8
0
 62
     0
 10
732.603
 20
10096.3
 30
0.0
 11
733.019
 21
10085
 31
0.0
  0
LINE
  8
0
 62
     0
 10
733.019
 20
10085
 30
0.0
 11
916.111
 21
10094
 31
0.0
  0
LINE
  8
0
 62
     0
 10
916.111
 20
10094
 30
0.0
 11
916.834
 21
10079.1
 31
0.0
  0
LINE
  8
0
 62
     0
 10
916.834
 20
10079.1
 30
0.0
 11
927.428
 21
10079.6
 31
0.0
  0
LINE
  8
0
 62
     0
 10
927.428
 20
10079.6
 30
0.0
 11
926.705
 21
10094.5
 31
0.0
  0
LINE
  8
0
 62
     0
 10
926.705
 20
10094.5
 30
0.0
 11
937.299
 21
10095
 31
0.0
  0
LINE
  8
0
 62
     0
 10
937.299
 20
10095
 30
0.0
 11
938.022
 21
10080.2
 31
0.0
  0
LINE
  8
0
 62
     0
 10
938.022
 20
10080.2
 30
0.0
 11
948.616
 21
10080.7
 31
0.0
  0
LINE
  8
0
 62
     0
 10
948.616
 20
10080.7
 30
0.0
 11
947.893
 21
10095.5
 31
0.0
  0
LINE
  8
0
 62
     0
 10
947.893
 20
10095.5
 30
0.0
 11
958.487
 21
10096
 31
0.0
  0
LINE
  8
0
 62
     0
 10
958.487
 20
10096
 30
0.0
 11
959.21
 21
10081.2
 31
0.0
  0
LINE
  8
0
 62
     0
 10
959.21
 20
10081.2
 30
0.0
 11
969.804
 21
10081.7
 31
0.0
  0
LINE
  8
0
 62
     0
 10
969.804
 20
10081.7
 30
0.0
 11
969.081
 21
10096.5
 31
0.0
  0
LINE
  8
0
 62
     0
 10
991.93
 20
15516.8
 30
0.0
 11
992.477
 21
15933.3
 31
0.0
  0
LINE
  8
0
 62
     0
 10
992.477
 20
15933.3
 30
0.0
 11
999.973
 21
15937.6
 31
0.0
  0
LINE
  8
0
 62
     0
 10
999.973
 20
15937.6
 30
0.0
 11
1007.48
 21
15942
 31
0.0
  0
LINE
  8
0
 62
     0
 10
1007.48
 20
15942
 30
0.0
 11
999.973
 21
15946.3
 31
0.0
  0
LINE
  8
0
 62
     0
 10
999.973
 20
15946.3
 30
0.0
 11
992.477
 21
15950.6
 31
0.0
  0
LINE
  8
0
 62
     0
 10
992.477
 20
15950.6
 30
0.0
 11
993.743
 21
16725.7
 31
0.0
  0
LINE
  8
0
 62
     0
 10
993.743
 20
16725.7
 30
0.0
 11
1001.24
 21
16730
 31
0.0
  0
LINE
  8
0
 62
     0
 10
1001.24
 20
16730
 30
0.0
 11
1008.74
 21
16734.3
 31
0.0
  0
LINE
  8
0
 62
     0
 10
1008.74
 20
16734.3
 30
0.0
 11
1001.24
 21
16738.6
 31
0.0
  0
LINE
  8
0
 62
     0
 10
1001.24
 20
16738.6
 30
0.0
 11
993.743
 21
16743
 31
0.0
  0
LINE
  8
0
 62
     0
 10
993.743
 20
16743
 30
0.0
 11
994.735
 21
17361.2
 31
0.0
  0
LINE
  8
0
 62
     0
 10
994.735
 20
17361.2
 30
0.0
 11
1002.23
 21
17365.6
 31
0.0
  0
LINE
  8
0
 62
     0
 10
1002.23
 20
17365.6
 30
0.0
 11
1009.73
 21
17369.9
 31
0.0
  0
LINE
  8
0
 62
     0
 10
1009.73
 20
17369.9
 30
0.0
 11
1002.23
 21
17374.2
 31
0.0
  0
LINE
  8
0
 62
     0
 10
1002.23
 20
17374.2
 30
0.0
 11
994.735
 21
17378.5
 31
0.0
  0
LINE
  8
0
 62
     0
 10
994.735
 20
17378.5
 30
0.0
 11
995.751
 21
17992.3
 31
0.0
  0
LINE
  8
0
 62
     0
 10
995.751
 20
17992.3
 30
0.0
 11
1003.25
 21
17996.6
 31
0.0
  0
LINE
  8
0
 62
     0
 10
1003.25
 20
17996.6
 30
0.0
 11
1010.75
 21
18000.9
 31
0.0
  0
LINE
  8
0
 62
     0
 10
1010.75
 20
18000.9
 30
0.0
 11
1003.25
 21
18005.3
 31
0.0
  0
LINE
  8
0
 62
     0
 10
1003.25
 20
18005.3
 30
0.0
 11
995.751
 21
18009.6
 31
0.0
  0
LINE
  8
0
 62
     0
 10
995.751
 20
18009.6
 30
0.0
 11
995.719
 21
18792.4
 31
0.0
  0
LINE
  8
0
 62
     0
 10
995.719
 20
18792.4
 30
0.0
 11
995.719
 21
18807.3
 31
0.0
  0
LINE
  8
0
 62
     0
 10
995.719
 20
18807.3
 30
0.0
 11
985.114
 21
18807.3
 31
0.0
  0
LINE
  8
0
 62
     0
 10
985.114
 20
18807.3
 30
0.0
 11
985.114
 21
18792.4
 31
0.0
  0
LINE
  8
0
 62
     0
 10
985.114
 20
18792.4
 30
0.0
 11
974.506
 21
18792.4
 31
0.0
  0
LINE
  8
0
 62
     0
 10
974.506
 20
18792.4
 30
0.0
 11
974.506
 21
18807.3
 31
0.0
  0
LINE
  8
0
 62
     0
 10
974.506
 20
18807.3
 30
0.0
 11
963.902
 21
18807.3
 31
0.0
  0
LINE
  8
0
 62
     0
 10
963.902
 20
18807.3
 30
0.0
 11
963.902
 21
18792.4
 31
0.0
  0
LINE
  8
0
 62
     0
 10
963.902
 20
18792.4
 30
0.0
 11
953.294
 21
18792.4
 31
0.0
  0
LINE
  8
0
 62
     0
 10
953.294
 20
18792.4
 30
0.0
 11
953.294
 21
18807.3
 31
0.0
  0
LINE
  8
0
 62
     0
 10
953.294
 20
18807.3
 30
0.0
 11
942.686
 21
18807.3
 31
0.0
  0
LINE
  8
0
 62
     0
 10
942.686
 20
18807.3
 30
0.0
 11
942.686
 21
18792.4
 31
0.0
  0
LINE
  8
0
 62
     0
 10
942.686
 20
18792.4
 30
0.0
 11
932.081
 21
18792.4
 31
0.0
  0
LINE
  8
0
 62
     0
 10
932.081
 20
18792.4
 30
0.0
 11
932.081
 21
18807.3
 31
0.0
  0
LINE
  8
0
 62
     0
 10
932.081
 20
18807.3
 30
0.0
 11
921.473
 21
18807.3
 31
0.0
  0
LINE
  8
0
 62
     0
 10
921.473
 20
18807.3
 30
0.0
 11
921.473
 21
18792.4
 31
0.0
  0
LINE
  8
0
 62
     0
 10
921.473
 20
18792.4
 30
0.0
 11
910.865
 21
18792.4
 31
0.0
  0
LINE
  8
0
 62
     0
 10
910.865
 20
18792.4
 30
0.0
 11
910.865
 21
18807.3
 31
0.0
  0
LINE
  8
0
 62
     0
 10
910.865
 20
18807.3
 30
0.0
 11
900.261
 21
18807.3
 31
0.0
  0
LINE
  8
0
 62
     0
 10
900.261
 20
18807.3
 30
0.0
 11
900.261
 21
18792.4
 31
0.0
  0
LINE
  8
0
 62
     0
 10
900.261
 20
18792.4
 30
0.0
 11
889.653
 21
18792.4
 31
0.0
  0
LINE
  8
0
 62
     0
 10
889.653
 20
18792.4
 30
0.0
 11
889.653
 21
18807.3
 31
0.0
  0
LINE
  8
0
 62
     0
 10
889.653
 20
18807.3
 30
0.0
 11
879.048
 21
18807.3
 31
0.0
  0
LINE
  8
0
 62
     0
 10
879.048
 20
18807.3
 30
0.0
 11
879.048
 21
18792.4
 31
0.0
  0
LINE
  8
0
 62
     0
 10
879.048
 20
18792.4
 30
0.0
 11
868.44
 21
18792.4
 31
0.0
  0
LINE
  8
0
 62
     0
 10
868.44
 20
18792.4
 30
0.0
 11
868.44
 21
18807.3
 31
0.0
  0
LINE
  8
0
 62
     0
 10
868.44
 20
18807.3
 30
0.0
 11
857.832
 21
18807.3
 31
0.0
  0
LINE
  8
0
 62
     0
 10
857.832
 20
18807.3
 30
0.0
 11
857.832
 21
18792.4
 31
0.0
  0
LINE
  8
0
 62
     0
 10
857.832
 20
18792.4
 30
0.0
 11
762.871
 21
18792.4
 31
0.0
  0
LINE
  8
0
 62
     0
 10
762.871
 20
18792.4
 30
0.0
 11
765.327
 21
18710.8
 31
0.0
  0
LINE
  8
0
 62
     0
 10
765.327
 20
18710.8
 30
0.0
 11
768.622
 21
18596.5
 31
0.0
  0
LINE
  8
0
 62
     0
 10
768.622
 20
18596.5
 30
0.0
 11
770.34
 21
18526.9
 31
0.0
  0
LINE
  8
0
 62
     0
 10
770.34
 20
18526.9
 30
0.0
 11
771.165
 21
18485.2
 31
0.0
  0
LINE
  8
0
 62
     0
 10
771.165
 20
18485.2
 30
0.0
 11
771.716
 21
18446.4
 31
0.0
  0
LINE
  8
0
 62
     0
 10
771.716
 20
18446.4
 30
0.0
 11
771.991
 21
18409.4
 31
0.0
  0
LINE
  8
0
 62
     0
 10
771.991
 20
18409.4
 30
0.0
 11
771.991
 21
18372.9
 31
0.0
  0
LINE
  8
0
 62
     0
 10
771.991
 20
18372.9
 30
0.0
 11
771.719
 21
18335.8
 31
0.0
  0
LINE
  8
0
 62
     0
 10
771.719
 20
18335.8
 30
0.0
 11
771.176
 21
18297.1
 31
0.0
  0
LINE
  8
0
 62
     0
 10
771.176
 20
18297.1
 30
0.0
 11
770.354
 21
18255.4
 31
0.0
  0
LINE
  8
0
 62
     0
 10
770.354
 20
18255.4
 30
0.0
 11
768.646
 21
18185.8
 31
0.0
  0
LINE
  8
0
 62
     0
 10
768.646
 20
18185.8
 30
0.0
 11
765.366
 21
18071.5
 31
0.0
  0
LINE
  8
0
 62
     0
 10
765.366
 20
18071.5
 30
0.0
 11
763.503
 21
18009.4
 31
0.0
  0
LINE
  8
0
 62
     0
 10
763.503
 20
18009.4
 30
0.0
 11
755.766
 21
18005.5
 31
0.0
  0
LINE
  8
0
 62
     0
 10
755.766
 20
18005.5
 30
0.0
 11
748.03
 21
18001.7
 31
0.0
  0
LINE
  8
0
 62
     0
 10
748.03
 20
18001.7
 30
0.0
 11
762.508
 21
17992.1
 31
0.0
  0
LINE
  8
0
 62
     0
 10
762.508
 20
17992.1
 30
0.0
 11
760.169
 21
17945
 31
0.0
  0
LINE
  8
0
 62
     0
 10
760.169
 20
17945
 30
0.0
 11
754.99
 21
17852.4
 31
0.0
  0
LINE
  8
0
 62
     0
 10
754.99
 20
17852.4
 30
0.0
 11
751.597
 21
17795.9
 31
0.0
  0
LINE
  8
0
 62
     0
 10
751.597
 20
17795.9
 30
0.0
 11
749.402
 21
17762.2
 31
0.0
  0
LINE
  8
0
 62
     0
 10
749.402
 20
17762.2
 30
0.0
 11
747.183
 21
17730.8
 31
0.0
  0
LINE
  8
0
 62
     0
 10
747.183
 20
17730.8
 30
0.0
 11
744.866
 21
17700.9
 31
0.0
  0
LINE
  8
0
 62
     0
 10
744.866
 20
17700.9
 30
0.0
 11
742.361
 21
17671.4
 31
0.0
  0
LINE
  8
0
 62
     0
 10
742.361
 20
17671.4
 30
0.0
 11
739.599
 21
17641.5
 31
0.0
  0
LINE
  8
0
 62
     0
 10
739.599
 20
17641.5
 30
0.0
 11
736.498
 21
17610.2
 31
0.0
  0
LINE
  8
0
 62
     0
 10
736.498
 20
17610.2
 30
0.0
 11
732.977
 21
17576.6
 31
0.0
  0
LINE
  8
0
 62
     0
 10
732.977
 20
17576.6
 30
0.0
 11
726.817
 21
17520.4
 31
0.0
  0
LINE
  8
0
 62
     0
 10
726.817
 20
17520.4
 30
0.0
 11
716.322
 21
17428.3
 31
0.0
  0
LINE
  8
0
 62
     0
 10
716.322
 20
17428.3
 30
0.0
 11
710.777
 21
17379.4
 31
0.0
  0
LINE
  8
0
 62
     0
 10
710.777
 20
17379.4
 30
0.0
 11
702.814
 21
17375.6
 31
0.0
  0
LINE
  8
0
 62
     0
 10
702.814
 20
17375.6
 30
0.0
 11
694.856
 21
17371.9
 31
0.0
  0
LINE
  8
0
 62
     0
 10
694.856
 20
17371.9
 30
0.0
 11
702.052
 21
17366.9
 31
0.0
  0
LINE
  8
0
 62
     0
 10
702.052
 20
17366.9
 30
0.0
 11
709.253
 21
17361.9
 31
0.0
  0
LINE
  8
0
 62
     0
 10
709.253
 20
17361.9
 30
0.0
 11
706.66
 21
17313.9
 31
0.0
  0
LINE
  8
0
 62
     0
 10
706.66
 20
17313.9
 30
0.0
 11
701.499
 21
17220.6
 31
0.0
  0
LINE
  8
0
 62
     0
 10
701.499
 20
17220.6
 30
0.0
 11
698.115
 21
17163.7
 31
0.0
  0
LINE
  8
0
 62
     0
 10
698.115
 20
17163.7
 30
0.0
 11
695.928
 21
17129.7
 31
0.0
  0
LINE
  8
0
 62
     0
 10
695.928
 20
17129.7
 30
0.0
 11
693.713
 21
17098.1
 31
0.0
  0
LINE
  8
0
 62
     0
 10
693.713
 20
17098.1
 30
0.0
 11
691.395
 21
17067.9
 31
0.0
  0
LINE
  8
0
 62
     0
 10
691.395
 20
17067.9
 30
0.0
 11
688.894
 21
17038.2
 31
0.0
  0
LINE
  8
0
 62
     0
 10
688.894
 20
17038.2
 30
0.0
 11
686.128
 21
17008.1
 31
0.0
  0
LINE
  8
0
 62
     0
 10
686.128
 20
17008.1
 30
0.0
 11
683.024
 21
16976.5
 31
0.0
  0
LINE
  8
0
 62
     0
 10
683.024
 20
16976.5
 30
0.0
 11
679.496
 21
16942.6
 31
0.0
  0
LINE
  8
0
 62
     0
 10
679.496
 20
16942.6
 30
0.0
 11
673.326
 21
16886.1
 31
0.0
  0
LINE
  8
0
 62
     0
 10
673.326
 20
16886.1
 30
0.0
 11
662.809
 21
16793.2
 31
0.0
  0
LINE
  8
0
 62
     0
 10
662.809
 20
16793.2
 30
0.0
 11
656.957
 21
16743.5
 31
0.0
  0
LINE
  8
0
 62
     0
 10
656.957
 20
16743.5
 30
0.0
 11
649.182
 21
16739.7
 31
0.0
  0
LINE
  8
0
 62
     0
 10
649.182
 20
16739.7
 30
0.0
 11
641.406
 21
16735.9
 31
0.0
  0
LINE
  8
0
 62
     0
 10
641.406
 20
16735.9
 30
0.0
 11
648.596
 21
16731.1
 31
0.0
  0
LINE
  8
0
 62
     0
 10
648.596
 20
16731.1
 30
0.0
 11
655.789
 21
16726.3
 31
0.0
  0
LINE
  8
0
 62
     0
 10
655.789
 20
16726.3
 30
0.0
 11
652.861
 21
16664.2
 31
0.0
  0
LINE
  8
0
 62
     0
 10
652.861
 20
16664.2
 30
0.0
 11
647.231
 21
16547.8
 31
0.0
  0
LINE
  8
0
 62
     0
 10
647.231
 20
16547.8
 30
0.0
 11
643.498
 21
16476.9
 31
0.0
  0
LINE
  8
0
 62
     0
 10
643.498
 20
16476.9
 30
0.0
 11
641.064
 21
16434.5
 31
0.0
  0
LINE
  8
0
 62
     0
 10
641.064
 20
16434.5
 30
0.0
 11
638.574
 21
16395
 31
0.0
  0
LINE
  8
0
 62
     0
 10
638.574
 20
16395
 30
0.0
 11
635.938
 21
16357.4
 31
0.0
  0
LINE
  8
0
 62
     0
 10
635.938
 20
16357.4
 30
0.0
 11
633.074
 21
16320.3
 31
0.0
  0
LINE
  8
0
 62
     0
 10
633.074
 20
16320.3
 30
0.0
 11
629.885
 21
16282.6
 31
0.0
  0
LINE
  8
0
 62
     0
 10
629.885
 20
16282.6
 30
0.0
 11
626.283
 21
16243.3
 31
0.0
  0
LINE
  8
0
 62
     0
 10
626.283
 20
16243.3
 30
0.0
 11
622.177
 21
16201
 31
0.0
  0
LINE
  8
0
 62
     0
 10
622.177
 20
16201
 30
0.0
 11
614.966
 21
16130.4
 31
0.0
  0
LINE
  8
0
 62
     0
 10
614.966
 20
16130.4
 30
0.0
 11
602.65
 21
16014.6
 31
0.0
  0
LINE
  8
0
 62
     0
 10
602.65
 20
16014.6
 30
0.0
 11
595.803
 21
15950.7
 31
0.0
  0
LINE
  8
0
 62
     0
 10
595.803
 20
15950.7
 30
0.0
 11
587.936
 21
15947.1
 31
0.0
  0
LINE
  8
0
 62
     0
 10
587.936
 20
15947.1
 30
0.0
 11
580.069
 21
15943.4
 31
0.0
  0
LINE
  8
0
 62
     0
 10
580.069
 20
15943.4
 30
0.0
 11
587.135
 21
15938.4
 31
0.0
  0
LINE
  8
0
 62
     0
 10
587.135
 20
15938.4
 30
0.0
 11
594.205
 21
15933.5
 31
0.0
  0
LINE
  8
0
 62
     0
 10
594.205
 20
15933.5
 30
0.0
 11
587.142
 21
15865
 31
0.0
  0
LINE
  8
0
 62
     0
 10
587.142
 20
15865
 30
0.0
 11
574.132
 21
15738.4
 31
0.0
  0
LINE
  8
0
 62
     0
 10
574.132
 20
15738.4
 30
0.0
 11
565.877
 21
15661.2
 31
0.0
  0
LINE
  8
0
 62
     0
 10
565.877
 20
15661.2
 30
0.0
 11
560.716
 21
15615.1
 31
0.0
  0
LINE
  8
0
 62
     0
 10
560.716
 20
15615.1
 30
0.0
 11
555.671
 21
15572.2
 31
0.0
  0
LINE
  8
0
 62
     0
 10
555.671
 20
15572.2
 30
0.0
 11
550.573
 21
15531.2
 31
0.0
  0
LINE
  8
0
 62
     0
 10
550.573
 20
15531.2
 30
0.0
 11
548.753
 21
15517.4
 31
0.0
  0
LINE
  8
0
 62
     0
 10
548.753
 20
15517.4
 30
0.0
 11
960.109
 21
15516.9
 31
0.0
  0
LINE
  8
0
 62
     0
 10
960.109
 20
15516.9
 30
0.0
 11
960.092
 21
15502
 31
0.0
  0
LINE
  8
0
 62
     0
 10
960.092
 20
15502
 30
0.0
 11
970.7
 21
15502
 31
0.0
  0
LINE
  8
0
 62
     0
 10
970.7
 20
15502
 30
0.0
 11
970.717
 21
15516.9
 31
0.0
  0
LINE
  8
0
 62
     0
 10
970.717
 20
15516.9
 30
0.0
 11
981.325
 21
15516.9
 31
0.0
  0
LINE
  8
0
 62
     0
 10
981.325
 20
15516.9
 30
0.0
 11
981.304
 21
15502
 31
0.0
  0
LINE
  8
0
 62
     0
 10
981.304
 20
15502
 30
0.0
 11
991.912
 21
15502
 31
0.0
  0
LINE
  8
0
 62
     0
 10
991.912
 20
15502
 30
0.0
 11
991.93
 21
15516.8
 31
0.0
  0
LINE
  8
0
 62
     0
 10
353.617
 20
2975.45
 30
0.0
 11
351.724
 21
2960.72
 31
0.0
  0
LINE
  8
0
 62
     0
 10
351.724
 20
2960.72
 30
0.0
 11
362.243
 21
2959.37
 31
0.0
  0
LINE
  8
0
 62
     0
 10
362.243
 20
2959.37
 30
0.0
 11
364.137
 21
2974.1
 31
0.0
  0
LINE
  8
0
 62
     0
 10
364.137
 20
2974.1
 30
0.0
 11
374.657
 21
2972.75
 31
0.0
  0
LINE
  8
0
 62
     0
 10
374.657
 20
2972.75
 30
0.0
 11
372.766
 21
2958.02
 31
0.0
  0
LINE
  8
0
 62
     0
 10
372.766
 20
2958.02
 30
0.0
 11
383.286
 21
2956.67
 31
0.0
  0
LINE
  8
0
 62
     0
 10
383.286
 20
2956.67
 30
0.0
 11
385.177
 21
2971.4
 31
0.0
  0
LINE
  8
0
 62
     0
 10
385.177
 20
2971.4
 30
0.0
 11
395.697
 21
2970.05
 31
0.0
  0
LINE
  8
0
 62
     0
 10
395.697
 20
2970.05
 30
0.0
 11
393.806
 21
2955.32
 31
0.0
  0
LINE
  8
0
 62
     0
 10
393.806
 20
2955.32
 30
0.0
 11
404.326
 21
2953.97
 31
0.0
  0
LINE
  8
0
 62
     0
 10
404.326
 20
2953.97
 30
0.0
 11
406.217
 21
2968.7
 31
0.0
  0
LINE
  8
0
 62
     0
 10
406.217
 20
2968.7
 30
0.0
 11
416.736
 21
2967.35
 31
0.0
  0
LINE
  8
0
 62
     0
 10
416.736
 20
2967.35
 30
0.0
 11
414.845
 21
2952.62
 31
0.0
  0
LINE
  8
0
 62
     0
 10
414.845
 20
2952.62
 30
0.0
 11
425.365
 21
2951.27
 31
0.0
  0
LINE
  8
0
 62
     0
 10
425.365
 20
2951.27
 30
0.0
 11
427.256
 21
2966
 31
0.0
  0
LINE
  8
0
 62
     0
 10
427.256
 20
2966
 30
0.0
 11
437.776
 21
2964.65
 31
0.0
  0
LINE
  8
0
 62
     0
 10
437.776
 20
2964.65
 30
0.0
 11
435.885
 21
2949.92
 31
0.0
  0
LINE
  8
0
 62
     0
 10
435.885
 20
2949.92
 30
0.0
 11
446.405
 21
2948.57
 31
0.0
  0
LINE
  8
0
 62
     0
 10
446.405
 20
2948.57
 30
0.0
 11
448.299
 21
2963.29
 31
0.0
  0
LINE
  8
0
 62
     0
 10
448.299
 20
2963.29
 30
0.0
 11
515.454
 21
2954.67
 31
0.0
  0
LINE
  8
0
 62
     0
 10
515.454
 20
2954.67
 30
0.0
 11
571.479
 21
2947.21
 31
0.0
  0
LINE
  8
0
 62
     0
 10
571.479
 20
2947.21
 30
0.0
 11
604.95
 21
2942.59
 31
0.0
  0
LINE
  8
0
 62
     0
 10
604.95
 20
2942.59
 30
0.0
 11
636.09
 21
2938.11
 31
0.0
  0
LINE
  8
0
 62
     0
 10
636.09
 20
2938.11
 30
0.0
 11
665.812
 21
2933.63
 31
0.0
  0
LINE
  8
0
 62
     0
 10
665.812
 20
2933.63
 30
0.0
 11
695.029
 21
2929.01
 31
0.0
  0
LINE
  8
0
 62
     0
 10
695.029
 20
2929.01
 30
0.0
 11
724.673
 21
2924.09
 31
0.0
  0
LINE
  8
0
 62
     0
 10
724.673
 20
2924.09
 30
0.0
 11
755.661
 21
2918.74
 31
0.0
  0
LINE
  8
0
 62
     0
 10
755.661
 20
2918.74
 30
0.0
 11
788.917
 21
2912.8
 31
0.0
  0
LINE
  8
0
 62
     0
 10
788.917
 20
2912.8
 30
0.0
 11
844.504
 21
2902.6
 31
0.0
  0
LINE
  8
0
 62
     0
 10
844.504
 20
2902.6
 30
0.0
 11
890.774
 21
2893.9
 31
0.0
  0
LINE
  8
0
 62
     0
 10
890.774
 20
2893.9
 30
0.0
 11
888.023
 21
2879.31
 31
0.0
  0
LINE
  8
0
 62
     0
 10
888.023
 20
2879.31
 30
0.0
 11
898.444
 21
2877.34
 31
0.0
  0
LINE
  8
0
 62
     0
 10
898.444
 20
2877.34
 30
0.0
 11
901.199
 21
2891.93
 31
0.0
  0
LINE
  8
0
 62
     0
 10
901.199
 20
2891.93
 30
0.0
 11
911.62
 21
2889.97
 31
0.0
  0
LINE
  8
0
 62
     0
 10
911.62
 20
2889.97
 30
0.0
 11
908.868
 21
2875.38
 31
0.0
  0
LINE
  8
0
 62
     0
 10
908.868
 20
2875.38
 30
0.0
 11
919.29
 21
2873.41
 31
0.0
  0
LINE
  8
0
 62
     0
 10
919.29
 20
2873.41
 30
0.0
 11
922.045
 21
2888
 31
0.0
  0
LINE
  8
0
 62
     0
 10
922.045
 20
2888
 30
0.0
 11
932.466
 21
2886.04
 31
0.0
  0
LINE
  8
0
 62
     0
 10
932.466
 20
2886.04
 30
0.0
 11
929.714
 21
2871.44
 31
0.0
  0
LINE
  8
0
 62
     0
 10
929.714
 20
2871.44
 30
0.0
 11
940.135
 21
2869.48
 31
0.0
  0
LINE
  8
0
 62
     0
 10
940.135
 20
2869.48
 30
0.0
 11
942.89
 21
2884.07
 31
0.0
  0
LINE
  8
0
 62
     0
 10
942.89
 20
2884.07
 30
0.0
 11
953.311
 21
2882.1
 31
0.0
  0
LINE
  8
0
 62
     0
 10
953.311
 20
2882.1
 30
0.0
 11
950.56
 21
2867.51
 31
0.0
  0
LINE
  8
0
 62
     0
 10
950.56
 20
2867.51
 30
0.0
 11
960.981
 21
2865.54
 31
0.0
  0
LINE
  8
0
 62
     0
 10
960.981
 20
2865.54
 30
0.0
 11
963.736
 21
2880.13
 31
0.0
  0
LINE
  8
0
 62
     0
 10
963.736
 20
2880.13
 30
0.0
 11
974.157
 21
2878.17
 31
0.0
  0
LINE
  8
0
 62
     0
 10
974.157
 20
2878.17
 30
0.0
 11
971.405
 21
2863.58
 31
0.0
  0
LINE
  8
0
 62
     0
 10
971.405
 20
2863.58
 30
0.0
 11
981.826
 21
2861.61
 31
0.0
  0
LINE
  8
0
 62
     0
 10
981.826
 20
2861.61
 30
0.0
 11
984.582
 21
2876.2
 31
0.0
  0
LINE
  8
0
 62
     0
 10
984.582
 20
2876.2
 30
0.0
 11
995.003
 21
2874.24
 31
0.0
  0
LINE
  8
0
 62
     0
 10
995.003
 20
2874.24
 30
0.0
 11
992.251
 21
2859.64
 31
0.0
  0
LINE
  8
0
 62
     0
 10
992.251
 20
2859.64
 30
0.0
 11
1002.67
 21
2857.68
 31
0.0
  0
LINE
  8
0
 62
     0
 10
1002.67
 20
2857.68
 30
0.0
 11
1005.43
 21
2872.27
 31
0.0
  0
LINE
  8
0
 62
     0
 10
1005.43
 20
2872.27
 30
0.0
 11
1001.67
 21
2960.09
 31
0.0
  0
LINE
  8
0
 62
     0
 10
1001.67
 20
2960.09
 30
0.0
 11
996.05
 21
3093.49
 31
0.0
  0
LINE
  8
0
 62
     0
 10
996.05
 20
3093.49
 30
0.0
 11
991.242
 21
3213.34
 31
0.0
  0
LINE
  8
0
 62
     0
 10
991.242
 20
3213.34
 30
0.0
 11
988.205
 21
3296.24
 31
0.0
  0
LINE
  8
0
 62
     0
 10
988.205
 20
3296.24
 30
0.0
 11
986.42
 21
3349.31
 31
0.0
  0
LINE
  8
0
 62
     0
 10
986.42
 20
3349.31
 30
0.0
 11
984.846
 21
3400.99
 31
0.0
  0
LINE
  8
0
 62
     0
 10
984.846
 20
3400.99
 30
0.0
 11
983.481
 21
3451.7
 31
0.0
  0
LINE
  8
0
 62
     0
 10
983.481
 20
3451.7
 30
0.0
 11
982.324
 21
3501.91
 31
0.0
  0
LINE
  8
0
 62
     0
 10
982.324
 20
3501.91
 30
0.0
 11
981.382
 21
3552.01
 31
0.0
  0
LINE
  8
0
 62
     0
 10
981.382
 20
3552.01
 30
0.0
 11
980.648
 21
3602.5
 31
0.0
  0
LINE
  8
0
 62
     0
 10
980.648
 20
3602.5
 30
0.0
 11
980.13
 21
3653.79
 31
0.0
  0
LINE
  8
0
 62
     0
 10
980.13
 20
3653.79
 30
0.0
 11
979.826
 21
3706.35
 31
0.0
  0
LINE
  8
0
 62
     0
 10
979.826
 20
3706.35
 30
0.0
 11
979.734
 21
3760.58
 31
0.0
  0
LINE
  8
0
 62
     0
 10
979.734
 20
3760.58
 30
0.0
 11
979.861
 21
3816.95
 31
0.0
  0
LINE
  8
0
 62
     0
 10
979.861
 20
3816.95
 30
0.0
 11
980.207
 21
3875.9
 31
0.0
  0
LINE
  8
0
 62
     0
 10
980.207
 20
3875.9
 30
0.0
 11
980.768
 21
3937.85
 31
0.0
  0
LINE
  8
0
 62
     0
 10
980.768
 20
3937.85
 30
0.0
 11
981.548
 21
4003.25
 31
0.0
  0
LINE
  8
0
 62
     0
 10
981.548
 20
4003.25
 30
0.0
 11
983.107
 21
4108.24
 31
0.0
  0
LINE
  8
0
 62
     0
 10
983.107
 20
4108.24
 30
0.0
 11
985.996
 21
4265.08
 31
0.0
  0
LINE
  8
0
 62
     0
 10
985.996
 20
4265.08
 30
0.0
 11
989.782
 21
4443.69
 31
0.0
  0
LINE
  8
0
 62
     0
 10
989.782
 20
4443.69
 30
0.0
 11
994.47
 21
4647.53
 31
0.0
  0
LINE
  8
0
 62
     0
 10
994.47
 20
4647.53
 30
0.0
 11
1003.1
 21
5004.19
 31
0.0
  0
LINE
  8
0
 62
     0
 10
1003.1
 20
5004.19
 30
0.0
 11
1010.48
 21
5302.57
 31
0.0
  0
LINE
  8
0
 62
     0
 10
1010.48
 20
5302.57
 30
0.0
 11
990.505
 21
5305.25
 31
0.0
  0
LINE
  8
0
 62
     0
 10
990.505
 20
5305.25
 30
0.0
 11
918.76
 21
5017.31
 31
0.0
  0
LINE
  8
0
 62
     0
 10
918.76
 20
5017.31
 30
0.0
 11
832.827
 21
4673.25
 31
0.0
  0
LINE
  8
0
 62
     0
 10
832.827
 20
4673.25
 30
0.0
 11
783.474
 21
4476.64
 31
0.0
  0
LINE
  8
0
 62
     0
 10
783.474
 20
4476.64
 30
0.0
 11
739.927
 21
4304.49
 31
0.0
  0
LINE
  8
0
 62
     0
 10
739.927
 20
4304.49
 30
0.0
 11
701.269
 21
4153.43
 31
0.0
  0
LINE
  8
0
 62
     0
 10
701.269
 20
4153.43
 30
0.0
 11
675.033
 21
4052.39
 31
0.0
  0
LINE
  8
0
 62
     0
 10
675.033
 20
4052.39
 30
0.0
 11
658.506
 21
3989.49
 31
0.0
  0
LINE
  8
0
 62
     0
 10
658.506
 20
3989.49
 30
0.0
 11
642.68
 21
3929.98
 31
0.0
  0
LINE
  8
0
 62
     0
 10
642.68
 20
3929.98
 30
0.0
 11
627.44
 21
3873.39
 31
0.0
  0
LINE
  8
0
 62
     0
 10
627.44
 20
3873.39
 30
0.0
 11
612.673
 21
3819.35
 31
0.0
  0
LINE
  8
0
 62
     0
 10
612.673
 20
3819.35
 30
0.0
 11
598.262
 21
3767.42
 31
0.0
  0
LINE
  8
0
 62
     0
 10
598.262
 20
3767.42
 30
0.0
 11
584.091
 21
3717.15
 31
0.0
  0
LINE
  8
0
 62
     0
 10
584.091
 20
3717.15
 30
0.0
 11
570.047
 21
3668.11
 31
0.0
  0
LINE
  8
0
 62
     0
 10
570.047
 20
3668.11
 30
0.0
 11
556.01
 21
3619.92
 31
0.0
  0
LINE
  8
0
 62
     0
 10
556.01
 20
3619.92
 30
0.0
 11
541.867
 21
3572.16
 31
0.0
  0
LINE
  8
0
 62
     0
 10
541.867
 20
3572.16
 30
0.0
 11
527.505
 21
3524.35
 31
0.0
  0
LINE
  8
0
 62
     0
 10
527.505
 20
3524.35
 30
0.0
 11
512.801
 21
3476.11
 31
0.0
  0
LINE
  8
0
 62
     0
 10
512.801
 20
3476.11
 30
0.0
 11
497.642
 21
3427.01
 31
0.0
  0
LINE
  8
0
 62
     0
 10
497.642
 20
3427.01
 30
0.0
 11
481.916
 21
3376.62
 31
0.0
  0
LINE
  8
0
 62
     0
 10
481.916
 20
3376.62
 30
0.0
 11
457.108
 21
3297.99
 31
0.0
  0
LINE
  8
0
 62
     0
 10
457.108
 20
3297.99
 30
0.0
 11
420.85
 21
3184.41
 31
0.0
  0
LINE
  8
0
 62
     0
 10
420.85
 20
3184.41
 30
0.0
 11
380.234
 21
3058.08
 31
0.0
  0
LINE
  8
0
 62
     0
 10
380.234
 20
3058.08
 30
0.0
 11
353.617
 21
2975.45
 31
0.0
  0
LINE
  8
0
 62
     0
 10
592.822
 20
15981.3
 30
0.0
 11
592.074
 21
16074.4
 31
0.0
  0
LINE
  8
0
 62
     0
 10
592.074
 20
16074.4
 30
0.0
 11
591.086
 21
16207.1
 31
0.0
  0
LINE
  8
0
 62
     0
 10
591.086
 20
16207.1
 30
0.0
 11
590.441
 21
16326.3
 31
0.0
  0
LINE
  8
0
 62
     0
 10
590.441
 20
16326.3
 30
0.0
 11
590.278
 21
16408.8
 31
0.0
  0
LINE
  8
0
 62
     0
 10
590.278
 20
16408.8
 30
0.0
 11
590.338
 21
16461.5
 31
0.0
  0
LINE
  8
0
 62
     0
 10
590.338
 20
16461.5
 30
0.0
 11
590.554
 21
16512.9
 31
0.0
  0
LINE
  8
0
 62
     0
 10
590.554
 20
16512.9
 30
0.0
 11
590.945
 21
16563.4
 31
0.0
  0
LINE
  8
0
 62
     0
 10
590.945
 20
16563.4
 30
0.0
 11
591.527
 21
16613.3
 31
0.0
  0
LINE
  8
0
 62
     0
 10
591.527
 20
16613.3
 30
0.0
 11
592.317
 21
16663.1
 31
0.0
  0
LINE
  8
0
 62
     0
 10
592.317
 20
16663.1
 30
0.0
 11
593.33
 21
16713.3
 31
0.0
  0
LINE
  8
0
 62
     0
 10
593.33
 20
16713.3
 30
0.0
 11
594.582
 21
16764.2
 31
0.0
  0
LINE
  8
0
 62
     0
 10
594.582
 20
16764.2
 30
0.0
 11
596.092
 21
16816.5
 31
0.0
  0
LINE
  8
0
 62
     0
 10
596.092
 20
16816.5
 30
0.0
 11
597.87
 21
16870.4
 31
0.0
  0
LINE
  8
0
 62
     0
 10
597.87
 20
16870.4
 30
0.0
 11
599.941
 21
16926.3
 31
0.0
  0
LINE
  8
0
 62
     0
 10
599.941
 20
16926.3
 30
0.0
 11
602.312
 21
16984.9
 31
0.0
  0
LINE
  8
0
 62
     0
 10
602.312
 20
16984.9
 30
0.0
 11
605.007
 21
17046.4
 31
0.0
  0
LINE
  8
0
 62
     0
 10
605.007
 20
17046.4
 30
0.0
 11
608.037
 21
17111.4
 31
0.0
  0
LINE
  8
0
 62
     0
 10
608.037
 20
17111.4
 30
0.0
 11
613.202
 21
17215.6
 31
0.0
  0
LINE
  8
0
 62
     0
 10
613.202
 20
17215.6
 30
0.0
 11
621.482
 21
17371.3
 31
0.0
  0
LINE
  8
0
 62
     0
 10
621.482
 20
17371.3
 30
0.0
 11
631.398
 21
17548.6
 31
0.0
  0
LINE
  8
0
 62
     0
 10
631.398
 20
17548.6
 30
0.0
 11
643.079
 21
17751
 31
0.0
  0
LINE
  8
0
 62
     0
 10
643.079
 20
17751
 30
0.0
 11
663.942
 21
18105
 31
0.0
  0
LINE
  8
0
 62
     0
 10
663.942
 20
18105
 30
0.0
 11
681.567
 21
18401.2
 31
0.0
  0
LINE
  8
0
 62
     0
 10
681.567
 20
18401.2
 30
0.0
 11
661.702
 21
18404.6
 31
0.0
  0
LINE
  8
0
 62
     0
 10
661.702
 20
18404.6
 30
0.0
 11
497.395
 21
17831.8
 31
0.0
  0
LINE
  8
0
 62
     0
 10
497.395
 20
17831.8
 30
0.0
 11
446.08
 21
17653.8
 31
0.0
  0
LINE
  8
0
 62
     0
 10
446.08
 20
17653.8
 30
0.0
 11
400.847
 21
17498.1
 31
0.0
  0
LINE
  8
0
 62
     0
 10
400.847
 20
17498.1
 30
0.0
 11
360.747
 21
17361.4
 31
0.0
  0
LINE
  8
0
 62
     0
 10
360.747
 20
17361.4
 30
0.0
 11
333.58
 21
17270
 31
0.0
  0
LINE
  8
0
 62
     0
 10
333.58
 20
17270
 30
0.0
 11
316.491
 21
17213.1
 31
0.0
  0
LINE
  8
0
 62
     0
 10
316.491
 20
17213.1
 30
0.0
 11
300.15
 21
17159.2
 31
0.0
  0
LINE
  8
0
 62
     0
 10
300.15
 20
17159.2
 30
0.0
 11
284.438
 21
17108.1
 31
0.0
  0
LINE
  8
0
 62
     0
 10
284.438
 20
17108.1
 30
0.0
 11
269.237
 21
17059.2
 31
0.0
  0
LINE
  8
0
 62
     0
 10
269.237
 20
17059.2
 30
0.0
 11
254.429
 21
17012.2
 31
0.0
  0
LINE
  8
0
 62
     0
 10
254.429
 20
17012.2
 30
0.0
 11
239.893
 21
16966.8
 31
0.0
  0
LINE
  8
0
 62
     0
 10
239.893
 20
16966.8
 30
0.0
 11
225.512
 21
16922.5
 31
0.0
  0
LINE
  8
0
 62
     0
 10
225.512
 20
16922.5
 30
0.0
 11
211.166
 21
16878.9
 31
0.0
  0
LINE
  8
0
 62
     0
 10
211.166
 20
16878.9
 30
0.0
 11
196.736
 21
16835.8
 31
0.0
  0
LINE
  8
0
 62
     0
 10
196.736
 20
16835.8
 30
0.0
 11
182.101
 21
16792.6
 31
0.0
  0
LINE
  8
0
 62
     0
 10
182.101
 20
16792.6
 30
0.0
 11
167.144
 21
16749
 31
0.0
  0
LINE
  8
0
 62
     0
 10
167.144
 20
16749
 30
0.0
 11
143.915
 21
16682.2
 31
0.0
  0
LINE
  8
0
 62
     0
 10
143.915
 20
16682.2
 30
0.0
 11
110.633
 21
16588.1
 31
0.0
  0
LINE
  8
0
 62
     0
 10
110.633
 20
16588.1
 30
0.0
 11
73.9193
 21
16485.6
 31
0.0
  0
LINE
  8
0
 62
     0
 10
73.9193
 20
16485.6
 30
0.0
 11
6.70003
 21
16299.2
 31
0.0
  0
LINE
  8
0
 62
     0
 10
6.70003
 20
16299.2
 30
0.0
 11
0.0192925
 21
16286
 31
0.0
  0
LINE
  8
0
 62
     0
 10
0.0192925
 20
16286
 30
0.0
 11
9.49194
 21
16281.2
 31
0.0
  0
LINE
  8
0
 62
     0
 10
9.49194
 20
16281.2
 30
0.0
 11
16.1727
 21
16294.5
 31
0.0
  0
LINE
  8
0
 62
     0
 10
16.1727
 20
16294.5
 30
0.0
 11
25.6453
 21
16289.7
 31
0.0
  0
LINE
  8
0
 62
     0
 10
25.6453
 20
16289.7
 30
0.0
 11
18.9646
 21
16276.4
 31
0.0
  0
LINE
  8
0
 62
     0
 10
18.9646
 20
16276.4
 30
0.0
 11
28.4372
 21
16271.6
 31
0.0
  0
LINE
  8
0
 62
     0
 10
28.4372
 20
16271.6
 30
0.0
 11
35.1179
 21
16284.9
 31
0.0
  0
LINE
  8
0
 62
     0
 10
35.1179
 20
16284.9
 30
0.0
 11
44.5904
 21
16280.1
 31
0.0
  0
LINE
  8
0
 62
     0
 10
44.5904
 20
16280.1
 30
0.0
 11
37.9099
 21
16266.9
 31
0.0
  0
LINE
  8
0
 62
     0
 10
37.9099
 20
16266.9
 30
0.0
 11
47.3826
 21
16262.1
 31
0.0
  0
LINE
  8
0
 62
     0
 10
47.3826
 20
16262.1
 30
0.0
 11
54.0632
 21
16275.3
 31
0.0
  0
LINE
  8
0
 62
     0
 10
54.0632
 20
16275.3
 30
0.0
 11
63.536
 21
16270.6
 31
0.0
  0
LINE
  8
0
 62
     0
 10
63.536
 20
16270.6
 30
0.0
 11
56.8551
 21
16257.3
 31
0.0
  0
LINE
  8
0
 62
     0
 10
56.8551
 20
16257.3
 30
0.0
 11
66.3279
 21
16252.5
 31
0.0
  0
LINE
  8
0
 62
     0
 10
66.3279
 20
16252.5
 30
0.0
 11
73.0084
 21
16265.8
 31
0.0
  0
LINE
  8
0
 62
     0
 10
73.0084
 20
16265.8
 30
0.0
 11
150.217
 21
16226.8
 31
0.0
  0
LINE
  8
0
 62
     0
 10
150.217
 20
16226.8
 30
0.0
 11
200.948
 21
16200.9
 31
0.0
  0
LINE
  8
0
 62
     0
 10
200.948
 20
16200.9
 30
0.0
 11
231.2
 21
16185.3
 31
0.0
  0
LINE
  8
0
 62
     0
 10
231.2
 20
16185.3
 30
0.0
 11
259.286
 21
16170.6
 31
0.0
  0
LINE
  8
0
 62
     0
 10
259.286
 20
16170.6
 30
0.0
 11
286.022
 21
16156.4
 31
0.0
  0
LINE
  8
0
 62
     0
 10
286.022
 20
16156.4
 30
0.0
 11
312.233
 21
16142.2
 31
0.0
  0
LINE
  8
0
 62
     0
 10
312.233
 20
16142.2
 30
0.0
 11
338.749
 21
16127.6
 31
0.0
  0
LINE
  8
0
 62
     0
 10
338.749
 20
16127.6
 30
0.0
 11
366.399
 21
16112.1
 31
0.0
  0
LINE
  8
0
 62
     0
 10
366.399
 20
16112.1
 30
0.0
 11
396.004
 21
16095.2
 31
0.0
  0
LINE
  8
0
 62
     0
 10
396.004
 20
16095.2
 30
0.0
 11
445.393
 21
16066.9
 31
0.0
  0
LINE
  8
0
 62
     0
 10
445.393
 20
16066.9
 30
0.0
 11
510.275
 21
16029.3
 31
0.0
  0
LINE
  8
0
 62
     0
 10
510.275
 20
16029.3
 30
0.0
 11
502.818
 21
16016.5
 31
0.0
  0
LINE
  8
0
 62
     0
 10
502.818
 20
16016.5
 30
0.0
 11
511.99
 21
16011.1
 31
0.0
  0
LINE
  8
0
 62
     0
 10
511.99
 20
16011.1
 30
0.0
 11
519.448
 21
16024
 31
0.0
  0
LINE
  8
0
 62
     0
 10
519.448
 20
16024
 30
0.0
 11
528.62
 21
16018.6
 31
0.0
  0
LINE
  8
0
 62
     0
 10
528.62
 20
16018.6
 30
0.0
 11
521.162
 21
16005.8
 31
0.0
  0
LINE
  8
0
 62
     0
 10
521.162
 20
16005.8
 30
0.0
 11
530.334
 21
16000.4
 31
0.0
  0
LINE
  8
0
 62
     0
 10
530.334
 20
16000.4
 30
0.0
 11
537.792
 21
16013.3
 31
0.0
  0
LINE
  8
0
 62
     0
 10
537.792
 20
16013.3
 30
0.0
 11
546.964
 21
16008
 31
0.0
  0
LINE
  8
0
 62
     0
 10
546.964
 20
16008
 30
0.0
 11
539.503
 21
15995.1
 31
0.0
  0
LINE
  8
0
 62
     0
 10
539.503
 20
15995.1
 30
0.0
 11
548.675
 21
15989.8
 31
0.0
  0
LINE
  8
0
 62
     0
 10
548.675
 20
15989.8
 30
0.0
 11
556.137
 21
16002.6
 31
0.0
  0
LINE
  8
0
 62
     0
 10
556.137
 20
16002.6
 30
0.0
 11
565.309
 21
15997.3
 31
0.0
  0
LINE
  8
0
 62
     0
 10
565.309
 20
15997.3
 30
0.0
 11
557.848
 21
15984.5
 31
0.0
  0
LINE
  8
0
 62
     0
 10
557.848
 20
15984.5
 30
0.0
 11
567.02
 21
15979.1
 31
0.0
  0
LINE
  8
0
 62
     0
 10
567.02
 20
15979.1
 30
0.0
 11
574.477
 21
15992
 31
0.0
  0
LINE
  8
0
 62
     0
 10
574.477
 20
15992
 30
0.0
 11
583.65
 21
15986.7
 31
0.0
  0
LINE
  8
0
 62
     0
 10
583.65
 20
15986.7
 30
0.0
 11
576.192
 21
15973.8
 31
0.0
  0
LINE
  8
0
 62
     0
 10
576.192
 20
15973.8
 30
0.0
 11
585.364
 21
15968.5
 31
0.0
  0
LINE
  8
0
 62
     0
 10
585.364
 20
15968.5
 30
0.0
 11
592.822
 21
15981.3
 31
0.0
  0
LINE
  8
0
 62
     0
 10
958.843
 20
9518.44
 30
0.0
 11
955.4
 21
9532.9
 31
0.0
  0
LINE
  8
0
 62
     0
 10
955.4
 20
9532.9
 30
0.0
 11
945.081
 21
9530.43
 31
0.0
  0
LINE
  8
0
 62
     0
 10
945.081
 20
9530.43
 30
0.0
 11
948.524
 21
9515.97
 31
0.0
  0
LINE
  8
0
 62
     0
 10
948.524
 20
9515.97
 30
0.0
 11
938.209
 21
9513.53
 31
0.0
  0
LINE
  8
0
 62
     0
 10
938.209
 20
9513.53
 30
0.0
 11
934.766
 21
9527.96
 31
0.0
  0
LINE
  8
0
 62
     0
 10
934.766
 20
9527.96
 30
0.0
 11
924.447
 21
9525.49
 31
0.0
  0
LINE
  8
0
 62
     0
 10
924.447
 20
9525.49
 30
0.0
 11
927.89
 21
9511.07
 31
0.0
  0
LINE
  8
0
 62
     0
 10
927.89
 20
9511.07
 30
0.0
 11
917.575
 21
9508.6
 31
0.0
  0
LINE
  8
0
 62
     0
 10
917.575
 20
9508.6
 30
0.0
 11
914.128
 21
9523.06
 31
0.0
  0
LINE
  8
0
 62
     0
 10
914.128
 20
9523.06
 30
0.0
 11
903.813
 21
9520.59
 31
0.0
  0
LINE
  8
0
 62
     0
 10
903.813
 20
9520.59
 30
0.0
 11
907.256
 21
9506.16
 31
0.0
  0
LINE
  8
0
 62
     0
 10
907.256
 20
9506.16
 30
0.0
 11
896.938
 21
9503.69
 31
0.0
  0
LINE
  8
0
 62
     0
 10
896.938
 20
9503.69
 30
0.0
 11
893.494
 21
9518.12
 31
0.0
  0
LINE
  8
0
 62
     0
 10
893.494
 20
9518.12
 30
0.0
 11
883.176
 21
9515.69
 31
0.0
  0
LINE
  8
0
 62
     0
 10
883.176
 20
9515.69
 30
0.0
 11
886.619
 21
9501.22
 31
0.0
  0
LINE
  8
0
 62
     0
 10
886.619
 20
9501.22
 30
0.0
 11
876.304
 21
9498.75
 31
0.0
  0
LINE
  8
0
 62
     0
 10
876.304
 20
9498.75
 30
0.0
 11
872.86
 21
9513.22
 31
0.0
  0
LINE
  8
0
 62
     0
 10
872.86
 20
9513.22
 30
0.0
 11
862.542
 21
9510.75
 31
0.0
  0
LINE
  8
0
 62
     0
 10
862.542
 20
9510.75
 30
0.0
 11
865.985
 21
9496.32
 31
0.0
  0
LINE
  8
0
 62
     0
 10
865.985
 20
9496.32
 30
0.0
 11
855.67
 21
9493.85
 31
0.0
  0
LINE
  8
0
 62
     0
 10
855.67
 20
9493.85
 30
0.0
 11
852.223
 21
9508.28
 31
0.0
  0
LINE
  8
0
 62
     0
 10
852.223
 20
9508.28
 30
0.0
 11
841.908
 21
9505.84
 31
0.0
  0
LINE
  8
0
 62
     0
 10
841.908
 20
9505.84
 30
0.0
 11
845.351
 21
9491.38
 31
0.0
  0
LINE
  8
0
 62
     0
 10
845.351
 20
9491.38
 30
0.0
 11
765.069
 21
9472.33
 31
0.0
  0
LINE
  8
0
 62
     0
 10
765.069
 20
9472.33
 30
0.0
 11
697.209
 21
9456.53
 31
0.0
  0
LINE
  8
0
 62
     0
 10
697.209
 20
9456.53
 30
0.0
 11
656.59
 21
9447.25
 31
0.0
  0
LINE
  8
0
 62
     0
 10
656.59
 20
9447.25
 30
0.0
 11
618.723
 21
9438.85
 31
0.0
  0
LINE
  8
0
 62
     0
 10
618.723
 20
9438.85
 30
0.0
 11
582.486
 21
9431.06
 31
0.0
  0
LINE
  8
0
 62
     0
 10
582.486
 20
9431.06
 30
0.0
 11
546.763
 21
9423.65
 31
0.0
  0
LINE
  8
0
 62
     0
 10
546.763
 20
9423.65
 30
0.0
 11
510.424
 21
9416.41
 31
0.0
  0
LINE
  8
0
 62
     0
 10
510.424
 20
9416.41
 30
0.0
 11
472.345
 21
9409.08
 31
0.0
  0
LINE
  8
0
 62
     0
 10
472.345
 20
9409.08
 30
0.0
 11
431.398
 21
9401.42
 31
0.0
  0
LINE
  8
0
 62
     0
 10
431.398
 20
9401.42
 30
0.0
 11
362.853
 21
9388.97
 31
0.0
  0
LINE
  8
0
 62
     0
 10
362.853
 20
9388.97
 30
0.0
 11
303.427
 21
9378.42
 31
0.0
  0
LINE
  8
0
 62
     0
 10
303.427
 20
9378.42
 30
0.0
 11
300.845
 21
9393.06
 31
0.0
  0
LINE
  8
0
 62
     0
 10
300.845
 20
9393.06
 30
0.0
 11
290.4
 21
9391.19
 31
0.0
  0
LINE
  8
0
 62
     0
 10
290.4
 20
9391.19
 30
0.0
 11
292.983
 21
9376.59
 31
0.0
  0
LINE
  8
0
 62
     0
 10
292.983
 20
9376.59
 30
0.0
 11
282.538
 21
9374.75
 31
0.0
  0
LINE
  8
0
 62
     0
 10
282.538
 20
9374.75
 30
0.0
 11
279.955
 21
9389.36
 31
0.0
  0
LINE
  8
0
 62
     0
 10
279.955
 20
9389.36
 30
0.0
 11
269.51
 21
9387.52
 31
0.0
  0
LINE
  8
0
 62
     0
 10
269.51
 20
9387.52
 30
0.0
 11
272.092
 21
9372.88
 31
0.0
  0
LINE
  8
0
 62
     0
 10
272.092
 20
9372.88
 30
0.0
 11
261.648
 21
9371.05
 31
0.0
  0
LINE
  8
0
 62
     0
 10
261.648
 20
9371.05
 30
0.0
 11
259.066
 21
9385.65
 31
0.0
  0
LINE
  8
0
 62
     0
 10
259.066
 20
9385.65
 30
0.0
 11
248.62
 21
9383.82
 31
0.0
  0
LINE
  8
0
 62
     0
 10
248.62
 20
9383.82
 30
0.0
 11
251.202
 21
9369.21
 31
0.0
  0
LINE
  8
0
 62
     0
 10
251.202
 20
9369.21
 30
0.0
 11
240.758
 21
9367.34
 31
0.0
  0
LINE
  8
0
 62
     0
 10
240.758
 20
9367.34
 30
0.0
 11
238.175
 21
9381.98
 31
0.0
  0
LINE
  8
0
 62
     0
 10
238.175
 20
9381.98
 30
0.0
 11
227.73
 21
9380.15
 31
0.0
  0
LINE
  8
0
 62
     0
 10
227.73
 20
9380.15
 30
0.0
 11
230.313
 21
9365.51
 31
0.0
  0
LINE
  8
0
 62
     0
 10
230.313
 20
9365.51
 30
0.0
 11
219.869
 21
9363.67
 31
0.0
  0
LINE
  8
0
 62
     0
 10
219.869
 20
9363.67
 30
0.0
 11
217.285
 21
9378.28
 31
0.0
  0
LINE
  8
0
 62
     0
 10
217.285
 20
9378.28
 30
0.0
 11
206.841
 21
9376.45
 31
0.0
  0
LINE
  8
0
 62
     0
 10
206.841
 20
9376.45
 30
0.0
 11
209.423
 21
9361.81
 31
0.0
  0
LINE
  8
0
 62
     0
 10
209.423
 20
9361.81
 30
0.0
 11
198.978
 21
9359.97
 31
0.0
  0
LINE
  8
0
 62
     0
 10
198.978
 20
9359.97
 30
0.0
 11
196.395
 21
9374.61
 31
0.0
  0
LINE
  8
0
 62
     0
 10
196.395
 20
9374.61
 30
0.0
 11
185.95
 21
9372.74
 31
0.0
  0
LINE
  8
0
 62
     0
 10
185.95
 20
9372.74
 30
0.0
 11
188.534
 21
9358.14
 31
0.0
  0
LINE
  8
0
 62
     0
 10
188.534
 20
9358.14
 30
0.0
 11
178.088
 21
9356.3
 31
0.0
  0
LINE
  8
0
 62
     0
 10
178.088
 20
9356.3
 30
0.0
 11
175.506
 21
9370.91
 31
0.0
  0
LINE
  8
0
 62
     0
 10
175.506
 20
9370.91
 30
0.0
 11
165.06
 21
9369.07
 31
0.0
  0
LINE
  8
0
 62
     0
 10
165.06
 20
9369.07
 30
0.0
 11
167.644
 21
9354.43
 31
0.0
  0
LINE
  8
0
 62
     0
 10
167.644
 20
9354.43
 30
0.0
 11
249.313
 21
9151.2
 31
0.0
  0
LINE
  8
0
 62
     0
 10
249.313
 20
9151.2
 30
0.0
 11
293.344
 21
9040.92
 31
0.0
  0
LINE
  8
0
 62
     0
 10
293.344
 20
9040.92
 30
0.0
 11
323.528
 21
8964.54
 31
0.0
  0
LINE
  8
0
 62
     0
 10
323.528
 20
8964.54
 30
0.0
 11
342.703
 21
8915.58
 31
0.0
  0
LINE
  8
0
 62
     0
 10
342.703
 20
8915.58
 30
0.0
 11
361.223
 21
8867.88
 31
0.0
  0
LINE
  8
0
 62
     0
 10
361.223
 20
8867.88
 30
0.0
 11
379.229
 21
8820.96
 31
0.0
  0
LINE
  8
0
 62
     0
 10
379.229
 20
8820.96
 30
0.0
 11
396.871
 21
8774.5
 31
0.0
  0
LINE
  8
0
 62
     0
 10
396.871
 20
8774.5
 30
0.0
 11
414.288
 21
8728.04
 31
0.0
  0
LINE
  8
0
 62
     0
 10
414.288
 20
8728.04
 30
0.0
 11
431.627
 21
8681.16
 31
0.0
  0
LINE
  8
0
 62
     0
 10
431.627
 20
8681.16
 30
0.0
 11
449.033
 21
8633.42
 31
0.0
  0
LINE
  8
0
 62
     0
 10
449.033
 20
8633.42
 30
0.0
 11
466.654
 21
8584.49
 31
0.0
  0
LINE
  8
0
 62
     0
 10
466.654
 20
8584.49
 30
0.0
 11
484.628
 21
8533.91
 31
0.0
  0
LINE
  8
0
 62
     0
 10
484.628
 20
8533.91
 30
0.0
 11
503.107
 21
8481.24
 31
0.0
  0
LINE
  8
0
 62
     0
 10
503.107
 20
8481.24
 30
0.0
 11
522.231
 21
8426.13
 31
0.0
  0
LINE
  8
0
 62
     0
 10
522.231
 20
8426.13
 30
0.0
 11
542.149
 21
8368.1
 31
0.0
  0
LINE
  8
0
 62
     0
 10
542.149
 20
8368.1
 30
0.0
 11
562.998
 21
8306.79
 31
0.0
  0
LINE
  8
0
 62
     0
 10
562.998
 20
8306.79
 30
0.0
 11
596.187
 21
8208.26
 31
0.0
  0
LINE
  8
0
 62
     0
 10
596.187
 20
8208.26
 30
0.0
 11
645.234
 21
8060.9
 31
0.0
  0
LINE
  8
0
 62
     0
 10
645.234
 20
8060.9
 30
0.0
 11
700.624
 21
7892.98
 31
0.0
  0
LINE
  8
0
 62
     0
 10
700.624
 20
7892.98
 30
0.0
 11
763.506
 21
7701.14
 31
0.0
  0
LINE
  8
0
 62
     0
 10
763.506
 20
7701.14
 30
0.0
 11
873.118
 21
7365.36
 31
0.0
  0
LINE
  8
0
 62
     0
 10
873.118
 20
7365.36
 30
0.0
 11
964.6
 21
7084.62
 31
0.0
  0
LINE
  8
0
 62
     0
 10
964.6
 20
7084.62
 30
0.0
 11
983.837
 21
7088.01
 31
0.0
  0
LINE
  8
0
 62
     0
 10
983.837
 20
7088.01
 30
0.0
 11
974.012
 21
7386
 31
0.0
  0
LINE
  8
0
 62
     0
 10
974.012
 20
7386
 30
0.0
 11
962.452
 21
7742.59
 31
0.0
  0
LINE
  8
0
 62
     0
 10
962.452
 20
7742.59
 30
0.0
 11
956.091
 21
7946.39
 31
0.0
  0
LINE
  8
0
 62
     0
 10
956.091
 20
7946.39
 30
0.0
 11
950.838
 21
8124.97
 31
0.0
  0
LINE
  8
0
 62
     0
 10
950.838
 20
8124.97
 30
0.0
 11
946.658
 21
8281.78
 31
0.0
  0
LINE
  8
0
 62
     0
 10
946.658
 20
8281.78
 30
0.0
 11
944.238
 21
8386.76
 31
0.0
  0
LINE
  8
0
 62
     0
 10
944.238
 20
8386.76
 30
0.0
 11
942.922
 21
8452.17
 31
0.0
  0
LINE
  8
0
 62
     0
 10
942.922
 20
8452.17
 30
0.0
 11
941.85
 21
8514.12
 31
0.0
  0
LINE
  8
0
 62
     0
 10
941.85
 20
8514.12
 30
0.0
 11
941.021
 21
8573.06
 31
0.0
  0
LINE
  8
0
 62
     0
 10
941.021
 20
8573.06
 30
0.0
 11
940.431
 21
8629.4
 31
0.0
  0
LINE
  8
0
 62
     0
 10
940.431
 20
8629.4
 30
0.0
 11
940.075
 21
8683.66
 31
0.0
  0
LINE
  8
0
 62
     0
 10
940.075
 20
8683.66
 30
0.0
 11
939.948
 21
8736.19
 31
0.0
  0
LINE
  8
0
 62
     0
 10
939.948
 20
8736.19
 30
0.0
 11
940.047
 21
8787.48
 31
0.0
  0
LINE
  8
0
 62
     0
 10
940.047
 20
8787.48
 30
0.0
 11
940.364
 21
8837.97
 31
0.0
  0
LINE
  8
0
 62
     0
 10
940.364
 20
8837.97
 30
0.0
 11
940.897
 21
8888.09
 31
0.0
  0
LINE
  8
0
 62
     0
 10
940.897
 20
8888.09
 30
0.0
 11
941.638
 21
8938.3
 31
0.0
  0
LINE
  8
0
 62
     0
 10
941.638
 20
8938.3
 30
0.0
 11
942.587
 21
8989.02
 31
0.0
  0
LINE
  8
0
 62
     0
 10
942.587
 20
8989.02
 30
0.0
 11
943.737
 21
9040.71
 31
0.0
  0
LINE
  8
0
 62
     0
 10
943.737
 20
9040.71
 30
0.0
 11
945.085
 21
9093.8
 31
0.0
  0
LINE
  8
0
 62
     0
 10
945.085
 20
9093.8
 30
0.0
 11
947.441
 21
9176.74
 31
0.0
  0
LINE
  8
0
 62
     0
 10
947.441
 20
9176.74
 30
0.0
 11
951.265
 21
9296.61
 31
0.0
  0
LINE
  8
0
 62
     0
 10
951.265
 20
9296.61
 30
0.0
 11
955.791
 21
9430.03
 31
0.0
  0
LINE
  8
0
 62
     0
 10
955.791
 20
9430.03
 30
0.0
 11
958.843
 21
9518.44
 31
0.0
  0
LINE
  8
0
 62
     0
 10
123.522
 20
5247.85
 30
0.0
 11
118.412
 21
5233.92
 31
0.0
  0
LINE
  8
0
 62
     0
 10
118.412
 20
5233.92
 30
0.0
 11
128.37
 21
5230.25
 31
0.0
  0
LINE
  8
0
 62
     0
 10
128.37
 20
5230.25
 30
0.0
 11
133.481
 21
5244.18
 31
0.0
  0
LINE
  8
0
 62
     0
 10
133.481
 20
5244.18
 30
0.0
 11
143.44
 21
5240.55
 31
0.0
  0
LINE
  8
0
 62
     0
 10
143.44
 20
5240.55
 30
0.0
 11
138.329
 21
5226.61
 31
0.0
  0
LINE
  8
0
 62
     0
 10
138.329
 20
5226.61
 30
0.0
 11
148.288
 21
5222.95
 31
0.0
  0
LINE
  8
0
 62
     0
 10
148.288
 20
5222.95
 30
0.0
 11
153.398
 21
5236.88
 31
0.0
  0
LINE
  8
0
 62
     0
 10
153.398
 20
5236.88
 30
0.0
 11
163.357
 21
5233.25
 31
0.0
  0
LINE
  8
0
 62
     0
 10
163.357
 20
5233.25
 30
0.0
 11
158.246
 21
5219.31
 31
0.0
  0
LINE
  8
0
 62
     0
 10
158.246
 20
5219.31
 30
0.0
 11
168.205
 21
5215.64
 31
0.0
  0
LINE
  8
0
 62
     0
 10
168.205
 20
5215.64
 30
0.0
 11
173.316
 21
5229.58
 31
0.0
  0
LINE
  8
0
 62
     0
 10
173.316
 20
5229.58
 30
0.0
 11
311.128
 21
5179.06
 31
0.0
  0
LINE
  8
0
 62
     0
 10
311.128
 20
5179.06
 30
0.0
 11
377.687
 21
5154.33
 31
0.0
  0
LINE
  8
0
 62
     0
 10
377.687
 20
5154.33
 30
0.0
 11
417.417
 21
5139.34
 31
0.0
  0
LINE
  8
0
 62
     0
 10
417.417
 20
5139.34
 30
0.0
 11
454.328
 21
5125.16
 31
0.0
  0
LINE
  8
0
 62
     0
 10
454.328
 20
5125.16
 30
0.0
 11
489.504
 21
5111.4
 31
0.0
  0
LINE
  8
0
 62
     0
 10
489.504
 20
5111.4
 30
0.0
 11
524.03
 21
5097.57
 31
0.0
  0
LINE
  8
0
 62
     0
 10
524.03
 20
5097.57
 30
0.0
 11
558.991
 21
5083.28
 31
0.0
  0
LINE
  8
0
 62
     0
 10
558.991
 20
5083.28
 30
0.0
 11
595.478
 21
5068.08
 31
0.0
  0
LINE
  8
0
 62
     0
 10
595.478
 20
5068.08
 30
0.0
 11
634.577
 21
5051.53
 31
0.0
  0
LINE
  8
0
 62
     0
 10
634.577
 20
5051.53
 30
0.0
 11
699.837
 21
5023.52
 31
0.0
  0
LINE
  8
0
 62
     0
 10
699.837
 20
5023.52
 30
0.0
 11
806.679
 21
4977.17
 31
0.0
  0
LINE
  8
0
 62
     0
 10
806.679
 20
4977.17
 30
0.0
 11
820.939
 21
4970.96
 31
0.0
  0
LINE
  8
0
 62
     0
 10
820.939
 20
4970.96
 30
0.0
 11
815.012
 21
4957.34
 31
0.0
  0
LINE
  8
0
 62
     0
 10
815.012
 20
4957.34
 30
0.0
 11
824.735
 21
4953.11
 31
0.0
  0
LINE
  8
0
 62
     0
 10
824.735
 20
4953.11
 30
0.0
 11
830.665
 21
4966.72
 31
0.0
  0
LINE
  8
0
 62
     0
 10
830.665
 20
4966.72
 30
0.0
 11
840.387
 21
4962.49
 31
0.0
  0
LINE
  8
0
 62
     0
 10
840.387
 20
4962.49
 30
0.0
 11
834.461
 21
4948.87
 31
0.0
  0
LINE
  8
0
 62
     0
 10
834.461
 20
4948.87
 30
0.0
 11
844.187
 21
4944.64
 31
0.0
  0
LINE
  8
0
 62
     0
 10
844.187
 20
4944.64
 30
0.0
 11
850.113
 21
4958.26
 31
0.0
  0
LINE
  8
0
 62
     0
 10
850.113
 20
4958.26
 30
0.0
 11
859.839
 21
4954.02
 31
0.0
  0
LINE
  8
0
 62
     0
 10
859.839
 20
4954.02
 30
0.0
 11
853.913
 21
4940.41
 31
0.0
  0
LINE
  8
0
 62
     0
 10
853.913
 20
4940.41
 30
0.0
 11
863.635
 21
4936.17
 31
0.0
  0
LINE
  8
0
 62
     0
 10
863.635
 20
4936.17
 30
0.0
 11
869.562
 21
4949.79
 31
0.0
  0
LINE
  8
0
 62
     0
 10
869.562
 20
4949.79
 30
0.0
 11
879.288
 21
4945.56
 31
0.0
  0
LINE
  8
0
 62
     0
 10
879.288
 20
4945.56
 30
0.0
 11
873.361
 21
4931.94
 31
0.0
  0
LINE
  8
0
 62
     0
 10
873.361
 20
4931.94
 30
0.0
 11
883.084
 21
4927.71
 31
0.0
  0
LINE
  8
0
 62
     0
 10
883.084
 20
4927.71
 30
0.0
 11
889.014
 21
4941.32
 31
0.0
  0
LINE
  8
0
 62
     0
 10
889.014
 20
4941.32
 30
0.0
 11
883.892
 21
5026.48
 31
0.0
  0
LINE
  8
0
 62
     0
 10
883.892
 20
5026.48
 30
0.0
 11
876.685
 21
5147.49
 31
0.0
  0
LINE
  8
0
 62
     0
 10
876.685
 20
5147.49
 30
0.0
 11
870.43
 21
5256.25
 31
0.0
  0
LINE
  8
0
 62
     0
 10
870.43
 20
5256.25
 30
0.0
 11
865.082
 21
5355.91
 31
0.0
  0
LINE
  8
0
 62
     0
 10
865.082
 20
5355.91
 30
0.0
 11
861.663
 21
5426.53
 31
0.0
  0
LINE
  8
0
 62
     0
 10
861.663
 20
5426.53
 30
0.0
 11
859.624
 21
5472.54
 31
0.0
  0
LINE
  8
0
 62
     0
 10
859.624
 20
5472.54
 30
0.0
 11
857.786
 21
5518.08
 31
0.0
  0
LINE
  8
0
 62
     0
 10
857.786
 20
5518.08
 30
0.0
 11
856.139
 21
5563.59
 31
0.0
  0
LINE
  8
0
 62
     0
 10
856.139
 20
5563.59
 30
0.0
 11
854.678
 21
5609.41
 31
0.0
  0
LINE
  8
0
 62
     0
 10
854.678
 20
5609.41
 30
0.0
 11
853.398
 21
5655.98
 31
0.0
  0
LINE
  8
0
 62
     0
 10
853.398
 20
5655.98
 30
0.0
 11
852.293
 21
5703.68
 31
0.0
  0
LINE
  8
0
 62
     0
 10
852.293
 20
5703.68
 30
0.0
 11
851.359
 21
5752.89
 31
0.0
  0
LINE
  8
0
 62
     0
 10
851.359
 20
5752.89
 30
0.0
 11
850.586
 21
5804.08
 31
0.0
  0
LINE
  8
0
 62
     0
 10
850.586
 20
5804.08
 30
0.0
 11
849.969
 21
5857.59
 31
0.0
  0
LINE
  8
0
 62
     0
 10
849.969
 20
5857.59
 30
0.0
 11
849.503
 21
5913.86
 31
0.0
  0
LINE
  8
0
 62
     0
 10
849.503
 20
5913.86
 30
0.0
 11
849.178
 21
5973.27
 31
0.0
  0
LINE
  8
0
 62
     0
 10
849.178
 20
5973.27
 30
0.0
 11
848.939
 21
6068.62
 31
0.0
  0
LINE
  8
0
 62
     0
 10
848.939
 20
6068.62
 30
0.0
 11
849.09
 21
6211.08
 31
0.0
  0
LINE
  8
0
 62
     0
 10
849.09
 20
6211.08
 30
0.0
 11
849.711
 21
6373.28
 31
0.0
  0
LINE
  8
0
 62
     0
 10
849.711
 20
6373.28
 30
0.0
 11
850.755
 21
6558.46
 31
0.0
  0
LINE
  8
0
 62
     0
 10
850.755
 20
6558.46
 30
0.0
 11
852.967
 21
6882.41
 31
0.0
  0
LINE
  8
0
 62
     0
 10
852.967
 20
6882.41
 30
0.0
 11
854.971
 21
7153.84
 31
0.0
  0
LINE
  8
0
 62
     0
 10
854.971
 20
7153.84
 30
0.0
 11
836.157
 21
7157.09
 31
0.0
  0
LINE
  8
0
 62
     0
 10
836.157
 20
7157.09
 30
0.0
 11
753.646
 21
6919.77
 31
0.0
  0
LINE
  8
0
 62
     0
 10
753.646
 20
6919.77
 30
0.0
 11
655.299
 21
6637.37
 31
0.0
  0
LINE
  8
0
 62
     0
 10
655.299
 20
6637.37
 30
0.0
 11
598.886
 21
6476.05
 31
0.0
  0
LINE
  8
0
 62
     0
 10
598.886
 20
6476.05
 30
0.0
 11
549.219
 21
6334.8
 31
0.0
  0
LINE
  8
0
 62
     0
 10
549.219
 20
6334.8
 30
0.0
 11
505.255
 21
6210.86
 31
0.0
  0
LINE
  8
0
 62
     0
 10
505.255
 20
6210.86
 30
0.0
 11
465.97
 21
6101.5
 31
0.0
  0
LINE
  8
0
 62
     0
 10
465.97
 20
6101.5
 30
0.0
 11
439.05
 21
6027.7
 31
0.0
  0
LINE
  8
0
 62
     0
 10
439.05
 20
6027.7
 30
0.0
 11
421.95
 21
5981.38
 31
0.0
  0
LINE
  8
0
 62
     0
 10
421.95
 20
5981.38
 30
0.0
 11
405.437
 21
5937.11
 31
0.0
  0
LINE
  8
0
 62
     0
 10
405.437
 20
5937.11
 30
0.0
 11
389.386
 21
5894.6
 31
0.0
  0
LINE
  8
0
 62
     0
 10
389.386
 20
5894.6
 30
0.0
 11
373.662
 21
5853.47
 31
0.0
  0
LINE
  8
0
 62
     0
 10
373.662
 20
5853.47
 30
0.0
 11
358.14
 21
5813.35
 31
0.0
  0
LINE
  8
0
 62
     0
 10
358.14
 20
5813.35
 30
0.0
 11
342.687
 21
5773.98
 31
0.0
  0
LINE
  8
0
 62
     0
 10
342.687
 20
5773.98
 30
0.0
 11
327.175
 21
5734.93
 31
0.0
  0
LINE
  8
0
 62
     0
 10
327.175
 20
5734.93
 30
0.0
 11
311.478
 21
5695.91
 31
0.0
  0
LINE
  8
0
 62
     0
 10
311.478
 20
5695.91
 30
0.0
 11
295.461
 21
5656.51
 31
0.0
  0
LINE
  8
0
 62
     0
 10
295.461
 20
5656.51
 30
0.0
 11
270.633
 21
5596.18
 31
0.0
  0
LINE
  8
0
 62
     0
 10
270.633
 20
5596.18
 30
0.0
 11
235.142
 21
5511.2
 31
0.0
  0
LINE
  8
0
 62
     0
 10
235.142
 20
5511.2
 30
0.0
 11
175.474
 21
5370.02
 31
0.0
  0
LINE
  8
0
 62
     0
 10
175.474
 20
5370.02
 30
0.0
 11
123.522
 21
5247.85
 31
0.0
  0
LINE
  8
0
 62
     0
 10
6.10196
 20
9763.55
 30
0.0
 11
2.85667
 21
9749.05
 31
0.0
  0
LINE
  8
0
 62
     0
 10
2.85667
 20
9749.05
 30
0.0
 11
13.2071
 21
9746.76
 31
0.0
  0
LINE
  8
0
 62
     0
 10
13.2071
 20
9746.76
 30
0.0
 11
16.451
 21
9761.22
 31
0.0
  0
LINE
  8
0
 62
     0
 10
16.451
 20
9761.22
 30
0.0
 11
26.8015
 21
9758.93
 31
0.0
  0
LINE
  8
0
 62
     0
 10
26.8015
 20
9758.93
 30
0.0
 11
23.5575
 21
9744.43
 31
0.0
  0
LINE
  8
0
 62
     0
 10
23.5575
 20
9744.43
 30
0.0
 11
33.908
 21
9742.1
 31
0.0
  0
LINE
  8
0
 62
     0
 10
33.908
 20
9742.1
 30
0.0
 11
37.1521
 21
9756.6
 31
0.0
  0
LINE
  8
0
 62
     0
 10
37.1521
 20
9756.6
 30
0.0
 11
91.5402
 21
9744.43
 31
0.0
  0
LINE
  8
0
 62
     0
 10
91.5402
 20
9744.43
 30
0.0
 11
215.726
 21
9716.45
 31
0.0
  0
LINE
  8
0
 62
     0
 10
215.726
 20
9716.45
 30
0.0
 11
291.36
 21
9699.1
 31
0.0
  0
LINE
  8
0
 62
     0
 10
291.36
 20
9699.1
 30
0.0
 11
336.535
 21
9688.48
 31
0.0
  0
LINE
  8
0
 62
     0
 10
336.535
 20
9688.48
 30
0.0
 11
378.545
 21
9678.39
 31
0.0
  0
LINE
  8
0
 62
     0
 10
378.545
 20
9678.39
 30
0.0
 11
418.617
 21
9668.44
 31
0.0
  0
LINE
  8
0
 62
     0
 10
418.617
 20
9668.44
 30
0.0
 11
457.987
 21
9658.39
 31
0.0
  0
LINE
  8
0
 62
     0
 10
457.987
 20
9658.39
 30
0.0
 11
497.904
 21
9647.87
 31
0.0
  0
LINE
  8
0
 62
     0
 10
497.904
 20
9647.87
 30
0.0
 11
539.595
 21
9636.58
 31
0.0
  0
LINE
  8
0
 62
     0
 10
539.595
 20
9636.58
 30
0.0
 11
584.309
 21
9624.2
 31
0.0
  0
LINE
  8
0
 62
     0
 10
584.309
 20
9624.2
 30
0.0
 11
658.992
 21
9603.14
 31
0.0
  0
LINE
  8
0
 62
     0
 10
658.992
 20
9603.14
 30
0.0
 11
781.329
 21
9568.11
 31
0.0
  0
LINE
  8
0
 62
     0
 10
781.329
 20
9568.11
 30
0.0
 11
830.315
 21
9554
 31
0.0
  0
LINE
  8
0
 62
     0
 10
830.315
 20
9554
 30
0.0
 11
826.209
 21
9539.75
 31
0.0
  0
LINE
  8
0
 62
     0
 10
826.209
 20
9539.75
 30
0.0
 11
836.401
 21
9536.78
 31
0.0
  0
LINE
  8
0
 62
     0
 10
836.401
 20
9536.78
 30
0.0
 11
840.507
 21
9551.07
 31
0.0
  0
LINE
  8
0
 62
     0
 10
840.507
 20
9551.07
 30
0.0
 11
850.699
 21
9548.14
 31
0.0
  0
LINE
  8
0
 62
     0
 10
850.699
 20
9548.14
 30
0.0
 11
846.593
 21
9533.85
 31
0.0
  0
LINE
  8
0
 62
     0
 10
846.593
 20
9533.85
 30
0.0
 11
856.788
 21
9530.93
 31
0.0
  0
LINE
  8
0
 62
     0
 10
856.788
 20
9530.93
 30
0.0
 11
860.894
 21
9545.21
 31
0.0
  0
LINE
  8
0
 62
     0
 10
860.894
 20
9545.21
 30
0.0
 11
871.086
 21
9542.25
 31
0.0
  0
LINE
  8
0
 62
     0
 10
871.086
 20
9542.25
 30
0.0
 11
866.98
 21
9528
 31
0.0
  0
LINE
  8
0
 62
     0
 10
866.98
 20
9528
 30
0.0
 11
877.171
 21
9525.07
 31
0.0
  0
LINE
  8
0
 62
     0
 10
877.171
 20
9525.07
 30
0.0
 11
881.278
 21
9539.32
 31
0.0
  0
LINE
  8
0
 62
     0
 10
881.278
 20
9539.32
 30
0.0
 11
814.497
 21
9670.17
 31
0.0
  0
LINE
  8
0
 62
     0
 10
814.497
 20
9670.17
 30
0.0
 11
745.098
 21
9806.83
 31
0.0
  0
LINE
  8
0
 62
     0
 10
745.098
 20
9806.83
 30
0.0
 11
703.749
 21
9889.14
 31
0.0
  0
LINE
  8
0
 62
     0
 10
703.749
 20
9889.14
 30
0.0
 11
674.772
 21
9947.59
 31
0.0
  0
LINE
  8
0
 62
     0
 10
674.772
 20
9947.59
 30
0.0
 11
656.047
 21
9985.76
 31
0.0
  0
LINE
  8
0
 62
     0
 10
656.047
 20
9985.76
 30
0.0
 11
637.656
 21
10023.6
 31
0.0
  0
LINE
  8
0
 62
     0
 10
637.656
 20
10023.6
 30
0.0
 11
619.457
 21
10061.5
 31
0.0
  0
LINE
  8
0
 62
     0
 10
619.457
 20
10061.5
 30
0.0
 11
601.289
 21
10099.7
 31
0.0
  0
LINE
  8
0
 62
     0
 10
601.289
 20
10099.7
 30
0.0
 11
583.004
 21
10138.6
 31
0.0
  0
LINE
  8
0
 62
     0
 10
583.004
 20
10138.6
 30
0.0
 11
564.444
 21
10178.5
 31
0.0
  0
LINE
  8
0
 62
     0
 10
564.444
 20
10178.5
 30
0.0
 11
545.461
 21
10219.8
 31
0.0
  0
LINE
  8
0
 62
     0
 10
545.461
 20
10219.8
 30
0.0
 11
525.896
 21
10262.8
 31
0.0
  0
LINE
  8
0
 62
     0
 10
525.896
 20
10262.8
 30
0.0
 11
505.601
 21
10307.8
 31
0.0
  0
LINE
  8
0
 62
     0
 10
505.601
 20
10307.8
 30
0.0
 11
473.583
 21
10379.6
 31
0.0
  0
LINE
  8
0
 62
     0
 10
473.583
 20
10379.6
 30
0.0
 11
426.759
 21
10485.9
 31
0.0
  0
LINE
  8
0
 62
     0
 10
426.759
 20
10485.9
 30
0.0
 11
374.251
 21
10606.4
 31
0.0
  0
LINE
  8
0
 62
     0
 10
374.251
 20
10606.4
 30
0.0
 11
314.838
 21
10743.8
 31
0.0
  0
LINE
  8
0
 62
     0
 10
314.838
 20
10743.8
 30
0.0
 11
247.293
 21
10900.9
 31
0.0
  0
LINE
  8
0
 62
     0
 10
247.293
 20
10900.9
 30
0.0
 11
129.456
 21
11175.7
 31
0.0
  0
LINE
  8
0
 62
     0
 10
129.456
 20
11175.7
 30
0.0
 11
30.6779
 21
11406.4
 31
0.0
  0
LINE
  8
0
 62
     0
 10
30.6779
 20
11406.4
 30
0.0
 11
12.5622
 21
11402.5
 31
0.0
  0
LINE
  8
0
 62
     0
 10
12.5622
 20
11402.5
 30
0.0
 11
20.7161
 21
10958.8
 31
0.0
  0
LINE
  8
0
 62
     0
 10
20.7161
 20
10958.8
 30
0.0
 11
23.0422
 21
10821.5
 31
0.0
  0
LINE
  8
0
 62
     0
 10
23.0422
 20
10821.5
 30
0.0
 11
24.8626
 21
10701.2
 31
0.0
  0
LINE
  8
0
 62
     0
 10
24.8626
 20
10701.2
 30
0.0
 11
26.169
 21
10595.5
 31
0.0
  0
LINE
  8
0
 62
     0
 10
26.169
 20
10595.5
 30
0.0
 11
26.9517
 21
10502.2
 31
0.0
  0
LINE
  8
0
 62
     0
 10
26.9517
 20
10502.2
 30
0.0
 11
27.1818
 21
10418.7
 31
0.0
  0
LINE
  8
0
 62
     0
 10
27.1818
 20
10418.7
 30
0.0
 11
26.9131
 21
10342.8
 31
0.0
  0
LINE
  8
0
 62
     0
 10
26.9131
 20
10342.8
 30
0.0
 11
26.3192
 21
10289.5
 31
0.0
  0
LINE
  8
0
 62
     0
 10
26.3192
 20
10289.5
 30
0.0
 11
25.7597
 21
10255
 31
0.0
  0
LINE
  8
0
 62
     0
 10
25.7597
 20
10255
 30
0.0
 11
24.6765
 21
10204.1
 31
0.0
  0
LINE
  8
0
 62
     0
 10
24.6765
 20
10204.1
 30
0.0
 11
22.7114
 21
10136.5
 31
0.0
  0
LINE
  8
0
 62
     0
 10
22.7114
 20
10136.5
 30
0.0
 11
20.169
 21
10067
 31
0.0
  0
LINE
  8
0
 62
     0
 10
20.169
 20
10067
 30
0.0
 11
17.0394
 21
9993.07
 31
0.0
  0
LINE
  8
0
 62
     0
 10
17.0394
 20
9993.07
 30
0.0
 11
11.3013
 21
9870.05
 31
0.0
  0
LINE
  8
0
 62
     0
 10
11.3013
 20
9870.05
 30
0.0
 11
6.10196
 21
9763.55
 31
0.0
  0
LINE
  8
0
 62
     0
 10
24.3003
 20
1922.36
 30
0.0
 11
26.7009
 21
1907.7
 31
0.0
  0
LINE
  8
0
 62
     0
 10
26.7009
 20
1907.7
 30
0.0
 11
37.1669
 21
1909.42
 31
0.0
  0
LINE
  8
0
 62
     0
 10
37.1669
 20
1909.42
 30
0.0
 11
34.7679
 21
1924.07
 31
0.0
  0
LINE
  8
0
 62
     0
 10
34.7679
 20
1924.07
 30
0.0
 11
112.696
 21
1936.83
 31
0.0
  0
LINE
  8
0
 62
     0
 10
112.696
 20
1936.83
 30
0.0
 11
234.472
 21
1956.62
 31
0.0
  0
LINE
  8
0
 62
     0
 10
234.472
 20
1956.62
 30
0.0
 11
308.756
 21
1968.37
 31
0.0
  0
LINE
  8
0
 62
     0
 10
308.756
 20
1968.37
 30
0.0
 11
353.208
 21
1975.18
 31
0.0
  0
LINE
  8
0
 62
     0
 10
353.208
 20
1975.18
 30
0.0
 11
394.635
 21
1981.29
 31
0.0
  0
LINE
  8
0
 62
     0
 10
394.635
 20
1981.29
 30
0.0
 11
434.255
 21
1986.86
 31
0.0
  0
LINE
  8
0
 62
     0
 10
434.255
 20
1986.86
 30
0.0
 11
473.297
 21
1992.05
 31
0.0
  0
LINE
  8
0
 62
     0
 10
473.297
 20
1992.05
 30
0.0
 11
512.985
 21
1997.04
 31
0.0
  0
LINE
  8
0
 62
     0
 10
512.985
 20
1997.04
 30
0.0
 11
554.556
 21
2001.98
 31
0.0
  0
LINE
  8
0
 62
     0
 10
554.556
 20
2001.98
 30
0.0
 11
599.235
 21
2007.03
 31
0.0
  0
LINE
  8
0
 62
     0
 10
599.235
 20
2007.03
 30
0.0
 11
674
 21
2015.08
 31
0.0
  0
LINE
  8
0
 62
     0
 10
674
 20
2015.08
 30
0.0
 11
858.756
 21
2034.22
 31
0.0
  0
LINE
  8
0
 62
     0
 10
858.756
 20
2034.22
 30
0.0
 11
860.284
 21
2019.45
 31
0.0
  0
LINE
  8
0
 62
     0
 10
860.284
 20
2019.45
 30
0.0
 11
870.835
 21
2020.54
 31
0.0
  0
LINE
  8
0
 62
     0
 10
870.835
 20
2020.54
 30
0.0
 11
869.304
 21
2035.31
 31
0.0
  0
LINE
  8
0
 62
     0
 10
869.304
 20
2035.31
 30
0.0
 11
879.856
 21
2036.4
 31
0.0
  0
LINE
  8
0
 62
     0
 10
879.856
 20
2036.4
 30
0.0
 11
881.384
 21
2021.63
 31
0.0
  0
LINE
  8
0
 62
     0
 10
881.384
 20
2021.63
 30
0.0
 11
891.935
 21
2022.73
 31
0.0
  0
LINE
  8
0
 62
     0
 10
891.935
 20
2022.73
 30
0.0
 11
890.404
 21
2037.5
 31
0.0
  0
LINE
  8
0
 62
     0
 10
890.404
 20
2037.5
 30
0.0
 11
826.647
 21
2134.08
 31
0.0
  0
LINE
  8
0
 62
     0
 10
826.647
 20
2134.08
 30
0.0
 11
759.016
 21
2237.02
 31
0.0
  0
LINE
  8
0
 62
     0
 10
759.016
 20
2237.02
 30
0.0
 11
718.644
 21
2299.05
 31
0.0
  0
LINE
  8
0
 62
     0
 10
718.644
 20
2299.05
 30
0.0
 11
681.002
 21
2357.62
 31
0.0
  0
LINE
  8
0
 62
     0
 10
681.002
 20
2357.62
 30
0.0
 11
644.874
 21
2414.77
 31
0.0
  0
LINE
  8
0
 62
     0
 10
644.874
 20
2414.77
 30
0.0
 11
618.024
 21
2457.98
 31
0.0
  0
LINE
  8
0
 62
     0
 10
618.024
 20
2457.98
 30
0.0
 11
599.955
 21
2487.4
 31
0.0
  0
LINE
  8
0
 62
     0
 10
599.955
 20
2487.4
 30
0.0
 11
572.276
 21
2532.97
 31
0.0
  0
LINE
  8
0
 62
     0
 10
572.276
 20
2532.97
 30
0.0
 11
533.351
 21
2598.13
 31
0.0
  0
LINE
  8
0
 62
     0
 10
533.351
 20
2598.13
 30
0.0
 11
491.056
 21
2670.04
 31
0.0
  0
LINE
  8
0
 62
     0
 10
491.056
 20
2670.04
 30
0.0
 11
444.165
 21
2750.75
 31
0.0
  0
LINE
  8
0
 62
     0
 10
444.165
 20
2750.75
 30
0.0
 11
391.467
 21
2842.3
 31
0.0
  0
LINE
  8
0
 62
     0
 10
391.467
 20
2842.3
 30
0.0
 11
331.742
 21
2946.73
 31
0.0
  0
LINE
  8
0
 62
     0
 10
331.742
 20
2946.73
 30
0.0
 11
263.773
 21
3066.06
 31
0.0
  0
LINE
  8
0
 62
     0
 10
263.773
 20
3066.06
 30
0.0
 11
145.112
 21
3274.98
 31
0.0
  0
LINE
  8
0
 62
     0
 10
145.112
 20
3274.98
 30
0.0
 11
44.9612
 21
3451.53
 31
0.0
  0
LINE
  8
0
 62
     0
 10
44.9612
 20
3451.53
 30
0.0
 11
28.0706
 21
3446.89
 31
0.0
  0
LINE
  8
0
 62
     0
 10
28.0706
 20
3446.89
 30
0.0
 11
31.903
 21
3258.12
 31
0.0
  0
LINE
  8
0
 62
     0
 10
31.903
 20
3258.12
 30
0.0
 11
36.3001
 21
3035.43
 31
0.0
  0
LINE
  8
0
 62
     0
 10
36.3001
 20
3035.43
 30
0.0
 11
38.6623
 21
2908.14
 31
0.0
  0
LINE
  8
0
 62
     0
 10
38.6623
 20
2908.14
 30
0.0
 11
40.5296
 21
2796.63
 31
0.0
  0
LINE
  8
0
 62
     0
 10
40.5296
 20
2796.63
 30
0.0
 11
41.898
 21
2698.7
 31
0.0
  0
LINE
  8
0
 62
     0
 10
41.898
 20
2698.7
 30
0.0
 11
42.7648
 21
2612.17
 31
0.0
  0
LINE
  8
0
 62
     0
 10
42.7648
 20
2612.17
 30
0.0
 11
43.1214
 21
2534.82
 31
0.0
  0
LINE
  8
0
 62
     0
 10
43.1214
 20
2534.82
 30
0.0
 11
42.9673
 21
2464.46
 31
0.0
  0
LINE
  8
0
 62
     0
 10
42.9673
 20
2464.46
 30
0.0
 11
42.2949
 21
2398.88
 31
0.0
  0
LINE
  8
0
 62
     0
 10
42.2949
 20
2398.88
 30
0.0
 11
41.1014
 21
2335.88
 31
0.0
  0
LINE
  8
0
 62
     0
 10
41.1014
 20
2335.88
 30
0.0
 11
39.3802
 21
2273.25
 31
0.0
  0
LINE
  8
0
 62
     0
 10
39.3802
 20
2273.25
 30
0.0
 11
37.1285
 21
2208.77
 31
0.0
  0
LINE
  8
0
 62
     0
 10
37.1285
 20
2208.77
 30
0.0
 11
34.3379
 21
2140.24
 31
0.0
  0
LINE
  8
0
 62
     0
 10
34.3379
 20
2140.24
 30
0.0
 11
29.2034
 21
2026.2
 31
0.0
  0
LINE
  8
0
 62
     0
 10
29.2034
 20
2026.2
 30
0.0
 11
24.3003
 21
1922.36
 31
0.0
  0
LINE
  8
0
 62
     0
 10
615.484
 20
14122.4
 30
0.0
 11
614.74
 21
14113.8
 31
0.0
  0
LINE
  8
0
 62
     0
 10
614.74
 20
14113.8
 30
0.0
 11
613.996
 21
14105.2
 31
0.0
  0
LINE
  8
0
 62
     0
 10
613.996
 20
14105.2
 30
0.0
 11
606.898
 21
14110.1
 31
0.0
  0
LINE
  8
0
 62
     0
 10
606.898
 20
14110.1
 30
0.0
 11
599.796
 21
14115.1
 31
0.0
  0
LINE
  8
0
 62
     0
 10
599.796
 20
14115.1
 30
0.0
 11
599.052
 21
14106.5
 31
0.0
  0
LINE
  8
0
 62
     0
 10
599.052
 20
14106.5
 30
0.0
 11
598.311
 21
14097.8
 31
0.0
  0
LINE
  8
0
 62
     0
 10
598.311
 20
14097.8
 30
0.0
 11
584.108
 21
14107.8
 31
0.0
  0
LINE
  8
0
 62
     0
 10
584.108
 20
14107.8
 30
0.0
 11
583.364
 21
14099.1
 31
0.0
  0
LINE
  8
0
 62
     0
 10
583.364
 20
14099.1
 30
0.0
 11
582.62
 21
14090.5
 31
0.0
  0
LINE
  8
0
 62
     0
 10
582.62
 20
14090.5
 30
0.0
 11
575.522
 21
14095.4
 31
0.0
  0
LINE
  8
0
 62
     0
 10
575.522
 20
14095.4
 30
0.0
 11
568.42
 21
14100.4
 31
0.0
  0
LINE
  8
0
 62
     0
 10
568.42
 20
14100.4
 30
0.0
 11
485.623
 21
14061.5
 31
0.0
  0
LINE
  8
0
 62
     0
 10
485.623
 20
14061.5
 30
0.0
 11
434.167
 21
14037.1
 31
0.0
  0
LINE
  8
0
 62
     0
 10
434.167
 20
14037.1
 30
0.0
 11
403.475
 21
14022.4
 31
0.0
  0
LINE
  8
0
 62
     0
 10
403.475
 20
14022.4
 30
0.0
 11
374.978
 21
14008.5
 31
0.0
  0
LINE
  8
0
 62
     0
 10
374.978
 20
14008.5
 30
0.0
 11
347.843
 21
13995
 31
0.0
  0
LINE
  8
0
 62
     0
 10
347.843
 20
13995
 30
0.0
 11
321.233
 21
13981.6
 31
0.0
  0
LINE
  8
0
 62
     0
 10
321.233
 20
13981.6
 30
0.0
 11
294.306
 21
13967.7
 31
0.0
  0
LINE
  8
0
 62
     0
 10
294.306
 20
13967.7
 30
0.0
 11
266.222
 21
13953.1
 31
0.0
  0
LINE
  8
0
 62
     0
 10
266.222
 20
13953.1
 30
0.0
 11
236.143
 21
13937.1
 31
0.0
  0
LINE
  8
0
 62
     0
 10
236.143
 20
13937.1
 30
0.0
 11
185.955
 21
13910.2
 31
0.0
  0
LINE
  8
0
 62
     0
 10
185.955
 20
13910.2
 30
0.0
 11
112.225
 21
13870.3
 31
0.0
  0
LINE
  8
0
 62
     0
 10
112.225
 20
13870.3
 30
0.0
 11
111.999
 21
13861.6
 31
0.0
  0
LINE
  8
0
 62
     0
 10
111.999
 20
13861.6
 30
0.0
 11
111.773
 21
13852.9
 31
0.0
  0
LINE
  8
0
 62
     0
 10
111.773
 20
13852.9
 30
0.0
 11
104.388
 21
13857.5
 31
0.0
  0
LINE
  8
0
 62
     0
 10
104.388
 20
13857.5
 30
0.0
 11
97.003
 21
13862
 31
0.0
  0
LINE
  8
0
 62
     0
 10
97.003
 20
13862
 30
0.0
 11
96.7768
 21
13853.4
 31
0.0
  0
LINE
  8
0
 62
     0
 10
96.7768
 20
13853.4
 30
0.0
 11
96.551
 21
13844.7
 31
0.0
  0
LINE
  8
0
 62
     0
 10
96.551
 20
13844.7
 30
0.0
 11
89.166
 21
13849.2
 31
0.0
  0
LINE
  8
0
 62
     0
 10
89.166
 20
13849.2
 30
0.0
 11
81.7824
 21
13853.8
 31
0.0
  0
LINE
  8
0
 62
     0
 10
81.7824
 20
13853.8
 30
0.0
 11
81.5566
 21
13845.1
 31
0.0
  0
LINE
  8
0
 62
     0
 10
81.5566
 20
13845.1
 30
0.0
 11
81.329
 21
13836.4
 31
0.0
  0
LINE
  8
0
 62
     0
 10
81.329
 20
13836.4
 30
0.0
 11
73.9454
 21
13841
 31
0.0
  0
LINE
  8
0
 62
     0
 10
73.9454
 20
13841
 30
0.0
 11
66.5607
 21
13845.5
 31
0.0
  0
LINE
  8
0
 62
     0
 10
66.5607
 20
13845.5
 30
0.0
 11
66.1088
 21
13828.2
 31
0.0
  0
LINE
  8
0
 62
     0
 10
66.1088
 20
13828.2
 30
0.0
 11
58.7237
 21
13832.7
 31
0.0
  0
LINE
  8
0
 62
     0
 10
58.7237
 20
13832.7
 30
0.0
 11
51.3401
 21
13837.2
 31
0.0
  0
LINE
  8
0
 62
     0
 10
51.3401
 20
13837.2
 30
0.0
 11
51.1143
 21
13828.6
 31
0.0
  0
LINE
  8
0
 62
     0
 10
51.1143
 20
13828.6
 30
0.0
 11
50.8868
 21
13819.9
 31
0.0
  0
LINE
  8
0
 62
     0
 10
50.8868
 20
13819.9
 30
0.0
 11
43.5031
 21
13824.4
 31
0.0
  0
LINE
  8
0
 62
     0
 10
43.5031
 20
13824.4
 30
0.0
 11
36.1184
 21
13829
 31
0.0
  0
LINE
  8
0
 62
     0
 10
36.1184
 20
13829
 30
0.0
 11
39.551
 21
13921.9
 31
0.0
  0
LINE
  8
0
 62
     0
 10
39.551
 20
13921.9
 30
0.0
 11
44.3713
 21
14054.5
 31
0.0
  0
LINE
  8
0
 62
     0
 10
44.3713
 20
14054.5
 30
0.0
 11
48.4572
 21
14173.7
 31
0.0
  0
LINE
  8
0
 62
     0
 10
48.4572
 20
14173.7
 30
0.0
 11
50.9986
 21
14256.1
 31
0.0
  0
LINE
  8
0
 62
     0
 10
50.9986
 20
14256.1
 30
0.0
 11
52.4648
 21
14308.9
 31
0.0
  0
LINE
  8
0
 62
     0
 10
52.4648
 20
14308.9
 30
0.0
 11
53.7312
 21
14360.3
 31
0.0
  0
LINE
  8
0
 62
     0
 10
53.7312
 20
14360.3
 30
0.0
 11
54.7963
 21
14410.7
 31
0.0
  0
LINE
  8
0
 62
     0
 10
54.7963
 20
14410.7
 30
0.0
 11
55.6549
 21
14460.6
 31
0.0
  0
LINE
  8
0
 62
     0
 10
55.6549
 20
14460.6
 30
0.0
 11
56.304
 21
14510.4
 31
0.0
  0
LINE
  8
0
 62
     0
 10
56.304
 20
14510.4
 30
0.0
 11
56.7394
 21
14560.6
 31
0.0
  0
LINE
  8
0
 62
     0
 10
56.7394
 20
14560.6
 30
0.0
 11
56.9599
 21
14611.6
 31
0.0
  0
LINE
  8
0
 62
     0
 10
56.9599
 20
14611.6
 30
0.0
 11
56.9599
 21
14663.8
 31
0.0
  0
LINE
  8
0
 62
     0
 10
56.9599
 20
14663.8
 30
0.0
 11
56.7351
 21
14717.7
 31
0.0
  0
LINE
  8
0
 62
     0
 10
56.7351
 20
14717.7
 30
0.0
 11
56.2832
 21
14773.8
 31
0.0
  0
LINE
  8
0
 62
     0
 10
56.2832
 20
14773.8
 30
0.0
 11
55.601
 21
14832.4
 31
0.0
  0
LINE
  8
0
 62
     0
 10
55.601
 20
14832.4
 30
0.0
 11
54.6848
 21
14893.9
 31
0.0
  0
LINE
  8
0
 62
     0
 10
54.6848
 20
14893.9
 30
0.0
 11
53.5312
 21
14958.9
 31
0.0
  0
LINE
  8
0
 62
     0
 10
53.5312
 20
14958.9
 30
0.0
 11
51.3761
 21
15063.3
 31
0.0
  0
LINE
  8
0
 62
     0
 10
51.3761
 20
15063.3
 30
0.0
 11
47.5989
 21
15219.2
 31
0.0
  0
LINE
  8
0
 62
     0
 10
47.5989
 20
15219.2
 30
0.0
 11
42.8046
 21
15396.7
 31
0.0
  0
LINE
  8
0
 62
     0
 10
42.8046
 20
15396.7
 30
0.0
 11
36.9672
 21
15599.3
 31
0.0
  0
LINE
  8
0
 62
     0
 10
36.9672
 20
15599.3
 30
0.0
 11
26.3329
 21
15953.8
 31
0.0
  0
LINE
  8
0
 62
     0
 10
26.3329
 20
15953.8
 30
0.0
 11
17.2682
 21
16250.4
 31
0.0
  0
LINE
  8
0
 62
     0
 10
17.2682
 20
16250.4
 30
0.0
 11
37.2237
 21
16253.2
 31
0.0
  0
LINE
  8
0
 62
     0
 10
37.2237
 20
16253.2
 30
0.0
 11
184.924
 21
15675.9
 31
0.0
  0
LINE
  8
0
 62
     0
 10
184.924
 20
15675.9
 30
0.0
 11
231.08
 21
15496.5
 31
0.0
  0
LINE
  8
0
 62
     0
 10
231.08
 20
15496.5
 30
0.0
 11
271.796
 21
15339.5
 31
0.0
  0
LINE
  8
0
 62
     0
 10
271.796
 20
15339.5
 30
0.0
 11
307.934
 21
15201.7
 31
0.0
  0
LINE
  8
0
 62
     0
 10
307.934
 20
15201.7
 30
0.0
 11
332.452
 21
15109.5
 31
0.0
  0
LINE
  8
0
 62
     0
 10
332.452
 20
15109.5
 30
0.0
 11
347.891
 21
15052.2
 31
0.0
  0
LINE
  8
0
 62
     0
 10
347.891
 20
15052.2
 30
0.0
 11
362.67
 21
14997.9
 31
0.0
  0
LINE
  8
0
 62
     0
 10
362.67
 20
14997.9
 30
0.0
 11
376.901
 21
14946.3
 31
0.0
  0
LINE
  8
0
 62
     0
 10
376.901
 20
14946.3
 30
0.0
 11
390.684
 21
14897
 31
0.0
  0
LINE
  8
0
 62
     0
 10
390.684
 20
14897
 30
0.0
 11
404.132
 21
14849.6
 31
0.0
  0
LINE
  8
0
 62
     0
 10
404.132
 20
14849.6
 30
0.0
 11
417.347
 21
14803.8
 31
0.0
  0
LINE
  8
0
 62
     0
 10
417.347
 20
14803.8
 30
0.0
 11
430.442
 21
14759.1
 31
0.0
  0
LINE
  8
0
 62
     0
 10
430.442
 20
14759.1
 30
0.0
 11
443.526
 21
14715.1
 31
0.0
  0
LINE
  8
0
 62
     0
 10
443.526
 20
14715.1
 30
0.0
 11
456.706
 21
14671.6
 31
0.0
  0
LINE
  8
0
 62
     0
 10
456.706
 20
14671.6
 30
0.0
 11
470.087
 21
14628
 31
0.0
  0
LINE
  8
0
 62
     0
 10
470.087
 20
14628
 30
0.0
 11
483.778
 21
14584
 31
0.0
  0
LINE
  8
0
 62
     0
 10
483.778
 20
14584
 30
0.0
 11
505.072
 21
14516.6
 31
0.0
  0
LINE
  8
0
 62
     0
 10
505.072
 20
14516.6
 30
0.0
 11
535.623
 21
14421.6
 31
0.0
  0
LINE
  8
0
 62
     0
 10
535.623
 20
14421.6
 30
0.0
 11
569.362
 21
14318
 31
0.0
  0
LINE
  8
0
 62
     0
 10
569.362
 20
14318
 30
0.0
 11
631.172
 21
14129.8
 31
0.0
  0
LINE
  8
0
 62
     0
 10
631.172
 20
14129.8
 30
0.0
 11
630.428
 21
14121.1
 31
0.0
  0
LINE
  8
0
 62
     0
 10
630.428
 20
14121.1
 30
0.0
 11
629.687
 21
14112.5
 31
0.0
  0
LINE
  8
0
 62
     0
 10
629.687
 20
14112.5
 30
0.0
 11
622.586
 21
14117.5
 31
0.0
  0
LINE
  8
0
 62
     0
 10
622.586
 20
14117.5
 30
0.0
 11
615.484
 21
14122.4
 31
0.0
  0
LINE
  8
0
 62
     0
 10
33.1515
 20
7286.03
 30
0.0
 11
41.6511
 21
7504.92
 31
0.0
  0
LINE
  8
0
 62
     0
 10
41.6511
 20
7504.92
 30
0.0
 11
45.992
 21
7623.6
 31
0.0
  0
LINE
  8
0
 62
     0
 10
45.992
 20
7623.6
 30
0.0
 11
48.7109
 21
7705.65
 31
0.0
  0
LINE
  8
0
 62
     0
 10
48.7109
 20
7705.65
 30
0.0
 11
50.2916
 21
7758.22
 31
0.0
  0
LINE
  8
0
 62
     0
 10
50.2916
 20
7758.22
 30
0.0
 11
51.6696
 21
7809.37
 31
0.0
  0
LINE
  8
0
 62
     0
 10
51.6696
 20
7809.37
 30
0.0
 11
52.8451
 21
7859.61
 31
0.0
  0
LINE
  8
0
 62
     0
 10
52.8451
 20
7859.61
 30
0.0
 11
53.8138
 21
7909.28
 31
0.0
  0
LINE
  8
0
 62
     0
 10
53.8138
 20
7909.28
 30
0.0
 11
54.573
 21
7958.91
 31
0.0
  0
LINE
  8
0
 62
     0
 10
54.573
 20
7958.91
 30
0.0
 11
55.1215
 21
8008.9
 31
0.0
  0
LINE
  8
0
 62
     0
 10
55.1215
 20
8008.9
 30
0.0
 11
55.4563
 21
8059.67
 31
0.0
  0
LINE
  8
0
 62
     0
 10
55.4563
 20
8059.67
 30
0.0
 11
55.5734
 21
8111.7
 31
0.0
  0
LINE
  8
0
 62
     0
 10
55.5734
 20
8111.7
 30
0.0
 11
55.4729
 21
8165.39
 31
0.0
  0
LINE
  8
0
 62
     0
 10
55.4729
 20
8165.39
 30
0.0
 11
55.1519
 21
8221.2
 31
0.0
  0
LINE
  8
0
 62
     0
 10
55.1519
 20
8221.2
 30
0.0
 11
54.6047
 21
8279.55
 31
0.0
  0
LINE
  8
0
 62
     0
 10
54.6047
 20
8279.55
 30
0.0
 11
53.8332
 21
8340.87
 31
0.0
  0
LINE
  8
0
 62
     0
 10
53.8332
 20
8340.87
 30
0.0
 11
52.8313
 21
8405.64
 31
0.0
  0
LINE
  8
0
 62
     0
 10
52.8313
 20
8405.64
 30
0.0
 11
50.9228
 21
8509.56
 31
0.0
  0
LINE
  8
0
 62
     0
 10
50.9228
 20
8509.56
 30
0.0
 11
47.5135
 21
8664.82
 31
0.0
  0
LINE
  8
0
 62
     0
 10
47.5135
 20
8664.82
 30
0.0
 11
43.1437
 21
8841.63
 31
0.0
  0
LINE
  8
0
 62
     0
 10
43.1437
 20
8841.63
 30
0.0
 11
37.7899
 21
9043.46
 31
0.0
  0
LINE
  8
0
 62
     0
 10
37.7899
 20
9043.46
 30
0.0
 11
28.0045
 21
9396.48
 31
0.0
  0
LINE
  8
0
 62
     0
 10
28.0045
 20
9396.48
 30
0.0
 11
19.6591
 21
9691.65
 31
0.0
  0
LINE
  8
0
 62
     0
 10
19.6591
 20
9691.65
 30
0.0
 11
38.9117
 21
9694.93
 31
0.0
  0
LINE
  8
0
 62
     0
 10
38.9117
 20
9694.93
 30
0.0
 11
129.956
 21
9411.02
 31
0.0
  0
LINE
  8
0
 62
     0
 10
129.956
 20
9411.02
 30
0.0
 11
239.081
 21
9071.36
 31
0.0
  0
LINE
  8
0
 62
     0
 10
239.081
 20
9071.36
 30
0.0
 11
301.691
 21
8877.3
 31
0.0
  0
LINE
  8
0
 62
     0
 10
301.691
 20
8877.3
 30
0.0
 11
356.845
 21
8707.37
 31
0.0
  0
LINE
  8
0
 62
     0
 10
356.845
 20
8707.37
 30
0.0
 11
405.691
 21
8558.32
 31
0.0
  0
LINE
  8
0
 62
     0
 10
405.691
 20
8558.32
 30
0.0
 11
438.743
 21
8458.62
 31
0.0
  0
LINE
  8
0
 62
     0
 10
438.743
 20
8458.62
 30
0.0
 11
459.514
 21
8396.61
 31
0.0
  0
LINE
  8
0
 62
     0
 10
459.514
 20
8396.61
 30
0.0
 11
479.358
 21
8337.9
 31
0.0
  0
LINE
  8
0
 62
     0
 10
479.358
 20
8337.9
 30
0.0
 11
498.415
 21
8282.13
 31
0.0
  0
LINE
  8
0
 62
     0
 10
498.415
 20
8282.13
 30
0.0
 11
516.83
 21
8228.86
 31
0.0
  0
LINE
  8
0
 62
     0
 10
516.83
 20
8228.86
 30
0.0
 11
534.748
 21
8177.67
 31
0.0
  0
LINE
  8
0
 62
     0
 10
534.748
 20
8177.67
 30
0.0
 11
552.316
 21
8128.14
 31
0.0
  0
LINE
  8
0
 62
     0
 10
552.316
 20
8128.14
 30
0.0
 11
569.673
 21
8079.88
 31
0.0
  0
LINE
  8
0
 62
     0
 10
569.673
 20
8079.88
 30
0.0
 11
586.962
 21
8032.43
 31
0.0
  0
LINE
  8
0
 62
     0
 10
586.962
 20
8032.43
 30
0.0
 11
604.337
 21
7985.41
 31
0.0
  0
LINE
  8
0
 62
     0
 10
604.337
 20
7985.41
 30
0.0
 11
621.933
 21
7938.38
 31
0.0
  0
LINE
  8
0
 62
     0
 10
621.933
 20
7938.38
 30
0.0
 11
639.897
 21
7890.93
 31
0.0
  0
LINE
  8
0
 62
     0
 10
639.897
 20
7890.93
 30
0.0
 11
658.375
 21
7842.67
 31
0.0
  0
LINE
  8
0
 62
     0
 10
658.375
 20
7842.67
 30
0.0
 11
677.513
 21
7793.14
 31
0.0
  0
LINE
  8
0
 62
     0
 10
677.513
 20
7793.14
 30
0.0
 11
707.64
 21
7715.85
 31
0.0
  0
LINE
  8
0
 62
     0
 10
707.64
 20
7715.85
 30
0.0
 11
751.586
 21
7604.27
 31
0.0
  0
LINE
  8
0
 62
     0
 10
751.586
 20
7604.27
 30
0.0
 11
800.753
 21
7480.12
 31
0.0
  0
LINE
  8
0
 62
     0
 10
800.753
 20
7480.12
 30
0.0
 11
833.392
 21
7397.89
 31
0.0
  0
LINE
  8
0
 62
     0
 10
833.392
 20
7397.89
 30
0.0
 11
829.903
 21
7389.95
 31
0.0
  0
LINE
  8
0
 62
     0
 10
829.903
 20
7389.95
 30
0.0
 11
826.414
 21
7382.05
 31
0.0
  0
LINE
  8
0
 62
     0
 10
826.414
 20
7382.05
 30
0.0
 11
821.295
 21
7389.04
 31
0.0
  0
LINE
  8
0
 62
     0
 10
821.295
 20
7389.04
 30
0.0
 11
816.173
 21
7396.02
 31
0.0
  0
LINE
  8
0
 62
     0
 10
816.173
 20
7396.02
 30
0.0
 11
812.687
 21
7388.08
 31
0.0
  0
LINE
  8
0
 62
     0
 10
812.687
 20
7388.08
 30
0.0
 11
809.198
 21
7380.15
 31
0.0
  0
LINE
  8
0
 62
     0
 10
809.198
 20
7380.15
 30
0.0
 11
804.076
 21
7387.13
 31
0.0
  0
LINE
  8
0
 62
     0
 10
804.076
 20
7387.13
 30
0.0
 11
798.953
 21
7394.12
 31
0.0
  0
LINE
  8
0
 62
     0
 10
798.953
 20
7394.12
 30
0.0
 11
795.468
 21
7386.21
 31
0.0
  0
LINE
  8
0
 62
     0
 10
795.468
 20
7386.21
 30
0.0
 11
791.979
 21
7378.28
 31
0.0
  0
LINE
  8
0
 62
     0
 10
791.979
 20
7378.28
 30
0.0
 11
786.857
 21
7385.26
 31
0.0
  0
LINE
  8
0
 62
     0
 10
786.857
 20
7385.26
 30
0.0
 11
781.738
 21
7392.25
 31
0.0
  0
LINE
  8
0
 62
     0
 10
781.738
 20
7392.25
 30
0.0
 11
778.249
 21
7384.31
 31
0.0
  0
LINE
  8
0
 62
     0
 10
778.249
 20
7384.31
 30
0.0
 11
774.763
 21
7376.37
 31
0.0
  0
LINE
  8
0
 62
     0
 10
774.763
 20
7376.37
 30
0.0
 11
769.641
 21
7383.36
 31
0.0
  0
LINE
  8
0
 62
     0
 10
769.641
 20
7383.36
 30
0.0
 11
764.519
 21
7390.34
 31
0.0
  0
LINE
  8
0
 62
     0
 10
764.519
 20
7390.34
 30
0.0
 11
761.033
 21
7382.44
 31
0.0
  0
LINE
  8
0
 62
     0
 10
761.033
 20
7382.44
 30
0.0
 11
757.544
 21
7374.5
 31
0.0
  0
LINE
  8
0
 62
     0
 10
757.544
 20
7374.5
 30
0.0
 11
747.303
 21
7388.47
 31
0.0
  0
LINE
  8
0
 62
     0
 10
747.303
 20
7388.47
 30
0.0
 11
743.814
 21
7380.53
 31
0.0
  0
LINE
  8
0
 62
     0
 10
743.814
 20
7380.53
 30
0.0
 11
740.329
 21
7372.6
 31
0.0
  0
LINE
  8
0
 62
     0
 10
740.329
 20
7372.6
 30
0.0
 11
730.088
 21
7386.57
 31
0.0
  0
LINE
  8
0
 62
     0
 10
730.088
 20
7386.57
 30
0.0
 11
635.399
 21
7376.09
 31
0.0
  0
LINE
  8
0
 62
     0
 10
635.399
 20
7376.09
 30
0.0
 11
566.177
 21
7368.15
 31
0.0
  0
LINE
  8
0
 62
     0
 10
566.177
 20
7368.15
 30
0.0
 11
524.81
 21
7363.21
 31
0.0
  0
LINE
  8
0
 62
     0
 10
524.81
 20
7363.21
 30
0.0
 11
486.322
 21
7358.38
 31
0.0
  0
LINE
  8
0
 62
     0
 10
486.322
 20
7358.38
 30
0.0
 11
449.576
 21
7353.51
 31
0.0
  0
LINE
  8
0
 62
     0
 10
449.576
 20
7353.51
 30
0.0
 11
413.448
 21
7348.47
 31
0.0
  0
LINE
  8
0
 62
     0
 10
413.448
 20
7348.47
 30
0.0
 11
376.788
 21
7343.07
 31
0.0
  0
LINE
  8
0
 62
     0
 10
376.788
 20
7343.07
 30
0.0
 11
338.463
 21
7337.14
 31
0.0
  0
LINE
  8
0
 62
     0
 10
338.463
 20
7337.14
 30
0.0
 11
297.332
 21
7330.58
 31
0.0
  0
LINE
  8
0
 62
     0
 10
297.332
 20
7330.58
 30
0.0
 11
228.592
 21
7319.22
 31
0.0
  0
LINE
  8
0
 62
     0
 10
228.592
 20
7319.22
 30
0.0
 11
152.677
 21
7306.38
 31
0.0
  0
LINE
  8
0
 62
     0
 10
152.677
 20
7306.38
 30
0.0
 11
149.666
 21
7298.27
 31
0.0
  0
LINE
  8
0
 62
     0
 10
149.666
 20
7298.27
 30
0.0
 11
146.655
 21
7290.12
 31
0.0
  0
LINE
  8
0
 62
     0
 10
146.655
 20
7290.12
 30
0.0
 11
141.129
 21
7296.79
 31
0.0
  0
LINE
  8
0
 62
     0
 10
141.129
 20
7296.79
 30
0.0
 11
135.602
 21
7303.49
 31
0.0
  0
LINE
  8
0
 62
     0
 10
135.602
 20
7303.49
 30
0.0
 11
132.591
 21
7295.34
 31
0.0
  0
LINE
  8
0
 62
     0
 10
132.591
 20
7295.34
 30
0.0
 11
129.581
 21
7287.22
 31
0.0
  0
LINE
  8
0
 62
     0
 10
129.581
 20
7287.22
 30
0.0
 11
124.054
 21
7293.89
 31
0.0
  0
LINE
  8
0
 62
     0
 10
124.054
 20
7293.89
 30
0.0
 11
118.526
 21
7300.56
 31
0.0
  0
LINE
  8
0
 62
     0
 10
118.526
 20
7300.56
 30
0.0
 11
115.517
 21
7292.45
 31
0.0
  0
LINE
  8
0
 62
     0
 10
115.517
 20
7292.45
 30
0.0
 11
112.506
 21
7284.33
 31
0.0
  0
LINE
  8
0
 62
     0
 10
112.506
 20
7284.33
 30
0.0
 11
106.978
 21
7291
 31
0.0
  0
LINE
  8
0
 62
     0
 10
106.978
 20
7291
 30
0.0
 11
101.451
 21
7297.67
 31
0.0
  0
LINE
  8
0
 62
     0
 10
101.451
 20
7297.67
 30
0.0
 11
98.4416
 21
7289.55
 31
0.0
  0
LINE
  8
0
 62
     0
 10
98.4416
 20
7289.55
 30
0.0
 11
95.4306
 21
7281.4
 31
0.0
  0
LINE
  8
0
 62
     0
 10
95.4306
 20
7281.4
 30
0.0
 11
89.9033
 21
7288.07
 31
0.0
  0
LINE
  8
0
 62
     0
 10
89.9033
 20
7288.07
 30
0.0
 11
84.3774
 21
7294.74
 31
0.0
  0
LINE
  8
0
 62
     0
 10
84.3774
 20
7294.74
 30
0.0
 11
81.3664
 21
7286.63
 31
0.0
  0
LINE
  8
0
 62
     0
 10
81.3664
 20
7286.63
 30
0.0
 11
78.3551
 21
7278.51
 31
0.0
  0
LINE
  8
0
 62
     0
 10
78.3551
 20
7278.51
 30
0.0
 11
72.8278
 21
7285.18
 31
0.0
  0
LINE
  8
0
 62
     0
 10
72.8278
 20
7285.18
 30
0.0
 11
67.3019
 21
7291.85
 31
0.0
  0
LINE
  8
0
 62
     0
 10
67.3019
 20
7291.85
 30
0.0
 11
64.2909
 21
7283.73
 31
0.0
  0
LINE
  8
0
 62
     0
 10
64.2909
 20
7283.73
 30
0.0
 11
61.28
 21
7275.62
 31
0.0
  0
LINE
  8
0
 62
     0
 10
61.28
 20
7275.62
 30
0.0
 11
55.7541
 21
7282.29
 31
0.0
  0
LINE
  8
0
 62
     0
 10
55.7541
 20
7282.29
 30
0.0
 11
50.2267
 21
7288.95
 31
0.0
  0
LINE
  8
0
 62
     0
 10
50.2267
 20
7288.95
 30
0.0
 11
47.2158
 21
7280.84
 31
0.0
  0
LINE
  8
0
 62
     0
 10
47.2158
 20
7280.84
 30
0.0
 11
44.2048
 21
7272.69
 31
0.0
  0
LINE
  8
0
 62
     0
 10
44.2048
 20
7272.69
 30
0.0
 11
38.6789
 21
7279.36
 31
0.0
  0
LINE
  8
0
 62
     0
 10
38.6789
 20
7279.36
 30
0.0
 11
33.1515
 21
7286.03
 31
0.0
  0
LINE
  8
0
 62
     0
 10
31.1629
 20
7238.26
 30
0.0
 11
35.4485
 21
7245.81
 31
0.0
  0
LINE
  8
0
 62
     0
 10
35.4485
 20
7245.81
 30
0.0
 11
39.733
 21
7253.32
 31
0.0
  0
LINE
  8
0
 62
     0
 10
39.733
 20
7253.32
 30
0.0
 11
44.1082
 21
7245.84
 31
0.0
  0
LINE
  8
0
 62
     0
 10
44.1082
 20
7245.84
 30
0.0
 11
48.4837
 21
7238.36
 31
0.0
  0
LINE
  8
0
 62
     0
 10
48.4837
 20
7238.36
 30
0.0
 11
52.7678
 21
7245.91
 31
0.0
  0
LINE
  8
0
 62
     0
 10
52.7678
 20
7245.91
 30
0.0
 11
57.0537
 21
7253.43
 31
0.0
  0
LINE
  8
0
 62
     0
 10
57.0537
 20
7253.43
 30
0.0
 11
61.4288
 21
7245.95
 31
0.0
  0
LINE
  8
0
 62
     0
 10
61.4288
 20
7245.95
 30
0.0
 11
65.804
 21
7238.47
 31
0.0
  0
LINE
  8
0
 62
     0
 10
65.804
 20
7238.47
 30
0.0
 11
213.654
 21
7239.35
 31
0.0
  0
LINE
  8
0
 62
     0
 10
213.654
 20
7239.35
 30
0.0
 11
284.663
 21
7240.13
 31
0.0
  0
LINE
  8
0
 62
     0
 10
284.663
 20
7240.13
 30
0.0
 11
327.121
 21
7240.8
 31
0.0
  0
LINE
  8
0
 62
     0
 10
327.121
 20
7240.8
 30
0.0
 11
366.653
 21
7241.61
 31
0.0
  0
LINE
  8
0
 62
     0
 10
366.653
 20
7241.61
 30
0.0
 11
404.414
 21
7242.67
 31
0.0
  0
LINE
  8
0
 62
     0
 10
404.414
 20
7242.67
 30
0.0
 11
441.575
 21
7243.97
 31
0.0
  0
LINE
  8
0
 62
     0
 10
441.575
 20
7243.97
 30
0.0
 11
479.312
 21
7245.6
 31
0.0
  0
LINE
  8
0
 62
     0
 10
479.312
 20
7245.6
 30
0.0
 11
518.791
 21
7247.54
 31
0.0
  0
LINE
  8
0
 62
     0
 10
518.791
 20
7247.54
 30
0.0
 11
561.181
 21
7249.9
 31
0.0
  0
LINE
  8
0
 62
     0
 10
561.181
 20
7249.9
 30
0.0
 11
632.065
 21
7254.13
 31
0.0
  0
LINE
  8
0
 62
     0
 10
632.065
 20
7254.13
 30
0.0
 11
748.295
 21
7261.58
 31
0.0
  0
LINE
  8
0
 62
     0
 10
748.295
 20
7261.58
 30
0.0
 11
768.766
 21
7262.92
 31
0.0
  0
LINE
  8
0
 62
     0
 10
768.766
 20
7262.92
 30
0.0
 11
772.597
 21
7270.68
 31
0.0
  0
LINE
  8
0
 62
     0
 10
772.597
 20
7270.68
 30
0.0
 11
776.432
 21
7278.48
 31
0.0
  0
LINE
  8
0
 62
     0
 10
776.432
 20
7278.48
 30
0.0
 11
781.241
 21
7271.24
 31
0.0
  0
LINE
  8
0
 62
     0
 10
781.241
 20
7271.24
 30
0.0
 11
786.052
 21
7264.05
 31
0.0
  0
LINE
  8
0
 62
     0
 10
786.052
 20
7264.05
 30
0.0
 11
789.884
 21
7271.81
 31
0.0
  0
LINE
  8
0
 62
     0
 10
789.884
 20
7271.81
 30
0.0
 11
793.715
 21
7279.6
 31
0.0
  0
LINE
  8
0
 62
     0
 10
793.715
 20
7279.6
 30
0.0
 11
798.527
 21
7272.37
 31
0.0
  0
LINE
  8
0
 62
     0
 10
798.527
 20
7272.37
 30
0.0
 11
803.335
 21
7265.18
 31
0.0
  0
LINE
  8
0
 62
     0
 10
803.335
 20
7265.18
 30
0.0
 11
807.166
 21
7272.94
 31
0.0
  0
LINE
  8
0
 62
     0
 10
807.166
 20
7272.94
 30
0.0
 11
810.997
 21
7280.73
 31
0.0
  0
LINE
  8
0
 62
     0
 10
810.997
 20
7280.73
 30
0.0
 11
815.809
 21
7273.5
 31
0.0
  0
LINE
  8
0
 62
     0
 10
815.809
 20
7273.5
 30
0.0
 11
820.618
 21
7266.31
 31
0.0
  0
LINE
  8
0
 62
     0
 10
820.618
 20
7266.31
 30
0.0
 11
824.449
 21
7274.07
 31
0.0
  0
LINE
  8
0
 62
     0
 10
824.449
 20
7274.07
 30
0.0
 11
828.28
 21
7281.86
 31
0.0
  0
LINE
  8
0
 62
     0
 10
828.28
 20
7281.86
 30
0.0
 11
833.092
 21
7274.63
 31
0.0
  0
LINE
  8
0
 62
     0
 10
833.092
 20
7274.63
 30
0.0
 11
837.9
 21
7267.43
 31
0.0
  0
LINE
  8
0
 62
     0
 10
837.9
 20
7267.43
 30
0.0
 11
804.259
 21
7189.08
 31
0.0
  0
LINE
  8
0
 62
     0
 10
804.259
 20
7189.08
 30
0.0
 11
756.507
 21
7077.64
 31
0.0
  0
LINE
  8
0
 62
     0
 10
756.507
 20
7077.64
 30
0.0
 11
713.807
 21
6977.42
 31
0.0
  0
LINE
  8
0
 62
     0
 10
713.807
 20
6977.42
 30
0.0
 11
675.033
 21
6885.45
 31
0.0
  0
LINE
  8
0
 62
     0
 10
675.033
 20
6885.45
 30
0.0
 11
647.915
 21
6820.15
 31
0.0
  0
LINE
  8
0
 62
     0
 10
647.915
 20
6820.15
 30
0.0
 11
630.421
 21
6777.53
 31
0.0
  0
LINE
  8
0
 62
     0
 10
630.421
 20
6777.53
 30
0.0
 11
613.265
 21
6735.3
 31
0.0
  0
LINE
  8
0
 62
     0
 10
613.265
 20
6735.3
 30
0.0
 11
596.314
 21
6693.04
 31
0.0
  0
LINE
  8
0
 62
     0
 10
596.314
 20
6693.04
 30
0.0
 11
579.43
 21
6650.43
 31
0.0
  0
LINE
  8
0
 62
     0
 10
579.43
 20
6650.43
 30
0.0
 11
562.465
 21
6607.07
 31
0.0
  0
LINE
  8
0
 62
     0
 10
562.465
 20
6607.07
 30
0.0
 11
545.278
 21
6562.55
 31
0.0
  0
LINE
  8
0
 62
     0
 10
545.278
 20
6562.55
 30
0.0
 11
527.727
 21
6516.55
 31
0.0
  0
LINE
  8
0
 62
     0
 10
527.727
 20
6516.55
 30
0.0
 11
509.676
 21
6468.64
 31
0.0
  0
LINE
  8
0
 62
     0
 10
509.676
 20
6468.64
 30
0.0
 11
490.978
 21
6418.51
 31
0.0
  0
LINE
  8
0
 62
     0
 10
490.978
 20
6418.51
 30
0.0
 11
471.495
 21
6365.7
 31
0.0
  0
LINE
  8
0
 62
     0
 10
471.495
 20
6365.7
 30
0.0
 11
451.083
 21
6309.92
 31
0.0
  0
LINE
  8
0
 62
     0
 10
451.083
 20
6309.92
 30
0.0
 11
418.574
 21
6220.28
 31
0.0
  0
LINE
  8
0
 62
     0
 10
418.574
 20
6220.28
 30
0.0
 11
370.494
 21
6086.19
 31
0.0
  0
LINE
  8
0
 62
     0
 10
370.494
 20
6086.19
 30
0.0
 11
316.166
 21
5933.33
 31
0.0
  0
LINE
  8
0
 62
     0
 10
316.166
 20
5933.33
 30
0.0
 11
254.459
 21
5758.74
 31
0.0
  0
LINE
  8
0
 62
     0
 10
254.459
 20
5758.74
 30
0.0
 11
146.871
 21
5453.17
 31
0.0
  0
LINE
  8
0
 62
     0
 10
146.871
 20
5453.17
 30
0.0
 11
56.8745
 21
5197.09
 31
0.0
  0
LINE
  8
0
 62
     0
 10
56.8745
 20
5197.09
 30
0.0
 11
38.0725
 21
5200.4
 31
0.0
  0
LINE
  8
0
 62
     0
 10
38.0725
 20
5200.4
 30
0.0
 11
40.7762
 21
5451.65
 31
0.0
  0
LINE
  8
0
 62
     0
 10
40.7762
 20
5451.65
 30
0.0
 11
43.8256
 21
5750.67
 31
0.0
  0
LINE
  8
0
 62
     0
 10
43.8256
 20
5750.67
 30
0.0
 11
45.3651
 21
5921.55
 31
0.0
  0
LINE
  8
0
 62
     0
 10
45.3651
 20
5921.55
 30
0.0
 11
46.4439
 21
6071.31
 31
0.0
  0
LINE
  8
0
 62
     0
 10
46.4439
 20
6071.31
 30
0.0
 11
47.0285
 21
6202.79
 31
0.0
  0
LINE
  8
0
 62
     0
 10
47.0285
 20
6202.79
 30
0.0
 11
47.0821
 21
6318.96
 31
0.0
  0
LINE
  8
0
 62
     0
 10
47.0821
 20
6318.96
 30
0.0
 11
46.736
 21
6397.52
 31
0.0
  0
LINE
  8
0
 62
     0
 10
46.736
 20
6397.52
 30
0.0
 11
46.3338
 21
6446.91
 31
0.0
  0
LINE
  8
0
 62
     0
 10
46.3338
 20
6446.91
 30
0.0
 11
45.7786
 21
6494.14
 31
0.0
  0
LINE
  8
0
 62
     0
 10
45.7786
 20
6494.14
 30
0.0
 11
45.0674
 21
6539.62
 31
0.0
  0
LINE
  8
0
 62
     0
 10
45.0674
 20
6539.62
 30
0.0
 11
44.1964
 21
6583.65
 31
0.0
  0
LINE
  8
0
 62
     0
 10
44.1964
 20
6583.65
 30
0.0
 11
43.1602
 21
6626.61
 31
0.0
  0
LINE
  8
0
 62
     0
 10
43.1602
 20
6626.61
 30
0.0
 11
41.9559
 21
6668.91
 31
0.0
  0
LINE
  8
0
 62
     0
 10
41.9559
 20
6668.91
 30
0.0
 11
40.5776
 21
6710.89
 31
0.0
  0
LINE
  8
0
 62
     0
 10
40.5776
 20
6710.89
 30
0.0
 11
39.0204
 21
6752.94
 31
0.0
  0
LINE
  8
0
 62
     0
 10
39.0204
 20
6752.94
 30
0.0
 11
37.283
 21
6795.42
 31
0.0
  0
LINE
  8
0
 62
     0
 10
37.283
 20
6795.42
 30
0.0
 11
34.3462
 21
6860.58
 31
0.0
  0
LINE
  8
0
 62
     0
 10
34.3462
 20
6860.58
 30
0.0
 11
29.7229
 21
6952.58
 31
0.0
  0
LINE
  8
0
 62
     0
 10
29.7229
 20
6952.58
 30
0.0
 11
21.3679
 21
7105.61
 31
0.0
  0
LINE
  8
0
 62
     0
 10
21.3679
 20
7105.61
 30
0.0
 11
13.8438
 21
7238.15
 31
0.0
  0
LINE
  8
0
 62
     0
 10
13.8438
 20
7238.15
 30
0.0
 11
22.4124
 21
7253.22
 31
0.0
  0
LINE
  8
0
 62
     0
 10
22.4124
 20
7253.22
 30
0.0
 11
26.7877
 21
7245.74
 31
0.0
  0
LINE
  8
0
 62
     0
 10
26.7877
 20
7245.74
 30
0.0
 11
31.1629
 21
7238.26
 31
0.0
  0
LINE
  8
0
 62
     0
 10
18.8847
 20
11498.1
 30
0.0
 11
17.0133
 21
11515.3
 31
0.0
  0
LINE
  8
0
 62
     0
 10
17.0133
 20
11515.3
 30
0.0
 11
32.8607
 21
11508.4
 31
0.0
  0
LINE
  8
0
 62
     0
 10
32.8607
 20
11508.4
 30
0.0
 11
75.5579
 21
11539.6
 31
0.0
  0
LINE
  8
0
 62
     0
 10
75.5579
 20
11539.6
 30
0.0
 11
178.185
 21
11614.9
 31
0.0
  0
LINE
  8
0
 62
     0
 10
178.185
 20
11614.9
 30
0.0
 11
240.555
 21
11661.1
 31
0.0
  0
LINE
  8
0
 62
     0
 10
240.555
 20
11661.1
 30
0.0
 11
277.713
 21
11688.9
 31
0.0
  0
LINE
  8
0
 62
     0
 10
277.713
 20
11688.9
 30
0.0
 11
312.17
 21
11715
 31
0.0
  0
LINE
  8
0
 62
     0
 10
312.17
 20
11715
 30
0.0
 11
344.921
 21
11740.1
 31
0.0
  0
LINE
  8
0
 62
     0
 10
344.921
 20
11740.1
 30
0.0
 11
376.978
 21
11765.1
 31
0.0
  0
LINE
  8
0
 62
     0
 10
376.978
 20
11765.1
 30
0.0
 11
409.353
 21
11790.7
 31
0.0
  0
LINE
  8
0
 62
     0
 10
409.353
 20
11790.7
 30
0.0
 11
443.047
 21
11817.7
 31
0.0
  0
LINE
  8
0
 62
     0
 10
443.047
 20
11817.7
 30
0.0
 11
479.076
 21
11846.9
 31
0.0
  0
LINE
  8
0
 62
     0
 10
479.076
 20
11846.9
 30
0.0
 11
539.094
 21
11896.1
 31
0.0
  0
LINE
  8
0
 62
     0
 10
539.094
 20
11896.1
 30
0.0
 11
637.191
 21
11977.2
 31
0.0
  0
LINE
  8
0
 62
     0
 10
637.191
 20
11977.2
 30
0.0
 11
677.27
 21
12010.4
 31
0.0
  0
LINE
  8
0
 62
     0
 10
677.27
 20
12010.4
 30
0.0
 11
675.82
 21
12018.9
 31
0.0
  0
LINE
  8
0
 62
     0
 10
675.82
 20
12018.9
 30
0.0
 11
674.37
 21
12027.5
 31
0.0
  0
LINE
  8
0
 62
     0
 10
674.37
 20
12027.5
 30
0.0
 11
682.487
 21
12024.5
 31
0.0
  0
LINE
  8
0
 62
     0
 10
682.487
 20
12024.5
 30
0.0
 11
690.608
 21
12021.4
 31
0.0
  0
LINE
  8
0
 62
     0
 10
690.608
 20
12021.4
 30
0.0
 11
689.158
 21
12030
 31
0.0
  0
LINE
  8
0
 62
     0
 10
689.158
 20
12030
 30
0.0
 11
687.709
 21
12038.5
 31
0.0
  0
LINE
  8
0
 62
     0
 10
687.709
 20
12038.5
 30
0.0
 11
695.826
 21
12035.5
 31
0.0
  0
LINE
  8
0
 62
     0
 10
695.826
 20
12035.5
 30
0.0
 11
703.943
 21
12032.5
 31
0.0
  0
LINE
  8
0
 62
     0
 10
703.943
 20
12032.5
 30
0.0
 11
702.493
 21
12041
 31
0.0
  0
LINE
  8
0
 62
     0
 10
702.493
 20
12041
 30
0.0
 11
701.044
 21
12049.6
 31
0.0
  0
LINE
  8
0
 62
     0
 10
701.044
 20
12049.6
 30
0.0
 11
709.164
 21
12046.5
 31
0.0
  0
LINE
  8
0
 62
     0
 10
709.164
 20
12046.5
 30
0.0
 11
717.282
 21
12043.6
 31
0.0
  0
LINE
  8
0
 62
     0
 10
717.282
 20
12043.6
 30
0.0
 11
708.42
 21
11896.9
 31
0.0
  0
LINE
  8
0
 62
     0
 10
708.42
 20
11896.9
 30
0.0
 11
699.498
 21
11743.9
 31
0.0
  0
LINE
  8
0
 62
     0
 10
699.498
 20
11743.9
 30
0.0
 11
694.538
 21
11651.9
 31
0.0
  0
LINE
  8
0
 62
     0
 10
694.538
 20
11651.9
 30
0.0
 11
691.363
 21
11586.8
 31
0.0
  0
LINE
  8
0
 62
     0
 10
691.363
 20
11586.8
 30
0.0
 11
689.465
 21
11544.3
 31
0.0
  0
LINE
  8
0
 62
     0
 10
689.465
 20
11544.3
 30
0.0
 11
687.758
 21
11502.2
 31
0.0
  0
LINE
  8
0
 62
     0
 10
687.758
 20
11502.2
 30
0.0
 11
686.223
 21
11460.3
 31
0.0
  0
LINE
  8
0
 62
     0
 10
686.223
 20
11460.3
 30
0.0
 11
684.862
 21
11418
 31
0.0
  0
LINE
  8
0
 62
     0
 10
684.862
 20
11418
 30
0.0
 11
683.669
 21
11375
 31
0.0
  0
LINE
  8
0
 62
     0
 10
683.669
 20
11375
 30
0.0
 11
682.636
 21
11331
 31
0.0
  0
LINE
  8
0
 62
     0
 10
682.636
 20
11331
 30
0.0
 11
681.761
 21
11285.5
 31
0.0
  0
LINE
  8
0
 62
     0
 10
681.761
 20
11285.5
 30
0.0
 11
681.03
 21
11238.3
 31
0.0
  0
LINE
  8
0
 62
     0
 10
681.03
 20
11238.3
 30
0.0
 11
680.445
 21
11188.9
 31
0.0
  0
LINE
  8
0
 62
     0
 10
680.445
 20
11188.9
 30
0.0
 11
679.81
 21
11110.3
 31
0.0
  0
LINE
  8
0
 62
     0
 10
679.81
 20
11110.3
 30
0.0
 11
679.436
 21
10994.2
 31
0.0
  0
LINE
  8
0
 62
     0
 10
679.436
 20
10994.2
 30
0.0
 11
679.538
 21
10862.7
 31
0.0
  0
LINE
  8
0
 62
     0
 10
679.538
 20
10862.7
 30
0.0
 11
680.067
 21
10713
 31
0.0
  0
LINE
  8
0
 62
     0
 10
680.067
 20
10713
 30
0.0
 11
680.978
 21
10542.1
 31
0.0
  0
LINE
  8
0
 62
     0
 10
680.978
 20
10542.1
 30
0.0
 11
682.928
 21
10243.1
 31
0.0
  0
LINE
  8
0
 62
     0
 10
682.928
 20
10243.1
 30
0.0
 11
684.703
 21
9992.11
 31
0.0
  0
LINE
  8
0
 62
     0
 10
684.703
 20
9992.11
 30
0.0
 11
666.549
 21
9988.44
 31
0.0
  0
LINE
  8
0
 62
     0
 10
666.549
 20
9988.44
 30
0.0
 11
496.503
 21
10398.3
 31
0.0
  0
LINE
  8
0
 62
     0
 10
496.503
 20
10398.3
 30
0.0
 11
443.696
 21
10525.1
 31
0.0
  0
LINE
  8
0
 62
     0
 10
443.696
 20
10525.1
 30
0.0
 11
397.235
 21
10636.1
 31
0.0
  0
LINE
  8
0
 62
     0
 10
397.235
 20
10636.1
 30
0.0
 11
356.168
 21
10733.4
 31
0.0
  0
LINE
  8
0
 62
     0
 10
356.168
 20
10733.4
 30
0.0
 11
319.536
 21
10819.3
 31
0.0
  0
LINE
  8
0
 62
     0
 10
319.536
 20
10819.3
 30
0.0
 11
286.362
 21
10895.9
 31
0.0
  0
LINE
  8
0
 62
     0
 10
286.362
 20
10895.9
 30
0.0
 11
255.746
 21
10965.3
 31
0.0
  0
LINE
  8
0
 62
     0
 10
255.746
 20
10965.3
 30
0.0
 11
233.879
 21
11013.9
 31
0.0
  0
LINE
  8
0
 62
     0
 10
233.879
 20
11013.9
 30
0.0
 11
219.557
 21
11045.3
 31
0.0
  0
LINE
  8
0
 62
     0
 10
219.557
 20
11045.3
 30
0.0
 11
198.203
 21
11091.5
 31
0.0
  0
LINE
  8
0
 62
     0
 10
198.203
 20
11091.5
 30
0.0
 11
169.364
 21
11152.7
 31
0.0
  0
LINE
  8
0
 62
     0
 10
169.364
 20
11152.7
 30
0.0
 11
139.205
 21
11215.4
 31
0.0
  0
LINE
  8
0
 62
     0
 10
139.205
 20
11215.4
 30
0.0
 11
106.759
 21
11281.9
 31
0.0
  0
LINE
  8
0
 62
     0
 10
106.759
 20
11281.9
 30
0.0
 11
52.2855
 21
11392.4
 31
0.0
  0
LINE
  8
0
 62
     0
 10
52.2855
 20
11392.4
 30
0.0
 11
4.90859
 21
11487.9
 31
0.0
  0
LINE
  8
0
 62
     0
 10
4.90859
 20
11487.9
 30
0.0
 11
3.0372
 21
11505.1
 31
0.0
  0
LINE
  8
0
 62
     0
 10
3.0372
 20
11505.1
 30
0.0
 11
18.8847
 21
11498.1
 31
0.0
  0
LINE
  8
0
 62
     0
 10
868.539
 20
4895.85
 30
0.0
 11
873.562
 21
4902.91
 31
0.0
  0
LINE
  8
0
 62
     0
 10
873.562
 20
4902.91
 30
0.0
 11
878.582
 21
4909.96
 31
0.0
  0
LINE
  8
0
 62
     0
 10
878.582
 20
4909.96
 30
0.0
 11
882.184
 21
4902.06
 31
0.0
  0
LINE
  8
0
 62
     0
 10
882.184
 20
4902.06
 30
0.0
 11
885.783
 21
4894.19
 31
0.0
  0
LINE
  8
0
 62
     0
 10
885.783
 20
4894.19
 30
0.0
 11
822.822
 21
4797.07
 31
0.0
  0
LINE
  8
0
 62
     0
 10
822.822
 20
4797.07
 30
0.0
 11
756.045
 21
4693.6
 31
0.0
  0
LINE
  8
0
 62
     0
 10
756.045
 20
4693.6
 30
0.0
 11
716.188
 21
4631.23
 31
0.0
  0
LINE
  8
0
 62
     0
 10
716.188
 20
4631.23
 30
0.0
 11
679.03
 21
4572.35
 31
0.0
  0
LINE
  8
0
 62
     0
 10
679.03
 20
4572.35
 30
0.0
 11
643.375
 21
4514.92
 31
0.0
  0
LINE
  8
0
 62
     0
 10
643.375
 20
4514.92
 30
0.0
 11
616.885
 21
4471.49
 31
0.0
  0
LINE
  8
0
 62
     0
 10
616.885
 20
4471.49
 30
0.0
 11
599.059
 21
4441.9
 31
0.0
  0
LINE
  8
0
 62
     0
 10
599.059
 20
4441.9
 30
0.0
 11
571.758
 21
4396.11
 31
0.0
  0
LINE
  8
0
 62
     0
 10
571.758
 20
4396.11
 30
0.0
 11
533.372
 21
4330.63
 31
0.0
  0
LINE
  8
0
 62
     0
 10
533.372
 20
4330.63
 30
0.0
 11
491.67
 21
4258.38
 31
0.0
  0
LINE
  8
0
 62
     0
 10
491.67
 20
4258.38
 30
0.0
 11
445.452
 21
4177.28
 31
0.0
  0
LINE
  8
0
 62
     0
 10
445.452
 20
4177.28
 30
0.0
 11
393.509
 21
4085.31
 31
0.0
  0
LINE
  8
0
 62
     0
 10
393.509
 20
4085.31
 30
0.0
 11
334.65
 21
3980.39
 31
0.0
  0
LINE
  8
0
 62
     0
 10
334.65
 20
3980.39
 30
0.0
 11
267.669
 21
3860.48
 31
0.0
  0
LINE
  8
0
 62
     0
 10
267.669
 20
3860.48
 30
0.0
 11
150.738
 21
3650.62
 31
0.0
  0
LINE
  8
0
 62
     0
 10
150.738
 20
3650.62
 30
0.0
 11
52.0499
 21
3473.23
 31
0.0
  0
LINE
  8
0
 62
     0
 10
52.0499
 20
3473.23
 30
0.0
 11
35.1207
 21
3477.73
 31
0.0
  0
LINE
  8
0
 62
     0
 10
35.1207
 20
3477.73
 30
0.0
 11
37.3944
 21
3666.53
 31
0.0
  0
LINE
  8
0
 62
     0
 10
37.3944
 20
3666.53
 30
0.0
 11
39.9507
 21
3889.23
 31
0.0
  0
LINE
  8
0
 62
     0
 10
39.9507
 20
3889.23
 30
0.0
 11
41.2612
 21
4016.55
 31
0.0
  0
LINE
  8
0
 62
     0
 10
41.2612
 20
4016.55
 30
0.0
 11
42.2067
 21
4128.06
 31
0.0
  0
LINE
  8
0
 62
     0
 10
42.2067
 20
4128.06
 30
0.0
 11
42.7673
 21
4226
 31
0.0
  0
LINE
  8
0
 62
     0
 10
42.7673
 20
4226
 30
0.0
 11
42.9175
 21
4312.53
 31
0.0
  0
LINE
  8
0
 62
     0
 10
42.9175
 20
4312.53
 30
0.0
 11
42.6364
 21
4389.9
 31
0.0
  0
LINE
  8
0
 62
     0
 10
42.6364
 20
4389.9
 30
0.0
 11
41.9005
 21
4460.24
 31
0.0
  0
LINE
  8
0
 62
     0
 10
41.9005
 20
4460.24
 30
0.0
 11
40.6866
 21
4525.82
 31
0.0
  0
LINE
  8
0
 62
     0
 10
40.6866
 20
4525.82
 30
0.0
 11
38.9724
 21
4588.79
 31
0.0
  0
LINE
  8
0
 62
     0
 10
38.9724
 20
4588.79
 30
0.0
 11
36.7344
 21
4651.41
 31
0.0
  0
LINE
  8
0
 62
     0
 10
36.7344
 20
4651.41
 30
0.0
 11
33.9494
 21
4715.9
 31
0.0
  0
LINE
  8
0
 62
     0
 10
33.9494
 20
4715.9
 30
0.0
 11
30.5938
 21
4784.37
 31
0.0
  0
LINE
  8
0
 62
     0
 10
30.5938
 20
4784.37
 30
0.0
 11
24.5167
 21
4898.39
 31
0.0
  0
LINE
  8
0
 62
     0
 10
24.5167
 20
4898.39
 30
0.0
 11
18.7565
 21
5002.18
 31
0.0
  0
LINE
  8
0
 62
     0
 10
18.7565
 20
5002.18
 30
0.0
 11
29.6154
 21
5015.69
 31
0.0
  0
LINE
  8
0
 62
     0
 10
29.6154
 20
5015.69
 30
0.0
 11
32.7436
 21
5007.61
 31
0.0
  0
LINE
  8
0
 62
     0
 10
32.7436
 20
5007.61
 30
0.0
 11
35.8719
 21
4999.53
 31
0.0
  0
LINE
  8
0
 62
     0
 10
35.8719
 20
4999.53
 30
0.0
 11
107.269
 21
4988.42
 31
0.0
  0
LINE
  8
0
 62
     0
 10
107.269
 20
4988.42
 30
0.0
 11
229.204
 21
4969.65
 31
0.0
  0
LINE
  8
0
 62
     0
 10
229.204
 20
4969.65
 30
0.0
 11
303.583
 21
4958.5
 31
0.0
  0
LINE
  8
0
 62
     0
 10
303.583
 20
4958.5
 30
0.0
 11
348.091
 21
4952.08
 31
0.0
  0
LINE
  8
0
 62
     0
 10
348.091
 20
4952.08
 30
0.0
 11
389.565
 21
4946.3
 31
0.0
  0
LINE
  8
0
 62
     0
 10
389.565
 20
4946.3
 30
0.0
 11
429.228
 21
4941.08
 31
0.0
  0
LINE
  8
0
 62
     0
 10
429.228
 20
4941.08
 30
0.0
 11
468.313
 21
4936.21
 31
0.0
  0
LINE
  8
0
 62
     0
 10
468.313
 20
4936.21
 30
0.0
 11
508.042
 21
4931.55
 31
0.0
  0
LINE
  8
0
 62
     0
 10
508.042
 20
4931.55
 30
0.0
 11
549.652
 21
4926.93
 31
0.0
  0
LINE
  8
0
 62
     0
 10
549.652
 20
4926.93
 30
0.0
 11
594.371
 21
4922.27
 31
0.0
  0
LINE
  8
0
 62
     0
 10
594.371
 20
4922.27
 30
0.0
 11
669.198
 21
4914.83
 31
0.0
  0
LINE
  8
0
 62
     0
 10
669.198
 20
4914.83
 30
0.0
 11
851.299
 21
4897.47
 31
0.0
  0
LINE
  8
0
 62
     0
 10
851.299
 20
4897.47
 30
0.0
 11
861.342
 21
4911.58
 31
0.0
  0
LINE
  8
0
 62
     0
 10
861.342
 20
4911.58
 30
0.0
 11
868.539
 21
4895.85
 31
0.0
  0
ENDSEC
  0
EOF
