999
"DXF R12 Output" (www.mydxf.blogspot.com)
 0 
SECTION
 2 
HEADER
 9 
$ACADVER
 1 
AC1009
 9 
$EXTMIN
 10 
 0 
 20 
 0 
 9 
$EXTMAX
 10 
 8.5 
 20 
 11 
 0 
ENDSEC
 0 
SECTION
 2 
ENTITIES
0
LINE
8
Layer 1
10
1343.570000
20
5285.470000
11
1068.419000
21
5297.216400
0
LINE
8
Layer 1
10
1068.419000
20
5297.216400
11
1062.741000
21
5286.927600
0
LINE
8
Layer 1
10
1062.741000
20
5286.927600
11
1058.171500
21
5297.132100
0
LINE
8
Layer 1
10
1058.171500
20
5297.132100
11
1052.748810
21
5287.354500
0
LINE
8
Layer 1
10
1052.748810
20
5287.354500
11
1048.179380
21
5297.558600
0
LINE
8
Layer 1
10
1048.179380
20
5297.558600
11
1042.756690
21
5287.781000
0
LINE
8
Layer 1
10
1042.756690
20
5287.781000
11
1038.001000
21
5298.515000
0
LINE
8
Layer 1
10
1038.001000
20
5298.515000
11
1013.294900
21
5299.569810
0
LINE
8
Layer 1
10
1013.294900
20
5299.569810
11
1049.075400
21
6233.821810
0
LINE
8
Layer 1
10
1049.075400
20
6233.821810
11
1347.356400
21
6382.434810
0
LINE
8
Layer 1
10
1347.356400
20
6382.434810
11
1343.570000
21
5285.470000
0
LINE
8
Layer 1
10
13.230000
20
400.301000
11
12.641672
21
885.896000
0
LINE
8
Layer 1
10
12.641672
20
885.896000
11
730.656672
21
886.765598
0
LINE
8
Layer 1
10
730.656672
20
886.765598
11
734.738662
21
842.533198
0
LINE
8
Layer 1
10
734.738662
20
842.533198
11
740.582462
21
782.870998
0
LINE
8
Layer 1
10
740.582462
20
782.870998
11
750.841262
21
683.131498
0
LINE
8
Layer 1
10
750.841262
20
683.131498
11
768.354662
21
519.622498
0
LINE
8
Layer 1
10
768.354662
20
519.622498
11
781.016562
21
402.730498
0
LINE
8
Layer 1
10
781.016562
20
402.730498
11
48.466562
21
401.842909
0
LINE
8
Layer 1
10
48.466562
20
401.842909
11
43.245342
21
391.315309
0
LINE
8
Layer 1
10
43.245342
20
391.315309
11
38.023452
21
401.726109
0
LINE
8
Layer 1
10
38.023452
20
401.726109
11
37.997523
21
402.807019
0
LINE
8
Layer 1
10
37.997523
20
402.807019
11
13.230000
21
400.301000
0
LINE
8
Layer 1
10
1022.110000
20
64.868300
11
1007.660200
21
828.885300
0
LINE
8
Layer 1
10
1007.660200
20
828.885300
11
1334.521200
21
876.952000
0
LINE
8
Layer 1
10
1334.521200
20
876.952000
11
1346.423600
21
0.472000
0
LINE
8
Layer 1
10
1346.423600
20
0.472000
11
1093.045600
21
50.783100
0
LINE
8
Layer 1
10
1093.045600
20
50.783100
11
1085.862020
21
41.482460
0
LINE
8
Layer 1
10
1085.862020
20
41.482460
11
1082.905320
21
52.264760
0
LINE
8
Layer 1
10
1082.905320
20
52.264760
11
1076.052290
21
43.430490
0
LINE
8
Layer 1
10
1076.052290
20
43.430490
11
1073.095590
21
54.212790
0
LINE
8
Layer 1
10
1073.095590
20
54.212790
11
1066.242600
21
45.378170
0
LINE
8
Layer 1
10
1066.242600
20
45.378170
11
1063.285900
21
56.160470
0
LINE
8
Layer 1
10
1063.285900
20
56.160470
11
1056.432910
21
47.326200
0
LINE
8
Layer 1
10
1056.432910
20
47.326200
11
1053.476210
21
58.108500
0
LINE
8
Layer 1
10
1053.476210
20
58.108500
11
1046.623290
21
49.273880
0
LINE
8
Layer 1
10
1046.623290
20
49.273880
11
1043.543110
21
60.505980
0
LINE
8
Layer 1
10
1043.543110
20
60.505980
11
1022.110000
21
64.868300
0
LINE
8
Layer 1
10
636.880000
20
21957.900000
11
662.186800
21
22095.448000
0
LINE
8
Layer 1
10
662.186800
20
22095.448000
11
750.741000
21
22559.900000
0
LINE
8
Layer 1
10
750.741000
20
22559.900000
11
814.887100
21
22897.356000
0
LINE
8
Layer 1
10
814.887100
20
22897.356000
11
853.107000
21
22893.320010
0
LINE
8
Layer 1
10
853.107000
20
22893.320010
11
864.010100
21
22548.761010
0
LINE
8
Layer 1
10
864.010100
20
22548.761010
11
879.317900
21
22073.365010
0
LINE
8
Layer 1
10
879.317900
20
22073.365010
11
883.855220
21
21937.499010
0
LINE
8
Layer 1
10
883.855220
20
21937.499010
11
888.935890
21
21935.167320
0
LINE
8
Layer 1
10
888.935890
20
21935.167320
11
894.016490
21
21932.835490
0
LINE
8
Layer 1
10
894.016490
20
21932.835490
11
889.102820
21
21930.170010
0
LINE
8
Layer 1
10
889.102820
20
21930.170010
11
884.189010
21
21927.504490
0
LINE
8
Layer 1
10
884.189010
20
21927.504490
11
888.392610
21
21801.632490
0
LINE
8
Layer 1
10
888.392610
20
21801.632490
11
896.770590
21
21563.613490
0
LINE
8
Layer 1
10
896.770590
20
21563.613490
11
904.706300
21
21354.612490
0
LINE
8
Layer 1
10
904.706300
20
21354.612490
11
910.521030
21
21214.726490
0
LINE
8
Layer 1
10
910.521030
20
21214.726490
11
914.395130
21
21127.596290
0
LINE
8
Layer 1
10
914.395130
20
21127.596290
11
918.301410
21
21045.082890
0
LINE
8
Layer 1
10
918.301410
20
21045.082890
11
922.271610
21
20966.598990
0
LINE
8
Layer 1
10
922.271610
20
20966.598990
11
926.337620
21
20891.557490
0
LINE
8
Layer 1
10
926.337620
20
20891.557490
11
929.054720
21
20844.785490
0
LINE
8
Layer 1
10
929.054720
20
20844.785490
11
934.191340
21
20842.579920
0
LINE
8
Layer 1
10
934.191340
20
20842.579920
11
939.327930
21
20840.374000
0
LINE
8
Layer 1
10
939.327930
20
20840.374000
11
934.481320
21
20837.588110
0
LINE
8
Layer 1
10
934.481320
20
20837.588110
11
929.634710
21
20834.802570
0
LINE
8
Layer 1
10
929.634710
20
20834.802570
11
930.531225
21
20819.370970
0
LINE
8
Layer 1
10
930.531225
20
20819.370970
11
934.884115
21
20749.451070
0
LINE
8
Layer 1
10
934.884115
20
20749.451070
11
939.428315
21
20681.210070
0
LINE
8
Layer 1
10
939.428315
20
20681.210070
11
944.195615
21
20614.059170
0
LINE
8
Layer 1
10
944.195615
20
20614.059170
11
949.218005
21
20547.409870
0
LINE
8
Layer 1
10
949.218005
20
20547.409870
11
954.527415
21
20480.674170
0
LINE
8
Layer 1
10
954.527415
20
20480.674170
11
960.155815
21
20413.263570
0
LINE
8
Layer 1
10
960.155815
20
20413.263570
11
966.135115
21
20344.591070
0
LINE
8
Layer 1
10
966.135115
20
20344.591070
11
972.496835
21
20274.074270
0
LINE
8
Layer 1
10
972.496835
20
20274.074270
11
982.769335
21
20163.958270
0
LINE
8
Layer 1
10
982.769335
20
20163.958270
11
998.173435
21
20004.768270
0
LINE
8
Layer 1
10
998.173435
20
20004.768270
11
1015.681235
21
19827.624270
0
LINE
8
Layer 1
10
1015.681235
20
19827.624270
11
1027.277735
21
19710.998270
0
LINE
8
Layer 1
10
1027.277735
20
19710.998270
11
933.333635
21
19723.332470
0
LINE
8
Layer 1
10
933.333635
20
19723.332470
11
810.757635
21
19739.276270
0
LINE
8
Layer 1
10
810.757635
20
19739.276270
11
735.988335
21
19748.682040
0
LINE
8
Layer 1
10
735.988335
20
19748.682040
11
691.267435
21
19754.086950
0
LINE
8
Layer 1
10
691.267435
20
19754.086950
11
649.608635
21
19758.885440
0
LINE
8
Layer 1
10
649.608635
20
19758.885440
11
609.774735
21
19763.202380
0
LINE
8
Layer 1
10
609.774735
20
19763.202380
11
570.526135
21
19767.163020
0
LINE
8
Layer 1
10
570.526135
20
19767.163020
11
530.623135
21
19770.891880
0
LINE
8
Layer 1
10
530.623135
20
19770.891880
11
488.828535
21
19774.513850
0
LINE
8
Layer 1
10
488.828535
20
19774.513850
11
443.918235
21
19778.152400
0
LINE
8
Layer 1
10
443.918235
20
19778.152400
11
368.773935
21
19783.872340
0
LINE
8
Layer 1
10
368.773935
20
19783.872340
11
229.851935
21
19793.801630
0
LINE
8
Layer 1
10
229.851935
20
19793.801630
11
229.838035
21
19793.605133
0
LINE
8
Layer 1
10
229.838035
20
19793.605133
11
224.851625
21
19793.980842
0
LINE
8
Layer 1
10
224.851625
20
19793.980842
11
224.143952
21
19783.982762
0
LINE
8
Layer 1
10
224.143952
20
19783.982762
11
218.690432
21
19784.368701
0
LINE
8
Layer 1
10
218.690432
20
19784.368701
11
219.396341
21
19794.343851
0
LINE
8
Layer 1
10
219.396341
20
19794.343851
11
214.875531
21
19794.689926
0
LINE
8
Layer 1
10
214.875531
20
19794.689926
11
214.167647
21
19784.688626
0
LINE
8
Layer 1
10
214.167647
20
19784.688626
11
208.714127
21
19785.074565
0
LINE
8
Layer 1
10
208.714127
20
19785.074565
11
209.420036
21
19795.049715
0
LINE
8
Layer 1
10
209.420036
20
19795.049715
11
204.900036
21
19795.404610
0
LINE
8
Layer 1
10
204.900036
20
19795.404610
11
204.191340
21
19785.394510
0
LINE
8
Layer 1
10
204.191340
20
19785.394510
11
198.737850
21
19785.780096
0
LINE
8
Layer 1
10
198.737850
20
19785.780096
11
199.443724
21
19795.755246
0
LINE
8
Layer 1
10
199.443724
20
19795.755246
11
194.925234
21
19796.127780
0
LINE
8
Layer 1
10
194.925234
20
19796.127780
11
194.215021
21
19786.100080
0
LINE
8
Layer 1
10
194.215021
20
19786.100080
11
188.761421
21
19786.486019
0
LINE
8
Layer 1
10
188.761421
20
19786.486019
11
189.467330
21
19796.461169
0
LINE
8
Layer 1
10
189.467330
20
19796.461169
11
184.954520
21
19796.886266
0
LINE
8
Layer 1
10
184.954520
20
19796.886266
11
184.238698
21
19786.805966
0
LINE
8
Layer 1
10
184.238698
20
19786.805966
11
178.785098
21
19787.191905
0
LINE
8
Layer 1
10
178.785098
20
19787.191905
11
179.507517
21
19797.399505
0
LINE
8
Layer 1
10
179.507517
20
19797.399505
11
151.745017
21
19799.362005
0
LINE
8
Layer 1
10
151.745017
20
19799.362005
11
180.980417
21
19911.368005
0
LINE
8
Layer 1
10
180.980417
20
19911.368005
11
225.562117
21
20082.584005
0
LINE
8
Layer 1
10
225.562117
20
20082.584005
11
265.302017
21
20236.497005
0
LINE
8
Layer 1
10
265.302017
20
20236.497005
11
292.420217
21
20343.042005
0
LINE
8
Layer 1
10
292.420217
20
20343.042005
11
309.572317
21
20411.300005
0
LINE
8
Layer 1
10
309.572317
20
20411.300005
11
326.062617
21
20477.801505
0
LINE
8
Layer 1
10
326.062617
20
20477.801505
11
342.013317
21
20543.118705
0
LINE
8
Layer 1
10
342.013317
20
20543.118705
11
357.546917
21
20607.823805
0
LINE
8
Layer 1
10
357.546917
20
20607.823805
11
372.785617
21
20672.489805
0
LINE
8
Layer 1
10
372.785617
20
20672.489805
11
387.851917
21
20737.689905
0
LINE
8
Layer 1
10
387.851917
20
20737.689905
11
402.868017
21
20803.996305
0
LINE
8
Layer 1
10
402.868017
20
20803.996305
11
417.956317
21
20871.982305
0
LINE
8
Layer 1
10
417.956317
20
20871.982305
11
420.519637
21
20883.762605
0
LINE
8
Layer 1
10
420.519637
20
20883.762605
11
416.165507
21
20887.268515
0
LINE
8
Layer 1
10
416.165507
20
20887.268515
11
411.811307
21
20890.774425
0
LINE
8
Layer 1
10
411.811307
20
20890.774425
11
417.228527
21
20892.154135
0
LINE
8
Layer 1
10
417.228527
20
20892.154135
11
422.645717
21
20893.534205
0
LINE
8
Layer 1
10
422.917427
20
20888.856725
11
433.238927
21
20942.220025
0
LINE
8
Layer 1
10
433.238927
20
20942.220025
11
448.837927
21
21015.281425
0
LINE
8
Layer 1
10
448.837927
20
21015.281425
11
464.875327
21
21091.738625
0
LINE
8
Layer 1
10
464.875327
20
21091.738625
11
481.473127
21
21172.163225
0
LINE
8
Layer 1
10
481.473127
20
21172.163225
11
498.752127
21
21257.119925
0
LINE
8
Layer 1
10
498.752127
20
21257.119925
11
526.093527
21
21393.569925
0
LINE
8
Layer 1
10
526.093527
20
21393.569925
11
566.210727
21
21597.579925
0
LINE
8
Layer 1
10
566.210727
20
21597.579925
11
611.250227
21
21830.017925
0
LINE
8
Layer 1
10
611.250227
20
21830.017925
11
634.833927
21
21952.911925
0
LINE
8
Layer 1
10
634.833927
20
21952.911925
11
630.394707
21
21956.309425
0
LINE
8
Layer 1
10
630.394707
20
21956.309425
11
625.955417
21
21959.706925
0
LINE
8
Layer 1
10
625.955417
20
21959.706925
11
631.336907
21
21961.219815
0
LINE
8
Layer 1
10
631.336907
20
21961.219815
11
636.718537
21
21962.732705
0
LINE
8
Layer 1
10
651.012000
20
15520.200000
11
648.028590
21
15524.927580
0
LINE
8
Layer 1
10
648.028590
20
15524.927580
11
645.045180
21
15529.654810
0
LINE
8
Layer 1
10
645.045180
20
15529.654810
11
650.617310
21
15529.205018
0
LINE
8
Layer 1
10
650.617310
20
15529.205018
11
656.189300
21
15528.755226
0
LINE
8
Layer 1
10
656.189300
20
15528.755226
11
701.084300
21
15603.470826
0
LINE
8
Layer 1
10
701.084300
20
15603.470826
11
753.597700
21
15692.231926
0
LINE
8
Layer 1
10
753.597700
20
15692.231926
11
811.816700
21
15791.855726
0
LINE
8
Layer 1
10
811.816700
20
15791.855726
11
877.250900
21
15904.855726
0
LINE
8
Layer 1
10
877.250900
20
15904.855726
11
951.410300
21
16033.744726
0
LINE
8
Layer 1
10
951.410300
20
16033.744726
11
996.594600
21
16112.603326
0
LINE
8
Layer 1
10
996.594600
20
16112.603326
11
993.499220
21
16117.258236
0
LINE
8
Layer 1
10
993.499220
20
16117.258236
11
990.403800
21
16121.913146
0
LINE
8
Layer 1
10
990.403800
20
16121.913146
11
995.984990
21
16121.596351
0
LINE
8
Layer 1
10
995.984990
20
16121.596351
11
1001.566220
21
16121.279909
0
LINE
8
Layer 1
10
1001.566220
20
16121.279909
11
1035.803420
21
16181.032709
0
LINE
8
Layer 1
10
1035.803420
20
16181.032709
11
1183.076420
21
16438.917709
0
LINE
8
Layer 1
10
1183.076420
20
16438.917709
11
1292.503420
21
16630.531709
0
LINE
8
Layer 1
10
1292.503420
20
16630.531709
11
1329.567420
21
16614.015309
0
LINE
8
Layer 1
10
1329.567420
20
16614.015309
11
1324.241710
21
16380.725309
0
LINE
8
Layer 1
10
1324.241710
20
16380.725309
11
1317.108610
21
16060.464309
0
LINE
8
Layer 1
10
1317.108610
20
16060.464309
11
1315.454790
21
15982.003309
0
LINE
8
Layer 1
10
1315.454790
20
15982.003309
11
1320.401020
21
15979.398399
0
LINE
8
Layer 1
10
1320.401020
20
15979.398399
11
1325.347210
21
15976.793839
0
LINE
8
Layer 1
10
1325.347210
20
15976.793839
11
1320.295710
21
15974.399539
0
LINE
8
Layer 1
10
1320.295710
20
15974.399539
11
1315.244110
21
15972.005589
0
LINE
8
Layer 1
10
1315.244110
20
15972.005589
11
1313.250000
21
15877.398989
0
LINE
8
Layer 1
10
1313.250000
20
15877.398989
11
1310.158890
21
15717.036989
0
LINE
8
Layer 1
10
1310.158890
20
15717.036989
11
1307.834190
21
15576.215989
0
LINE
8
Layer 1
10
1307.834190
20
15576.215989
11
1306.274590
21
15451.772989
0
LINE
8
Layer 1
10
1306.274590
20
15451.772989
11
1305.478793
21
15340.541989
0
LINE
8
Layer 1
10
1305.478793
20
15340.541989
11
1305.445632
21
15239.343989
0
LINE
8
Layer 1
10
1305.445632
20
15239.343989
11
1307.183942
21
15238.489913
0
LINE
8
Layer 1
10
1307.183942
20
15238.489913
11
1310.463052
21
15236.878773
0
LINE
8
Layer 1
10
1310.463052
20
15236.878773
11
1315.480442
21
15234.414263
0
LINE
8
Layer 1
10
1315.480442
20
15234.414263
11
1310.498052
21
15231.879203
0
LINE
8
Layer 1
10
1310.498052
20
15231.879203
11
1305.515732
21
15229.344143
0
LINE
8
Layer 1
10
1305.515732
20
15229.344143
11
1305.944146
21
15168.252843
0
LINE
8
Layer 1
10
1305.944146
20
15168.252843
11
1306.497937
21
15122.225943
0
LINE
8
Layer 1
10
1306.497937
20
15122.225943
11
1307.660727
21
15054.407943
0
LINE
8
Layer 1
10
1307.660727
20
15054.407943
11
1309.907857
21
14964.291543
0
LINE
8
Layer 1
10
1309.907857
20
14964.291543
11
1312.914267
21
14871.511243
0
LINE
8
Layer 1
10
1312.914267
20
14871.511243
11
1316.679047
21
14772.904543
0
LINE
8
Layer 1
10
1316.679047
20
14772.904543
11
1323.653367
21
14608.836543
0
LINE
8
Layer 1
10
1323.653367
20
14608.836543
11
1330.541957
21
14454.657543
0
LINE
8
Layer 1
10
1330.541957
20
14454.657543
11
1216.671957
21
14507.773243
0
LINE
8
Layer 1
10
1216.671957
20
14507.773243
11
1067.543957
21
14577.117043
0
LINE
8
Layer 1
10
1067.543957
20
14577.117043
11
976.440557
21
14619.015043
0
LINE
8
Layer 1
10
976.440557
20
14619.015043
11
921.849457
21
14643.800543
0
LINE
8
Layer 1
10
921.849457
20
14643.800543
11
870.894357
21
14666.591443
0
LINE
8
Layer 1
10
870.894357
20
14666.591443
11
822.058257
21
14688.041743
0
LINE
8
Layer 1
10
822.058257
20
14688.041743
11
773.821757
21
14708.804843
0
LINE
8
Layer 1
10
773.821757
20
14708.804843
11
724.665157
21
14729.535143
0
LINE
8
Layer 1
10
724.665157
20
14729.535143
11
673.071157
21
14750.885243
0
LINE
8
Layer 1
10
673.071157
20
14750.885243
11
617.534557
21
14773.502943
0
LINE
8
Layer 1
10
617.534557
20
14773.502943
11
524.472557
21
14810.876643
0
LINE
8
Layer 1
10
524.472557
20
14810.876643
11
371.558557
21
14871.540743
0
LINE
8
Layer 1
10
371.558557
20
14871.540743
11
310.264657
21
14895.772343
0
LINE
8
Layer 1
10
310.264657
20
14895.772343
11
310.178755
21
14895.555385
0
LINE
8
Layer 1
10
310.178755
20
14895.555385
11
291.794455
21
14902.823315
0
LINE
8
Layer 1
10
291.794455
20
14902.823315
11
288.117065
21
14893.524085
0
LINE
8
Layer 1
10
288.117065
20
14893.524085
11
283.032865
21
14895.533865
0
LINE
8
Layer 1
10
283.032865
20
14895.533865
11
286.796055
21
14905.050405
0
LINE
8
Layer 1
10
286.796055
20
14905.050405
11
260.485055
21
14915.452105
0
LINE
8
Layer 1
10
260.485055
20
14915.452105
11
337.149755
21
15030.940105
0
LINE
8
Layer 1
10
337.149755
20
15030.940105
11
421.051255
21
15157.926105
0
LINE
8
Layer 1
10
421.051255
20
15157.926105
11
471.134955
21
15234.445105
0
LINE
8
Layer 1
10
471.134955
20
15234.445105
11
517.830455
21
15306.693005
0
LINE
8
Layer 1
10
517.830455
20
15306.693005
11
562.654655
21
15377.193605
0
LINE
8
Layer 1
10
562.654655
20
15377.193605
11
607.126455
21
15448.473105
0
LINE
8
Layer 1
10
607.126455
20
15448.473105
11
651.012000
21
15520.200000
0
LINE
8
Layer 1
10
110.042000
20
7614.610000
11
113.074200
21
7661.202100
0
LINE
8
Layer 1
10
113.074200
20
7661.202100
11
117.616710
21
7735.464300
0
LINE
8
Layer 1
10
117.616710
20
7735.464300
11
122.088140
21
7813.135400
0
LINE
8
Layer 1
10
122.088140
20
7813.135400
11
126.524040
21
7894.796100
0
LINE
8
Layer 1
10
126.524040
20
7894.796100
11
130.959840
21
7981.027700
0
LINE
8
Layer 1
10
130.959840
20
7981.027700
11
137.680440
21
8119.474700
0
LINE
8
Layer 1
10
137.680440
20
8119.474700
11
146.977160
21
8326.329700
0
LINE
8
Layer 1
10
146.977160
20
8326.329700
11
156.911740
21
8561.909700
0
LINE
8
Layer 1
10
156.911740
20
8561.909700
11
162.025650
21
8688.594700
0
LINE
8
Layer 1
10
162.025650
20
8688.594700
11
157.130540
21
8691.294160
0
LINE
8
Layer 1
10
157.130540
20
8691.294160
11
152.235570
21
8693.993970
0
LINE
8
Layer 1
10
152.235570
20
8693.993970
11
157.332370
21
8696.290200
0
LINE
8
Layer 1
10
157.332370
20
8696.290200
11
162.429060
21
8698.586430
0
LINE
8
Layer 1
10
162.429060
20
8698.586430
11
167.768460
21
8830.861430
0
LINE
8
Layer 1
10
167.768460
20
8830.861430
11
186.199660
21
9301.397430
0
LINE
8
Layer 1
10
186.199660
20
9301.397430
11
199.389460
21
9642.982430
0
LINE
8
Layer 1
10
199.389460
20
9642.982430
11
240.147560
21
9645.722100
0
LINE
8
Layer 1
10
240.147560
20
9645.722100
11
323.136860
21
9311.645100
0
LINE
8
Layer 1
10
323.136860
20
9311.645100
11
438.067860
21
8850.083100
0
LINE
8
Layer 1
10
438.067860
20
8850.083100
11
470.778360
21
8719.384100
0
LINE
8
Layer 1
10
470.778360
20
8719.384100
11
476.235660
21
8718.173010
0
LINE
8
Layer 1
10
476.235660
20
8718.173010
11
481.693070
21
8716.961570
0
LINE
8
Layer 1
10
481.693070
20
8716.961570
11
477.449570
21
8713.322310
0
LINE
8
Layer 1
10
477.449570
20
8713.322310
11
473.206140
21
8709.683400
0
LINE
8
Layer 1
10
473.206140
20
8709.683400
11
504.079740
21
8586.323400
0
LINE
8
Layer 1
10
504.079740
20
8586.323400
11
562.322840
21
8355.372400
0
LINE
8
Layer 1
10
562.322840
20
8355.372400
11
614.031340
21
8152.699400
0
LINE
8
Layer 1
10
614.031340
20
8152.699400
11
649.127740
21
8017.172400
0
LINE
8
Layer 1
10
649.127740
20
8017.172400
11
671.236340
21
7932.804500
0
LINE
8
Layer 1
10
671.236340
20
7932.804500
11
692.407140
21
7852.951100
0
LINE
8
Layer 1
10
692.407140
20
7852.951100
11
712.793240
21
7777.051300
0
LINE
8
Layer 1
10
712.793240
20
7777.051300
11
732.548940
21
7704.537400
0
LINE
8
Layer 1
10
732.548940
20
7704.537400
11
745.333340
21
7658.322400
0
LINE
8
Layer 1
10
745.333340
20
7658.322400
11
750.896540
21
7657.773477
0
LINE
8
Layer 1
10
750.896540
20
7657.773477
11
756.459640
21
7657.224554
0
LINE
8
Layer 1
10
756.459640
20
7657.224554
11
752.682660
21
7653.103404
0
LINE
8
Layer 1
10
752.682660
20
7653.103404
11
748.173240
21
7648.056564
0
LINE
8
Layer 1
10
748.173240
20
7648.056564
11
751.828870
21
7634.842164
0
LINE
8
Layer 1
10
751.828870
20
7634.842164
11
770.787570
21
7567.397664
0
LINE
8
Layer 1
10
770.787570
20
7567.397664
11
789.579970
21
7501.636364
0
LINE
8
Layer 1
10
789.579970
20
7501.636364
11
808.360770
21
7436.989064
0
LINE
8
Layer 1
10
808.360770
20
7436.989064
11
827.284970
21
7372.887864
0
LINE
8
Layer 1
10
827.284970
20
7372.887864
11
846.507470
21
7308.763764
0
LINE
8
Layer 1
10
846.507470
20
7308.763764
11
866.183270
21
7244.048364
0
LINE
8
Layer 1
10
866.183270
20
7244.048364
11
886.467170
21
7178.173764
0
LINE
8
Layer 1
10
886.467170
20
7178.173764
11
907.514070
21
7110.571964
0
LINE
8
Layer 1
10
907.514070
20
7110.571964
11
940.713370
21
7005.069964
0
LINE
8
Layer 1
10
940.713370
20
7005.069964
11
989.240270
21
6852.695964
0
LINE
8
Layer 1
10
989.240270
20
6852.695964
11
1043.598470
21
6683.212964
0
LINE
8
Layer 1
10
1043.598470
20
6683.212964
11
1079.695170
21
6570.896964
0
LINE
8
Layer 1
10
1079.695170
20
6570.896964
11
1050.260770
21
6569.658364
0
LINE
8
Layer 1
10
1050.260770
20
6569.658364
11
1045.474560
21
6558.925764
0
LINE
8
Layer 1
10
1045.474560
20
6558.925764
11
1040.057340
21
6568.706184
0
LINE
8
Layer 1
10
1040.057340
20
6568.706184
11
1035.482270
21
6558.504584
0
LINE
8
Layer 1
10
1035.482270
20
6558.504584
11
1030.064940
21
6568.285354
0
LINE
8
Layer 1
10
1030.064940
20
6568.285354
11
1025.489830
21
6558.083754
0
LINE
8
Layer 1
10
1025.489830
20
6558.083754
11
1020.072540
21
6567.864174
0
LINE
8
Layer 1
10
1020.072540
20
6567.864174
11
1015.497430
21
6557.662574
0
LINE
8
Layer 1
10
1015.497430
20
6557.662574
11
1010.080140
21
6567.443344
0
LINE
8
Layer 1
10
1010.080140
20
6567.443344
11
1005.505030
21
6557.241744
0
LINE
8
Layer 1
10
1005.505030
20
6557.241744
11
1000.087740
21
6567.022164
0
LINE
8
Layer 1
10
1000.087740
20
6567.022164
11
995.512630
21
6556.820564
0
LINE
8
Layer 1
10
995.512630
20
6556.820564
11
989.869310
21
6567.009464
0
LINE
8
Layer 1
10
989.869310
20
6567.009464
11
966.603310
21
6566.138102
0
LINE
8
Layer 1
10
966.603310
20
6566.138102
11
814.332310
21
6559.547152
0
LINE
8
Layer 1
10
814.332310
20
6559.547152
11
721.526310
21
6555.138842
0
LINE
8
Layer 1
10
721.526310
20
6555.138842
11
666.049410
21
6552.233362
0
LINE
8
Layer 1
10
666.049410
20
6552.233362
11
614.409410
21
6549.238272
0
LINE
8
Layer 1
10
614.409410
20
6549.238272
11
565.092210
21
6546.044572
0
LINE
8
Layer 1
10
565.092210
20
6546.044572
11
516.570910
21
6542.542192
0
LINE
8
Layer 1
10
516.570910
20
6542.542192
11
467.315910
21
6538.621422
0
LINE
8
Layer 1
10
467.315910
20
6538.621422
11
415.797910
21
6534.171132
0
LINE
8
Layer 1
10
415.797910
20
6534.171132
11
360.489910
21
6529.081252
0
LINE
8
Layer 1
10
360.489910
20
6529.081252
11
268.022510
21
6520.118222
0
LINE
8
Layer 1
10
268.022510
20
6520.118222
11
116.426510
21
6504.780122
0
LINE
8
Layer 1
10
116.426510
20
6504.780122
11
5.038510
21
6493.375522
0
LINE
8
Layer 1
10
5.038510
20
6493.375522
11
35.845810
21
6783.785522
0
LINE
8
Layer 1
10
35.845810
20
6783.785522
11
52.192610
21
6941.274522
0
LINE
8
Layer 1
10
52.192610
20
6941.274522
11
63.121210
21
7050.217522
0
LINE
8
Layer 1
10
63.121210
20
7050.217522
11
69.905200
21
7119.984622
0
LINE
8
Layer 1
10
69.905200
20
7119.984622
11
76.298000
21
7187.928922
0
LINE
8
Layer 1
10
76.298000
20
7187.928922
11
82.334600
21
7254.625822
0
LINE
8
Layer 1
10
82.334600
20
7254.625822
11
88.050800
21
7320.657022
0
LINE
8
Layer 1
10
88.050800
20
7320.657022
11
93.482310
21
7386.604322
0
LINE
8
Layer 1
10
93.482310
20
7386.604322
11
98.664720
21
7453.050022
0
LINE
8
Layer 1
10
98.664720
20
7453.050022
11
103.633630
21
7520.576622
0
LINE
8
Layer 1
10
103.633630
20
7520.576622
11
108.424920
21
7589.766622
0
LINE
8
Layer 1
10
108.424920
20
7589.766622
11
109.392308
21
7604.630522
0
LINE
8
Layer 1
10
109.392308
20
7604.630522
11
104.565208
21
7607.449922
0
LINE
8
Layer 1
10
104.565208
20
7607.449922
11
99.738218
21
7610.269322
0
LINE
8
Layer 1
10
99.738218
20
7610.269322
11
104.890008
21
7612.439612
0
LINE
8
Layer 1
10
104.890008
20
7612.439612
11
110.041798
21
7614.609552
0
LINE
8
Layer 1
10
110.041798
20
7614.609552
11
110.042000
21
7614.610000
0
LINE
8
Layer 1
10
17.303500
20
2074.130000
11
16.396014
21
2960.113000
0
LINE
8
Layer 1
10
16.396014
20
2960.113000
11
305.167014
21
2791.652000
0
LINE
8
Layer 1
10
305.167014
20
2791.652000
11
343.033914
21
2012.670000
0
LINE
8
Layer 1
10
343.033914
20
2012.670000
11
314.746014
21
2018.007180
0
LINE
8
Layer 1
10
314.746014
20
2018.007180
11
314.702693
21
2017.777874
0
LINE
8
Layer 1
10
314.702693
20
2017.777874
11
309.789483
21
2018.708855
0
LINE
8
Layer 1
10
309.789483
20
2018.708855
11
307.934193
21
2008.878695
0
LINE
8
Layer 1
10
307.934193
20
2008.878695
11
302.561873
21
2009.892225
0
LINE
8
Layer 1
10
302.561873
20
2009.892225
11
304.416393
21
2019.718855
0
LINE
8
Layer 1
10
304.416393
20
2019.718855
11
299.961693
21
2020.563053
0
LINE
8
Layer 1
10
299.961693
20
2020.563053
11
298.106403
21
2010.732893
0
LINE
8
Layer 1
10
298.106403
20
2010.732893
11
292.734083
21
2011.746773
0
LINE
8
Layer 1
10
292.734083
20
2011.746773
11
294.588603
21
2021.573053
0
LINE
8
Layer 1
10
294.588603
20
2021.573053
11
290.133903
21
2022.417604
0
LINE
8
Layer 1
10
290.133903
20
2022.417604
11
288.278613
21
2012.587444
0
LINE
8
Layer 1
10
288.278613
20
2012.587444
11
282.906293
21
2013.600974
0
LINE
8
Layer 1
10
282.906293
20
2013.600974
11
284.760773
21
2023.427604
0
LINE
8
Layer 1
10
284.760773
20
2023.427604
11
280.306073
21
2024.272155
0
LINE
8
Layer 1
10
280.306073
20
2024.272155
11
278.450783
21
2014.441645
0
LINE
8
Layer 1
10
278.450783
20
2014.441645
11
273.078503
21
2015.455525
0
LINE
8
Layer 1
10
273.078503
20
2015.455525
11
274.976273
21
2025.511125
0
LINE
8
Layer 1
10
274.976273
20
2025.511125
11
17.303500
21
2074.130000
0
LINE
8
Layer 1
10
34.820500
20
955.430000
11
24.441400
21
2052.350000
0
LINE
8
Layer 1
10
24.441400
20
2052.350000
11
323.610400
21
1905.532000
0
LINE
8
Layer 1
10
323.610400
20
1905.532000
11
365.004900
21
971.512000
0
LINE
8
Layer 1
10
365.004900
20
971.512000
11
340.330100
21
970.310090
0
LINE
8
Layer 1
10
340.330100
20
970.310090
11
340.341389
21
970.076904
0
LINE
8
Layer 1
10
340.341389
20
970.076904
11
335.346479
21
969.837368
0
LINE
8
Layer 1
10
335.346479
20
969.837368
11
335.833383
21
959.845638
0
LINE
8
Layer 1
10
335.833383
20
959.845638
11
330.372693
21
959.579643
0
LINE
8
Layer 1
10
330.372693
20
959.579643
11
329.886000
21
969.567843
0
LINE
8
Layer 1
10
329.886000
20
969.567843
11
325.357070
21
969.350885
0
LINE
8
Layer 1
10
325.357070
20
969.350885
11
325.843974
21
959.359155
0
LINE
8
Layer 1
10
325.843974
20
959.359155
11
320.383284
21
959.093160
0
LINE
8
Layer 1
10
320.383284
20
959.093160
11
319.896556
21
969.081010
0
LINE
8
Layer 1
10
319.896556
20
969.081010
11
315.367666
21
968.864052
0
LINE
8
Layer 1
10
315.367666
20
968.864052
11
315.854570
21
958.872322
0
LINE
8
Layer 1
10
315.854570
20
958.872322
11
310.393780
21
958.606327
0
LINE
8
Layer 1
10
310.393780
20
958.606327
11
309.895763
21
968.827327
0
LINE
8
Layer 1
10
309.895763
20
968.827327
11
34.820500
21
955.430000
0
LINE
8
Layer 1
10
1340.790000
20
18717.700000
11
1342.335800
21
17549.660000
0
LINE
8
Layer 1
10
1342.335800
20
17549.660000
11
1060.604800
21
17731.703000
0
LINE
8
Layer 1
10
1060.604800
20
17731.703000
11
1027.463100
21
18607.164000
0
LINE
8
Layer 1
10
1027.463100
20
18607.164000
11
1047.092300
21
18614.088680
0
LINE
8
Layer 1
10
1047.092300
20
18614.088680
11
1043.687110
21
18623.738920
0
LINE
8
Layer 1
10
1043.687110
20
18623.738920
11
1048.842820
21
18625.557490
0
LINE
8
Layer 1
10
1048.842820
20
18625.557490
11
1052.170430
21
18616.127380
0
LINE
8
Layer 1
10
1052.170430
20
18616.127380
11
1056.887420
21
18617.787200
0
LINE
8
Layer 1
10
1056.887420
20
18617.787200
11
1056.963726
21
18617.570947
0
LINE
8
Layer 1
10
1056.963726
20
18617.570947
11
1340.790000
21
18717.700000
0
LINE
8
Layer 1
10
49.408500
20
18661.200000
11
45.892680
21
18669.009090
0
LINE
8
Layer 1
10
45.892680
20
18669.009090
11
40.893390
21
18671.510290
0
LINE
8
Layer 1
10
40.893390
20
18671.510290
11
45.894090
21
18674.009020
0
LINE
8
Layer 1
10
45.894090
20
18674.009020
11
50.894790
21
18676.507750
0
LINE
8
Layer 1
10
50.894790
20
18676.507750
11
50.897965
21
18688.037550
0
LINE
8
Layer 1
10
50.897965
20
18688.037550
11
50.628160
21
18757.676650
0
LINE
8
Layer 1
10
50.628160
20
18757.676650
11
50.071265
21
18825.659450
0
LINE
8
Layer 1
10
50.071265
20
18825.659450
11
49.229854
21
18892.571950
0
LINE
8
Layer 1
10
49.229854
20
18892.571950
11
48.106254
21
18958.999350
0
LINE
8
Layer 1
10
48.106254
20
18958.999350
11
46.702864
21
19025.527650
0
LINE
8
Layer 1
10
46.702864
20
19025.527650
11
45.022164
21
19092.742450
0
LINE
8
Layer 1
10
45.022164
20
19092.742450
11
43.066464
21
19161.229350
0
LINE
8
Layer 1
10
43.066464
20
19161.229350
11
40.837964
21
19231.573650
0
LINE
8
Layer 1
10
40.837964
20
19231.573650
11
37.022074
21
19341.448650
0
LINE
8
Layer 1
10
37.022074
20
19341.448650
11
30.957464
21
19500.291650
0
LINE
8
Layer 1
10
30.957464
20
19500.291650
11
23.845354
21
19677.072650
0
LINE
8
Layer 1
10
23.845354
20
19677.072650
11
19.123354
21
19792.733650
0
LINE
8
Layer 1
10
19.123354
20
19792.733650
11
46.667454
21
19788.742670
0
LINE
8
Layer 1
10
46.667454
20
19788.742670
11
53.355774
21
19798.405260
0
LINE
8
Layer 1
10
53.355774
20
19798.405260
11
56.871064
21
19787.791960
0
LINE
8
Layer 1
10
56.871064
20
19787.791960
11
63.253774
21
19796.971950
0
LINE
8
Layer 1
10
63.253774
20
19796.971950
11
66.768994
21
19786.358250
0
LINE
8
Layer 1
10
66.768994
20
19786.358250
11
73.151704
21
19795.538240
0
LINE
8
Layer 1
10
73.151704
20
19795.538240
11
76.666994
21
19784.924940
0
LINE
8
Layer 1
10
76.666994
20
19784.924940
11
83.049704
21
19794.104930
0
LINE
8
Layer 1
10
83.049704
20
19794.104930
11
86.564894
21
19783.491230
0
LINE
8
Layer 1
10
86.564894
20
19783.491230
11
92.947604
21
19792.671220
0
LINE
8
Layer 1
10
92.947604
20
19792.671220
11
96.599914
21
19781.547420
0
LINE
8
Layer 1
10
96.599914
20
19781.547420
11
234.475914
21
19761.679620
0
LINE
8
Layer 1
10
234.475914
20
19761.679620
11
309.115914
21
19751.276520
0
LINE
8
Layer 1
10
309.115914
20
19751.276520
11
353.771714
21
19745.273650
0
LINE
8
Layer 1
10
353.771714
20
19745.273650
11
395.379514
21
19739.917770
0
LINE
8
Layer 1
10
395.379514
20
19739.917770
11
435.162014
21
19735.069190
0
LINE
8
Layer 1
10
435.162014
20
19735.069190
11
474.354314
21
19730.585730
0
LINE
8
Layer 1
10
474.354314
20
19730.585730
11
514.194314
21
19726.326290
0
LINE
8
Layer 1
10
514.194314
20
19726.326290
11
555.920114
21
19722.148690
0
LINE
8
Layer 1
10
555.920114
20
19722.148690
11
600.766714
21
19717.912530
0
LINE
8
Layer 1
10
600.766714
20
19717.912530
11
675.824914
21
19711.190350
0
LINE
8
Layer 1
10
675.824914
20
19711.190350
11
798.986914
21
19700.681450
0
LINE
8
Layer 1
10
798.986914
20
19700.681450
11
893.404014
21
19692.739360
0
LINE
8
Layer 1
10
893.404014
20
19692.739360
11
857.246214
21
19581.253360
0
LINE
8
Layer 1
10
857.246214
20
19581.253360
11
802.429714
21
19411.895360
0
LINE
8
Layer 1
10
802.429714
20
19411.895360
11
753.490514
21
19259.631360
0
LINE
8
Layer 1
10
753.490514
20
19259.631360
11
720.012114
21
19154.224360
0
LINE
8
Layer 1
10
720.012114
20
19154.224360
11
698.784814
21
19086.677560
0
LINE
8
Layer 1
10
698.784814
20
19086.677560
11
678.323614
21
19020.851260
0
LINE
8
Layer 1
10
678.323614
20
19020.851260
11
658.474114
21
18956.183160
0
LINE
8
Layer 1
10
658.474114
20
18956.183160
11
639.079814
21
18892.106660
0
LINE
8
Layer 1
10
639.079814
20
18892.106660
11
619.984414
21
18828.053460
0
LINE
8
Layer 1
10
619.984414
20
18828.053460
11
601.031414
21
18763.455960
0
LINE
8
Layer 1
10
601.031414
20
18763.455960
11
582.064414
21
18697.745760
0
LINE
8
Layer 1
10
582.064414
20
18697.745760
11
562.926914
21
18630.354560
0
LINE
8
Layer 1
10
562.926914
20
18630.354560
11
558.770804
21
18615.484660
0
LINE
8
Layer 1
10
558.770804
20
18615.484660
11
562.913304
21
18611.731100
0
LINE
8
Layer 1
10
562.913304
20
18611.731100
11
567.055804
21
18607.977190
0
LINE
8
Layer 1
10
567.055804
20
18607.977190
11
561.567424
21
18606.915330
0
LINE
8
Layer 1
10
561.567424
20
18606.915330
11
556.078904
21
18605.853820
0
LINE
8
Layer 1
10
556.078904
20
18605.853820
11
543.462504
21
18560.714420
0
LINE
8
Layer 1
10
543.462504
20
18560.714420
11
523.515104
21
18488.258020
0
LINE
8
Layer 1
10
523.515104
20
18488.258020
11
502.928304
21
18412.417820
0
LINE
8
Layer 1
10
502.928304
20
18412.417820
11
481.546304
21
18332.626520
0
LINE
8
Layer 1
10
481.546304
20
18332.626520
11
459.213004
21
18248.317120
0
LINE
8
Layer 1
10
459.213004
20
18248.317120
11
423.752904
21
18112.874120
0
LINE
8
Layer 1
10
423.752904
20
18112.874120
11
371.507604
21
17910.352120
0
LINE
8
Layer 1
10
371.507604
20
17910.352120
11
312.652804
21
17679.571120
0
LINE
8
Layer 1
10
312.652804
20
17679.571120
11
281.307504
21
17555.728120
0
LINE
8
Layer 1
10
281.307504
20
17555.728120
11
285.541194
21
17552.077570
0
LINE
8
Layer 1
10
285.541194
20
17552.077570
11
289.774984
21
17548.427380
0
LINE
8
Layer 1
10
289.774984
20
17548.427380
11
284.314364
21
17547.230400
0
LINE
8
Layer 1
10
284.314364
20
17547.230400
11
278.853784
21
17546.033780
0
LINE
8
Layer 1
10
278.853784
20
17546.033780
11
245.940384
21
17415.996780
0
LINE
8
Layer 1
10
245.940384
20
17415.996780
11
129.782384
21
16954.751780
0
LINE
8
Layer 1
10
129.782384
20
16954.751780
11
45.780084
21
16620.407780
0
LINE
8
Layer 1
10
45.780084
20
16620.407780
11
7.576784
21
16624.598430
0
LINE
8
Layer 1
10
7.576784
20
16624.598430
11
16.737304
21
16967.973430
0
LINE
8
Layer 1
10
16.737304
20
16967.973430
11
29.083804
21
17440.628430
0
LINE
8
Layer 1
10
29.083804
20
17440.628430
11
32.586224
21
17578.418430
0
LINE
8
Layer 1
10
32.586224
20
17578.418430
11
27.782514
21
17581.277340
0
LINE
8
Layer 1
10
27.782514
20
17581.277340
11
22.978804
21
17584.136610
0
LINE
8
Layer 1
10
22.978804
20
17584.136610
11
28.148304
21
17586.264210
0
LINE
8
Layer 1
10
28.148304
20
17586.264210
11
32.761404
21
17588.162510
0
LINE
8
Layer 1
10
31.528194
20
17583.289940
11
35.818714
21
17710.816940
0
LINE
8
Layer 1
10
35.818714
20
17710.816940
11
41.292034
21
17947.513940
0
LINE
8
Layer 1
10
41.292034
20
17947.513940
11
45.523324
21
18155.386940
0
LINE
8
Layer 1
10
45.523324
20
18155.386940
11
47.855614
21
18294.528940
0
LINE
8
Layer 1
10
47.855614
20
18294.528940
11
49.058024
21
18381.216740
0
LINE
8
Layer 1
10
49.058024
20
18381.216740
11
49.961030
21
18463.330440
0
LINE
8
Layer 1
10
49.961030
20
18463.330440
11
50.567138
21
18541.448540
0
LINE
8
Layer 1
10
50.567138
20
18541.448540
11
50.878747
21
18616.155640
0
LINE
8
Layer 1
10
50.878747
20
18616.155640
11
50.892435
21
18666.506540
0
LINE
8
Layer 1
10
1346.510000
20
3938.940000
11
1326.655600
21
3217.576000
0
LINE
8
Layer 1
10
1326.655600
20
3217.576000
11
477.286600
21
3955.082000
0
LINE
8
Layer 1
10
477.286600
20
3955.082000
11
477.750397
21
3971.933500
0
LINE
8
Layer 1
10
477.750397
20
3971.933500
11
467.375497
21
3977.454120
0
LINE
8
Layer 1
10
467.375497
20
3977.454120
11
477.933397
21
3982.374310
0
LINE
8
Layer 1
10
477.933397
20
3982.374310
11
495.978997
21
4634.232310
0
LINE
8
Layer 1
10
495.978997
20
4634.232310
11
1344.323997
21
5285.517310
0
LINE
8
Layer 1
10
1344.323997
20
5285.517310
11
1325.583197
21
4604.612310
0
LINE
8
Layer 1
10
1325.583197
20
4604.612310
11
1327.511977
21
4504.079310
0
LINE
8
Layer 1
10
1327.511977
20
4504.079310
11
1330.864497
21
4339.624310
0
LINE
8
Layer 1
10
1330.864497
20
4339.624310
11
1333.330097
21
4239.379310
0
LINE
8
Layer 1
10
1333.330097
20
4239.379310
11
1335.095997
21
4179.446610
0
LINE
8
Layer 1
10
1335.095997
20
4179.446610
11
1337.053177
21
4123.649810
0
LINE
8
Layer 1
10
1337.053177
20
4123.649810
11
1339.282207
21
4070.353510
0
LINE
8
Layer 1
10
1339.282207
20
4070.353510
11
1341.864017
21
4017.907110
0
LINE
8
Layer 1
10
1341.864017
20
4017.907110
11
1344.879497
21
3964.659110
0
LINE
8
Layer 1
10
1344.879497
20
3964.659110
11
1346.510000
21
3938.940000
0
LINE
8
Layer 1
10
341.836000
20
4235.460000
11
300.403600
21
4106.274000
0
LINE
8
Layer 1
10
300.403600
20
4106.274000
11
155.680600
21
3653.167000
0
LINE
8
Layer 1
10
155.680600
20
3653.167000
11
51.127600
21
3325.197000
0
LINE
8
Layer 1
10
51.127600
20
3325.197000
11
10.634100
21
3330.582510
0
LINE
8
Layer 1
10
10.634100
20
3330.582510
11
19.700920
21
3672.301510
0
LINE
8
Layer 1
10
19.700920
20
3672.301510
11
31.929020
21
4143.039510
0
LINE
8
Layer 1
10
31.929020
20
4143.039510
11
35.191930
21
4274.703510
0
LINE
8
Layer 1
10
35.191930
20
4274.703510
11
30.255330
21
4277.326410
0
LINE
8
Layer 1
10
30.255330
20
4277.326410
11
25.318800
21
4279.949670
0
LINE
8
Layer 1
10
25.318800
20
4279.949670
11
30.379220
21
4282.324920
0
LINE
8
Layer 1
10
30.379220
20
4282.324920
11
35.439610
21
4284.700530
0
LINE
8
Layer 1
10
35.439610
20
4284.700530
11
38.597430
21
4412.128530
0
LINE
8
Layer 1
10
38.597430
20
4412.128530
11
44.014230
21
4647.855530
0
LINE
8
Layer 1
10
44.014230
20
4647.855530
11
48.198420
21
4854.876530
0
LINE
8
Layer 1
10
48.198420
20
4854.876530
11
50.501430
21
4993.467530
0
LINE
8
Layer 1
10
50.501430
20
4993.467530
11
51.686620
21
5079.805030
0
LINE
8
Layer 1
10
51.686620
20
5079.805030
11
52.574209
21
5161.581430
0
LINE
8
Layer 1
10
52.574209
20
5161.581430
11
53.166735
21
5239.378830
0
LINE
8
Layer 1
10
53.166735
20
5239.378830
11
53.466420
21
5313.779030
0
LINE
8
Layer 1
10
53.466420
20
5313.779030
11
53.472523
21
5359.644430
0
LINE
8
Layer 1
10
53.472523
20
5359.644430
11
48.472813
21
5362.144920
0
LINE
8
Layer 1
10
48.472813
20
5362.144920
11
43.473203
21
5364.645760
0
LINE
8
Layer 1
10
43.473203
20
5364.645760
11
48.473513
21
5367.145190
0
LINE
8
Layer 1
10
48.473513
20
5367.145190
11
53.473823
21
5369.644620
0
LINE
8
Layer 1
10
53.473823
20
5369.644620
11
53.475940
21
5385.365420
0
LINE
8
Layer 1
10
53.475940
20
5385.365420
11
53.197422
21
5454.720520
0
LINE
8
Layer 1
10
53.197422
20
5454.720520
11
52.633224
21
5522.427120
0
LINE
8
Layer 1
10
52.633224
20
5522.427120
11
51.785816
21
5589.069320
0
LINE
8
Layer 1
10
51.785816
20
5589.069320
11
50.657416
21
5655.230320
0
LINE
8
Layer 1
10
50.657416
20
5655.230320
11
49.250326
21
5721.493320
0
LINE
8
Layer 1
10
49.250326
20
5721.493320
11
47.566836
21
5788.441720
0
LINE
8
Layer 1
10
47.566836
20
5788.441720
11
45.609026
21
5856.658020
0
LINE
8
Layer 1
10
45.609026
20
5856.658020
11
43.379506
21
5926.718320
0
LINE
8
Layer 1
10
43.379506
20
5926.718320
11
39.563616
21
6036.142320
0
LINE
8
Layer 1
10
39.563616
20
6036.142320
11
33.500036
21
6194.360320
0
LINE
8
Layer 1
10
33.500036
20
6194.360320
11
21.656536
21
6486.159320
0
LINE
8
Layer 1
10
21.656536
20
6486.159320
11
132.066536
21
6467.532320
0
LINE
8
Layer 1
10
132.066536
20
6467.532320
11
282.343536
21
6442.364120
0
LINE
8
Layer 1
10
282.343536
20
6442.364120
11
374.031836
21
6427.404220
0
LINE
8
Layer 1
10
374.031836
20
6427.404220
11
428.891336
21
6418.726940
0
LINE
8
Layer 1
10
428.891336
20
6418.726940
11
480.010536
21
6410.934430
0
LINE
8
Layer 1
10
480.010536
20
6410.934430
11
528.906036
21
6403.817490
0
LINE
8
Layer 1
10
528.906036
20
6403.817490
11
577.096636
21
6397.165860
0
LINE
8
Layer 1
10
577.096636
20
6397.165860
11
626.101536
21
6390.770700
0
LINE
8
Layer 1
10
626.101536
20
6390.770700
11
677.437236
21
6384.422460
0
LINE
8
Layer 1
10
677.437236
20
6384.422460
11
732.607436
21
6377.913710
0
LINE
8
Layer 1
10
732.607436
20
6377.913710
11
824.930036
21
6367.476810
0
LINE
8
Layer 1
10
824.930036
20
6367.476810
11
999.573036
21
6348.509310
0
LINE
8
Layer 1
10
999.573036
20
6348.509310
11
999.598083
21
6348.741085
0
LINE
8
Layer 1
10
999.598083
20
6348.741085
11
1004.569993
21
6348.205921
0
LINE
8
Layer 1
10
1004.569993
20
6348.205921
11
1005.640393
21
6358.148621
0
LINE
8
Layer 1
10
1005.640393
20
6358.148621
11
1011.076173
21
6357.563362
0
LINE
8
Layer 1
10
1011.076173
20
6357.563362
11
1010.005773
21
6347.621022
0
LINE
8
Layer 1
10
1010.005773
20
6347.621022
11
1014.513883
21
6347.135599
0
LINE
8
Layer 1
10
1014.513883
20
6347.135599
11
1015.584173
21
6357.078299
0
LINE
8
Layer 1
10
1015.584173
20
6357.078299
11
1021.019993
21
6356.493393
0
LINE
8
Layer 1
10
1021.019993
20
6356.493393
11
1019.949593
21
6346.550693
0
LINE
8
Layer 1
10
1019.949593
20
6346.550693
11
1024.457673
21
6346.065623
0
LINE
8
Layer 1
10
1024.457673
20
6346.065623
11
1025.528003
21
6356.007963
0
LINE
8
Layer 1
10
1025.528003
20
6356.007963
11
1030.963783
21
6355.423057
0
LINE
8
Layer 1
10
1030.963783
20
6355.423057
11
1029.893383
21
6345.480357
0
LINE
8
Layer 1
10
1029.893383
20
6345.480357
11
1034.401493
21
6344.995287
0
LINE
8
Layer 1
10
1034.401493
20
6344.995287
11
1035.471893
21
6354.937627
0
LINE
8
Layer 1
10
1035.471893
20
6354.937627
11
1040.907603
21
6354.352721
0
LINE
8
Layer 1
10
1040.907603
20
6354.352721
11
1039.837313
21
6344.410021
0
LINE
8
Layer 1
10
1039.837313
20
6344.410021
11
1044.345283
21
6343.924951
0
LINE
8
Layer 1
10
1044.345283
20
6343.924951
11
1045.415713
21
6353.867651
0
LINE
8
Layer 1
10
1045.415713
20
6353.867651
11
1050.851383
21
6353.282392
0
LINE
8
Layer 1
10
1050.851383
20
6353.282392
11
1049.781093
21
6343.340052
0
LINE
8
Layer 1
10
1049.781093
20
6343.340052
11
1054.289103
21
6342.854629
0
LINE
8
Layer 1
10
1054.289103
20
6342.854629
11
1055.359503
21
6352.797329
0
LINE
8
Layer 1
10
1055.359503
20
6352.797329
11
1060.795323
21
6352.212423
0
LINE
8
Layer 1
10
1060.795323
20
6352.212423
11
1059.699913
21
6342.037623
0
LINE
8
Layer 1
10
1059.699913
20
6342.037623
11
1088.991313
21
6338.886613
0
LINE
8
Layer 1
10
1088.991313
20
6338.886613
11
1045.662113
21
6229.156613
0
LINE
8
Layer 1
10
1045.662113
20
6229.156613
11
980.389813
21
6063.569613
0
LINE
8
Layer 1
10
980.389813
20
6063.569613
11
922.050013
21
5914.675613
0
LINE
8
Layer 1
10
922.050013
20
5914.675613
11
882.055613
21
5811.557613
0
LINE
8
Layer 1
10
882.055613
20
5811.557613
11
856.654013
21
5745.468213
0
LINE
8
Layer 1
10
856.654013
20
5745.468213
11
832.126313
21
5681.052713
0
LINE
8
Layer 1
10
832.126313
20
5681.052713
11
808.280813
21
5617.754813
0
LINE
8
Layer 1
10
808.280813
20
5617.754813
11
784.926213
21
5555.017113
0
LINE
8
Layer 1
10
784.926213
20
5555.017113
11
761.870713
21
5492.282913
0
LINE
8
Layer 1
10
761.870713
20
5492.282913
11
738.922813
21
5428.994513
0
LINE
8
Layer 1
10
738.922813
20
5428.994513
11
715.890813
21
5364.594913
0
LINE
8
Layer 1
10
715.890813
20
5364.594913
11
692.583213
21
5298.527013
0
LINE
8
Layer 1
10
692.583213
20
5298.527013
11
688.026523
21
5285.437913
0
LINE
8
Layer 1
10
688.026523
20
5285.437913
11
691.926623
21
5281.433173
0
LINE
8
Layer 1
10
691.926623
20
5281.433173
11
695.826833
21
5277.428083
0
LINE
8
Layer 1
10
695.826833
20
5277.428083
11
690.282823
21
5276.710885
0
LINE
8
Layer 1
10
690.282823
20
5276.710885
11
684.738813
21
5275.993687
0
LINE
8
Layer 1
10
684.738813
20
5275.993687
11
668.808813
21
5230.233787
0
LINE
8
Layer 1
10
668.808813
20
5230.233787
11
644.376113
21
5159.158887
0
LINE
8
Layer 1
10
644.376113
20
5159.158887
11
619.094113
21
5084.745987
0
LINE
8
Layer 1
10
619.094113
20
5084.745987
11
592.771613
21
5006.439487
0
LINE
8
Layer 1
10
592.771613
20
5006.439487
11
565.219613
21
4923.688387
0
LINE
8
Layer 1
10
565.219613
20
4923.688387
11
521.378113
21
4790.732387
0
LINE
8
Layer 1
10
521.378113
20
4790.732387
11
456.590213
21
4591.853387
0
LINE
8
Layer 1
10
456.590213
20
4591.853387
11
383.441313
21
4365.180387
0
LINE
8
Layer 1
10
383.441313
20
4365.180387
11
344.891413
21
4244.981387
0
LINE
8
Layer 1
10
344.891413
20
4244.981387
11
348.889023
21
4241.074017
0
LINE
8
Layer 1
10
348.889023
20
4241.074017
11
352.886633
21
4237.166297
0
LINE
8
Layer 1
10
352.886633
20
4237.166297
11
347.362023
21
4236.312574
0
LINE
8
Layer 1
10
347.362023
20
4236.312574
11
341.837413
21
4235.459204
0
LINE
8
Layer 1
10
341.837413
20
4235.459204
11
341.836000
21
4235.460000
0
LINE
8
Layer 1
10
782.010000
20
23033.200000
11
524.434000
21
22984.067700
0
LINE
8
Layer 1
10
524.434000
20
22984.067700
11
521.265310
21
22972.753700
0
LINE
8
Layer 1
10
521.265310
20
22972.753700
11
514.422580
21
22981.653200
0
LINE
8
Layer 1
10
514.422580
20
22981.653200
11
511.442210
21
22970.874100
0
LINE
8
Layer 1
10
511.442210
20
22970.874100
11
504.694910
21
22979.752180
0
LINE
8
Layer 1
10
504.694910
20
22979.752180
11
501.613990
21
22969.001380
0
LINE
8
Layer 1
10
501.613990
20
22969.001380
11
494.965680
21
22977.849690
0
LINE
8
Layer 1
10
494.965680
20
22977.849690
11
491.787890
21
22967.136090
0
LINE
8
Layer 1
10
491.787890
20
22967.136090
11
484.703580
21
22976.489190
0
LINE
8
Layer 1
10
484.703580
20
22976.489190
11
456.402180
21
22971.090700
0
LINE
8
Layer 1
10
456.402180
20
22971.090700
11
492.714680
21
23750.146700
0
LINE
8
Layer 1
10
492.714680
20
23750.146700
11
781.149680
21
23919.183700
0
LINE
8
Layer 1
10
781.149680
20
23919.183700
11
782.010000
21
23033.200000
0
LINE
8
Layer 1
10
1026.340000
20
7575.150000
11
989.484700
21
7675.578000
0
LINE
8
Layer 1
10
989.484700
20
7675.578000
11
920.371500
21
7862.864000
0
LINE
8
Layer 1
10
920.371500
20
7862.864000
11
859.224200
21
8027.162000
0
LINE
8
Layer 1
10
859.224200
20
8027.162000
11
804.610600
21
8172.138000
0
LINE
8
Layer 1
10
804.610600
20
8172.138000
11
767.207200
21
8269.980300
0
LINE
8
Layer 1
10
767.207200
20
8269.980300
11
743.461200
21
8331.406000
0
LINE
8
Layer 1
10
743.461200
20
8331.406000
11
720.539900
21
8390.072300
0
LINE
8
Layer 1
10
720.539900
20
8390.072300
11
705.883100
21
8427.158400
0
LINE
8
Layer 1
10
705.883100
20
8427.158400
11
700.314320
21
8427.645586
0
LINE
8
Layer 1
10
700.314320
20
8427.645586
11
694.745510
21
8428.132772
0
LINE
8
Layer 1
10
694.745510
20
8428.132772
11
698.476530
21
8432.295552
0
LINE
8
Layer 1
10
698.476530
20
8432.295552
11
702.207720
21
8436.458332
0
LINE
8
Layer 1
10
702.207720
20
8436.458332
11
698.266520
21
8446.431012
0
LINE
8
Layer 1
10
698.266520
20
8446.431012
11
676.461520
21
8500.941612
0
LINE
8
Layer 1
10
676.461520
20
8500.941612
11
654.945320
21
8554.064712
0
LINE
8
Layer 1
10
654.945320
20
8554.064712
11
633.538120
21
8606.259612
0
LINE
8
Layer 1
10
633.538120
20
8606.259612
11
612.060020
21
8657.987112
0
LINE
8
Layer 1
10
612.060020
20
8657.987112
11
590.331220
21
8709.707212
0
LINE
8
Layer 1
10
590.331220
20
8709.707212
11
568.171720
21
8761.880612
0
LINE
8
Layer 1
10
568.171720
20
8761.880612
11
533.835220
21
8841.810912
0
LINE
8
Layer 1
10
533.835220
20
8841.810912
11
484.775120
21
8954.392912
0
LINE
8
Layer 1
10
484.775120
20
8954.392912
11
402.334420
21
9141.366912
0
LINE
8
Layer 1
10
402.334420
20
9141.366912
11
330.565120
21
9303.187912
0
LINE
8
Layer 1
10
330.565120
20
9303.187912
11
354.434520
21
9312.334392
0
LINE
8
Layer 1
10
354.434520
20
9312.334392
11
355.556000
21
9324.031792
0
LINE
8
Layer 1
10
355.556000
20
9324.031792
11
363.804510
21
9316.483402
0
LINE
8
Layer 1
10
363.804510
20
9316.483402
11
364.894910
21
9327.610402
0
LINE
8
Layer 1
10
364.894910
20
9327.610402
11
373.143420
21
9320.062362
0
LINE
8
Layer 1
10
373.143420
20
9320.062362
11
374.233820
21
9331.189362
0
LINE
8
Layer 1
10
374.233820
20
9331.189362
11
382.855710
21
9323.250092
0
LINE
8
Layer 1
10
382.855710
20
9323.250092
11
579.299710
21
9398.697692
0
LINE
8
Layer 1
10
579.299710
20
9398.697692
11
667.538110
21
9433.057192
0
LINE
8
Layer 1
10
667.538110
20
9433.057192
11
720.201310
21
9453.859492
0
LINE
8
Layer 1
10
720.201310
20
9453.859492
11
769.128310
21
9473.503592
0
LINE
8
Layer 1
10
769.128310
20
9473.503592
11
815.746710
21
9492.586792
0
LINE
8
Layer 1
10
815.746710
20
9492.586792
11
861.496210
21
9511.709492
0
LINE
8
Layer 1
10
861.496210
20
9511.709492
11
907.818710
21
9531.474892
0
LINE
8
Layer 1
10
907.818710
20
9531.474892
11
956.156110
21
9552.485992
0
LINE
8
Layer 1
10
956.156110
20
9552.485992
11
1007.947510
21
9575.343892
0
LINE
8
Layer 1
10
1007.947510
20
9575.343892
11
1094.387610
21
9613.997092
0
LINE
8
Layer 1
10
1094.387610
20
9613.997092
11
1235.892610
21
9677.988892
0
LINE
8
Layer 1
10
1235.892610
20
9677.988892
11
1344.936610
21
9727.458592
0
LINE
8
Layer 1
10
1344.936610
20
9727.458592
11
1339.848420
21
9613.851592
0
LINE
8
Layer 1
10
1339.848420
20
9613.851592
11
1332.711790
21
9452.360592
0
LINE
8
Layer 1
10
1332.711790
20
9452.360592
11
1326.597090
21
9307.254592
0
LINE
8
Layer 1
10
1326.597090
20
9307.254592
11
1321.505300
21
9174.270592
0
LINE
8
Layer 1
10
1321.505300
20
9174.270592
11
1318.390800
21
9080.081292
0
LINE
8
Layer 1
10
1318.390800
20
9080.081292
11
1316.613010
21
9018.691192
0
LINE
8
Layer 1
10
1316.613010
20
9018.691192
11
1315.090880
21
8957.920592
0
LINE
8
Layer 1
10
1315.090880
20
8957.920592
11
1313.824900
21
8897.243092
0
LINE
8
Layer 1
10
1313.824900
20
8897.243092
11
1312.814790
21
8836.123592
0
LINE
8
Layer 1
10
1312.814790
20
8836.123592
11
1312.060798
21
8774.026592
0
LINE
8
Layer 1
10
1312.060798
20
8774.026592
11
1311.563099
21
8710.416792
0
LINE
8
Layer 1
10
1311.563099
20
8710.416792
11
1311.513992
21
8697.093392
0
LINE
8
Layer 1
10
1311.513992
20
8697.093392
11
1316.504782
21
8694.574912
0
LINE
8
Layer 1
10
1316.504782
20
8694.574912
11
1321.495602
21
8692.056432
0
LINE
8
Layer 1
10
1321.495602
20
8692.056432
11
1316.486402
21
8689.574992
0
LINE
8
Layer 1
10
1316.486402
20
8689.574992
11
1311.477312
21
8687.093202
0
LINE
8
Layer 1
10
1311.477312
20
8687.093202
11
1311.321596
21
8644.759102
0
LINE
8
Layer 1
10
1311.321596
20
8644.759102
11
1311.336766
21
8576.518402
0
LINE
8
Layer 1
10
1311.336766
20
8576.518402
11
1311.608370
21
8505.160902
0
LINE
8
Layer 1
10
1311.608370
20
8505.160902
11
1312.136761
21
8430.151802
0
LINE
8
Layer 1
10
1312.136761
20
8430.151802
11
1312.922186
21
8350.957702
0
LINE
8
Layer 1
10
1312.922186
20
8350.957702
11
1314.550366
21
8223.830702
0
LINE
8
Layer 1
10
1314.550366
20
8223.830702
11
1317.664906
21
8033.929702
0
LINE
8
Layer 1
10
1317.664906
20
8033.929702
11
1321.809796
21
7817.692702
0
LINE
8
Layer 1
10
1321.809796
20
7817.692702
11
1324.270596
21
7700.342702
0
LINE
8
Layer 1
10
1324.270596
20
7700.342702
11
1329.307176
21
7697.917352
0
LINE
8
Layer 1
10
1329.307176
20
7697.917352
11
1334.343686
21
7695.491652
0
LINE
8
Layer 1
10
1334.343686
20
7695.491652
11
1329.381406
21
7692.917782
0
LINE
8
Layer 1
10
1329.381406
20
7692.917782
11
1324.419086
21
7690.343912
0
LINE
8
Layer 1
10
1324.419086
20
7690.343912
11
1326.986176
21
7570.848912
0
LINE
8
Layer 1
10
1326.986176
20
7570.848912
11
1336.557676
21
7139.020912
0
LINE
8
Layer 1
10
1336.557676
20
7139.020912
11
1343.624486
21
6827.995912
0
LINE
8
Layer 1
10
1343.624486
20
6827.995912
11
1305.754186
21
6810.886912
0
LINE
8
Layer 1
10
1305.754186
20
6810.886912
11
1204.898186
21
7087.207912
0
LINE
8
Layer 1
10
1204.898186
20
7087.207912
11
1067.996186
21
7461.640912
0
LINE
8
Layer 1
10
1067.996186
20
7461.640912
11
1029.785486
21
7565.762912
0
LINE
8
Layer 1
10
1029.785486
20
7565.762912
11
1024.230286
21
7566.387329
0
LINE
8
Layer 1
10
1024.230286
20
7566.387329
11
1018.675086
21
7567.011746
0
LINE
8
Layer 1
10
1018.675086
20
7567.011746
11
1022.507706
21
7571.081396
0
LINE
8
Layer 1
10
1022.507706
20
7571.081396
11
1026.340286
21
7575.151046
0
LINE
8
Layer 1
10
1026.340286
20
7575.151046
11
1026.340000
21
7575.150000
0
LINE
8
Layer 1
10
566.081000
20
899.672000
11
579.015600
21
1016.534000
0
LINE
8
Layer 1
10
579.015600
20
1016.534000
11
596.910500
21
1180.002000
0
LINE
8
Layer 1
10
596.910500
20
1180.002000
11
607.402000
21
1279.716800
0
LINE
8
Layer 1
10
607.402000
20
1279.716800
11
613.385010
21
1339.365600
0
LINE
8
Layer 1
10
613.385010
20
1339.365600
11
618.644010
21
1394.931300
0
LINE
8
Layer 1
10
618.644010
20
1394.931300
11
623.311830
21
1448.060000
0
LINE
8
Layer 1
10
623.311830
20
1448.060000
11
627.521040
21
1500.400600
0
LINE
8
Layer 1
10
627.521040
20
1500.400600
11
631.404210
21
1553.602300
0
LINE
8
Layer 1
10
631.404210
20
1553.602300
11
635.093420
21
1609.311200
0
LINE
8
Layer 1
10
635.093420
20
1609.311200
11
638.719730
21
1669.160300
0
LINE
8
Layer 1
10
638.719730
20
1669.160300
11
644.297330
21
1769.280300
0
LINE
8
Layer 1
10
644.297330
20
1769.280300
11
652.755640
21
1933.552300
0
LINE
8
Layer 1
10
652.755640
20
1933.552300
11
658.542260
21
2048.623300
0
LINE
8
Layer 1
10
658.542260
20
2048.623300
11
1337.939260
21
2046.215590
0
LINE
8
Layer 1
10
1337.939260
20
2046.215590
11
1333.859770
21
895.455590
0
LINE
8
Layer 1
10
1333.859770
20
895.455590
11
1309.098870
21
898.019930
0
LINE
8
Layer 1
10
1309.098870
20
898.019930
11
1309.094637
21
896.804960
0
LINE
8
Layer 1
10
1309.094637
20
896.804960
11
1304.096057
21
896.826127
0
LINE
8
Layer 1
10
1304.096057
20
896.826127
11
1304.058556
21
886.829457
0
LINE
8
Layer 1
10
1304.058556
20
886.829457
11
1298.592756
21
886.924707
0
LINE
8
Layer 1
10
1298.592756
20
886.924707
11
1298.627681
21
897.081907
0
LINE
8
Layer 1
10
1298.627681
20
897.081907
11
566.081000
21
899.672000
0
LINE
8
Layer 1
10
715.186000
20
13443.500000
11
718.490890
21
13443.402986
0
LINE
8
Layer 1
10
718.490890
20
13443.402986
11
724.078610
21
13443.238944
0
LINE
8
Layer 1
10
724.078610
20
13443.238944
11
720.594790
21
13438.867324
0
LINE
8
Layer 1
10
720.594790
20
13438.867324
11
717.111000
21
13434.495344
0
LINE
8
Layer 1
10
717.111000
20
13434.495344
11
742.805100
21
13379.104944
0
LINE
8
Layer 1
10
742.805100
20
13379.104944
11
762.384900
21
13337.443944
0
LINE
8
Layer 1
10
762.384900
20
13337.443944
11
791.566900
21
13276.168144
0
LINE
8
Layer 1
10
791.566900
20
13276.168144
11
830.957700
21
13195.088444
0
LINE
8
Layer 1
10
830.957700
20
13195.088444
11
872.134100
21
13111.917144
0
LINE
8
Layer 1
10
872.134100
20
13111.917144
11
916.416600
21
13023.754444
0
LINE
8
Layer 1
10
916.416600
20
13023.754444
11
990.744300
21
12877.353444
0
LINE
8
Layer 1
10
990.744300
20
12877.353444
11
1055.381900
21
12750.719444
0
LINE
8
Layer 1
10
1055.381900
20
12750.719444
11
1037.466800
21
12737.287744
0
LINE
8
Layer 1
10
1037.466800
20
12737.287744
11
1039.592290
21
12725.730344
0
LINE
8
Layer 1
10
1039.592290
20
12725.730344
11
1029.591490
21
12730.730974
0
LINE
8
Layer 1
10
1029.591490
20
12730.730974
11
1031.590680
21
12719.730974
0
LINE
8
Layer 1
10
1031.590680
20
12719.730974
11
1021.172680
21
12724.940804
0
LINE
8
Layer 1
10
1021.172680
20
12724.940804
11
961.974980
21
12680.688004
0
LINE
8
Layer 1
10
961.974980
20
12680.688004
11
826.293980
21
12578.708004
0
LINE
8
Layer 1
10
826.293980
20
12578.708004
11
743.841680
21
12516.190804
0
LINE
8
Layer 1
10
743.841680
20
12516.190804
11
694.721180
21
12478.568804
0
LINE
8
Layer 1
10
694.721180
20
12478.568804
11
649.179580
21
12443.280804
0
LINE
8
Layer 1
10
649.179580
20
12443.280804
11
605.894680
21
12409.273004
0
LINE
8
Layer 1
10
605.894680
20
12409.273004
11
563.534180
21
12375.482204
0
LINE
8
Layer 1
10
563.534180
20
12375.482204
11
520.763880
21
12340.844704
0
LINE
8
Layer 1
10
520.763880
20
12340.844704
11
476.249780
21
12304.295804
0
LINE
8
Layer 1
10
476.249780
20
12304.295804
11
428.660080
21
12264.773404
0
LINE
8
Layer 1
10
428.660080
20
12264.773404
11
349.388180
21
12198.286004
0
LINE
8
Layer 1
10
349.388180
20
12198.286004
11
219.836180
21
12088.696004
0
LINE
8
Layer 1
10
219.836180
20
12088.696004
11
114.063180
21
11999.002504
0
LINE
8
Layer 1
10
114.063180
20
11999.002504
11
123.631900
21
12194.609504
0
LINE
8
Layer 1
10
123.631900
20
12194.609504
11
133.175110
21
12398.756504
0
LINE
8
Layer 1
10
133.175110
20
12398.756504
11
138.379890
21
12521.464504
0
LINE
8
Layer 1
10
138.379890
20
12521.464504
11
141.612610
21
12608.379504
0
LINE
8
Layer 1
10
141.612610
20
12608.379504
11
143.486810
21
12665.028604
0
LINE
8
Layer 1
10
143.486810
20
12665.028604
11
145.122710
21
12721.106904
0
LINE
8
Layer 1
10
145.122710
20
12721.106904
11
146.521900
21
12777.100204
0
LINE
8
Layer 1
10
146.521900
20
12777.100204
11
147.686600
21
12833.502304
0
LINE
8
Layer 1
10
147.686600
20
12833.502304
11
148.618604
21
12890.807604
0
LINE
8
Layer 1
10
148.618604
20
12890.807604
11
149.319927
21
12949.509904
0
LINE
8
Layer 1
10
149.319927
20
12949.509904
11
149.410803
21
12961.160704
0
LINE
8
Layer 1
10
149.410803
20
12961.160704
11
144.430493
21
12963.699644
0
LINE
8
Layer 1
10
144.430493
20
12963.699644
11
139.450113
21
12966.238584
0
LINE
8
Layer 1
10
139.450113
20
12966.238584
11
144.469513
21
12968.699564
0
LINE
8
Layer 1
10
144.469513
20
12968.699564
11
149.488803
21
12971.160544
0
LINE
8
Layer 1
10
149.488803
20
12971.160544
11
149.792510
21
13010.103744
0
LINE
8
Layer 1
10
149.792510
20
13010.103744
11
150.038326
21
13073.082344
0
LINE
8
Layer 1
10
150.038326
20
13073.082344
11
150.059104
21
13138.939244
0
LINE
8
Layer 1
10
150.059104
20
13138.939244
11
149.700011
21
13243.702244
0
LINE
8
Layer 1
10
149.700011
20
13243.702244
11
148.414031
21
13398.603244
0
LINE
8
Layer 1
10
148.414031
20
13398.603244
11
146.262011
21
13573.877244
0
LINE
8
Layer 1
10
146.262011
20
13573.877244
11
143.259091
21
13773.468244
0
LINE
8
Layer 1
10
143.259091
20
13773.468244
11
141.437701
21
13881.587244
0
LINE
8
Layer 1
10
141.437701
20
13881.587244
11
136.396291
21
13884.002714
0
LINE
8
Layer 1
10
136.396291
20
13884.002714
11
131.354881
21
13886.418184
0
LINE
8
Layer 1
10
131.354881
20
13886.418184
11
136.312121
21
13889.001934
0
LINE
8
Layer 1
10
136.312121
20
13889.001934
11
141.269321
21
13891.585684
0
LINE
8
Layer 1
10
141.269321
20
13891.585684
11
139.420691
21
14001.312684
0
LINE
8
Layer 1
10
139.420691
20
14001.312684
11
132.229381
21
14399.907684
0
LINE
8
Layer 1
10
132.229381
20
14399.907684
11
126.931081
21
14684.799684
0
LINE
8
Layer 1
10
126.931081
20
14684.799684
11
160.895081
21
14714.593884
0
LINE
8
Layer 1
10
160.895081
20
14714.593884
11
257.014581
21
14490.256884
0
LINE
8
Layer 1
10
257.014581
20
14490.256884
11
383.181581
21
14195.790884
0
LINE
8
Layer 1
10
383.181581
20
14195.790884
11
414.763081
21
14122.372884
0
LINE
8
Layer 1
10
414.763081
20
14122.372884
11
420.344061
21
14122.052209
0
LINE
8
Layer 1
10
420.344061
20
14122.052209
11
425.924971
21
14121.731181
0
LINE
8
Layer 1
10
425.924971
20
14121.731181
11
422.319761
21
14117.459041
0
LINE
8
Layer 1
10
422.319761
20
14117.459041
11
418.714581
21
14113.186551
0
LINE
8
Layer 1
10
418.714581
20
14113.186551
11
455.541281
21
14027.575051
0
LINE
8
Layer 1
10
455.541281
20
14027.575051
11
519.192881
21
13880.335051
0
LINE
8
Layer 1
10
519.192881
20
13880.335051
11
575.445181
21
13751.193051
0
LINE
8
Layer 1
10
575.445181
20
13751.193051
11
625.607781
21
13637.271051
0
LINE
8
Layer 1
10
625.607781
20
13637.271051
11
670.990281
21
13535.690051
0
LINE
8
Layer 1
10
670.990281
20
13535.690051
11
712.903381
21
13443.568751
0
LINE
8
Layer 1
10
712.903381
20
13443.568751
11
715.186000
21
13443.500000
0
LINE
8
Layer 1
10
522.125000
20
3879.070000
11
529.681010
21
2801.740000
0
LINE
8
Layer 1
10
529.681010
20
2801.740000
11
203.801010
21
2857.298300
0
LINE
8
Layer 1
10
203.801010
20
2857.298300
11
202.436320
21
3793.376300
0
LINE
8
Layer 1
10
202.436320
20
3793.376300
11
223.005120
21
3798.889870
0
LINE
8
Layer 1
10
223.005120
20
3798.889870
11
222.944724
21
3799.114942
0
LINE
8
Layer 1
10
222.944724
20
3799.114942
11
227.775844
21
3800.406112
0
LINE
8
Layer 1
10
227.775844
20
3800.406112
11
225.185044
21
3810.068702
0
LINE
8
Layer 1
10
225.185044
20
3810.068702
11
230.465744
21
3811.484052
0
LINE
8
Layer 1
10
230.465744
20
3811.484052
11
233.055554
21
3801.825342
0
LINE
8
Layer 1
10
233.055554
20
3801.825342
11
237.435854
21
3802.995862
0
LINE
8
Layer 1
10
237.435854
20
3802.995862
11
234.845224
21
3812.658102
0
LINE
8
Layer 1
10
234.845224
20
3812.658102
11
240.124234
21
3814.073092
0
LINE
8
Layer 1
10
240.124234
20
3814.073092
11
242.786334
21
3804.434142
0
LINE
8
Layer 1
10
242.786334
20
3804.434142
11
247.095834
21
3805.585612
0
LINE
8
Layer 1
10
247.095834
20
3805.585612
11
244.505354
21
3815.247492
0
LINE
8
Layer 1
10
244.505354
20
3815.247492
11
249.786544
21
3816.663192
0
LINE
8
Layer 1
10
249.786544
20
3816.663192
11
252.355154
21
3806.998482
0
LINE
8
Layer 1
10
252.355154
20
3806.998482
11
256.756274
21
3808.174292
0
LINE
8
Layer 1
10
256.756274
20
3808.174292
11
254.165474
21
3817.836882
0
LINE
8
Layer 1
10
254.165474
20
3817.836882
11
259.448854
21
3819.253282
0
LINE
8
Layer 1
10
259.448854
20
3819.253282
11
261.923454
21
3809.564942
0
LINE
8
Layer 1
10
261.923454
20
3809.564942
11
266.416084
21
3810.764742
0
LINE
8
Layer 1
10
266.416084
20
3810.764742
11
263.825674
21
3820.426272
0
LINE
8
Layer 1
10
263.825674
20
3820.426272
11
269.106374
21
3821.841972
0
LINE
8
Layer 1
10
269.106374
20
3821.841972
11
271.696084
21
3812.182912
0
LINE
8
Layer 1
10
271.696084
20
3812.182912
11
276.076594
21
3813.353072
0
LINE
8
Layer 1
10
276.076594
20
3813.353072
11
273.485794
21
3823.015662
0
LINE
8
Layer 1
10
273.485794
20
3823.015662
11
278.766494
21
3824.431362
0
LINE
8
Layer 1
10
278.766494
20
3824.431362
11
281.416664
21
3814.547232
0
LINE
8
Layer 1
10
281.416664
20
3814.547232
11
522.125000
21
3879.070000
0
LINE
8
Layer 1
10
1338.320000
20
22634.400000
11
1337.288300
21
21797.490000
0
LINE
8
Layer 1
10
1337.288300
20
21797.490000
11
1345.722090
21
21792.313900
0
LINE
8
Layer 1
10
1345.722090
20
21792.313900
11
1337.275390
21
21786.986920
0
LINE
8
Layer 1
10
1337.275390
20
21786.986920
11
1336.251700
21
20956.587920
0
LINE
8
Layer 1
10
1336.251700
20
20956.587920
11
1343.693300
21
20951.643030
0
LINE
8
Layer 1
10
1343.693300
20
20951.643030
11
1336.238780
21
20946.084660
0
LINE
8
Layer 1
10
1336.238780
20
20946.084660
11
1334.944680
21
19896.294660
0
LINE
8
Layer 1
10
1334.944680
20
19896.294660
11
1024.448680
21
19896.677424
0
LINE
8
Layer 1
10
1024.448680
20
19896.677424
11
1027.850090
21
20005.564424
0
LINE
8
Layer 1
10
1027.850090
20
20005.564424
11
1032.425590
21
20157.891424
0
LINE
8
Layer 1
10
1032.425590
20
20157.891424
11
1034.823880
21
20250.759224
0
LINE
8
Layer 1
10
1034.823880
20
20250.759224
11
1035.987800
21
20306.292824
0
LINE
8
Layer 1
10
1035.987800
20
20306.292824
11
1036.781480
21
20358.006924
0
LINE
8
Layer 1
10
1036.781480
20
20358.006924
11
1037.207001
21
20407.419524
0
LINE
8
Layer 1
10
1037.207001
20
20407.419524
11
1037.266585
21
20456.060924
0
LINE
8
Layer 1
10
1037.266585
20
20456.060924
11
1036.962173
21
20505.464324
0
LINE
8
Layer 1
10
1036.962173
20
20505.464324
11
1036.295599
21
20557.163224
0
LINE
8
Layer 1
10
1036.295599
20
20557.163224
11
1035.268379
21
20612.688324
0
LINE
8
Layer 1
10
1035.268379
20
20612.688324
11
1033.098969
21
20705.551824
0
LINE
8
Layer 1
10
1033.098969
20
20705.551824
11
1028.900069
21
20857.843824
0
LINE
8
Layer 1
10
1028.900069
20
20857.843824
11
1026.369379
21
20945.805524
0
LINE
8
Layer 1
10
1026.369379
20
20945.805524
11
1019.060669
21
20950.837904
0
LINE
8
Layer 1
10
1019.060669
20
20950.837904
11
1025.938569
21
20956.388164
0
LINE
8
Layer 1
10
1025.938569
20
20956.388164
11
1015.742069
21
21150.140164
0
LINE
8
Layer 1
10
1015.742069
20
21150.140164
11
1011.430949
21
21225.368664
0
LINE
8
Layer 1
10
1011.430949
20
21225.368664
11
1008.634659
21
21270.333764
0
LINE
8
Layer 1
10
1008.634659
20
21270.333764
11
1005.796349
21
21312.183464
0
LINE
8
Layer 1
10
1005.796349
20
21312.183464
11
1002.815659
21
21352.144164
0
LINE
8
Layer 1
10
1002.815659
20
21352.144164
11
999.591269
21
21391.455064
0
LINE
8
Layer 1
10
999.591269
20
21391.455064
11
996.021369
21
21431.357664
0
LINE
8
Layer 1
10
996.021369
20
21431.357664
11
992.004249
21
21473.093864
0
LINE
8
Layer 1
10
992.004249
20
21473.093864
11
987.437639
21
21517.902364
0
LINE
8
Layer 1
10
987.437639
20
21517.902364
11
979.434059
21
21592.825264
0
LINE
8
Layer 1
10
979.434059
20
21592.825264
11
965.789259
21
21715.663264
0
LINE
8
Layer 1
10
965.789259
20
21715.663264
11
957.850839
21
21786.356364
0
LINE
8
Layer 1
10
957.850839
20
21786.356364
11
949.175429
21
21790.955074
0
LINE
8
Layer 1
10
949.175429
20
21790.955074
11
957.009849
21
21796.609084
0
LINE
8
Layer 1
10
957.009849
20
21796.609084
11
953.342049
21
21868.251484
0
LINE
8
Layer 1
10
953.342049
20
21868.251484
11
946.816639
21
21992.669484
0
LINE
8
Layer 1
10
946.816639
20
21992.669484
11
942.520119
21
22068.486584
0
LINE
8
Layer 1
10
942.520119
20
22068.486584
11
939.731129
21
22113.799584
0
LINE
8
Layer 1
10
939.731129
20
22113.799584
11
936.904529
21
22155.976484
0
LINE
8
Layer 1
10
936.904529
20
22155.976484
11
933.919819
21
22196.241584
0
LINE
8
Layer 1
10
933.919819
20
22196.241584
11
930.695529
21
22235.860284
0
LINE
8
Layer 1
10
930.695529
20
22235.860284
11
927.123719
21
22276.072884
0
LINE
8
Layer 1
10
927.123719
20
22276.072884
11
923.102299
21
22318.133284
0
LINE
8
Layer 1
10
923.102299
20
22318.133284
11
918.529199
21
22363.289884
0
LINE
8
Layer 1
10
918.529199
20
22363.289884
11
910.511999
21
22438.794584
0
LINE
8
Layer 1
10
910.511999
20
22438.794584
11
896.840799
21
22562.586584
0
LINE
8
Layer 1
10
896.840799
20
22562.586584
11
888.876309
21
22633.921284
0
LINE
8
Layer 1
10
888.876309
20
22633.921284
11
881.364999
21
22638.415674
0
LINE
8
Layer 1
10
881.364999
20
22638.415674
11
888.075509
21
22644.155094
0
LINE
8
Layer 1
10
888.075509
20
22644.155094
11
884.062699
21
22734.714694
0
LINE
8
Layer 1
10
884.062699
20
22734.714694
11
876.994579
21
22889.883694
0
LINE
8
Layer 1
10
876.994579
20
22889.883694
11
872.287779
21
22984.455094
0
LINE
8
Layer 1
10
872.287779
20
22984.455094
11
869.198499
21
23040.987194
0
LINE
8
Layer 1
10
869.198499
20
23040.987194
11
866.026669
21
23093.609194
0
LINE
8
Layer 1
10
866.026669
20
23093.609194
11
862.663879
21
23143.866194
0
LINE
8
Layer 1
10
862.663879
20
23143.866194
11
858.976359
21
23193.304894
0
LINE
8
Layer 1
10
858.976359
20
23193.304894
11
854.866069
21
23243.496494
0
LINE
8
Layer 1
10
854.866069
20
23243.496494
11
850.211269
21
23295.991194
0
LINE
8
Layer 1
10
850.211269
20
23295.991194
11
844.895649
21
23352.346394
0
LINE
8
Layer 1
10
844.895649
20
23352.346394
11
835.546639
21
23446.562294
0
LINE
8
Layer 1
10
835.546639
20
23446.562294
11
819.563239
21
23601.022294
0
LINE
8
Layer 1
10
819.563239
20
23601.022294
11
810.190919
21
23690.546894
0
LINE
8
Layer 1
10
810.190919
20
23690.546894
11
802.022909
21
23694.897104
0
LINE
8
Layer 1
10
802.022909
20
23694.897104
11
809.124719
21
23700.977584
0
LINE
8
Layer 1
10
809.124719
20
23700.977584
11
799.380919
21
23799.457384
0
LINE
8
Layer 1
10
799.380919
20
23799.457384
11
782.461319
21
23968.331384
0
LINE
8
Layer 1
10
782.461319
20
23968.331384
11
771.713619
21
24071.237384
0
LINE
8
Layer 1
10
771.713619
20
24071.237384
11
764.987729
21
24132.738484
0
LINE
8
Layer 1
10
764.987729
20
24132.738484
11
758.403729
21
24189.969584
0
LINE
8
Layer 1
10
758.403729
20
24189.969584
11
751.744899
21
24244.607684
0
LINE
8
Layer 1
10
751.744899
20
24244.607684
11
744.792919
21
24298.342684
0
LINE
8
Layer 1
10
744.792919
20
24298.342684
11
737.328979
21
24352.866884
0
LINE
8
Layer 1
10
737.328979
20
24352.866884
11
729.134189
21
24409.872584
0
LINE
8
Layer 1
10
729.134189
20
24409.872584
11
719.989369
21
24471.049484
0
LINE
8
Layer 1
10
719.989369
20
24471.049484
11
704.197469
21
24573.292484
0
LINE
8
Layer 1
10
704.197469
20
24573.292484
11
677.592569
21
24740.868484
0
LINE
8
Layer 1
10
677.592569
20
24740.868484
11
658.365469
21
24861.044484
0
LINE
8
Layer 1
10
658.365469
20
24861.044484
11
1341.063469
21
24860.203179
0
LINE
8
Layer 1
10
1341.063469
20
24860.203179
11
1339.635669
21
23701.953179
0
LINE
8
Layer 1
10
1339.635669
20
23701.953179
11
1347.474079
21
23697.041589
0
LINE
8
Layer 1
10
1347.474079
20
23697.041589
11
1339.622789
21
23691.450089
0
LINE
8
Layer 1
10
1339.622789
20
23691.450089
11
1338.332679
21
22644.910089
0
LINE
8
Layer 1
10
1338.332679
20
22644.910089
11
1346.435669
21
22639.667769
0
LINE
8
Layer 1
10
1346.435669
20
22639.667769
11
1338.320000
21
22634.400000
0
LINE
8
Layer 1
10
1130.900000
20
11746.300000
11
1139.502990
21
11631.954000
0
LINE
8
Layer 1
10
1139.502990
20
11631.954000
11
1156.117490
21
11416.316000
0
LINE
8
Layer 1
10
1156.117490
20
11416.316000
11
1171.231690
21
11226.991000
0
LINE
8
Layer 1
10
1171.231690
20
11226.991000
11
1181.804290
21
11100.293000
0
LINE
8
Layer 1
10
1181.804290
20
11100.293000
11
1188.618410
21
11021.388600
0
LINE
8
Layer 1
10
1188.618410
20
11021.388600
11
1195.286900
21
10946.674800
0
LINE
8
Layer 1
10
1195.286900
20
10946.674800
11
1201.860710
21
10875.620000
0
LINE
8
Layer 1
10
1201.860710
20
10875.620000
11
1208.391020
21
10807.692900
0
LINE
8
Layer 1
10
1208.391020
20
10807.692900
11
1212.618320
21
10765.449500
0
LINE
8
Layer 1
10
1212.618320
20
10765.449500
11
1217.842430
21
10763.459830
0
LINE
8
Layer 1
10
1217.842430
20
10763.459830
11
1223.066510
21
10761.470160
0
LINE
8
Layer 1
10
1223.066510
20
10761.470160
11
1218.340310
21
10758.484600
0
LINE
8
Layer 1
10
1218.340310
20
10758.484600
11
1213.614110
21
10755.499040
0
LINE
8
Layer 1
10
1213.614110
20
10755.499040
11
1214.928910
21
10742.360840
0
LINE
8
Layer 1
10
1214.928910
20
10742.360840
11
1221.525540
21
10679.091840
0
LINE
8
Layer 1
10
1221.525540
20
10679.091840
11
1228.232030
21
10617.353240
0
LINE
8
Layer 1
10
1228.232030
20
10617.353240
11
1235.099630
21
10556.612240
0
LINE
8
Layer 1
10
1235.099630
20
10556.612240
11
1242.179740
21
10496.335840
0
LINE
8
Layer 1
10
1242.179740
20
10496.335840
11
1249.523550
21
10435.991440
0
LINE
8
Layer 1
10
1249.523550
20
10435.991440
11
1257.181230
21
10375.054640
0
LINE
8
Layer 1
10
1257.181230
20
10375.054640
11
1269.315530
21
10281.598440
0
LINE
8
Layer 1
10
1269.315530
20
10281.598440
11
1287.138930
21
10149.715440
0
LINE
8
Layer 1
10
1287.138930
20
10149.715440
11
1307.143130
21
10005.864440
0
LINE
8
Layer 1
10
1307.143130
20
10005.864440
11
1329.736230
21
9845.802440
0
LINE
8
Layer 1
10
1329.736230
20
9845.802440
11
1345.697530
21
9733.206440
0
LINE
8
Layer 1
10
1345.697530
20
9733.206440
11
1232.411530
21
9771.992240
0
LINE
8
Layer 1
10
1232.411530
20
9771.992240
11
1085.421530
21
9822.119840
0
LINE
8
Layer 1
10
1085.421530
20
9822.119840
11
995.672430
21
9852.306040
0
LINE
8
Layer 1
10
995.672430
20
9852.306040
11
941.927230
21
9870.092740
0
LINE
8
Layer 1
10
941.927230
20
9870.092740
11
891.797430
21
9886.371640
0
LINE
8
Layer 1
10
891.797430
20
9886.371640
11
843.792630
21
9901.604240
0
LINE
8
Layer 1
10
843.792630
20
9901.604240
11
796.419830
21
9916.251940
0
LINE
8
Layer 1
10
796.419830
20
9916.251940
11
748.185930
21
9930.776540
0
LINE
8
Layer 1
10
748.185930
20
9930.776540
11
697.600230
21
9945.638740
0
LINE
8
Layer 1
10
697.600230
20
9945.638740
11
643.184530
21
9961.295340
0
LINE
8
Layer 1
10
643.184530
20
9961.295340
11
552.057330
21
9987.035040
0
LINE
8
Layer 1
10
552.057330
20
9987.035040
11
349.305330
21
10043.291440
0
LINE
8
Layer 1
10
349.305330
20
10043.291440
11
349.249238
21
10043.088945
0
LINE
8
Layer 1
10
349.249238
20
10043.088945
11
344.440138
21
10044.459135
0
LINE
8
Layer 1
10
344.440138
20
10044.459135
11
341.762628
21
10034.784195
0
LINE
8
Layer 1
10
341.762628
20
10034.784195
11
336.493428
21
10036.242225
0
LINE
8
Layer 1
10
336.493428
20
10036.242225
11
339.160428
21
10045.880115
0
LINE
8
Layer 1
10
339.160428
20
10045.880115
11
334.805318
21
10047.139535
0
LINE
8
Layer 1
10
334.805318
20
10047.139535
11
332.123608
21
10037.451195
0
LINE
8
Layer 1
10
332.123608
20
10037.451195
11
326.854308
21
10038.908875
0
LINE
8
Layer 1
10
326.854308
20
10038.908875
11
329.521418
21
10048.546765
0
LINE
8
Layer 1
10
329.521418
20
10048.546765
11
325.182038
21
10049.856625
0
LINE
8
Layer 1
10
325.182038
20
10049.856625
11
322.484518
21
10040.117835
0
LINE
8
Layer 1
10
322.484518
20
10040.117835
11
317.215218
21
10041.575515
0
LINE
8
Layer 1
10
317.215218
20
10041.575515
11
319.944518
21
10051.438125
0
LINE
8
Layer 1
10
319.944518
20
10051.438125
11
295.307918
21
10058.253445
0
LINE
8
Layer 1
10
295.307918
20
10058.253445
11
351.225318
21
10226.210445
0
LINE
8
Layer 1
10
351.225318
20
10226.210445
11
415.352518
21
10420.228445
0
LINE
8
Layer 1
10
415.352518
20
10420.228445
11
453.388118
21
10536.996445
0
LINE
8
Layer 1
10
453.388118
20
10536.996445
11
479.900018
21
10619.850945
0
LINE
8
Layer 1
10
479.900018
20
10619.850945
11
496.953118
21
10673.908545
0
LINE
8
Layer 1
10
496.953118
20
10673.908545
11
513.621118
21
10727.473645
0
LINE
8
Layer 1
10
513.621118
20
10727.473645
11
530.038718
21
10781.022545
0
LINE
8
Layer 1
10
530.038718
20
10781.022545
11
546.341018
21
10835.029645
0
LINE
8
Layer 1
10
546.341018
20
10835.029645
11
562.662818
21
10889.970545
0
LINE
8
Layer 1
10
562.662818
20
10889.970545
11
579.138918
21
10946.321145
0
LINE
8
Layer 1
10
579.138918
20
10946.321145
11
581.858198
21
10955.766425
0
LINE
8
Layer 1
10
581.858198
20
10955.766425
11
577.745018
21
10959.552435
0
LINE
8
Layer 1
10
577.745018
20
10959.552435
11
573.631698
21
10963.337745
0
LINE
8
Layer 1
10
573.631698
20
10963.337745
11
579.128228
21
10964.357275
0
LINE
8
Layer 1
10
579.128228
20
10964.357275
11
584.624718
21
10965.376095
0
LINE
8
Layer 1
10
584.624718
20
10965.376095
11
595.904118
21
11004.555595
0
LINE
8
Layer 1
10
595.904118
20
11004.555595
11
613.092818
21
11065.149495
0
LINE
8
Layer 1
10
613.092818
20
11065.149495
11
630.837718
21
11128.569095
0
LINE
8
Layer 1
10
630.837718
20
11128.569095
11
658.684318
21
11229.547095
0
LINE
8
Layer 1
10
658.684318
20
11229.547095
11
699.140918
21
11379.092095
0
LINE
8
Layer 1
10
699.140918
20
11379.092095
11
744.247718
21
11548.496095
0
LINE
8
Layer 1
10
744.247718
20
11548.496095
11
795.079018
21
11741.546095
0
LINE
8
Layer 1
10
795.079018
20
11741.546095
11
822.525118
21
11846.550095
0
LINE
8
Layer 1
10
822.525118
20
11846.550095
11
818.319898
21
11850.233095
0
LINE
8
Layer 1
10
818.319898
20
11850.233095
11
814.114608
21
11853.916455
0
LINE
8
Layer 1
10
814.114608
20
11853.916455
11
819.584288
21
11855.070745
0
LINE
8
Layer 1
10
819.584288
20
11855.070745
11
825.054008
21
11856.225035
0
LINE
8
Layer 1
10
825.054008
20
11856.225035
11
852.708508
21
11962.026035
0
LINE
8
Layer 1
10
852.708508
20
11962.026035
11
953.066508
21
12347.861035
0
LINE
8
Layer 1
10
953.066508
20
12347.861035
11
1026.954308
21
12632.579035
0
LINE
8
Layer 1
10
1026.954308
20
12632.579035
11
1066.291108
21
12619.180135
0
LINE
8
Layer 1
10
1066.291108
20
12619.180135
11
1089.088508
21
12308.911135
0
LINE
8
Layer 1
10
1089.088508
20
12308.911135
11
1120.979708
21
11878.155135
0
LINE
8
Layer 1
10
1120.979708
20
11878.155135
11
1130.149818
21
11756.271135
0
LINE
8
Layer 1
10
1130.149818
20
11756.271135
11
1135.323338
21
11754.153405
0
LINE
8
Layer 1
10
1135.323338
20
11754.153405
11
1140.496718
21
11752.035675
0
LINE
8
Layer 1
10
1140.496718
20
11752.035675
11
1135.698338
21
11749.167585
0
LINE
8
Layer 1
10
1135.698338
20
11749.167585
11
1130.900028
21
11746.299495
0
LINE
8
Layer 1
10
1130.900028
20
11746.299495
11
1130.900000
21
11746.300000
0
LINE
8
Layer 1
10
708.066000
20
18848.000000
11
704.019710
21
18856.542170
0
LINE
8
Layer 1
10
704.019710
20
18856.542170
11
699.814810
21
18860.225530
0
LINE
8
Layer 1
10
699.814810
20
18860.225530
11
705.284600
21
18861.379470
0
LINE
8
Layer 1
10
705.284600
20
18861.379470
11
710.754420
21
18862.533410
0
LINE
8
Layer 1
10
710.754420
20
18862.533410
11
741.985720
21
18981.972410
0
LINE
8
Layer 1
10
741.985720
20
18981.972410
11
850.660720
21
19400.025410
0
LINE
8
Layer 1
10
850.660720
20
19400.025410
11
931.445320
21
19710.789410
0
LINE
8
Layer 1
10
931.445320
20
19710.789410
11
966.516420
21
19690.098310
0
LINE
8
Layer 1
10
966.516420
20
19690.098310
11
954.877920
21
19351.708310
0
LINE
8
Layer 1
10
954.877920
20
19351.708310
11
938.888620
21
18879.171310
0
LINE
8
Layer 1
10
938.888620
20
18879.171310
11
934.347310
21
18740.049310
0
LINE
8
Layer 1
10
934.347310
20
18740.049310
11
939.263100
21
18737.387250
0
LINE
8
Layer 1
10
939.263100
20
18737.387250
11
944.178920
21
18734.725540
0
LINE
8
Layer 1
10
944.178920
20
18734.725540
11
939.100010
21
18732.390150
0
LINE
8
Layer 1
10
939.100010
20
18732.390150
11
934.021100
21
18730.054410
0
LINE
8
Layer 1
10
933.981518
20
18725.117630
11
930.071398
21
18609.052630
0
LINE
8
Layer 1
10
930.071398
20
18609.052630
11
922.774008
21
18372.418630
0
LINE
8
Layer 1
10
922.774008
20
18372.418630
11
916.940608
21
18164.596630
0
LINE
8
Layer 1
10
916.940608
20
18164.596630
11
913.535388
21
18025.466630
0
LINE
8
Layer 1
10
913.535388
20
18025.466630
11
911.664708
21
17938.790530
0
LINE
8
Layer 1
10
911.664708
20
17938.790530
11
910.128678
21
17856.691730
0
LINE
8
Layer 1
10
910.128678
20
17856.691730
11
908.920308
21
17778.585630
0
LINE
8
Layer 1
10
908.920308
20
17778.585630
11
908.032683
21
17703.888030
0
LINE
8
Layer 1
10
908.032683
20
17703.888030
11
907.618874
21
17652.073730
0
LINE
8
Layer 1
10
907.618874
20
17652.073730
11
912.598794
21
17649.533730
0
LINE
8
Layer 1
10
912.598794
20
17649.533730
11
917.578604
21
17646.993730
0
LINE
8
Layer 1
10
917.578604
20
17646.993730
11
912.558784
21
17644.533810
0
LINE
8
Layer 1
10
912.558784
20
17644.533810
11
907.538894
21
17642.073890
0
LINE
8
Layer 1
10
907.538894
20
17642.073890
11
907.458673
21
17632.013390
0
LINE
8
Layer 1
10
907.458673
20
17632.013390
11
907.191479
21
17562.376390
0
LINE
8
Layer 1
10
907.191479
20
17562.376390
11
907.223934
21
17494.392190
0
LINE
8
Layer 1
10
907.223934
20
17494.392190
11
907.549336
21
17427.474790
0
LINE
8
Layer 1
10
907.549336
20
17427.474790
11
908.160559
21
17361.038190
0
LINE
8
Layer 1
10
908.160559
20
17361.038190
11
909.050865
21
17294.497190
0
LINE
8
Layer 1
10
909.050865
20
17294.497190
11
910.213265
21
17227.265790
0
LINE
8
Layer 1
10
910.213265
20
17227.265790
11
911.640955
21
17158.759490
0
LINE
8
Layer 1
10
911.640955
20
17158.759490
11
913.326955
21
17088.398990
0
LINE
8
Layer 1
10
913.326955
20
17088.398990
11
916.295445
21
16978.503990
0
LINE
8
Layer 1
10
916.295445
20
16978.503990
11
921.135945
21
16819.597990
0
LINE
8
Layer 1
10
921.135945
20
16819.597990
11
926.885875
21
16642.745990
0
LINE
8
Layer 1
10
926.885875
20
16642.745990
11
930.989285
21
16518.797990
0
LINE
8
Layer 1
10
930.989285
20
16518.797990
11
840.901185
21
16568.174590
0
LINE
8
Layer 1
10
840.901185
20
16568.174590
11
731.603185
21
16627.909790
0
LINE
8
Layer 1
10
731.603185
20
16627.909790
11
664.816585
21
16664.047290
0
LINE
8
Layer 1
10
664.816585
20
16664.047290
11
624.789585
21
16685.454890
0
LINE
8
Layer 1
10
624.789585
20
16685.454890
11
587.416485
21
16705.174090
0
LINE
8
Layer 1
10
587.416485
20
16705.174090
11
551.581385
21
16723.774990
0
LINE
8
Layer 1
10
551.581385
20
16723.774990
11
516.165885
21
16741.827390
0
LINE
8
Layer 1
10
516.165885
20
16741.827390
11
480.051185
21
16759.901290
0
LINE
8
Layer 1
10
480.051185
20
16759.901290
11
442.121085
21
16778.565390
0
LINE
8
Layer 1
10
442.121085
20
16778.565390
11
401.270685
21
16798.382690
0
LINE
8
Layer 1
10
401.270685
20
16798.382690
11
332.779585
21
16831.198090
0
LINE
8
Layer 1
10
332.779585
20
16831.198090
11
196.495585
21
16895.754690
0
LINE
8
Layer 1
10
196.495585
20
16895.754690
11
196.395890
21
16895.543729
0
LINE
8
Layer 1
10
196.395890
20
16895.543729
11
191.874760
21
16897.680149
0
LINE
8
Layer 1
10
191.874760
20
16897.680149
11
187.601280
21
16888.639159
0
LINE
8
Layer 1
10
187.601280
20
16888.639159
11
182.658370
21
16890.974899
0
LINE
8
Layer 1
10
182.658370
20
16890.974899
11
186.931780
21
16900.016249
0
LINE
8
Layer 1
10
186.931780
20
16900.016249
11
182.832460
21
16901.953349
0
LINE
8
Layer 1
10
182.832460
20
16901.953349
11
178.559050
21
16892.911999
0
LINE
8
Layer 1
10
178.559050
20
16892.911999
11
173.616070
21
16895.247739
0
LINE
8
Layer 1
10
173.616070
20
16895.247739
11
177.889480
21
16904.289089
0
LINE
8
Layer 1
10
177.889480
20
16904.289089
11
173.790160
21
16906.226189
0
LINE
8
Layer 1
10
173.790160
20
16906.226189
11
169.516750
21
16897.184839
0
LINE
8
Layer 1
10
169.516750
20
16897.184839
11
164.573770
21
16899.520939
0
LINE
8
Layer 1
10
164.573770
20
16899.520939
11
168.847250
21
16908.561929
0
LINE
8
Layer 1
10
168.847250
20
16908.561929
11
164.747860
21
16910.499029
0
LINE
8
Layer 1
10
164.747860
20
16910.499029
11
160.474450
21
16901.458039
0
LINE
8
Layer 1
10
160.474450
20
16901.458039
11
155.531470
21
16903.793779
0
LINE
8
Layer 1
10
155.531470
20
16903.793779
11
159.904650
21
16913.045739
0
LINE
8
Layer 1
10
159.904650
20
16913.045739
11
139.046850
21
16922.900949
0
LINE
8
Layer 1
10
139.046850
20
16922.900949
11
222.428750
21
17173.575949
0
LINE
8
Layer 1
10
222.428750
20
17173.575949
11
267.946650
21
17311.466949
0
LINE
8
Layer 1
10
267.946650
20
17311.466949
11
309.170850
21
17437.982949
0
LINE
8
Layer 1
10
309.170850
20
17437.982949
11
337.905550
21
17527.754749
0
LINE
8
Layer 1
10
337.905550
20
17527.754749
11
356.389050
21
17586.327149
0
LINE
8
Layer 1
10
356.389050
20
17586.327149
11
374.455150
21
17644.366549
0
LINE
8
Layer 1
10
374.455150
20
17644.366549
11
392.250250
21
17702.387549
0
LINE
8
Layer 1
10
392.250250
20
17702.387549
11
409.920250
21
17760.906049
0
LINE
8
Layer 1
10
409.920250
20
17760.906049
11
427.611550
21
17820.436249
0
LINE
8
Layer 1
10
427.611550
20
17820.436249
11
445.470050
21
17881.492949
0
LINE
8
Layer 1
10
445.470050
20
17881.492949
11
448.594640
21
17892.342249
0
LINE
8
Layer 1
10
448.594640
20
17892.342249
11
444.481740
21
17896.128259
0
LINE
8
Layer 1
10
444.481740
20
17896.128259
11
440.368840
21
17899.914629
0
LINE
8
Layer 1
10
440.368840
20
17899.914629
11
445.865440
21
17900.933099
0
LINE
8
Layer 1
10
445.865440
20
17900.933099
11
451.362040
21
17901.951919
0
LINE
8
Layer 1
10
451.362040
20
17901.951919
11
463.641740
21
17944.590819
0
LINE
8
Layer 1
10
463.641740
20
17944.590819
11
482.272640
21
18010.244519
0
LINE
8
Layer 1
10
482.272640
20
18010.244519
11
501.508340
21
18078.967119
0
LINE
8
Layer 1
10
501.508340
20
18078.967119
11
521.494640
21
18151.272819
0
LINE
8
Layer 1
10
521.494640
20
18151.272819
11
542.376540
21
18227.672519
0
LINE
8
Layer 1
10
542.376540
20
18227.672519
11
575.568940
21
18350.384519
0
LINE
8
Layer 1
10
575.568940
20
18350.384519
11
624.428940
21
18533.936519
0
LINE
8
Layer 1
10
624.428940
20
18533.936519
11
679.523240
21
18743.095519
0
LINE
8
Layer 1
10
679.523240
20
18743.095519
11
708.224640
21
18852.859519
0
LINE
8
Layer 1
10
44.738300
20
10922.700000
11
39.741690
21
10925.206840
0
LINE
8
Layer 1
10
39.741690
20
10925.206840
11
34.745080
21
10927.713680
0
LINE
8
Layer 1
10
34.745080
20
10927.713680
11
39.748500
21
10930.206760
0
LINE
8
Layer 1
10
39.748500
20
10930.206760
11
44.751920
21
10932.700190
0
LINE
8
Layer 1
10
44.751920
20
10932.700190
11
44.770511
21
10946.451490
0
LINE
8
Layer 1
10
44.770511
20
10946.451490
11
44.593099
21
11010.065490
0
LINE
8
Layer 1
10
44.593099
20
11010.065490
11
44.151809
21
11072.166790
0
LINE
8
Layer 1
10
44.151809
20
11072.166790
11
43.449604
21
11133.290190
0
LINE
8
Layer 1
10
43.449604
20
11133.290190
11
42.489095
21
11193.970490
0
LINE
8
Layer 1
10
42.489095
20
11193.970490
11
41.273215
21
11254.743890
0
LINE
8
Layer 1
10
41.273215
20
11254.743890
11
39.804525
21
11316.145290
0
LINE
8
Layer 1
10
39.804525
20
11316.145290
11
37.164015
21
11410.365590
0
LINE
8
Layer 1
10
37.164015
20
11410.365590
11
32.743005
21
11543.352590
0
LINE
8
Layer 1
10
32.743005
20
11543.352590
11
27.360605
21
11688.460590
0
LINE
8
Layer 1
10
27.360605
20
11688.460590
11
16.966905
21
11952.431590
0
LINE
8
Layer 1
10
16.966905
20
11952.431590
11
39.742605
21
11956.100130
0
LINE
8
Layer 1
10
39.742605
20
11956.100130
11
43.235815
21
11967.320630
0
LINE
8
Layer 1
10
43.235815
20
11967.320630
11
49.763795
21
11958.243300
0
LINE
8
Layer 1
10
49.763795
20
11958.243300
11
53.109715
21
11968.911300
0
LINE
8
Layer 1
10
53.109715
20
11968.911300
11
59.637695
21
11959.833970
0
LINE
8
Layer 1
10
59.637695
20
11959.833970
11
62.983615
21
11970.501970
0
LINE
8
Layer 1
10
62.983615
20
11970.501970
11
69.511635
21
11961.424990
0
LINE
8
Layer 1
10
69.511635
20
11961.424990
11
72.857415
21
11972.092990
0
LINE
8
Layer 1
10
72.857415
20
11972.092990
11
79.657815
21
11962.637130
0
LINE
8
Layer 1
10
79.657815
20
11962.637130
11
105.565415
21
11966.702540
0
LINE
8
Layer 1
10
105.565415
20
11966.702540
11
228.560415
21
11986.665140
0
LINE
8
Layer 1
10
228.560415
20
11986.665140
11
303.475815
21
11999.147840
0
LINE
8
Layer 1
10
303.475815
20
11999.147840
11
348.225915
21
12006.828170
0
LINE
8
Layer 1
10
348.225915
20
12006.828170
11
389.850215
21
12014.212520
0
LINE
8
Layer 1
10
389.850215
20
12014.212520
11
429.566615
21
12021.534780
0
LINE
8
Layer 1
10
429.566615
20
12021.534780
11
468.605515
21
12029.030250
0
LINE
8
Layer 1
10
468.605515
20
12029.030250
11
508.199815
21
12036.936360
0
LINE
8
Layer 1
10
508.199815
20
12036.936360
11
549.582515
21
12045.489460
0
LINE
8
Layer 1
10
549.582515
20
12045.489460
11
593.984015
21
12054.925920
0
LINE
8
Layer 1
10
593.984015
20
12054.925920
11
668.185715
21
12071.073620
0
LINE
8
Layer 1
10
668.185715
20
12071.073620
11
789.783715
21
12098.071020
0
LINE
8
Layer 1
10
789.783715
20
12098.071020
11
890.049715
21
12120.458320
0
LINE
8
Layer 1
10
890.049715
20
12120.458320
11
851.644015
21
12002.537320
0
LINE
8
Layer 1
10
851.644015
20
12002.537320
11
796.946515
21
11834.256320
0
LINE
8
Layer 1
10
796.946515
20
11834.256320
11
748.112515
21
11682.960320
0
LINE
8
Layer 1
10
748.112515
20
11682.960320
11
714.704515
21
11578.223320
0
LINE
8
Layer 1
10
714.704515
20
11578.223320
11
693.521015
21
11511.105520
0
LINE
8
Layer 1
10
693.521015
20
11511.105520
11
673.101215
21
11445.696620
0
LINE
8
Layer 1
10
673.101215
20
11445.696620
11
653.290715
21
11381.438820
0
LINE
8
Layer 1
10
653.290715
20
11381.438820
11
633.933615
21
11317.768420
0
LINE
8
Layer 1
10
633.933615
20
11317.768420
11
614.873615
21
11254.120920
0
LINE
8
Layer 1
10
614.873615
20
11254.120920
11
595.954515
21
11189.932220
0
LINE
8
Layer 1
10
595.954515
20
11189.932220
11
577.020115
21
11124.637220
0
LINE
8
Layer 1
10
577.020115
20
11124.637220
11
557.914115
21
11057.671820
0
LINE
8
Layer 1
10
557.914115
20
11057.671820
11
555.183785
21
11047.949260
0
LINE
8
Layer 1
10
555.183785
20
11047.949260
11
559.321695
21
11044.190410
0
LINE
8
Layer 1
10
559.321695
20
11044.190410
11
563.459495
21
11040.431910
0
LINE
8
Layer 1
10
563.459495
20
11040.431910
11
557.969775
21
11039.376750
0
LINE
8
Layer 1
10
557.969775
20
11039.376750
11
552.480095
21
11038.321590
0
LINE
8
Layer 1
10
552.480095
20
11038.321590
11
538.480495
21
10988.470890
0
LINE
8
Layer 1
10
538.480495
20
10988.470890
11
518.563195
21
10916.471390
0
LINE
8
Layer 1
10
518.563195
20
10916.471390
11
498.006295
21
10841.108490
0
LINE
8
Layer 1
10
498.006295
20
10841.108490
11
476.653895
21
10761.819490
0
LINE
8
Layer 1
10
476.653895
20
10761.819490
11
454.350395
21
10678.040690
0
LINE
8
Layer 1
10
454.350395
20
10678.040690
11
418.935695
21
10543.448690
0
LINE
8
Layer 1
10
418.935695
20
10543.448690
11
366.753595
21
10342.197690
0
LINE
8
Layer 1
10
366.753595
20
10342.197690
11
307.966595
21
10112.864690
0
LINE
8
Layer 1
10
307.966595
20
10112.864690
11
277.655795
21
9993.727690
0
LINE
8
Layer 1
10
277.655795
20
9993.727690
11
281.884965
21
9990.071850
0
LINE
8
Layer 1
10
281.884965
20
9990.071850
11
286.114275
21
9986.416360
0
LINE
8
Layer 1
10
286.114275
20
9986.416360
11
280.652175
21
9985.226440
0
LINE
8
Layer 1
10
280.652175
20
9985.226440
11
275.190185
21
9984.036170
0
LINE
8
Layer 1
10
275.190185
20
9984.036170
11
241.328685
21
9850.943170
0
LINE
8
Layer 1
10
241.328685
20
9850.943170
11
125.297685
21
9392.591170
0
LINE
8
Layer 1
10
125.297685
20
9392.591170
11
42.386985
21
9064.306170
0
LINE
8
Layer 1
10
42.386985
20
9064.306170
11
2.945285
21
9054.179670
0
LINE
8
Layer 1
10
2.945285
20
9054.179670
11
11.754465
21
9375.148670
0
LINE
8
Layer 1
10
11.754465
20
9375.148670
11
23.605065
21
9806.929670
0
LINE
8
Layer 1
10
23.605065
20
9806.929670
11
26.749265
21
9927.799670
0
LINE
8
Layer 1
10
26.749265
20
9927.799670
11
21.815945
21
9930.428920
0
LINE
8
Layer 1
10
21.815945
20
9930.428920
11
16.882665
21
9933.058170
0
LINE
8
Layer 1
10
16.882665
20
9933.058170
11
21.946055
21
9935.427070
0
LINE
8
Layer 1
10
21.946055
20
9935.427070
11
27.009375
21
9937.796330
0
LINE
8
Layer 1
10
27.009375
20
9937.796330
11
30.025665
21
10053.754330
0
LINE
8
Layer 1
10
30.025665
20
10053.754330
11
35.260675
21
10269.982330
0
LINE
8
Layer 1
10
35.260675
20
10269.982330
11
39.364155
21
10459.880330
0
LINE
8
Layer 1
10
39.364155
20
10459.880330
11
41.600975
21
10586.981330
0
LINE
8
Layer 1
10
41.600975
20
10586.981330
11
42.785465
21
10666.174030
0
LINE
8
Layer 1
10
42.785465
20
10666.174030
11
43.691858
21
10741.184830
0
LINE
8
Layer 1
10
43.691858
20
10741.184830
11
44.322978
21
10812.545430
0
LINE
8
Layer 1
10
44.322978
20
10812.545430
11
44.681789
21
10880.789230
0
LINE
8
Layer 1
10
44.681789
20
10880.789230
11
44.738300
21
10922.700000
0
LINE
8
Layer 1
10
435.824000
20
22914.100000
11
712.825000
21
22965.026400
0
LINE
8
Layer 1
10
712.825000
20
22965.026400
11
716.068300
21
22976.316200
0
LINE
8
Layer 1
10
716.068300
20
22976.316200
11
722.938690
21
22967.350910
0
LINE
8
Layer 1
10
722.938690
20
22967.350910
11
725.901110
21
22978.135710
0
LINE
8
Layer 1
10
725.901110
20
22978.135710
11
732.932330
21
22968.723100
0
LINE
8
Layer 1
10
732.932330
20
22968.723100
11
763.144730
21
22974.277590
0
LINE
8
Layer 1
10
763.144730
20
22974.277590
11
615.133730
21
21960.837590
0
LINE
8
Layer 1
10
615.133730
20
21960.837590
11
373.000730
21
21715.982590
0
LINE
8
Layer 1
10
373.000730
20
21715.982590
11
435.824000
21
22914.100000
0
LINE
8
Layer 1
10
719.021000
20
5023.820000
11
811.274100
21
5623.206000
0
LINE
8
Layer 1
10
811.274100
20
5623.206000
11
998.465100
21
5334.180000
0
LINE
8
Layer 1
10
998.465100
20
5334.180000
11
978.856700
21
5008.194000
0
LINE
8
Layer 1
10
978.856700
20
5008.194000
11
954.131500
21
5009.680960
0
LINE
8
Layer 1
10
954.131500
20
5009.680960
11
954.117389
21
5009.448127
0
LINE
8
Layer 1
10
954.117389
20
5009.448127
11
949.126109
21
5009.753280
0
LINE
8
Layer 1
10
949.126109
20
5009.753280
11
948.525399
21
4999.766490
0
LINE
8
Layer 1
10
948.525399
20
4999.766490
11
943.067989
21
5000.094574
0
LINE
8
Layer 1
10
943.067989
20
5000.094574
11
943.668488
21
5010.076424
0
LINE
8
Layer 1
10
943.668488
20
5010.076424
11
939.142808
21
5010.353355
0
LINE
8
Layer 1
10
939.142808
20
5010.353355
11
938.542098
21
5000.366915
0
LINE
8
Layer 1
10
938.542098
20
5000.366915
11
933.084798
21
5000.694999
0
LINE
8
Layer 1
10
933.084798
20
5000.694999
11
933.699196
21
5010.909699
0
LINE
8
Layer 1
10
933.699196
20
5010.909699
11
719.021000
21
5023.820000
0
LINE
8
Layer 1
10
957.495000
20
17652.300000
11
1199.163000
21
17591.472300
0
LINE
8
Layer 1
10
1199.163000
20
17591.472300
11
1206.807380
21
17600.398290
0
LINE
8
Layer 1
10
1206.807380
20
17600.398290
11
1209.215300
21
17589.480190
0
LINE
8
Layer 1
10
1209.215300
20
17589.480190
11
1216.506090
21
17597.957090
0
LINE
8
Layer 1
10
1216.506090
20
17597.957090
11
1218.913910
21
17587.038990
0
LINE
8
Layer 1
10
1218.913910
20
17587.038990
11
1226.204700
21
17595.515890
0
LINE
8
Layer 1
10
1226.204700
20
17595.515890
11
1228.612620
21
17584.597790
0
LINE
8
Layer 1
10
1228.612620
20
17584.597790
11
1235.903410
21
17593.074690
0
LINE
8
Layer 1
10
1235.903410
20
17593.074690
11
1238.311300
21
17582.156590
0
LINE
8
Layer 1
10
1238.311300
20
17582.156590
11
1245.602130
21
17590.633490
0
LINE
8
Layer 1
10
1245.602130
20
17590.633490
11
1248.010020
21
17579.715690
0
LINE
8
Layer 1
10
1248.010020
20
17579.715690
11
1255.300810
21
17588.192240
0
LINE
8
Layer 1
10
1255.300810
20
17588.192240
11
1257.807510
21
17576.711740
0
LINE
8
Layer 1
10
1257.807510
20
17576.711740
11
1278.458510
21
17571.513910
0
LINE
8
Layer 1
10
1278.458510
20
17571.513910
11
1291.436310
21
16635.524910
0
LINE
8
Layer 1
10
1291.436310
20
16635.524910
11
966.446310
21
16574.981510
0
LINE
8
Layer 1
10
966.446310
20
16574.981510
11
957.495000
21
17652.300000
0
LINE
8
Layer 1
10
497.610000
20
2602.720000
11
515.058600
21
2706.557000
0
LINE
8
Layer 1
10
515.058600
20
2706.557000
11
542.975500
21
2873.919000
0
LINE
8
Layer 1
10
542.975500
20
2873.919000
11
559.567900
21
2976.036000
0
LINE
8
Layer 1
10
559.567900
20
2976.036000
11
569.191680
21
3037.139600
0
LINE
8
Layer 1
10
569.191680
20
3037.139600
11
577.832910
21
3094.079400
0
LINE
8
Layer 1
10
577.832910
20
3094.079400
11
585.723710
21
3148.543400
0
LINE
8
Layer 1
10
585.723710
20
3148.543400
11
592.764910
21
3199.811200
0
LINE
8
Layer 1
10
592.764910
20
3199.811200
11
596.651610
21
3788.548200
0
LINE
8
Layer 1
10
596.651610
20
3788.548200
11
1331.683610
21
3201.234200
0
LINE
8
Layer 1
10
1331.683610
20
3201.234200
11
1327.887820
21
2626.271200
0
LINE
8
Layer 1
10
1327.887820
20
2626.271200
11
1328.120000
21
2626.270000
0
LINE
8
Layer 1
10
1328.120000
20
2626.270000
11
1328.086839
21
2621.270080
0
LINE
8
Layer 1
10
1328.086839
20
2621.270080
11
1338.087839
21
2621.204110
0
LINE
8
Layer 1
10
1338.087839
20
2621.204110
11
1338.051750
21
2615.737810
0
LINE
8
Layer 1
10
1338.051750
20
2615.737810
11
1328.050750
21
2615.803780
0
LINE
8
Layer 1
10
1328.050750
20
2615.803780
11
1328.020764
21
2611.270230
0
LINE
8
Layer 1
10
1328.020764
20
2611.270230
11
1338.021764
21
2611.204260
0
LINE
8
Layer 1
10
1338.021764
20
2611.204260
11
1337.985674
21
2605.737960
0
LINE
8
Layer 1
10
1337.985674
20
2605.737960
11
1327.751774
21
2605.701272
0
LINE
8
Layer 1
10
1327.751774
20
2605.701272
11
1327.639767
21
2588.899472
0
LINE
8
Layer 1
10
1327.639767
20
2588.899472
11
493.100767
21
1920.020472
0
LINE
8
Layer 1
10
493.100767
20
1920.020472
11
497.610000
21
2602.720000
0
LINE
8
Layer 1
10
7.732120
20
23238.300000
11
8.607500
21
24284.700000
0
LINE
8
Layer 1
10
8.607500
20
24284.700000
11
0.866387
21
24290.200000
0
LINE
8
Layer 1
10
0.866387
20
24290.200000
11
8.616600
21
24295.200000
0
LINE
8
Layer 1
10
8.616600
20
24295.200000
11
9.136420
21
24855.600000
0
LINE
8
Layer 1
10
9.136420
20
24855.600000
11
599.300420
21
24855.021691
0
LINE
8
Layer 1
10
599.300420
20
24855.021691
11
597.751620
21
24836.902491
0
LINE
8
Layer 1
10
597.751620
20
24836.902491
11
590.872630
21
24782.010591
0
LINE
8
Layer 1
10
590.872630
20
24782.010591
11
584.168400
21
24724.793491
0
LINE
8
Layer 1
10
584.168400
20
24724.793491
11
577.313290
21
24663.306691
0
LINE
8
Layer 1
10
577.313290
20
24663.306691
11
566.349390
21
24560.423691
0
LINE
8
Layer 1
10
566.349390
20
24560.423691
11
549.075090
21
24391.585691
0
LINE
8
Layer 1
10
549.075090
20
24391.585691
11
539.124350
21
24293.126491
0
LINE
8
Layer 1
10
539.124350
20
24293.126491
11
546.249970
21
24287.360401
0
LINE
8
Layer 1
10
546.249970
20
24287.360401
11
538.036280
21
24282.697981
0
LINE
8
Layer 1
10
538.036280
20
24282.697981
11
528.475860
21
24193.193381
0
LINE
8
Layer 1
10
528.475860
20
24193.193381
11
512.167960
21
24038.767381
0
LINE
8
Layer 1
10
512.167960
20
24038.767381
11
502.621050
21
23944.571281
0
LINE
8
Layer 1
10
502.621050
20
23944.571281
11
497.187070
21
23888.227381
0
LINE
8
Layer 1
10
497.187070
20
23888.227381
11
492.421960
21
23835.742581
0
LINE
8
Layer 1
10
492.421960
20
23835.742581
11
488.206260
21
23785.559681
0
LINE
8
Layer 1
10
488.206260
20
23785.559681
11
484.414950
21
23736.128881
0
LINE
8
Layer 1
10
484.414950
20
23736.128881
11
480.946540
21
23685.878981
0
LINE
8
Layer 1
10
480.946540
20
23685.878981
11
477.664220
21
23633.263881
0
LINE
8
Layer 1
10
477.664220
20
23633.263881
11
474.456130
21
23576.738281
0
LINE
8
Layer 1
10
474.456130
20
23576.738281
11
469.550650
21
23482.177081
0
LINE
8
Layer 1
10
469.550650
20
23482.177081
11
462.156530
21
23327.023081
0
LINE
8
Layer 1
10
462.156530
20
23327.023081
11
457.953430
21
23236.472081
0
LINE
8
Layer 1
10
457.953430
20
23236.472081
11
464.125250
21
23231.079551
0
LINE
8
Layer 1
10
464.125250
20
23231.079551
11
457.131250
21
23226.239971
0
LINE
8
Layer 1
10
457.131250
20
23226.239971
11
449.016830
21
23154.921971
0
LINE
8
Layer 1
10
449.016830
20
23154.921971
11
435.085530
21
23031.158971
0
LINE
8
Layer 1
10
435.085530
20
23031.158971
11
426.909720
21
22955.671471
0
LINE
8
Layer 1
10
426.909720
20
22955.671471
11
422.241830
21
22910.524471
0
LINE
8
Layer 1
10
422.241830
20
22910.524471
11
418.132000
21
22868.472671
0
LINE
8
Layer 1
10
418.132000
20
22868.472671
11
414.475810
21
22828.267671
0
LINE
8
Layer 1
10
414.475810
20
22828.267671
11
411.168200
21
22788.655771
0
LINE
8
Layer 1
10
411.168200
20
22788.655771
11
408.099000
21
22748.396971
0
LINE
8
Layer 1
10
408.099000
20
22748.396971
11
405.183710
21
22706.226071
0
LINE
8
Layer 1
10
405.183710
20
22706.226071
11
402.299500
21
22660.919071
0
LINE
8
Layer 1
10
402.299500
20
22660.919071
11
397.843810
21
22585.110971
0
LINE
8
Layer 1
10
397.843810
20
22585.110971
11
391.057000
21
22460.706971
0
LINE
8
Layer 1
10
391.057000
20
22460.706971
11
387.238710
21
22389.072371
0
LINE
8
Layer 1
10
387.238710
20
22389.072371
11
395.625900
21
22382.971671
0
LINE
8
Layer 1
10
395.625900
20
22382.971671
11
386.376200
21
22378.821451
0
LINE
8
Layer 1
10
386.376200
20
22378.821451
11
378.289290
21
22308.145251
0
LINE
8
Layer 1
10
378.289290
20
22308.145251
11
364.386290
21
22185.336251
0
LINE
8
Layer 1
10
364.386290
20
22185.336251
11
356.225410
21
22110.430451
0
LINE
8
Layer 1
10
356.225410
20
22110.430451
11
351.564680
21
22065.631551
0
LINE
8
Layer 1
10
351.564680
20
22065.631551
11
347.459790
21
22023.903951
0
LINE
8
Layer 1
10
347.459790
20
22023.903951
11
343.806170
21
21984.008851
0
LINE
8
Layer 1
10
343.806170
20
21984.008851
11
340.499190
21
21944.704851
0
LINE
8
Layer 1
10
340.499190
20
21944.704851
11
337.434470
21
21904.750351
0
LINE
8
Layer 1
10
337.434470
20
21904.750351
11
334.508280
21
21862.906751
0
LINE
8
Layer 1
10
334.508280
20
21862.906751
11
331.617580
21
21817.947851
0
LINE
8
Layer 1
10
331.617580
20
21817.947851
11
327.148480
21
21742.728451
0
LINE
8
Layer 1
10
327.148480
20
21742.728451
11
316.544780
21
21548.998451
0
LINE
8
Layer 1
10
316.544780
20
21548.998451
11
323.511580
21
21543.662821
0
LINE
8
Layer 1
10
323.511580
20
21543.662821
11
316.091780
21
21538.416621
0
LINE
8
Layer 1
10
316.091780
20
21538.416621
11
313.376310
21
21450.460621
0
LINE
8
Layer 1
10
313.376310
20
21450.460621
11
308.857510
21
21298.177621
0
LINE
8
Layer 1
10
308.857510
20
21298.177621
11
306.492980
21
21205.318721
0
LINE
8
Layer 1
10
306.492980
20
21205.318721
11
305.349100
21
21149.796021
0
LINE
8
Layer 1
10
305.349100
20
21149.796021
11
304.574011
21
21098.098521
0
LINE
8
Layer 1
10
304.574011
20
21098.098521
11
304.165812
21
21048.695521
0
LINE
8
Layer 1
10
304.165812
20
21048.695521
11
304.123196
21
21000.054521
0
LINE
8
Layer 1
10
304.123196
20
21000.054521
11
304.444894
21
20950.641221
0
LINE
8
Layer 1
10
304.444894
20
20950.641221
11
305.129883
21
20898.925421
0
LINE
8
Layer 1
10
305.129883
20
20898.925421
11
306.177103
21
20843.389721
0
LINE
8
Layer 1
10
306.177103
20
20843.389721
11
308.380373
21
20750.517021
0
LINE
8
Layer 1
10
308.380373
20
20750.517021
11
312.635793
21
20598.181021
0
LINE
8
Layer 1
10
312.635793
20
20598.181021
11
315.808393
21
20489.287021
0
LINE
8
Layer 1
10
315.808393
20
20489.287021
11
5.312393
21
20489.556896
0
LINE
8
Layer 1
10
5.312393
20
20489.556896
11
6.223795
21
21539.346896
0
LINE
8
Layer 1
10
6.223795
20
21539.346896
11
0.235565
21
21544.558906
0
LINE
8
Layer 1
10
0.235565
20
21544.558906
11
6.232965
21
21549.849906
0
LINE
8
Layer 1
10
6.232965
20
21549.849906
11
6.953867
21
22380.249906
0
LINE
8
Layer 1
10
6.953867
20
22380.249906
11
0.767167
21
22385.561016
0
LINE
8
Layer 1
10
0.767167
20
22385.561016
11
6.963077
21
22390.753026
0
LINE
8
Layer 1
10
6.963077
20
22390.753026
11
7.689694
21
23227.663026
0
LINE
8
Layer 1
10
7.689694
20
23227.663026
11
0.510764
21
23233.238756
0
LINE
8
Layer 1
10
0.510764
20
23233.238756
11
7.732120
21
23238.300000
0
LINE
8
Layer 1
10
31.591600
20
15174.100000
11
29.028280
21
15181.905210
0
LINE
8
Layer 1
10
29.028280
20
15181.905210
11
24.073410
21
15184.493540
0
LINE
8
Layer 1
10
24.073410
20
15184.493540
11
29.117010
21
15186.904420
0
LINE
8
Layer 1
10
29.117010
20
15186.904420
11
34.160500
21
15189.315660
0
LINE
8
Layer 1
10
34.160500
20
15189.315660
11
35.851720
21
15284.708560
0
LINE
8
Layer 1
10
35.851720
20
15284.708560
11
38.219710
21
15433.385560
0
LINE
8
Layer 1
10
38.219710
20
15433.385560
11
39.937810
21
15563.947560
0
LINE
8
Layer 1
10
39.937810
20
15563.947560
11
40.997200
21
15679.326560
0
LINE
8
Layer 1
10
40.997200
20
15679.326560
11
41.389313
21
15782.454560
0
LINE
8
Layer 1
10
41.389313
20
15782.454560
11
41.452002
21
15868.260760
0
LINE
8
Layer 1
10
41.452002
20
15868.260760
11
36.444422
21
15870.745730
0
LINE
8
Layer 1
10
36.444422
20
15870.745730
11
31.436912
21
15873.230700
0
LINE
8
Layer 1
10
31.436912
20
15873.230700
11
36.429322
21
15875.745650
0
LINE
8
Layer 1
10
36.429322
20
15875.745650
11
41.421692
21
15878.260960
0
LINE
8
Layer 1
10
41.421692
20
15878.260960
11
40.137302
21
15963.696360
0
LINE
8
Layer 1
10
40.137302
20
15963.696360
11
38.476322
21
16047.691760
0
LINE
8
Layer 1
10
38.476322
20
16047.691760
11
36.113312
21
16131.198860
0
LINE
8
Layer 1
10
36.113312
20
16131.198860
11
33.039032
21
16217.165260
0
LINE
8
Layer 1
10
33.039032
20
16217.165260
11
29.243812
21
16308.535160
0
LINE
8
Layer 1
10
29.243812
20
16308.535160
11
22.271012
21
16460.570160
0
LINE
8
Layer 1
10
22.271012
20
16460.570160
11
15.620512
21
16599.023160
0
LINE
8
Layer 1
10
15.620512
20
16599.023160
11
43.545412
21
16594.475150
0
LINE
8
Layer 1
10
43.545412
20
16594.475150
11
50.402922
21
16604.018500
0
LINE
8
Layer 1
10
50.402922
20
16604.018500
11
53.869492
21
16592.899600
0
LINE
8
Layer 1
10
53.869492
20
16592.899600
11
133.507392
21
16579.823900
0
LINE
8
Layer 1
10
133.507392
20
16579.823900
11
295.909392
21
16553.574700
0
LINE
8
Layer 1
10
295.909392
20
16553.574700
11
394.978692
21
16537.989700
0
LINE
8
Layer 1
10
394.978692
20
16537.989700
11
454.261292
21
16528.958940
0
LINE
8
Layer 1
10
454.261292
20
16528.958940
11
509.508592
21
16520.859510
0
LINE
8
Layer 1
10
509.508592
20
16520.859510
11
562.345092
21
16513.476570
0
LINE
8
Layer 1
10
562.345092
20
16513.476570
11
614.408492
21
16506.593170
0
LINE
8
Layer 1
10
614.408492
20
16506.593170
11
667.338592
21
16499.992690
0
LINE
8
Layer 1
10
667.338592
20
16499.992690
11
722.775792
21
16493.457830
0
LINE
8
Layer 1
10
722.775792
20
16493.457830
11
782.357392
21
16486.773040
0
LINE
8
Layer 1
10
782.357392
20
16486.773040
11
882.063292
21
16476.076440
0
LINE
8
Layer 1
10
882.063292
20
16476.076440
11
1045.662292
21
16459.221040
0
LINE
8
Layer 1
10
1045.662292
20
16459.221040
11
1170.667292
21
16446.493540
0
LINE
8
Layer 1
10
1170.667292
20
16446.493540
11
1085.739292
21
16317.622540
0
LINE
8
Layer 1
10
1085.739292
20
16317.622540
11
995.669692
21
16180.303540
0
LINE
8
Layer 1
10
995.669692
20
16180.303540
11
941.903592
21
16097.554840
0
LINE
8
Layer 1
10
941.903592
20
16097.554840
11
891.774592
21
16019.420840
0
LINE
8
Layer 1
10
891.774592
20
16019.420840
11
843.662592
21
15943.185140
0
LINE
8
Layer 1
10
843.662592
20
15943.185140
11
807.908992
21
15885.542240
0
LINE
8
Layer 1
10
807.908992
20
15885.542240
11
783.846092
21
15846.300940
0
LINE
8
Layer 1
10
783.846092
20
15846.300940
11
751.657892
21
15793.213140
0
LINE
8
Layer 1
10
751.657892
20
15793.213140
11
754.647612
21
15788.489800
0
LINE
8
Layer 1
10
754.647612
20
15788.489800
11
757.637192
21
15783.766100
0
LINE
8
Layer 1
10
757.637192
20
15783.766100
11
752.064602
21
15784.208484
0
LINE
8
Layer 1
10
752.064602
20
15784.208484
11
746.491982
21
15784.650868
0
LINE
8
Layer 1
10
746.491982
20
15784.650868
11
695.153082
21
15698.587168
0
LINE
8
Layer 1
10
695.153082
20
15698.587168
11
638.833682
21
15602.660868
0
LINE
8
Layer 1
10
638.833682
20
15602.660868
11
576.398982
21
15494.996868
0
LINE
8
Layer 1
10
576.398982
20
15494.996868
11
506.228182
21
15372.876868
0
LINE
8
Layer 1
10
506.228182
20
15372.876868
11
426.701482
21
15233.582868
0
LINE
8
Layer 1
10
426.701482
20
15233.582868
11
381.450382
21
15153.991568
0
LINE
8
Layer 1
10
381.450382
20
15153.991568
11
384.790592
21
15149.509168
0
LINE
8
Layer 1
10
384.790592
20
15149.509168
11
388.130802
21
15145.026418
0
LINE
8
Layer 1
10
388.130802
20
15145.026418
11
382.540572
21
15145.044057
0
LINE
8
Layer 1
10
382.540572
20
15145.044057
11
376.950492
21
15145.061696
0
LINE
8
Layer 1
10
376.950492
20
15145.061696
11
336.199192
21
15074.400296
0
LINE
8
Layer 1
10
336.199192
20
15074.400296
11
178.199192
21
14795.723296
0
LINE
8
Layer 1
10
178.199192
20
14795.723296
11
63.218192
21
14592.658296
0
LINE
8
Layer 1
10
63.218192
20
14592.658296
11
22.925592
21
14597.464186
0
LINE
8
Layer 1
10
22.925592
20
14597.464186
11
27.152792
21
14818.075186
0
LINE
8
Layer 1
10
27.152792
20
14818.075186
11
32.841902
21
15114.986186
0
LINE
8
Layer 1
10
32.841902
20
15114.986186
11
33.982402
21
15179.315586
0
LINE
8
Layer 1
10
1008.620000
20
19685.500000
11
1029.977900
21
19690.100930
0
LINE
8
Layer 1
10
1029.977900
20
19690.100930
11
1029.928793
21
19690.329177
0
LINE
8
Layer 1
10
1029.928793
20
19690.329177
11
1034.817203
21
19691.382217
0
LINE
8
Layer 1
10
1034.817203
20
19691.382217
11
1032.710803
21
19701.157697
0
LINE
8
Layer 1
10
1032.710803
20
19701.157697
11
1038.055393
21
19702.309167
0
LINE
8
Layer 1
10
1038.055393
20
19702.309167
11
1040.161793
21
19692.533337
0
LINE
8
Layer 1
10
1040.161793
20
19692.533337
11
1044.594203
21
19693.488307
0
LINE
8
Layer 1
10
1044.594203
20
19693.488307
11
1042.487693
21
19703.263787
0
LINE
8
Layer 1
10
1042.487693
20
19703.263787
11
1047.832313
21
19704.415257
0
LINE
8
Layer 1
10
1047.832313
20
19704.415257
11
1049.938713
21
19694.639427
0
LINE
8
Layer 1
10
1049.938713
20
19694.639427
11
1054.371123
21
19695.594397
0
LINE
8
Layer 1
10
1054.371123
20
19695.594397
11
1052.264613
21
19705.370227
0
LINE
8
Layer 1
10
1052.264613
20
19705.370227
11
1057.609203
21
19706.521337
0
LINE
8
Layer 1
10
1057.609203
20
19706.521337
11
1059.715603
21
19696.745857
0
LINE
8
Layer 1
10
1059.715603
20
19696.745857
11
1064.148013
21
19697.700474
0
LINE
8
Layer 1
10
1064.148013
20
19697.700474
11
1062.041613
21
19707.476304
0
LINE
8
Layer 1
10
1062.041613
20
19707.476304
11
1067.386133
21
19708.627414
0
LINE
8
Layer 1
10
1067.386133
20
19708.627414
11
1069.492533
21
19698.851934
0
LINE
8
Layer 1
10
1069.492533
20
19698.851934
11
1073.924903
21
19699.806904
0
LINE
8
Layer 1
10
1073.924903
20
19699.806904
11
1071.818533
21
19709.582384
0
LINE
8
Layer 1
10
1071.818533
20
19709.582384
11
1077.163013
21
19710.733854
0
LINE
8
Layer 1
10
1077.163013
20
19710.733854
11
1079.318623
21
19700.730154
0
LINE
8
Layer 1
10
1079.318623
20
19700.730154
11
1331.849623
21
19755.130654
0
LINE
8
Layer 1
10
1331.849623
20
19755.130654
11
1334.121443
21
18878.572654
0
LINE
8
Layer 1
10
1334.121443
20
18878.572654
11
1006.525443
21
18921.349454
0
LINE
8
Layer 1
10
1006.525443
20
18921.349454
11
1008.620000
21
19685.500000
0
LINE
8
Layer 1
10
621.277000
20
9446.710000
11
334.752000
21
9538.829200
0
LINE
8
Layer 1
10
334.752000
20
9538.829200
11
326.548180
21
9530.414740
0
LINE
8
Layer 1
10
326.548180
20
9530.414740
11
324.810080
21
9542.025740
0
LINE
8
Layer 1
10
324.810080
20
9542.025740
11
304.970880
21
9548.403970
0
LINE
8
Layer 1
10
304.970880
20
9548.403970
11
308.785290
21
9939.182970
0
LINE
8
Layer 1
10
308.785290
20
9939.182970
11
608.177290
21
9936.261260
0
LINE
8
Layer 1
10
608.177290
20
9936.261260
11
621.277000
21
9446.710000
0
LINE
8
Layer 1
10
1312.370000
20
13644.300000
11
1317.341100
21
13641.743070
0
LINE
8
Layer 1
10
1317.341100
20
13641.743070
11
1322.312090
21
13639.185780
0
LINE
8
Layer 1
10
1322.312090
20
13639.185780
11
1317.283800
21
13636.743150
0
LINE
8
Layer 1
10
1317.283800
20
13636.743150
11
1312.255480
21
13634.300870
0
LINE
8
Layer 1
10
1312.255480
20
13634.300870
11
1311.546678
21
13537.068170
0
LINE
8
Layer 1
10
1311.546678
20
13537.068170
11
1311.497889
21
13425.813170
0
LINE
8
Layer 1
10
1311.497889
20
13425.813170
11
1312.112993
21
13301.340170
0
LINE
8
Layer 1
10
1312.112993
20
13301.340170
11
1313.369093
21
13160.487170
0
LINE
8
Layer 1
10
1313.369093
20
13160.487170
11
1315.243473
21
13000.092170
0
LINE
8
Layer 1
10
1315.243473
20
13000.092170
11
1316.539583
21
12903.996470
0
LINE
8
Layer 1
10
1316.539583
20
12903.996470
11
1321.572803
21
12901.564070
0
LINE
8
Layer 1
10
1321.572803
20
12901.564070
11
1326.606103
21
12899.131670
0
LINE
8
Layer 1
10
1326.606103
20
12899.131670
11
1321.640193
21
12896.564500
0
LINE
8
Layer 1
10
1321.640193
20
12896.564500
11
1316.674383
21
12893.997330
0
LINE
8
Layer 1
10
1316.674383
20
12893.997330
11
1317.713103
21
12816.994030
0
LINE
8
Layer 1
10
1317.713103
20
12816.994030
11
1322.492993
21
12496.679030
0
LINE
8
Layer 1
10
1322.492993
20
12496.679030
11
1326.134583
21
12252.650030
0
LINE
8
Layer 1
10
1326.134583
20
12252.650030
11
1282.976483
21
12266.021330
0
LINE
8
Layer 1
10
1282.976483
20
12266.021330
11
1171.717483
21
12528.350330
0
LINE
8
Layer 1
10
1171.717483
20
12528.350330
11
1015.852483
21
12895.286330
0
LINE
8
Layer 1
10
1015.852483
20
12895.286330
11
972.635883
21
12996.689330
0
LINE
8
Layer 1
10
972.635883
20
12996.689330
11
967.056063
21
12997.029055
0
LINE
8
Layer 1
10
967.056063
20
12997.029055
11
961.476173
21
12997.368427
0
LINE
8
Layer 1
10
961.476173
20
12997.368427
11
965.095783
21
13001.628577
0
LINE
8
Layer 1
10
965.095783
20
13001.628577
11
968.715283
21
13005.888727
0
LINE
8
Layer 1
10
968.715283
20
13005.888727
11
926.508283
21
13104.923427
0
LINE
8
Layer 1
10
926.508283
20
13104.923427
11
847.914683
21
13288.417427
0
LINE
8
Layer 1
10
847.914683
20
13288.417427
11
778.453683
21
13449.357427
0
LINE
8
Layer 1
10
778.453683
20
13449.357427
11
716.503983
21
13591.340427
0
LINE
8
Layer 1
10
716.503983
20
13591.340427
11
674.139783
21
13687.158427
0
LINE
8
Layer 1
10
674.139783
20
13687.158427
11
647.283283
21
13747.292227
0
LINE
8
Layer 1
10
647.283283
20
13747.292227
11
621.394183
21
13804.705427
0
LINE
8
Layer 1
10
621.394183
20
13804.705427
11
604.780483
21
13841.169627
0
LINE
8
Layer 1
10
604.780483
20
13841.169627
11
599.193963
21
13841.371416
0
LINE
8
Layer 1
10
599.193963
20
13841.371416
11
593.607473
21
13841.573558
0
LINE
8
Layer 1
10
593.607473
20
13841.573558
11
597.120863
21
13845.921548
0
LINE
8
Layer 1
10
597.120863
20
13845.921548
11
600.634353
21
13850.269538
0
LINE
8
Layer 1
10
600.634353
20
13850.269538
11
596.269853
21
13859.848868
0
LINE
8
Layer 1
10
596.269853
20
13859.848868
11
571.707353
21
13913.171268
0
LINE
8
Layer 1
10
571.707353
20
13913.171268
11
547.503553
21
13965.124168
0
LINE
8
Layer 1
10
547.503553
20
13965.124168
11
523.455453
21
14016.157068
0
LINE
8
Layer 1
10
523.455453
20
14016.157068
11
499.359653
21
14066.721468
0
LINE
8
Layer 1
10
499.359653
20
14066.721468
11
475.013153
21
14117.266768
0
LINE
8
Layer 1
10
475.013153
20
14117.266768
11
450.216353
21
14168.236468
0
LINE
8
Layer 1
10
450.216353
20
14168.236468
11
411.845253
21
14246.292168
0
LINE
8
Layer 1
10
411.845253
20
14246.292168
11
357.086953
21
14356.231168
0
LINE
8
Layer 1
10
357.086953
20
14356.231168
11
265.179053
21
14538.775168
0
LINE
8
Layer 1
10
265.179053
20
14538.775168
11
176.728653
21
14713.508168
0
LINE
8
Layer 1
10
176.728653
20
14713.508168
11
309.874653
21
14674.691668
0
LINE
8
Layer 1
10
309.874653
20
14674.691668
11
472.843653
21
14627.391568
0
LINE
8
Layer 1
10
472.843653
20
14627.391568
11
572.331153
21
14598.969668
0
LINE
8
Layer 1
10
572.331153
20
14598.969668
11
631.897153
21
14582.265668
0
LINE
8
Layer 1
10
631.897153
20
14582.265668
11
687.442353
21
14567.023868
0
LINE
8
Layer 1
10
687.442353
20
14567.023868
11
740.616453
21
14552.817168
0
LINE
8
Layer 1
10
740.616453
20
14552.817168
11
793.071153
21
14539.216468
0
LINE
8
Layer 1
10
793.071153
20
14539.216468
11
846.458753
21
14525.793968
0
LINE
8
Layer 1
10
846.458753
20
14525.793968
11
902.428753
21
14512.122368
0
LINE
8
Layer 1
10
902.428753
20
14512.122368
11
962.618053
21
14497.777368
0
LINE
8
Layer 1
10
962.618053
20
14497.777368
11
1063.392053
21
14474.276668
0
LINE
8
Layer 1
10
1063.392053
20
14474.276668
11
1228.858053
21
14436.423568
0
LINE
8
Layer 1
10
1228.858053
20
14436.423568
11
1300.905053
21
14420.032468
0
LINE
8
Layer 1
10
1300.905053
20
14420.032468
11
1300.956841
21
14420.260010
0
LINE
8
Layer 1
10
1300.956841
20
14420.260010
11
1305.832871
21
14419.150520
0
LINE
8
Layer 1
10
1305.832871
20
14419.150520
11
1308.051841
21
14428.901300
0
LINE
8
Layer 1
10
1308.051841
20
14428.901300
11
1313.382771
21
14427.688450
0
LINE
8
Layer 1
10
1313.382771
20
14427.688450
11
1311.163761
21
14417.937670
0
LINE
8
Layer 1
10
1311.163761
20
14417.937670
11
1315.584841
21
14416.931900
0
LINE
8
Layer 1
10
1315.584841
20
14416.931900
11
1317.803851
21
14426.682680
0
LINE
8
Layer 1
10
1317.803851
20
14426.682680
11
1323.134751
21
14425.469830
0
LINE
8
Layer 1
10
1323.134751
20
14425.469830
11
1320.863951
21
14415.491500
0
LINE
8
Layer 1
10
1320.863951
20
14415.491500
11
1342.698051
21
14410.524030
0
LINE
8
Layer 1
10
1342.698051
20
14410.524030
11
1335.274651
21
14268.545030
0
LINE
8
Layer 1
10
1335.274651
20
14268.545030
11
1327.057071
21
14104.567030
0
LINE
8
Layer 1
10
1327.057071
20
14104.567030
11
1322.544761
21
14006.013530
0
LINE
8
Layer 1
10
1322.544761
20
14006.013530
11
1318.834841
21
13913.284030
0
LINE
8
Layer 1
10
1318.834841
20
13913.284030
11
1315.903361
21
13823.192330
0
LINE
8
Layer 1
10
1315.903361
20
13823.192330
11
1314.224351
21
13755.345030
0
LINE
8
Layer 1
10
1314.224351
20
13755.345030
11
1313.320957
21
13709.322330
0
LINE
8
Layer 1
10
1313.320957
20
13709.322330
11
1312.370000
21
13644.300000
 0 
ENDSEC
 0 
EOF